v -0.0462294193138 -0.150534749577 -0.00850001628491
v -0.0475310104153 -0.14949487214 -0.00850001628491
v -0.0462294193138 -0.150554424888 -0.00850001628491
v -0.0462294193138 -0.150534749577 -0.0234985488913
v -0.0568670669975 -0.14949487214 -0.00850001628491
v -0.0475310104153 -0.14949487214 -0.0234985488913
v -0.0568670669975 -0.151523616974 -0.00850001628491
v -0.0462294193138 -0.156939433235 -0.00850148441607
v -0.0462294193138 -0.156939433235 -0.0235000170224
v -0.0568670669975 -0.14949487214 -0.0234985488913
v -0.0568670669975 -0.155522809546 -0.00850148441607
v -0.0559424162857 -0.156939433235 -0.00850148441607
v -0.0540577117223 -0.156939433235 -0.0235000170224
v -0.0568670669975 -0.155522809546 -0.0234985488913
v -0.0559424162857 -0.156939433235 -0.0234985488913
f 1 2 5
f 1 5 7
f 1 7 3
f 1 3 8
f 1 8 9
f 1 9 4
f 1 4 6
f 1 6 2
f 2 6 10
f 2 10 5
f 3 7 8
f 4 9 6
f 5 10 14
f 5 14 11
f 5 11 7
f 6 9 13
f 6 13 10
f 7 11 12
f 7 12 8
f 8 12 15
f 8 15 13
f 8 13 9
f 10 13 14
f 11 14 15
f 11 15 12
f 13 15 14
