v -0.012174222 -0.002835182 2e-09
v -0.012174222 -0.002835181 -0.009999998
v -0.011996468 0.003512073 -0.009999997
v -0.011996467 0.003512072 3e-09
v -0.009499327 0.000112765 -0.009999998
v -0.009210501 -0.008450838 2e-09
v -0.009210501 -0.008450837 -0.009999999
v -0.008723106 0.008953059 3e-09
v -0.008723106 0.00895306 -0.009999997
v -0.008283041 -0.004652009 2e-09
v -0.004652 0.008283043 -0.009999997
v -0.003198809 0.012083771 4e-09
v -0.003198809 0.012083772 -0.009999997
v -0.000112764 -0.009499334 -0.009999999
v 0.003150923 0.012096348 3e-09
v 0.003150923 0.012096349 -0.009999997
v 0.004847331 0.008170274 3e-09
v 0.008170282 -0.004847328 -0.009999999
v 0.00828305 0.004652001 2e-09
v 0.008687581 0.008987546 3e-09
v 0.008687581 0.008987547 -0.009999998
v 0.032453969 -0.043380763 -0.010000004
v 0.041398261 -0.029585429 -0.010000003
v 0.066810183 -0.091305263 -9e-09
v 0.066810183 -0.091305256 -0.01000001
v 0.068136498 -0.09259285 -0.01000001
v 0.068136498 -0.09259285 -1e-08
v 0.06960246 -0.093718871 -0.01000001
v 0.06960246 -0.093718871 -1e-08
v 0.071188517 -0.094668299 -0.01000001
v 0.071188517 -0.094668299 -1e-08
v 0.073752306 -0.088658467 -0.01000001
v 0.083446965 -0.072317913 -8e-09
v 0.086882681 -0.075836189 -0.010000009
v 0.087814964 -0.092998408 -1e-08
v 0.117233522 -0.112505719 -1.4e-08
v 0.126218498 -0.118306108 -0.010000015
v 0.128711596 -0.124732308 -0.010000016
v 0.128711596 -0.124732308 -1.5e-08
v 0.129654214 -0.121824391 -0.010000016
v 0.134388775 -0.123153433 -0.010000016
v 0.134614304 -0.104154781 -1.3e-08
v 0.134802073 -0.126150489 -0.010000017
v 0.134802073 -0.126150489 -1.6e-08
v 0.13915354 -0.121937156 -1.5e-08
v 0.139348865 -0.105483823 -0.010000015
v 0.140817314 -0.124441184 -0.010000017
v 0.140817314 -0.124441184 -1.6e-08
v 0.141449213 -0.103262775 -0.010000014
v 0.141449213 -0.103262775 -1.4e-08
v 0.142671824 -0.118501432 -0.010000016
v 0.142784581 -0.109002098 -0.010000015
v 0.145251915 -0.120032169 -0.010000016
v 0.145251915 -0.120032169 -1.5e-08
v 0.145613045 -0.107928336 -0.010000015
v 0.145613045 -0.107928336 -1.4e-08
v 0.146995977 -0.114026904 -0.010000016
v 0.146995977 -0.114026904 -1.5e-08
f 13 12 16
f 13 9 12
f 15 16 12
f 21 50 49
f 21 20 50
f 21 13 16
f 3 9 13
f 3 7 2
f 1 7 6
f 1 2 7
f 1 3 2
f 1 4 3
f 29 35 10
f 29 36 35
f 29 10 1
f 29 39 36
f 29 6 27
f 29 1 6
f 29 31 39
f 29 27 26
f 17 20 15
f 17 50 20
f 24 26 27
f 24 27 6
f 24 6 7
f 54 57 58
f 54 48 47
f 54 35 36
f 30 31 29
f 44 48 39
f 19 50 17
f 8 15 12
f 8 17 15
f 8 4 1
f 8 1 10
f 8 12 9
f 8 10 19
f 8 19 17
f 46 21 49
f 46 49 55
f 25 26 24
f 25 24 7
f 25 30 26
f 25 7 14
f 25 32 37
f 22 25 14
f 22 32 25
f 11 3 13
f 11 13 21
f 11 21 18
f 11 18 14
f 56 54 58
f 56 50 54
f 53 54 47
f 53 57 54
f 42 35 54
f 42 54 50
f 45 36 39
f 45 54 36
f 45 39 48
f 45 48 54
f 28 29 26
f 28 26 30
f 28 30 29
f 40 38 30
f 40 30 25
f 40 25 37
f 43 38 40
f 43 40 41
f 52 55 57
f 52 46 55
f 23 18 21
f 23 21 46
f 23 14 18
f 23 22 14
f 23 32 22
f 5 11 14
f 5 3 11
f 5 14 7
f 5 7 3
f 33 50 19
f 33 42 50
f 33 35 42
f 33 10 35
f 33 19 10
f 51 52 57
f 51 53 47
f 51 57 53
f 51 47 43
f 51 43 41
f 51 40 52
f 51 41 40
f 34 32 23
f 34 23 46
f 21 15 20
f 21 16 15
f 30 38 39
f 30 39 31
f 8 3 4
f 8 9 3
f 56 57 55
f 56 58 57
f 56 49 50
f 56 55 49
f 43 48 44
f 43 47 48
f 43 39 38
f 43 44 39
f 52 37 46
f 52 40 37
f 34 46 37
f 34 37 32
