v -0.156468760046 0.204440376993 0.00100001038912
v -0.156468760046 0.201086893767 0.00100001038912
v -0.14927872991 0.198072498722 0.000998541922913
v -0.15064427186 0.200751737949 0.000998541922913
v -0.156468760046 0.204440376993 -0.0139970576349
v -0.156507186969 0.196635293975 0.000998541922913
v -0.156507186969 0.189930293704 0.000998541922913
v -0.142486699364 0.184299750005 0.0009970734567
v -0.142840776596 0.185445178331 0.0009970734567
v -0.15064427186 0.200751737949 -0.0139985261011
v -0.153487897036 0.199543227277 -0.0139985261011
v -0.156507186969 0.196635293975 -0.0139985261011
v -0.156507186969 0.189930293704 -0.0139985261011
v -0.153347911484 0.184299750005 0.000992669086402
v -0.153347911484 0.184305665004 0.0009970734567
v -0.153316345631 0.184299750005 0.0009970734567
v -0.142486699364 0.184299750005 -0.013999993539
v -0.142840776596 0.185445178331 -0.013999993539
v -0.153347911484 0.184305665004 -0.013999993539
v -0.153347911484 0.184299750005 -0.013999993539
f 1 2 3
f 1 3 4
f 1 4 10
f 1 10 5
f 1 5 12
f 1 12 6
f 1 6 7
f 1 7 2
f 2 7 8
f 2 8 3
f 3 8 9
f 3 9 4
f 4 9 18
f 4 18 10
f 5 10 11
f 5 11 12
f 6 12 13
f 6 13 7
f 7 13 20
f 7 20 14
f 7 14 15
f 7 15 16
f 7 16 8
f 8 16 14
f 8 14 20
f 8 20 17
f 8 17 18
f 8 18 9
f 10 18 19
f 10 19 11
f 11 19 12
f 12 19 20
f 12 20 13
f 14 16 15
f 17 20 19
f 17 19 18
