v -0.0343957746688 0.0290788444182 -0.0140000130774
v -0.0390221157697 0.029080214164 -0.0140000130774
v -0.0306417559714 0.0290788444182 -0.0140000130774
v -0.0343957746688 0.0290788444182 0.000998520327821
v -0.0404755682516 0.0322762630043 -0.0140000130774
v -0.0390221157697 0.029080214164 0.000998520327821
v -0.0287042402618 0.0351091276549 -0.0140000130774
v -0.0306417559714 0.0290788444182 0.000998520327821
v -0.0415823598737 0.0368647633351 0.000999988794033
v -0.0404755682516 0.0322762630043 0.000998520327821
v -0.0411966221819 0.0338811443801 -0.0139985446112
v -0.0414588236111 0.0344663549024 -0.0139985446112
v -0.0415823598737 0.0368647633351 -0.0139985446112
v -0.03963601897 0.0430800650878 -0.0139985446112
v -0.0391633003636 0.0338811443801 -0.0140000130774
v -0.0288239963551 0.0375075360876 -0.0140000130774
v -0.0287042402618 0.0351091276549 0.000998520327821
v -0.030723693918 0.0413148370737 0.000999988794033
v -0.0379518794956 0.0369278045485 0.000999988794033
v -0.03963601897 0.0430800650878 0.000999988794033
v -0.0414588236111 0.0344663549024 0.000998520327821
v -0.0411966221819 0.0338811443801 0.000998520327821
v -0.0323498495439 0.0369291784076 -0.0140000130774
v -0.0313249917551 0.0430800650878 -0.0139985446112
v -0.0288239963551 0.0375075360876 0.000998520327821
v -0.0313249917551 0.0430800650878 0.000999988794033
f 1 2 5
f 1 5 15
f 1 15 23
f 1 23 16
f 1 16 7
f 1 7 3
f 1 3 8
f 1 8 4
f 1 4 6
f 1 6 2
f 2 6 10
f 2 10 5
f 3 7 17
f 3 17 8
f 4 8 9
f 4 9 6
f 5 10 22
f 5 22 11
f 5 11 12
f 5 12 13
f 5 13 14
f 5 14 15
f 6 9 10
f 7 16 25
f 7 25 17
f 8 17 18
f 8 18 19
f 8 19 9
f 9 19 18
f 9 18 26
f 9 26 20
f 9 20 14
f 9 14 13
f 9 13 12
f 9 12 21
f 9 21 22
f 9 22 10
f 11 22 21
f 11 21 12
f 14 16 23
f 14 23 15
f 14 20 26
f 14 26 24
f 14 24 16
f 16 24 26
f 16 26 25
f 17 25 18
f 18 25 26
