v -0.169350512164 -0.142800778574 -0.0139985112754
v -0.169350512164 -0.142800778574 0.00100002328393
v -0.169350512164 -0.137637187405 -0.0139985112754
v -0.148421268758 -0.116370768582 -0.0139999792273
v -0.167834125663 -0.142800778574 -0.0139985112754
v -0.169350512164 -0.137637187405 0.000998555332123
v -0.162644616275 -0.142800778574 0.00100002328393
v -0.146638065692 -0.114381564831 0.000998555332123
v -0.148421268758 -0.116203844723 0.000998555332123
v -0.148421268758 -0.116203844723 -0.0139999792273
v -0.146638065692 -0.114612480077 -0.0139999792273
v -0.146638065692 -0.126586664233 -0.0139985112754
v -0.155689698174 -0.135097123814 -0.0139985112754
v -0.162644616275 -0.142800778574 -0.0139970428095
v -0.146638065692 -0.126586664233 0.000998555332123
v -0.146638065692 -0.114381564831 -0.0139999792273
f 1 2 6
f 1 6 3
f 1 3 10
f 1 10 4
f 1 4 5
f 1 5 14
f 1 14 7
f 1 7 2
f 2 7 8
f 2 8 9
f 2 9 6
f 3 6 9
f 3 9 10
f 4 10 16
f 4 16 11
f 4 11 12
f 4 12 13
f 4 13 5
f 5 13 14
f 7 14 12
f 7 12 15
f 7 15 8
f 8 16 10
f 8 10 9
f 8 15 12
f 8 12 11
f 8 11 16
f 12 14 13
