v -0.0607704747962 -0.131583420873 -0.00850148180142
v -0.066916632713 -0.131583420873 -0.00850001367025
v -0.0610233231311 -0.133249063402 -0.00850148180142
v -0.0610233231311 -0.133249063402 -0.0234853317887
v -0.0607713206385 -0.131584398756 -0.0235000144078
v -0.0607713206385 -0.131583420873 -0.0235000144078
v -0.0694095991847 -0.131583420873 -0.00850001367025
v -0.0694095991847 -0.133249063402 -0.00850001367025
v -0.0610258600043 -0.133249063402 -0.0235000144078
v -0.0610241689734 -0.133247433162 -0.0235000144078
v -0.0607823139733 -0.131583420873 -0.0235000144078
v -0.0694095991847 -0.131583420873 -0.0234985462766
v -0.0694095991847 -0.133249063402 -0.0234985462766
f 1 2 3
f 1 3 4
f 1 4 5
f 1 5 6
f 1 6 11
f 1 11 12
f 1 12 7
f 1 7 2
f 2 7 8
f 2 8 3
f 3 8 13
f 3 13 9
f 3 9 4
f 4 9 10
f 4 10 5
f 5 10 9
f 5 9 11
f 5 11 6
f 7 12 13
f 7 13 8
f 9 12 11
f 9 13 12
