v -0.0462294193138 -0.158417740657 -0.0085014857234
v -0.0539200012148 -0.158417740657 -0.00850001759224
v -0.0462294193138 -0.159792267025 -0.0085014857234
v -0.0462294193138 -0.158417740657 -0.0234985501986
v -0.0555573096615 -0.159792267025 -0.00850001759224
v -0.055561893486 -0.158417740657 -0.00850001759224
v -0.0462294193138 -0.159792267025 -0.0235000183298
v -0.055561893486 -0.158417740657 -0.0234985501986
v -0.0555939796038 -0.159792267025 -0.00850001759224
v -0.0555948960419 -0.159792267025 -0.0234985501986
f 1 2 3
f 1 3 7
f 1 7 4
f 1 4 8
f 1 8 6
f 1 6 2
f 2 5 3
f 2 6 9
f 2 9 5
f 3 5 9
f 3 9 10
f 3 10 7
f 4 7 8
f 6 8 10
f 6 10 9
f 7 10 8
