v -0.168682112819 0.210045269837 0.00100001141746
v -0.165163026092 0.209940905902 0.00100001141746
v -0.168682112819 0.210045269837 -0.0139970566066
v -0.168682112819 0.207900930739 0.00100001141746
v -0.158943672689 0.194245305572 0.00099854295125
v -0.156470512334 0.204437308434 0.00099854295125
v -0.158942479818 0.206002734549 0.00099854295125
v -0.165163026092 0.209940905902 -0.0139970566066
v -0.158942479818 0.206002734549 -0.0139985250728
v -0.157026341192 0.197557309769 -0.0139999925107
v -0.158942479818 0.194245305572 -0.0139999925107
v -0.168682112819 0.200020639216 -0.0139970566066
v -0.168682112819 0.200020639216 0.00099854295125
v -0.156508766496 0.189929059699 0.000995606018826
v -0.156508766496 0.195216064571 0.000997074485038
v -0.156470512334 0.204437308434 -0.0139985250728
v -0.156470512334 0.199557903712 0.000997074485038
v -0.156508766496 0.196635779351 -0.0139999925107
v -0.156508766496 0.189929059699 -0.0139999925107
v -0.156470512334 0.199557903712 -0.0139985250728
f 1 2 8
f 1 8 3
f 1 3 12
f 1 12 13
f 1 13 4
f 1 4 2
f 2 4 5
f 2 5 6
f 2 6 7
f 2 7 9
f 2 9 8
f 3 8 9
f 3 9 10
f 3 10 11
f 3 11 12
f 4 13 5
f 5 14 15
f 5 15 6
f 5 13 14
f 6 16 9
f 6 9 7
f 6 15 14
f 6 14 17
f 6 17 20
f 6 20 16
f 9 16 10
f 10 16 18
f 10 18 19
f 10 19 11
f 11 19 12
f 12 19 14
f 12 14 13
f 14 19 20
f 14 20 17
f 16 20 19
f 16 19 18
