v -0.04230300186 -0.127455681848 -0.00850001432391
v -0.0418331489002 -0.128519989354 -0.00850001432391
v -0.04230300186 -0.127455681848 -0.0234985488913
v -0.04230300186 -0.132759872422 -0.00850001432391
v -0.0418331489002 -0.128519989354 -0.0234985488913
v -0.0367345411385 -0.147151179179 -0.00850148310874
v -0.0367345411385 -0.147151179179 -0.0235000176761
v -0.04230300186 -0.145633767566 -0.0234985488913
v -0.04230300186 -0.145633767566 -0.00850148310874
v -0.0417061470564 -0.147151179179 -0.00850148310874
v -0.0417061470564 -0.147151179179 -0.0234985488913
f 1 2 5
f 1 5 3
f 1 3 8
f 1 8 9
f 1 9 4
f 1 4 2
f 2 4 6
f 2 6 7
f 2 7 5
f 3 5 7
f 3 7 8
f 4 9 10
f 4 10 6
f 6 10 11
f 6 11 7
f 7 11 8
f 8 11 10
f 8 10 9
