v -0.0444206980555 -0.124511718031 -0.00850001497758
v -0.0443379885395 -0.124562838542 -0.00850001497758
v -0.0444206980555 -0.124509751808 -0.0234985475839
v -0.0444206980555 -0.129651275279 -0.00850001497758
v -0.0443379885395 -0.124562838542 -0.0234985475839
v -0.042789723294 -0.12635401609 -0.00850001497758
v -0.0444206980555 -0.140404235319 -0.0235000157151
v -0.0444206980555 -0.1444643671 -0.00850148310874
v -0.0423032084181 -0.132759782217 -0.00850001497758
v -0.042789723294 -0.12635401609 -0.0234985475839
v -0.0423032084181 -0.127457033627 -0.00850001497758
v -0.0423032084181 -0.14459610017 -0.0235000157151
v -0.0444206980555 -0.1444643671 -0.0235000157151
v -0.0436031385573 -0.14459610017 -0.00850148310874
v -0.0423032084181 -0.14459610017 -0.00850148310874
v -0.0423032084181 -0.127457033627 -0.0234985475839
v -0.0436031385573 -0.14459610017 -0.0234985475839
v -0.0436128807777 -0.144588235275 -0.0235000157151
f 1 2 3
f 1 3 7
f 1 7 13
f 1 13 8
f 1 8 4
f 1 4 9
f 1 9 11
f 1 11 6
f 1 6 2
f 2 5 3
f 2 6 10
f 2 10 5
f 3 5 7
f 4 8 9
f 5 10 7
f 6 11 16
f 6 16 10
f 7 10 12
f 7 12 18
f 7 18 13
f 8 13 17
f 8 17 14
f 8 14 9
f 9 14 15
f 9 15 12
f 9 12 16
f 9 16 11
f 10 16 12
f 12 15 14
f 12 14 17
f 12 17 18
f 13 18 17
