v -0.0462294193138 -0.156939556124 -0.00850001693857
v -0.0559425339454 -0.156939556124 -0.00850001693857
v -0.0536464129125 -0.158195016138 -0.00850001693857
v -0.0462294193138 -0.158195016138 -0.00850148506974
v -0.0462294193138 -0.156939556124 -0.0235000176761
v -0.0559425339454 -0.156939556124 -0.00858370891283
v -0.0555964517641 -0.158195016138 -0.00850001693857
v -0.0462294193138 -0.158195016138 -0.0235000176761
v -0.0540580983651 -0.156939556124 -0.0235000176761
v -0.0559415828631 -0.156939556124 -0.0234985495449
v -0.0555964517641 -0.158195016138 -0.0235000176761
f 1 2 7
f 1 7 3
f 1 3 4
f 1 4 8
f 1 8 5
f 1 5 9
f 1 9 10
f 1 10 6
f 1 6 2
f 2 6 11
f 2 11 7
f 3 7 11
f 3 11 8
f 3 8 4
f 5 8 11
f 5 11 9
f 6 10 11
f 9 11 10
