v -0.069409600492 -0.141365729194 -0.00850148180142
v -0.069409600492 -0.131699652936 -0.00850001367025
v -0.0699729523593 -0.141297864406 -0.00850148180142
v -0.0699729523593 -0.141297864406 -0.0235000144078
v -0.069409600492 -0.141364398332 -0.0235000144078
v -0.069409600492 -0.127772808639 -0.00850001367025
v -0.0699729523593 -0.131595858808 -0.00850001367025
v -0.0699729523593 -0.12838758301 -0.0235000144078
v -0.069409600492 -0.128797433462 -0.0235000144078
v -0.069409600492 -0.127771477777 -0.0224678103414
v -0.0699729523593 -0.127925836801 -0.00850001367025
v -0.0699729523593 -0.127925836801 -0.0234985462766
v -0.069409600492 -0.127771477777 -0.0234985462766
f 1 2 3
f 1 3 4
f 1 4 5
f 1 5 9
f 1 9 13
f 1 13 10
f 1 10 6
f 1 6 2
f 2 6 11
f 2 11 7
f 2 7 3
f 3 7 11
f 3 11 12
f 3 12 8
f 3 8 4
f 4 8 9
f 4 9 5
f 6 10 11
f 8 12 13
f 8 13 9
f 10 13 12
f 10 12 11
