v 0.0169638701755 -0.0245252523108 -0.00200119416859
v 0.0169638701755 -0.0245252523108 -0.0139988489992
v 0.0118906608209 -0.0245252523108 -0.00200119416859
v 0.0105870988397 -0.0266223536889 -0.00200001980696
v 0.0467026638067 -0.0355255285922 -0.00200119416859
v 0.0351359544492 -0.0406058211368 -0.0140000233608
v 0.0118906608209 -0.0245252523108 -0.0139988489992
v 0.0467026638067 -0.0355255285922 -0.0139988489992
v 0.0491055023182 -0.0453232421063 -0.0140000233608
v 0.00341748737667 -0.0246012012188 -0.00200119416859
v 0.00400118007254 -0.0266223536889 -0.00200001980696
v 0.0351359544492 -0.0406058211368 -0.00200119416859
v 0.0491055023182 -0.0460785355681 -0.00200236853023
v 0.0491055023182 -0.0398062268876 -0.00200236853023
v -0.000580755350504 -0.0266223536889 -0.0139988489992
v 0.0491055023182 -0.0460785355681 -0.0140000233608
v 0.00341748737667 -0.0246012012188 -0.0139964992475
v 0.0491055023182 -0.0398062268876 -0.0139988489992
v -0.000580755350504 -0.0266223536889 -0.00200119416859
f 1 2 7
f 1 7 3
f 1 3 11
f 1 11 4
f 1 4 5
f 1 5 8
f 1 8 2
f 2 6 7
f 2 8 9
f 2 9 6
f 3 7 17
f 3 17 10
f 3 10 11
f 4 11 12
f 4 12 5
f 5 13 14
f 5 14 18
f 5 18 8
f 5 12 13
f 6 15 7
f 6 9 16
f 6 16 15
f 7 15 17
f 8 18 9
f 9 18 14
f 9 14 13
f 9 13 16
f 10 17 15
f 10 15 19
f 10 19 11
f 11 19 12
f 12 19 13
f 13 19 15
f 13 15 16
