v -0.108537675353 -0.146928167501 -0.0139982161426
v -0.0788430392693 -0.116518014174 -0.0139982161426
v -0.108537675353 -0.146928167501 -0.00498073577745
v -0.108537675353 -0.106675567518 -0.0139990989703
v -0.108534767214 -0.0840416963162 -0.0139999817981
v -0.107334310679 -0.0829647883628 -0.0139999817981
v -0.0788430392693 -0.106675567518 -0.0139982161426
v -0.0788430392693 -0.116518014174 -0.00498073577745
v -0.108537675353 -0.138337941835 -0.00498073577745
v -0.108537675353 -0.106675567518 -0.00500015850228
v -0.108534767214 -0.0829647883628 -0.0139999817981
v -0.097471947182 -0.0829647883628 -0.0139982161426
v -0.0788488524613 -0.102386715204 -0.0139982161426
v -0.0788430392693 -0.106675567518 -0.00498073577745
v -0.0829995908203 -0.106675567518 -0.00498073577745
v -0.0964168214738 -0.0901462677286 -0.00498161860521
v -0.108534767214 -0.0829647883628 -0.00498250143296
v -0.097471947182 -0.0829647883628 -0.00498250143296
v -0.0788488524613 -0.102386715204 -0.00498161860521
v -0.0944228400671 -0.088098888868 -0.00498161860521
f 1 2 8
f 1 8 3
f 1 3 9
f 1 9 10
f 1 10 4
f 1 4 5
f 1 5 6
f 1 6 2
f 2 7 14
f 2 14 8
f 2 6 7
f 3 8 14
f 3 14 15
f 3 15 9
f 4 10 17
f 4 17 11
f 4 11 5
f 5 11 6
f 6 11 17
f 6 17 18
f 6 18 12
f 6 12 13
f 6 13 7
f 7 13 19
f 7 19 14
f 9 15 16
f 9 16 17
f 9 17 10
f 12 18 19
f 12 19 13
f 14 19 20
f 14 20 15
f 15 20 16
f 16 20 17
f 17 20 18
f 18 20 19
