v -0.180642472532 -0.157699612212 -0.0139985092188
v -0.180642472532 -0.1484899695 -0.0139999776847
v -0.17645986188 -0.152866977076 -0.0139999776847
v -0.175174843093 -0.153625421241 -0.0139999776847
v -0.175174843093 -0.157616267513 -0.0139985092188
v -0.175174843093 -0.157616267513 0.0010000237981
v -0.180642472532 -0.157698221899 0.00099855636046
v -0.180642472532 -0.146748052128 -0.0139999776847
v -0.175174843093 -0.143510092885 -0.0139999776847
v -0.175174843093 -0.148010731311 0.0010000237981
v -0.180642472532 -0.152844756759 0.0010000237981
v -0.180642472532 -0.146748052128 0.00099855636046
v -0.175174843093 -0.143508702573 -0.00260021129639
v -0.175174843093 -0.143508702573 0.00099855636046
v -0.180642472532 -0.148196868628 0.0010000237981
f 1 2 3
f 1 3 4
f 1 4 5
f 1 5 6
f 1 6 7
f 1 7 11
f 1 11 15
f 1 15 12
f 1 12 8
f 1 8 2
f 2 8 9
f 2 9 4
f 2 4 3
f 4 9 13
f 4 13 14
f 4 14 10
f 4 10 6
f 4 6 5
f 6 10 15
f 6 15 11
f 6 11 7
f 8 12 14
f 8 14 13
f 8 13 9
f 10 14 15
f 12 15 14
