v 0.0584581841896 -0.0178943581667 -0.00200119519693
v 0.0504668404237 -0.0178943581667 -0.00200002032113
v 0.0584581841896 -0.0240104829199 -0.00200119519693
v 0.0584581841896 -0.0178943581667 -0.0139988469425
v 0.0492686789418 -0.0178943581667 -0.00200119519693
v 0.0492686789418 -0.0263668652481 -0.00200119519693
v 0.0584581841896 -0.0240187836616 -0.0139718304549
v 0.0584581841896 -0.0192711953778 -0.0140000218183
v 0.0492686789418 -0.0178943581667 -0.0139988469425
v 0.0492686789418 -0.0263660343513 -0.0140000218183
v 0.0584581841896 -0.0240121447136 -0.0140000218183
f 1 2 3
f 1 3 7
f 1 7 11
f 1 11 8
f 1 8 4
f 1 4 9
f 1 9 5
f 1 5 2
f 2 5 6
f 2 6 3
f 3 6 7
f 4 8 9
f 5 9 10
f 5 10 6
f 6 10 7
f 7 10 11
f 8 11 10
f 8 10 9
