v -0.0397348905047 -0.0478794424868 -0.0139985148746
v -0.0415819780107 -0.0368667703616 -0.0139999828264
v -0.041158829463 -0.0381397123524 -0.0139999828264
v -0.0408222813308 -0.0391466275411 -0.0139999828264
v -0.0343471402678 -0.040303959715 -0.0139999828264
v -0.0315770026108 -0.0478794424868 -0.0139985148746
v -0.0397368587428 -0.0478794424868 -0.0105847513069
v -0.0414973478899 -0.0351798772738 -0.0139999828264
v -0.0415819780107 -0.0368667703616 0.000998551732941
v -0.0380127789137 -0.0351798772738 -0.0139999828264
v -0.0343471402678 -0.0388781162757 -0.0139985148746
v -0.031528781808 -0.044506898543 -0.0139985148746
v -0.0315770026108 -0.0478794424868 0.00100001968475
v -0.0397358735954 -0.0478794424868 0.00100001968475
v -0.0414973478899 -0.0351798772738 0.000998551732941
v -0.0380127789137 -0.0351798772738 0.000998551732941
v -0.0343471402678 -0.0388781162757 0.000997083266969
v -0.031528781808 -0.044506898543 -0.010719833723
v -0.0315297648987 -0.044506898543 0.00100001968475
v -0.0395636640817 -0.044506898543 0.00100001968475
f 1 2 3
f 1 3 4
f 1 4 5
f 1 5 6
f 1 6 13
f 1 13 14
f 1 14 7
f 1 7 2
f 2 8 10
f 2 10 5
f 2 5 4
f 2 4 3
f 2 7 9
f 2 9 15
f 2 15 8
f 5 10 11
f 5 11 12
f 5 12 6
f 6 12 18
f 6 18 13
f 7 14 9
f 8 15 16
f 8 16 10
f 9 14 15
f 10 16 17
f 10 17 11
f 11 17 18
f 11 18 12
f 13 18 19
f 13 19 20
f 13 20 14
f 14 20 15
f 15 20 19
f 15 19 16
f 16 19 17
f 17 19 18
