v -0.0444206993629 -0.14446565482 -0.00850148310874
v -0.0444206993629 -0.132521456026 -0.00850001497758
v -0.0452781971274 -0.134803667889 -0.00850001497758
v -0.0452781971274 -0.144335877515 -0.00850148310874
v -0.0452781971274 -0.144335877515 -0.0235000157151
v -0.0444206993629 -0.144464486067 -0.0235000157151
v -0.0452781971274 -0.132521456026 -0.00850001497758
v -0.0444206993629 -0.132521456026 -0.0234985475839
v -0.0452781971274 -0.139891877804 -0.0235000157151
v -0.0444206993629 -0.140405141952 -0.0235000157151
v -0.0452781971274 -0.132521456026 -0.0234985475839
f 1 2 3
f 1 3 4
f 1 4 5
f 1 5 6
f 1 6 10
f 1 10 8
f 1 8 2
f 2 7 3
f 2 8 11
f 2 11 7
f 3 7 11
f 3 11 9
f 3 9 5
f 3 5 4
f 5 9 10
f 5 10 6
f 8 10 9
f 8 9 11
