v -0.00997931513989 -0.0251981834353 -0.0139999828264
v -0.00816388808934 -0.026969478353 -0.0139999828264
v -0.00815195937416 -0.0326811281707 -0.0139985143605
v -0.00997931513989 -0.0251981834353 0.000998551218773
v -0.00749379045719 -0.0251981834353 -0.0139999828264
v -0.00586130053736 -0.0287649474291 -0.0139999828264
v -0.00815195937416 -0.0326811281707 0.00100001865641
v 0.00302494236566 -0.0326811281707 -0.0139985143605
v -0.00816388808934 -0.026969478353 0.00100001865641
v -0.00373965925467 -0.0251981834353 0.00100001865641
v 0.0103343654286 -0.0251981834353 -0.0139985143605
v -0.00541788551386 -0.0287649474291 -0.0139999828264
v 0.00302494236566 -0.0326811281707 0.00100001865641
v 0.0068526449474 -0.0287649474291 -0.0139985143605
v 0.0103343654286 -0.0251981834353 0.00100001865641
v 0.0068526449474 -0.0287649474291 0.000998551218773
v 0.00685065408597 -0.0287649474291 0.00100001865641
f 1 2 3
f 1 3 7
f 1 7 4
f 1 4 10
f 1 10 15
f 1 15 11
f 1 11 5
f 1 5 12
f 1 12 6
f 1 6 2
f 2 6 3
f 3 6 12
f 3 12 8
f 3 8 13
f 3 13 7
f 4 7 9
f 4 9 10
f 5 11 12
f 7 13 17
f 7 17 15
f 7 15 10
f 7 10 9
f 8 12 14
f 8 14 16
f 8 16 13
f 11 15 16
f 11 16 14
f 11 14 12
f 13 16 17
f 15 17 16
