v 0.0582497360278 -0.0472153258571 -0.0140000243891
v 0.0560331171308 -0.047665309974 -0.0139988495133
v 0.0506159576145 -0.046666884577 -0.0139988495133
v 0.0491103642987 -0.0460776635377 -0.0139988495133
v 0.0582497360278 -0.0472145607738 -0.0140000243891
v 0.0614317172086 -0.0465699575803 -0.0140000243891
v 0.0560331171308 -0.047665309974 -0.00200119776777
v 0.0506159576145 -0.046666884577 -0.00200119776777
v 0.0491103642987 -0.0398078475477 -0.0139988495133
v 0.0491103642987 -0.0460776635377 -0.00200119776777
v 0.0680760044228 -0.039960148472 -0.0139988495133
v 0.0660301800749 -0.0435408202861 -0.0139988495133
v 0.0614317172086 -0.0465699575803 -0.00200237264358
v 0.0533356804398 -0.0423131578527 -0.00200002289197
v 0.0582497360278 -0.0472145607738 -0.00200119776777
v 0.0582497360278 -0.0423770052828 -0.00200002289197
v 0.0491103642987 -0.0398078475477 -0.00200002289197
v 0.0491103642987 -0.039827846659 -0.00200002289197
v 0.0680760044228 -0.039960148472 -0.00200002289197
v 0.0660301800749 -0.0435408202861 -0.00200237264358
f 1 2 3
f 1 3 4
f 1 4 9
f 1 9 5
f 1 5 6
f 1 6 2
f 2 6 13
f 2 13 7
f 2 7 8
f 2 8 3
f 3 8 10
f 3 10 4
f 4 10 18
f 4 18 17
f 4 17 9
f 5 9 6
f 6 11 12
f 6 12 20
f 6 20 13
f 6 9 11
f 7 14 8
f 7 13 15
f 7 15 16
f 7 16 14
f 8 14 10
f 9 17 19
f 9 19 11
f 10 14 18
f 11 19 20
f 11 20 12
f 13 20 19
f 13 19 15
f 14 16 19
f 14 19 17
f 14 17 18
f 15 19 16
