v -0.0233046237313 -0.0121938436627 -0.0139999848831
v -0.0233027562703 -0.0121938436627 0.000998550190435
v -0.023274740243 -0.0121938436627 -0.0139999848831
v -0.0232840775477 -0.012205303456 -0.0139999848831
v -0.00998021596356 -0.0251978379139 -0.0139985164171
v -0.00998021596356 -0.0251978379139 0.000998550190435
v -0.00422386225741 -0.0251978379139 0.00100001762807
v -0.0118815667836 -0.0121938436627 0.000998550190435
v -0.0118815667836 -0.0121938436627 -0.0139985164171
v -0.00422386225741 -0.0164949887235 -0.0139985164171
v -0.00422386225741 -0.0251978379139 -0.0139985164171
v -0.00422386225741 -0.0164949887235 0.000998550190435
f 1 2 8
f 1 8 9
f 1 9 3
f 1 3 4
f 1 4 5
f 1 5 6
f 1 6 2
f 2 6 7
f 2 7 8
f 3 9 10
f 3 10 11
f 3 11 4
f 4 11 5
f 5 11 7
f 5 7 6
f 7 11 10
f 7 10 12
f 7 12 8
f 8 12 10
f 8 10 9
