v -0.0362836444582 -0.148800716714 -0.00850148441607
v -0.0367350379238 -0.147153107163 -0.00850001628491
v -0.0383897812452 -0.148800716714 -0.00850001628491
v -0.0362836444582 -0.148800716714 -0.0235000170224
v -0.0417058973565 -0.147153107163 -0.00850001628491
v -0.0367350379238 -0.147153107163 -0.0235000170224
v -0.0419280035084 -0.148800716714 -0.00850001628491
v -0.0391544435721 -0.148800716714 -0.0235000170224
v -0.0417058973565 -0.147153107163 -0.0234985488913
v -0.0419280035084 -0.148800716714 -0.0234985488913
f 1 2 3
f 1 3 7
f 1 7 10
f 1 10 8
f 1 8 4
f 1 4 6
f 1 6 2
f 2 5 7
f 2 7 3
f 2 6 9
f 2 9 5
f 4 8 6
f 5 9 10
f 5 10 7
f 6 8 9
f 8 10 9
