v -0.0961731239866 0.0801868149262 0.000999994964059
v -0.0961731239866 0.0801868149262 0.000804713123788
v -0.113246456182 0.0801868149262 0.000999994964059
v -0.0839140472068 0.0774949569671 0.000999994964059
v -0.0808682940323 0.0774964372592 0.000998526497847
v -0.0961762933234 0.0801868149262 -0.0139985394695
v -0.0808682940323 0.0774964372592 -0.0139985394695
v -0.113246456182 0.0801868149262 -0.0139970715175
v -0.110619057514 0.0774949569671 0.000999994964059
v -0.0839140472068 0.0763385537076 0.000999994964059
v -0.0839140472068 0.0718580468295 0.000998526497847
v -0.0872957521325 0.0650602904995 0.000997058545804
v -0.104394439022 0.0801868149262 -0.0139985394695
v -0.0912225870909 0.0692920450628 -0.0140000079357
v -0.0872957521325 0.0650602904995 -0.0140000079357
v -0.10260692076 0.0692920450628 -0.0139985394695
v -0.110619057514 0.0774949569671 -0.0139970715175
v -0.0984740789137 0.0650602904995 0.000998526497847
v -0.0924998380241 0.0650602904995 0.000998526497847
v -0.0927185243159 0.0692920450628 -0.0140000079357
v -0.0886744218414 0.0650602904995 -0.0140000079357
v -0.0984740789137 0.0650602904995 -0.0139985394695
f 1 2 6
f 1 6 13
f 1 13 8
f 1 8 3
f 1 3 9
f 1 9 10
f 1 10 4
f 1 4 5
f 1 5 7
f 1 7 2
f 2 7 6
f 3 8 17
f 3 17 9
f 4 10 5
f 5 10 11
f 5 11 12
f 5 12 15
f 5 15 7
f 6 7 14
f 6 14 20
f 6 20 13
f 7 15 14
f 8 13 16
f 8 16 17
f 9 17 22
f 9 22 18
f 9 18 10
f 10 18 19
f 10 19 11
f 11 19 12
f 12 19 18
f 12 18 22
f 12 22 21
f 12 21 15
f 13 20 16
f 14 15 21
f 14 21 20
f 16 20 21
f 16 21 22
f 16 22 17
