v -0.0478946644141 -0.146272565263 -0.00850148441607
v -0.0487617592854 -0.146272565263 -0.00850001628491
v -0.0487542427938 -0.147153106837 -0.00850001628491
v -0.0480285892219 -0.147153106837 -0.00850148441607
v -0.0480285892219 -0.147153106837 -0.0235000170224
v -0.0478953474938 -0.146272565263 -0.0235000170224
v -0.0494464150003 -0.146272565263 -0.00850001628491
v -0.0548751502925 -0.147153106837 -0.00850148441607
v -0.0487542427938 -0.147153106837 -0.0235000170224
v -0.0494464150003 -0.146272565263 -0.0235000170224
v -0.0548751502925 -0.146272565263 -0.00850148441607
v -0.0548751502925 -0.147153106837 -0.0234985488913
v -0.0548751502925 -0.146272565263 -0.0234985488913
f 1 2 3
f 1 3 4
f 1 4 5
f 1 5 6
f 1 6 10
f 1 10 13
f 1 13 11
f 1 11 7
f 1 7 2
f 2 7 3
f 3 7 8
f 3 8 12
f 3 12 9
f 3 9 5
f 3 5 4
f 5 9 10
f 5 10 6
f 7 11 8
f 8 11 13
f 8 13 12
f 9 12 10
f 10 12 13
