v -0.0356373598363 0.151504329486 0.0659499975441
v -0.0365709278221 0.163256727068 0.065948529413
v -0.0370270028246 0.164623576765 0.065948529413
v -0.0380685653863 0.165620075676 0.065948529413
v -0.0394546367503 0.16601710383 0.065948529413
v -0.0447508086978 0.166206988224 0.065948529413
v -0.0447508086978 0.150955078489 0.0659499975441
v -0.0356337895191 0.151330138276 0.0659499975441
v -0.0356328979203 0.151330138276 0.0509514652797
v -0.0356373598363 0.151504329486 0.0509514652797
v -0.0365709278221 0.163256727068 0.0509499971485
v -0.0370270028246 0.164623576765 0.0509499971485
v -0.0380685653863 0.165620075676 0.0509499971485
v -0.0394546367503 0.16601710383 0.0509499971485
v -0.0447508086978 0.166205419428 0.0509499971485
v -0.0447508086978 0.150766764197 0.0659499975441
v -0.0356498552925 0.151159085965 0.0659499975441
v -0.0356498552925 0.151159085965 0.0509514652797
v -0.0447508086978 0.163969183785 0.0509499971485
v -0.0356855558491 0.150989603102 0.0509514652797
v -0.0359077914216 0.150175142648 0.0509514652797
v -0.042981848603 0.150175142648 0.0509514652797
v -0.0447508086978 0.150766764197 0.0509514652797
v -0.042981848603 0.150175142648 0.0659499975441
v -0.0356855558491 0.150989603102 0.0659499975441
v -0.0359077914216 0.150175142648 0.0659499975441
f 1 2 3
f 1 3 4
f 1 4 5
f 1 5 6
f 1 6 7
f 1 7 16
f 1 16 24
f 1 24 26
f 1 26 25
f 1 25 17
f 1 17 8
f 1 8 9
f 1 9 10
f 1 10 11
f 1 11 2
f 2 11 12
f 2 12 3
f 3 12 13
f 3 13 4
f 4 13 14
f 4 14 5
f 5 14 6
f 6 14 15
f 6 15 19
f 6 19 23
f 6 23 16
f 6 16 7
f 8 17 9
f 9 17 18
f 9 18 11
f 9 11 10
f 11 19 15
f 11 15 14
f 11 14 13
f 11 13 12
f 11 18 20
f 11 20 21
f 11 21 22
f 11 22 19
f 16 23 22
f 16 22 24
f 17 25 20
f 17 20 18
f 19 22 23
f 20 25 26
f 20 26 21
f 21 26 24
f 21 24 22
