v 0.0191885923735 0.0163940317241 -0.00200074478502
v 0.0317613121467 0.00587895806864 -0.00200074478502
v 0.0191885923735 0.0163940317241 -0.00500470785858
v 0.0184842057403 0.0163940317241 0.000999692118612
v 0.0242203391527 0.00618568240618 0.000999104423625
v 0.0242176819281 0.00587895806864 0.000999104423625
v 0.0317613121467 0.00587895806864 -0.00500411990651
v 0.021017355203 0.0118909574613 0.000999692118612
v 0.0245605708453 0.0118909574613 -0.00500470785858
v 0.00460902636392 0.0163940317241 -0.00500470785858
v 0.016788345273 0.0163940317241 0.000999692118612
v 0.0210146979785 0.0118888925592 0.000999692118612
v 0.0155656353139 0.00587895806864 0.000999104423625
v 0.0155682925384 0.00587895806864 -0.00500411990651
v 0.0188031714097 0.0118909574613 -0.00500470785858
v 0.01218987418 0.011895070812 -0.00500470785858
v 0.0155656353139 0.00587895806864 -0.00198663856285
v 0.00460636913935 0.0163940317241 -0.00198605086786
v 0.00460636913935 0.0163940317241 0.000992051055454
v 0.0121872169554 0.0118971274874 0.000999692118612
f 1 2 7
f 1 7 3
f 1 3 10
f 1 10 18
f 1 18 19
f 1 19 11
f 1 11 4
f 1 4 2
f 2 5 6
f 2 6 13
f 2 13 17
f 2 17 14
f 2 14 7
f 2 4 8
f 2 8 5
f 3 7 9
f 3 9 15
f 3 15 16
f 3 16 10
f 4 11 20
f 4 20 12
f 4 12 8
f 5 8 6
f 6 8 12
f 6 12 13
f 7 14 15
f 7 15 9
f 10 16 14
f 10 14 17
f 10 17 18
f 11 19 20
f 12 20 13
f 13 20 19
f 13 19 18
f 13 18 17
f 14 16 15
