v -0.012174238 0.002835209 0.002000037
v -0.012174238 0.00283521 0.012000037
v -0.011996482 -0.003512045 0.002000037
v -0.011996482 -0.003512044 0.012000037
v -0.009499343 -0.000112736 0.012000037
v -0.009210519 0.008450866 0.002000036
v -0.009210519 0.008450867 0.012000036
v -0.00872312 -0.008953032 0.002000038
v -0.00872312 -0.008953031 0.012000038
v -0.008283058 0.004652038 0.012000037
v -0.003198822 -0.012083742 0.002000039
v -0.003198822 -0.012083741 0.012000039
v 0.003150909 -0.012096317 0.012000039
v 0.00315091 -0.012096318 0.002000039
v 0.004847317 -0.008170244 0.002000039
v 0.007753496 0.01349341 0.012000036
v 0.008687567 -0.008987514 0.002000039
v 0.008687567 -0.008987513 0.012000039
v 0.014671116 0.007130374 0.012000037
v 0.019005422 0.007940034 0.002000037
v 0.037118148 0.048714284 0.012000035
v 0.038014572 0.052525468 0.012000035
v 0.049686767 0.038321178 0.002000035
v 0.061697658 0.075770535 0.002000032
v 0.066810153 0.091305301 0.002000031
v 0.066810153 0.091305301 0.012000032
v 0.068136461 0.092592895 0.002000031
v 0.068136461 0.092592895 0.012000032
v 0.06960243 0.093718916 0.002000031
v 0.06960243 0.093718916 0.012000032
v 0.07118848 0.094668344 0.002000031
v 0.07118848 0.094668344 0.012000031
v 0.086654782 0.095839836 0.002000031
v 0.086769879 0.085335568 0.012000033
v 0.088013269 0.067492574 0.002000034
v 0.123452984 0.096042223 0.012000034
v 0.128711551 0.124732368 0.00200003
v 0.128711551 0.124732368 0.012000031
v 0.134802029 0.126150548 0.00200003
v 0.134802029 0.126150548 0.012000031
v 0.14081727 0.124441244 0.002000031
v 0.14081727 0.124441244 0.012000031
v 0.141449168 0.103262827 0.002000033
v 0.141449168 0.103262834 0.012000034
v 0.14525187 0.120032229 0.002000031
v 0.14525187 0.120032229 0.012000032
v 0.145613 0.107928395 0.002000032
v 0.145613 0.107928395 0.012000033
v 0.146995932 0.114026964 0.002000032
v 0.146995932 0.114026964 0.012000033
f 12 14 13
f 12 13 9
f 17 13 14
f 47 43 49
f 44 17 43
f 44 43 47
f 3 1 6
f 3 9 4
f 19 9 13
f 18 13 17
f 18 44 13
f 18 17 44
f 25 26 27
f 35 33 49
f 35 49 43
f 35 43 20
f 15 43 17
f 15 20 43
f 8 12 9
f 8 9 3
f 41 45 49
f 41 39 42
f 36 13 44
f 36 19 13
f 24 6 25
f 24 25 33
f 24 35 6
f 24 33 35
f 23 20 6
f 23 6 35
f 23 35 20
f 11 6 20
f 11 20 15
f 11 3 6
f 11 8 3
f 11 17 14
f 11 15 17
f 11 14 12
f 11 12 8
f 10 7 2
f 31 25 27
f 31 27 29
f 37 33 25
f 37 49 33
f 37 41 49
f 37 25 31
f 37 39 41
f 48 36 44
f 48 44 47
f 40 42 39
f 40 37 38
f 40 39 37
f 5 2 4
f 5 10 2
f 5 4 9
f 5 9 19
f 30 7 10
f 30 40 38
f 46 36 48
f 46 40 36
f 46 48 50
f 46 42 40
f 46 50 49
f 46 49 45
f 28 26 7
f 28 7 30
f 28 27 26
f 16 5 19
f 16 10 5
f 32 30 38
f 32 38 37
f 32 37 31
f 32 29 30
f 32 31 29
f 34 40 30
f 34 19 36
f 34 36 40
f 22 30 10
f 22 10 16
f 21 16 19
f 21 22 16
f 21 19 34
f 21 34 30
f 21 30 22
f 3 4 2
f 3 2 1
f 7 1 2
f 7 6 1
f 7 25 6
f 7 26 25
f 48 49 50
f 48 47 49
f 46 45 41
f 46 41 42
f 28 30 29
f 28 29 27
