v -0.141918457189 -0.118313931605 -0.00498073834829
v -0.141918457189 -0.118313931605 0.00100002225559
v -0.141918457189 -0.109544697058 -0.00498073834829
v -0.141225744359 -0.118313931605 -0.00498073834829
v -0.141225744359 -0.118313931605 0.00100002225559
v -0.141918457189 -0.11767025402 0.00100002225559
v -0.141918457189 -0.109544697058 0.000999436617374
v -0.137242664091 -0.104755188341 -0.00498073834829
v -0.108537675353 -0.0848877188456 -0.00498073834829
v -0.108537675353 -0.0848877188456 0.000999436617374
v -0.140049449641 -0.116220252876 0.00100002225559
v -0.115958167094 -0.0829601485039 0.000999436617374
v -0.115958167094 -0.0829601485039 -0.00498073834829
v -0.108537675353 -0.0829601485039 -0.00498073834829
v -0.108537675353 -0.0829601485039 0.000999436617374
f 1 2 6
f 1 6 7
f 1 7 3
f 1 3 8
f 1 8 13
f 1 13 14
f 1 14 9
f 1 9 4
f 1 4 5
f 1 5 2
f 2 5 11
f 2 11 6
f 3 7 8
f 4 9 10
f 4 10 5
f 5 10 11
f 6 11 12
f 6 12 7
f 7 12 8
f 8 12 13
f 9 14 15
f 9 15 10
f 10 15 11
f 11 15 12
f 12 15 14
f 12 14 13
