v -0.0682254396204 -0.142166842812 -0.0235000144078
v -0.0684601706545 -0.141906686505 -0.0235000144078
v -0.0682254396204 -0.140098686239 -0.0235000144078
v -0.0682254396204 -0.142166842812 -0.00850148180142
v -0.0684601706545 -0.140322176199 -0.0235000144078
v -0.0684601706545 -0.141906686505 -0.00850148180142
v -0.0684601706545 -0.133249936698 -0.0234985462766
v -0.0682254396204 -0.133249936698 -0.0234985462766
v -0.0682254396204 -0.133249936698 -0.00850001367025
v -0.0684601706545 -0.133249936698 -0.00850001367025
f 1 2 5
f 1 5 3
f 1 3 8
f 1 8 9
f 1 9 4
f 1 4 6
f 1 6 2
f 2 6 10
f 2 10 7
f 2 7 5
f 3 5 7
f 3 7 8
f 4 9 10
f 4 10 6
f 7 10 9
f 7 9 8
