v -0.0610232724721 -0.133249063402 -0.00850001497758
v -0.06450430364 -0.133249063402 -0.00850001497758
v -0.0604119187293 -0.134812259005 -0.00850001497758
v -0.0610232724721 -0.133249063402 -0.0234853330961
v -0.06450430364 -0.133249063402 -0.0234985475839
v -0.06450430364 -0.139445130915 -0.00850001497758
v -0.0604119187293 -0.134812259005 -0.0234985475839
v -0.0604119187293 -0.13673700969 -0.00850001497758
v -0.0610252753011 -0.133249063402 -0.0234985475839
v -0.06450430364 -0.145198115657 -0.0235000157151
v -0.06450430364 -0.14654154196 -0.00850148310874
v -0.0604119187293 -0.151355191737 -0.00850148310874
v -0.0604119187293 -0.148586811441 -0.0235000157151
v -0.06450430364 -0.14654154196 -0.0235000157151
v -0.0604119187293 -0.151355191737 -0.0235000157151
f 1 2 6
f 1 6 8
f 1 8 3
f 1 3 7
f 1 7 4
f 1 4 9
f 1 9 5
f 1 5 2
f 2 5 10
f 2 10 14
f 2 14 11
f 2 11 6
f 3 8 12
f 3 12 15
f 3 15 13
f 3 13 7
f 4 7 9
f 5 9 10
f 6 11 12
f 6 12 8
f 7 13 9
f 9 13 10
f 10 13 15
f 10 15 14
f 11 14 15
f 11 15 12
