v -0.055178515846 -0.12991209669 -0.0235000144078
v -0.0564869116391 -0.12991209669 -0.0234985462766
v -0.0564908784857 -0.129909142125 -0.0235000144078
v -0.055178515846 -0.126125194186 -0.0235000144078
v -0.055178515846 -0.12991209669 -0.00850001367025
v -0.0568670669975 -0.129852427552 -0.0235000144078
v -0.0564869116391 -0.12991209669 -0.00850148180142
v -0.0568670669975 -0.127665359217 -0.0235000144078
v -0.0568670669975 -0.124339856479 -0.0234985462766
v -0.055178515846 -0.123877274886 -0.0234985462766
v -0.055178515846 -0.123877865799 -0.00850001367025
v -0.0568670669975 -0.128319943082 -0.00850001367025
v -0.0568670669975 -0.129852427552 -0.00850148180142
v -0.0568670669975 -0.124339856479 -0.00850001367025
v -0.055178515846 -0.123877274886 -0.0212388554544
f 1 2 3
f 1 3 6
f 1 6 8
f 1 8 4
f 1 4 10
f 1 10 15
f 1 15 11
f 1 11 5
f 1 5 7
f 1 7 2
f 2 6 3
f 2 7 13
f 2 13 6
f 4 8 9
f 4 9 10
f 5 11 14
f 5 14 12
f 5 12 13
f 5 13 7
f 6 13 12
f 6 12 14
f 6 14 9
f 6 9 8
f 9 14 15
f 9 15 10
f 11 15 14
