v -0.0867367287453 -0.0959781219752 0.000999437645711
v -0.0858344695222 -0.0964859222389 0.000999437645711
v -0.0867367287453 -0.0959781219752 -0.00498073834829
v -0.0877717360583 -0.095990686203 0.000999437645711
v -0.0788430392693 -0.106327835187 0.00100002328393
v -0.0858344695222 -0.0964859222389 -0.00498073834829
v -0.0788430392693 -0.102386881795 0.000999437645711
v -0.0877749753215 -0.0959927798982 -0.00498073834829
v -0.0886621241532 -0.0965194265035 -0.00498073834829
v -0.0886621241532 -0.0965194265035 0.000999437645711
v -0.0792769010373 -0.106673348366 0.00100002328393
v -0.0788430392693 -0.106673348366 0.00100002328393
v -0.0788430392693 -0.102386881795 -0.00498073834829
v -0.0893593246489 -0.0972324418019 -0.00498073834829
v -0.0893614841577 -0.0972345354971 0.000999437645711
v -0.0898687342608 -0.0981370600313 0.000999437645711
v -0.0898557833781 -0.0991725558046 0.000999437645711
v -0.0893280261682 -0.100062516111 0.000999437645711
v -0.0829981809695 -0.106673348366 0.000999437645711
v -0.0788430392693 -0.106673348366 -0.00498073834829
v -0.0898687342608 -0.0981370600313 -0.00498073834829
v -0.0898557833781 -0.0991694132052 -0.00498073834829
v -0.0893280261682 -0.100062516111 -0.00498073834829
v -0.0829981809695 -0.106673348366 -0.00175735630366
v -0.0799438817784 -0.106673348366 -0.00498073834829
v -0.08300033945 -0.106670207823 -0.00498073834829
f 1 2 6
f 1 6 3
f 1 3 4
f 1 4 5
f 1 5 2
f 2 5 7
f 2 7 13
f 2 13 6
f 3 8 4
f 3 6 13
f 3 13 20
f 3 20 25
f 3 25 26
f 3 26 23
f 3 23 22
f 3 22 21
f 3 21 14
f 3 14 9
f 3 9 8
f 4 8 9
f 4 9 10
f 4 10 5
f 5 11 12
f 5 12 20
f 5 20 13
f 5 13 7
f 5 10 11
f 9 14 15
f 9 15 10
f 10 15 11
f 11 15 16
f 11 16 17
f 11 17 18
f 11 18 19
f 11 19 24
f 11 24 25
f 11 25 20
f 11 20 12
f 14 21 15
f 15 21 16
f 16 21 17
f 17 21 22
f 17 22 23
f 17 23 18
f 18 23 24
f 18 24 19
f 23 26 24
f 24 26 25
