v -0.0284149387898 -0.0648802432541 -0.00768488681563
v -0.0284149387898 -0.0648802432541 0.00100002071308
v -0.0284149387898 -0.0648739395452 -0.0109973385713
v -0.0280733332937 -0.0645304275113 -0.0139970453803
v -0.0248172958771 -0.0611930033504 0.00100002071308
v -0.0284149387898 -0.0571717059479 0.00100002071308
v 0.00302521384676 -0.0326846491983 0.000998552761279
v -0.0284149387898 -0.0647321225467 -0.0139970453803
v -0.0248172958771 -0.0611930033504 -0.0139985138463
v 0.00302521384676 -0.0326846491983 -0.0139985138463
v -0.0248172958771 -0.0575782468447 0.00100002071308
v -0.00815856952771 -0.0326846491983 0.000998552761279
v -0.0284149387898 -0.0508277622418 0.000998552761279
v -0.0284149387898 -0.056758861342 -0.0139985138463
v -0.00815856952771 -0.0326846491983 -0.0139999817981
v -0.000987897989103 -0.0326846491983 -0.0139999817981
v -0.0284149387898 -0.0508277622418 -0.0139985138463
f 1 2 6
f 1 6 13
f 1 13 17
f 1 17 14
f 1 14 8
f 1 8 3
f 1 3 4
f 1 4 10
f 1 10 7
f 1 7 2
f 2 5 11
f 2 11 6
f 2 7 5
f 3 8 4
f 4 8 9
f 4 9 10
f 5 7 11
f 6 7 12
f 6 12 13
f 6 11 7
f 7 10 16
f 7 16 15
f 7 15 12
f 8 14 9
f 9 14 15
f 9 15 16
f 9 16 10
f 12 15 17
f 12 17 13
f 14 17 15
