v -0.030408965 0.021464077912 0.000998519299483
v -0.0306409291879 0.0290784330831 0.000998519299483
v -0.0354550097864 0.0290784330831 0.000999987765696
v -0.0358513270162 0.0248963523716 0.000999987765696
v -0.0401671471569 0.0218427077337 0.000999987765696
v -0.0410336388857 0.021464077912 0.000999987765696
v -0.030408965 0.021464077912 -0.0140000141057
v -0.0306409291879 0.0290784330831 -0.0139985456395
v -0.0390229199297 0.0290784330831 0.000999987765696
v -0.0390239585508 0.0290784330831 -0.0124906169689
v -0.0410336388857 0.021464077912 -0.0140000141057
v -0.0305805986727 0.0248970968881 -0.0140000141057
v -0.0390239585508 0.0290784330831 -0.0139985456395
v -0.0389688273109 0.0233378531386 -0.0140000141057
v -0.0358513270162 0.0248970968881 -0.0140000141057
f 1 2 3
f 1 3 4
f 1 4 5
f 1 5 6
f 1 6 11
f 1 11 7
f 1 7 8
f 1 8 2
f 2 8 13
f 2 13 10
f 2 10 9
f 2 9 3
f 3 9 6
f 3 6 5
f 3 5 4
f 6 9 10
f 6 10 13
f 6 13 11
f 7 11 14
f 7 14 15
f 7 15 12
f 7 12 8
f 8 12 15
f 8 15 13
f 11 13 14
f 13 15 14
