v -0.124144219096 -0.14573226033 -0.0139985087046
v -0.130282604303 -0.141234830318 -0.0139985087046
v -0.127695998156 -0.142264414179 -0.0139999766564
v -0.124144219096 -0.135826289153 -0.0139999766564
v -0.124144219096 -0.14573226033 0.00100002482643
v -0.130282604303 -0.134731010978 -0.0139999766564
v -0.130282604303 -0.141234830318 0.00100002482643
v -0.124144219096 -0.134731010978 -0.0139999766564
v -0.124144219096 -0.140749117716 0.00100002482643
v -0.130282604303 -0.134731010978 0.000998556874629
v -0.130282604303 -0.140486336347 0.00100002482643
v -0.124144219096 -0.134731010978 -0.00500085674345
v -0.124144219096 -0.138744875557 0.000998556874629
v -0.128253702611 -0.134731010978 0.000998556874629
f 1 2 3
f 1 3 4
f 1 4 8
f 1 8 12
f 1 12 13
f 1 13 9
f 1 9 5
f 1 5 7
f 1 7 2
f 2 6 3
f 2 7 11
f 2 11 10
f 2 10 6
f 3 6 8
f 3 8 4
f 5 9 11
f 5 11 7
f 6 10 14
f 6 14 12
f 6 12 8
f 9 13 14
f 9 14 11
f 10 11 14
f 12 14 13
