v -0.0851419407638 -0.0780783264422 -0.0139999807698
v -0.0851419407638 -0.0718419843746 -0.0139999807698
v -0.0809496997311 -0.0775086922437 -0.0139999807698
v -0.0472411126881 -0.0767239360068 -0.0109973375429
v -0.0851419407638 -0.0780783264422 0.000998553789616
v -0.0596916988784 -0.0685591803608 -0.0139999807698
v -0.0851419407638 -0.0718419843746 0.000989744022118
v -0.0472411126881 -0.0668667404205 0.000998553789616
v -0.0472411126881 -0.066867838685 -0.0109988060089
v -0.0646110894516 -0.0752806432224 -0.013998512818
v -0.0472411126881 -0.0709628380656 -0.0109988060089
v -0.0472411126881 -0.0767239360068 0.00100002174142
v -0.0851419407638 -0.0727386916035 0.000998553789616
v -0.0521976038793 -0.0767239360068 0.00100002174142
v -0.0851382305221 -0.0718419843746 0.000998553789616
v -0.0472411126881 -0.0735256433409 0.00100002174142
f 1 2 6
f 1 6 3
f 1 3 4
f 1 4 12
f 1 12 5
f 1 5 13
f 1 13 7
f 1 7 2
f 2 7 8
f 2 8 9
f 2 9 6
f 3 6 10
f 3 10 4
f 4 11 9
f 4 9 8
f 4 8 16
f 4 16 12
f 4 10 6
f 4 6 11
f 5 12 14
f 5 14 13
f 6 9 11
f 7 13 15
f 7 15 8
f 8 15 16
f 12 16 14
f 13 14 15
f 14 16 15
