v -0.0419496921069 -0.14888431456 -0.0100236782405
v -0.0419496921069 -0.148882624837 -0.0234960616966
v -0.0420449689827 -0.14900258475 -0.0100236782405
v -0.0419496921069 -0.166106089966 -0.0100236782405
v -0.0419496921069 -0.148882624837 -0.0234986998878
v -0.0429688117647 -0.150158249757 -0.0100236782405
v -0.0424038309647 -0.166122985894 -0.0100236782405
v -0.0419496921069 -0.166106089966 -0.0235000189834
v -0.0429688117647 -0.150158249757 -0.0234986998878
v -0.0419496921069 -0.165051799219 -0.0235000189834
v -0.0429688117647 -0.164658130893 -0.0235000189834
v -0.0429688117647 -0.166143261269 -0.0100236782405
v -0.0429688117647 -0.166143261269 -0.0123717484673
v -0.0429688117647 -0.166141570892 -0.0235000189834
f 1 2 3
f 1 3 6
f 1 6 12
f 1 12 7
f 1 7 4
f 1 4 8
f 1 8 10
f 1 10 5
f 1 5 2
f 2 5 9
f 2 9 6
f 2 6 3
f 4 7 8
f 5 10 11
f 5 11 9
f 6 9 11
f 6 11 14
f 6 14 13
f 6 13 12
f 7 12 13
f 7 13 8
f 8 13 14
f 8 14 11
f 8 11 10
