v 0.0180527542083 0.00506938472532 0.00100001608556
v 0.0163952222133 0.00460450212783 0.00100001608556
v 0.0180527542083 0.00387569876357 0.00100001608556
v 0.0180527542083 0.0168946162487 0.00099854813376
v 0.0174654912197 0.0178852919315 0.00099854813376
v 0.0160158068034 0.0187013805841 0.00099854813376
v 0.0113117632173 0.0213425215264 0.00099854813376
v 0.0113117632173 0.0125136927635 0.00099854813376
v 0.0164037944348 0.00387569876357 0.00100001608556
v 0.0180527542083 0.00387569876357 -0.0139985184738
v 0.0180527542083 0.0214176312985 -0.00500820730002
v 0.0180520960723 0.0214176312985 -0.00200262714125
v 0.0169521286784 0.0246129803483 -0.00200262714125
v 0.0113124213533 0.0246129803483 -0.00200262714125
v 0.0113117632173 0.0246150123432 -0.00500820730002
v 0.0113117632173 0.0125136927635 -0.0139985184738
v 0.0164037944348 0.00387569876357 -0.0139985184738
v 0.0149607160587 0.0186973248209 -0.0139999864256
v 0.0180527542083 0.0214176312985 -0.0139985184738
v 0.0169521286784 0.0246150123432 -0.00500820730002
v 0.0113117632173 0.0246150123432 -0.0139985184738
v 0.0113117632173 0.0186973248209 -0.0139999864256
v 0.0169521286784 0.0246150123432 -0.0139985184738
f 1 2 9
f 1 9 3
f 1 3 10
f 1 10 19
f 1 19 11
f 1 11 4
f 1 4 5
f 1 5 6
f 1 6 7
f 1 7 2
f 2 8 9
f 2 7 8
f 3 9 17
f 3 17 10
f 4 11 12
f 4 12 13
f 4 13 5
f 5 13 6
f 6 13 7
f 7 13 14
f 7 14 15
f 7 15 21
f 7 21 22
f 7 22 16
f 7 16 8
f 8 16 17
f 8 17 9
f 10 17 22
f 10 22 18
f 10 18 19
f 11 19 23
f 11 23 20
f 11 20 12
f 12 20 13
f 13 20 15
f 13 15 14
f 15 20 23
f 15 23 21
f 16 22 17
f 18 23 19
f 18 22 21
f 18 21 23
