v 0.0113110639478 0.0125135446829 -0.0139985195021
v 0.00420011002542 0.016500878154 -0.0139985195021
v 0.00420011002542 0.0240987540035 -0.013999987454
v 0.00914192992528 0.0245048815086 -0.013999987454
v 0.0113110639478 0.0245048815086 -0.0139985195021
v 0.0113110639478 0.0125135446829 0.00100001505723
v 0.00420011002542 0.016500878154 0.000998547105423
v 0.00420011002542 0.0245048815086 -0.013999987454
v 0.0113110639478 0.0245048815086 -0.00200115970362
v 0.0113110639478 0.0213427189672 0.000998547105423
v 0.00618338643866 0.0242231746162 0.000998547105423
v 0.00420011002542 0.024199695614 0.000998547105423
v 0.00420011002542 0.0245048815086 -0.00200115970362
v 0.00420011002542 0.0244814025065 1.13130325269e-07
f 1 2 3
f 1 3 4
f 1 4 5
f 1 5 9
f 1 9 10
f 1 10 6
f 1 6 7
f 1 7 2
f 2 7 12
f 2 12 14
f 2 14 13
f 2 13 8
f 2 8 3
f 3 8 4
f 4 8 13
f 4 13 9
f 4 9 5
f 6 10 11
f 6 11 12
f 6 12 7
f 9 13 14
f 9 14 11
f 9 11 10
f 11 14 12
