v -0.0756997078753 0.13037918533 0.0509499984559
v -0.0756997078753 0.13037918533 0.0659499988515
v -0.0756965964308 0.130538037642 0.0509499984559
v -0.0682811994141 0.13037918533 0.0509499984559
v -0.0756965964308 0.130538037642 0.0659499988515
v -0.0598080152218 0.13037918533 0.0659499988515
v -0.0754025950002 0.131578496817 0.0509499984559
v -0.0607678017027 0.131578496817 0.0509499984559
v -0.0598080152218 0.13037918533 0.050951466587
v -0.0754025950002 0.131578496817 0.0659499988515
v -0.0607678017027 0.131578496817 0.0659499988515
f 1 2 5
f 1 5 3
f 1 3 7
f 1 7 8
f 1 8 4
f 1 4 9
f 1 9 6
f 1 6 2
f 2 6 11
f 2 11 10
f 2 10 5
f 3 5 10
f 3 10 7
f 4 8 9
f 6 9 8
f 6 8 11
f 7 10 11
f 7 11 8
