v 0.017856598912 0.0163945335529 -0.0140000171908
v 0.0185547990656 0.0169453194429 -0.0140000171908
v 0.0191932569132 0.0163945335529 -0.0140000171908
v 0.00460571100323 0.0163945335529 -0.0139985487245
v -0.0108219127539 0.0164377031688 -0.0139985487245
v 0.0139810163038 0.0214627575264 -0.0139985487245
v -0.000490779916545 0.0214627575264 -0.0139985487245
v 0.0191932569132 0.0163945335529 -0.00200118954107
v 0.00460571100323 0.0163945335529 0.000992644406297
v -0.0189501652856 0.0164377031688 -0.0139970807725
v -0.0138014019047 0.0214632511285 -0.0139970807725
v 0.0139810163038 0.0214627575264 0.000998517242808
v -0.000490779916545 0.0214632511285 -0.0139970807725
v 0.0184875869146 0.0163945335529 0.000998517242808
v 0.0178827269159 0.0174673242178 0.000998517242808
v 0.0167850216856 0.0163945335529 0.000998517242808
v 0.00460197608076 0.0163970139034 0.000998517242808
v -0.0189464303631 0.0164377031688 0.00099998570902
v -0.0189501652856 0.0164377031688 -0.0114407957686
v -0.0138014019047 0.0214632511285 0.00099998570902
v -0.000490779916545 0.0214632511285 0.00099998570902
v 0.000494914659923 0.0214627575264 0.00099998570902
v -0.000490779916545 0.0164575500861 0.00099998570902
v -0.00432528660439 0.0164377031688 0.00099998570902
f 1 2 3
f 1 3 8
f 1 8 14
f 1 14 16
f 1 16 9
f 1 9 4
f 1 4 5
f 1 5 2
f 2 6 3
f 2 5 7
f 2 7 6
f 3 6 12
f 3 12 8
f 4 9 19
f 4 19 10
f 4 10 5
f 5 10 11
f 5 11 7
f 6 7 11
f 6 11 13
f 6 13 21
f 6 21 12
f 8 12 15
f 8 15 14
f 9 16 17
f 9 17 18
f 9 18 19
f 10 19 20
f 10 20 11
f 11 20 21
f 11 21 13
f 12 21 22
f 12 22 15
f 14 15 22
f 14 22 23
f 14 23 24
f 14 24 18
f 14 18 16
f 16 18 17
f 18 20 19
f 18 24 23
f 18 23 22
f 18 22 21
f 18 21 20
