v -0.0568671222322 -0.135897368087 -0.0186705890842
v -0.0568671222322 -0.13589544762 -0.0234995444228
v -0.0571478194662 -0.136006881782 -0.0186705890842
v -0.0568671222322 -0.155523393922 -0.0186705890842
v -0.0574322229797 -0.136118317252 -0.0234995444228
v -0.0574322229797 -0.136118317252 -0.0186705890842
v -0.0568671222322 -0.155523393922 -0.0235000170224
v -0.0574322229797 -0.154858625959 -0.0235000170224
v -0.0574322229797 -0.154858625959 -0.0186705890842
f 1 2 3
f 1 3 6
f 1 6 9
f 1 9 4
f 1 4 7
f 1 7 2
f 2 5 6
f 2 6 3
f 2 7 8
f 2 8 5
f 4 9 8
f 4 8 7
f 5 8 9
f 5 9 6
