v -0.179650867232 -0.209705462148 0.00100002945395
v -0.179650867232 -0.210181327391 0.00100002945395
v -0.179650867232 -0.200174352903 0.000998561502148
v -0.190026381432 -0.194608200503 0.000998561502148
v -0.190026381432 -0.206183801038 0.000998561502148
v -0.182342248632 -0.21044172713 0.000998561502148
v -0.179650867232 -0.210364223388 0.000998561502148
v -0.179650867232 -0.200174352903 -0.0139985051054
v -0.190026381432 -0.19460975535 -0.0139999730572
v -0.190026381432 -0.206183801038 -0.0139985051054
v -0.182342248632 -0.21044172713 -0.0139985051054
v -0.179650867232 -0.210364223388 -0.0139985051054
v -0.190026381432 -0.200039500834 -0.0139999730572
f 1 2 7
f 1 7 12
f 1 12 8
f 1 8 3
f 1 3 4
f 1 4 5
f 1 5 2
f 2 5 6
f 2 6 7
f 3 8 4
f 4 8 9
f 4 9 13
f 4 13 10
f 4 10 5
f 5 10 11
f 5 11 6
f 6 11 12
f 6 12 7
f 8 12 13
f 8 13 9
f 10 13 11
f 11 13 12
