v -0.124143618547 -0.145730972852 -0.0139982110009
v -0.123899203286 -0.151075777657 -0.0139982110009
v -0.124143618547 -0.145730972852 -0.00498161577728
v -0.124143618547 -0.135828444548 -0.0139999766564
v -0.123899203286 -0.151075777657 -0.00498161577728
v -0.11258886447 -0.151075777657 -0.0139982110009
v -0.119907587818 -0.151075777657 -0.00498073294952
v -0.119907587818 -0.142872198671 -0.00498073294952
v -0.124129871731 -0.138760806562 -0.00498161577728
v -0.124143618547 -0.134732606958 -0.00500103850211
v -0.124143618547 -0.134732606958 -0.0139999766564
v -0.123532580395 -0.134732606958 -0.0139999766564
v -0.112038930134 -0.134732606958 -0.0139990943428
v -0.108537675353 -0.146925995652 -0.0139982110009
v -0.11258886447 -0.151075777657 -0.00498073294952
v -0.108537675353 -0.13834166853 -0.00498073294952
v -0.108537675353 -0.134732606958 -0.00500103850211
v -0.108537675353 -0.134732606958 -0.0139982110009
v -0.108537675353 -0.146925995652 -0.00498073294952
f 1 2 5
f 1 5 3
f 1 3 10
f 1 10 11
f 1 11 4
f 1 4 2
f 2 4 6
f 2 6 15
f 2 15 7
f 2 7 5
f 3 5 7
f 3 7 8
f 3 8 9
f 3 9 10
f 4 11 12
f 4 12 13
f 4 13 14
f 4 14 6
f 6 14 19
f 6 19 15
f 7 15 19
f 7 19 16
f 7 16 8
f 8 16 9
f 9 16 10
f 10 16 17
f 10 17 18
f 10 18 13
f 10 13 12
f 10 12 11
f 13 18 14
f 14 18 17
f 14 17 16
f 14 16 19
