v -0.129650897905 0.122470769909 -0.00500018008776
v -0.130680173432 0.106623825008 -0.00498075735976
v -0.129650897905 0.106623825008 -0.00500018008776
v -0.129650897905 0.122470769909 -0.0139991189378
v -0.140453675764 0.122470769909 -0.00498075735976
v -0.139063511297 0.106623825008 -0.00498075735976
v -0.129650897905 0.106623825008 -0.0140000017657
v -0.129650897905 0.108432689504 -0.0140000017657
v -0.148459556112 0.122470769909 -0.0139991189378
v -0.148459556112 0.122470769909 -0.00498075735976
v -0.139063511297 0.106623825008 -0.0139991189378
v -0.148459556112 0.11624368752 -0.00498075735976
v -0.133839806779 0.106623825008 -0.0140000017657
v -0.148459556112 0.11624368752 -0.0139991189378
f 1 2 3
f 1 3 7
f 1 7 8
f 1 8 4
f 1 4 9
f 1 9 10
f 1 10 5
f 1 5 2
f 2 5 10
f 2 10 12
f 2 12 6
f 2 6 11
f 2 11 13
f 2 13 7
f 2 7 3
f 4 8 9
f 6 12 14
f 6 14 11
f 7 13 8
f 8 13 9
f 9 14 12
f 9 12 10
f 9 13 14
f 11 14 13
