v -0.195889591746 -0.181231405109 0.00100002585477
v -0.195979846873 -0.173414855344 0.000998557902966
v -0.195917356859 -0.178975364227 0.00100002585477
v -0.202688013331 -0.181232170192 0.00100002585477
v -0.202169254074 -0.181232170192 0.000352512056971
v -0.195889591746 -0.181231405109 -0.0139985076763
v -0.202169254074 -0.173414090261 0.000998557902966
v -0.200141824961 -0.178620275169 0.00100002585477
v -0.195979846873 -0.173414855344 -0.0139882294428
v -0.204629144359 -0.181232170192 0.00100002585477
v -0.202169254074 -0.181232170192 -0.0127945136593
v -0.202692974031 -0.181232170192 -0.0139985076763
v -0.199993045089 -0.181231405109 -0.0139999756281
v -0.195917356859 -0.17897612931 -0.0139999756281
v -0.195983820369 -0.173422506175 -0.0139999756281
v -0.202169254074 -0.173414090261 -0.0115523441545
v -0.205980100147 -0.173414090261 0.000998557902966
v -0.204191722487 -0.17917280503 0.00100002585477
v -0.196004650374 -0.173414855344 -0.0139999756281
v -0.203934819095 -0.173414090261 -0.0139999756281
v -0.206021760157 -0.181232170192 0.000998557902966
v -0.206021760157 -0.181232170192 -0.0139985076763
v -0.201623708682 -0.181231405109 -0.0139999756281
v -0.205980100147 -0.173414090261 -0.0139999756281
v -0.206010851552 -0.17917280503 -0.0139999756281
v -0.202169254074 -0.181226814611 -0.0139999756281
f 1 2 3
f 1 3 8
f 1 8 18
f 1 18 10
f 1 10 4
f 1 4 5
f 1 5 11
f 1 11 6
f 1 6 9
f 1 9 2
f 2 7 8
f 2 8 3
f 2 9 16
f 2 16 7
f 4 10 21
f 4 21 22
f 4 22 12
f 4 12 11
f 4 11 5
f 6 11 12
f 6 12 13
f 6 13 14
f 6 14 15
f 6 15 9
f 7 16 20
f 7 20 24
f 7 24 17
f 7 17 8
f 8 17 18
f 9 15 19
f 9 19 20
f 9 20 16
f 10 18 17
f 10 17 21
f 12 22 23
f 12 23 13
f 13 23 26
f 13 26 25
f 13 25 24
f 13 24 20
f 13 20 19
f 13 19 15
f 13 15 14
f 17 24 25
f 17 25 21
f 21 25 22
f 22 25 26
f 22 26 23
