v -0.151520990646 -0.156875206365 -0.0139985087046
v -0.151520990646 -0.156875206365 0.00100002585477
v -0.151520990646 -0.149435274931 -0.0139985087046
v -0.141917099784 -0.139604248992 -0.0139999766564
v -0.146808432425 -0.156875206365 -0.0139985087046
v -0.148513021145 -0.156875206365 0.00100002585477
v -0.141917099784 -0.139604248992 0.000998557902966
v -0.151520990646 -0.149435274931 0.000998557902966
v -0.138090096472 -0.134733178714 -0.0139999766564
v -0.130286421492 -0.134733178714 -0.0139999766564
v -0.146808432425 -0.156875206365 0.000998557902966
v -0.130286421492 -0.141236611398 -0.0139985087046
v -0.130286421492 -0.141236611398 0.000998557902966
v -0.130286421492 -0.140488717977 0.000998557902966
v -0.130286421492 -0.134733178714 0.000997089436994
v -0.138090096472 -0.134733178714 0.000997089436994
f 1 2 8
f 1 8 3
f 1 3 4
f 1 4 5
f 1 5 11
f 1 11 6
f 1 6 2
f 2 6 7
f 2 7 8
f 3 8 16
f 3 16 9
f 3 9 4
f 4 9 10
f 4 10 5
f 5 10 12
f 5 12 13
f 5 13 11
f 6 11 13
f 6 13 14
f 6 14 7
f 7 14 15
f 7 15 16
f 7 16 8
f 9 16 15
f 9 15 10
f 10 15 14
f 10 14 13
f 10 13 12
