v 0.00459784629646 -0.0251965874555 -0.0139985148746
v 0.00459784629646 -0.0164007683269 -0.0139999828264
v 0.0103358215545 -0.0251965874555 -0.0139985148746
v 0.00459784629646 -0.0251965874555 0.00100001865641
v 0.00460310315784 -0.0163970169516 -0.0139999828264
v 0.0113117549906 -0.0124170011304 -0.0139999828264
v 0.00459784629646 -0.0164020187853 0.000998550704604
v 0.00460310315784 -0.0163970169516 0.000998550704604
v 0.0113117549906 -0.0241981416545 -0.0139985148746
v 0.0103358215545 -0.0251965874555 0.00100001865641
v 0.00459784629646 -0.0230270338713 0.00100001865641
v 0.0113117549906 -0.0124170011304 0.000998550704604
v 0.0113117549906 -0.0241981416545 0.00100001865641
f 1 2 3
f 1 3 10
f 1 10 4
f 1 4 11
f 1 11 7
f 1 7 2
f 2 5 6
f 2 6 3
f 2 7 8
f 2 8 5
f 3 6 9
f 3 9 13
f 3 13 10
f 4 10 13
f 4 13 11
f 5 8 12
f 5 12 6
f 6 12 13
f 6 13 9
f 7 11 8
f 8 11 12
f 11 13 12
