v -0.0407352461401 0.0774975545481 0.000999992393215
v -0.0407352461401 0.0774975545481 -0.0109988352565
v -0.0430234599633 0.0774975545481 0.000999992393215
v -0.0430234599633 0.070270972149 0.000999992393215
v -0.0230094254576 0.0593449202533 0.000998523927003
v -0.0430234599633 0.0774975545481 -0.0109988352565
v -0.0230094254576 0.0593449202533 -0.0110091134916
v -0.0230113834125 0.0593466972208 -0.0140000105066
v -0.0280775836175 0.064533417574 -0.0139985420404
v -0.0325286281068 0.0671738658473 -0.0139985420404
v -0.0377006195793 0.0672360566253 -0.0139985420404
v -0.0430234599633 0.0646897835171 0.000998523927003
v -0.040323839083 0.0593449202533 0.000998523927003
v -0.0424905877158 0.0644214737621 -0.0139985420404
v -0.0430234599633 0.0648745799122 -0.0109988352565
v -0.0422143577039 0.0647004453222 -0.0139985420404
v -0.0423064330034 0.0646098240922 -0.0139985420404
v -0.040323839083 0.0593449202533 -0.0110091134916
v -0.0283048380189 0.0593466972208 -0.0140000105066
v -0.0403218790714 0.0593466972208 -0.0139985420404
v -0.040325797038 0.0593449202533 0.000977967970878
f 1 2 6
f 1 6 3
f 1 3 4
f 1 4 5
f 1 5 7
f 1 7 2
f 2 7 8
f 2 8 9
f 2 9 10
f 2 10 11
f 2 11 6
f 3 6 15
f 3 15 12
f 3 12 4
f 4 12 13
f 4 13 5
f 5 13 21
f 5 21 18
f 5 18 7
f 6 14 15
f 6 11 16
f 6 16 17
f 6 17 14
f 7 18 19
f 7 19 8
f 8 19 11
f 8 11 10
f 8 10 9
f 11 19 16
f 12 15 20
f 12 20 18
f 12 18 21
f 12 21 13
f 14 17 19
f 14 19 20
f 14 20 15
f 16 19 17
f 18 20 19
