v 0.0177018957909 -0.0093881216093 0.000999982109838
v 0.0135588548912 -0.0093881216093 0.000999982109838
v 0.0177018957909 -0.0106579458877 0.000999982109838
v 0.0177018957909 -0.0093881216093 -0.0139985523237
v 0.0135577196064 -0.0093881216093 -0.0049289540777
v 0.0118871809262 -0.0121944798278 0.000999982109838
v 0.0118871809262 -0.0210195339739 0.000998513643626
v 0.0174656907384 -0.0178857201302 0.000998513643626
v 0.0177018957909 -0.0174856556378 0.000998513643626
v 0.0135577196064 -0.0093881216093 -0.0139985523237
v 0.0177018957909 -0.0219915352057 -0.0139985523237
v 0.0169574122149 -0.0245252523108 -0.0140000207899
v 0.0118871809262 -0.0121915099885 -0.0139985523237
v 0.0118871809262 -0.0245252523108 -0.00200119314025
v 0.0169574122149 -0.0245252523108 -0.00200119314025
v 0.0177018957909 -0.0219915352057 -0.00200119314025
v 0.0118871809262 -0.0245252523108 -0.0140000207899
f 1 2 6
f 1 6 3
f 1 3 9
f 1 9 16
f 1 16 11
f 1 11 4
f 1 4 10
f 1 10 5
f 1 5 2
f 2 5 6
f 3 6 7
f 3 7 8
f 3 8 9
f 4 11 12
f 4 12 17
f 4 17 10
f 5 10 13
f 5 13 6
f 6 13 17
f 6 17 14
f 6 14 7
f 7 14 15
f 7 15 8
f 8 15 9
f 9 15 16
f 10 17 13
f 11 16 15
f 11 15 12
f 12 15 14
f 12 14 17
