v -0.0419496921069 -0.14888431456 -0.00850016532048
v -0.0419496921069 -0.14888431456 -0.0100236775868
v -0.0420449689827 -0.14900258475 -0.0100236775868
v -0.0429688117647 -0.150158249757 -0.00850016532048
v -0.0419496921069 -0.166106089966 -0.00850016532048
v -0.0419496921069 -0.166106089966 -0.0100236775868
v -0.0429688117647 -0.150158249757 -0.0100236775868
v -0.0429688117647 -0.166143261269 -0.00850016532048
v -0.0424038309647 -0.166122985894 -0.0100236775868
v -0.0429688117647 -0.166143261269 -0.0100236775868
f 1 2 3
f 1 3 4
f 1 4 8
f 1 8 5
f 1 5 6
f 1 6 2
f 2 6 9
f 2 9 10
f 2 10 7
f 2 7 3
f 3 7 4
f 4 7 10
f 4 10 8
f 5 8 9
f 5 9 6
f 8 10 9
