v -0.0691782355697 0.106623825008 0.000999995992397
v -0.0444561667608 0.0813069759665 0.000998821630762
v -0.0691782355697 0.106623825008 -0.0109988331998
v -0.0726091773036 0.106623825008 0.000999995992397
v -0.0726091773036 0.0986838096893 0.000999995992397
v -0.0444561667608 0.0813069759665 -0.00710963809998
v -0.0556391066648 0.0813069759665 0.000998821630762
v -0.0726091773036 0.106623825008 -0.0109988331998
v -0.0444589227058 0.0813069759665 -0.0110000075614
v -0.0726091773036 0.0986838096893 -0.0109988331998
v -0.0556391066648 0.0813069759665 0.000980027731258
v -0.0556308398582 0.0813069759665 -0.0110000075614
f 1 2 6
f 1 6 3
f 1 3 8
f 1 8 4
f 1 4 5
f 1 5 2
f 2 5 7
f 2 7 11
f 2 11 12
f 2 12 9
f 2 9 6
f 3 6 9
f 3 9 12
f 3 12 8
f 4 8 10
f 4 10 5
f 5 10 11
f 5 11 7
f 8 12 10
f 10 12 11
