v -0.0425719770474 -0.0641997090245 0.000998847379977
v -0.0307445880718 -0.067265239718 0.000998847379977
v -0.0307445880718 -0.067265239718 -0.00875761457706
v -0.0307478170516 -0.067265239718 -0.0109999798562
v -0.0425719770474 -0.0644924427802 -0.0109999798562
v -0.0472318864439 -0.0668625448034 -0.0109999798562
v -0.0472318864439 -0.0668625448034 0.000998847379977
v -0.0472383444035 -0.0735255785557 0.00100002174142
v -0.0425719770474 -0.0742566699709 0.00100002174142
v -0.0425719770474 -0.0793772797163 0.00100002174142
v -0.0425719770474 -0.0793772797163 -0.0109988054947
v -0.0425719770474 -0.0707899303106 -0.0109999798562
v -0.0472383444035 -0.0668684885943 -0.0109999798562
v -0.0472383444035 -0.0668684885943 0.000998847379977
v -0.0472383444035 -0.0767233596237 0.00100002174142
v -0.0472383444035 -0.0767233596237 -0.0109988054947
v -0.0472383444035 -0.070960816354 -0.0109999798562
f 1 2 3
f 1 3 4
f 1 4 5
f 1 5 6
f 1 6 7
f 1 7 8
f 1 8 9
f 1 9 2
f 2 9 10
f 2 10 11
f 2 11 3
f 3 11 4
f 4 12 17
f 4 17 13
f 4 13 6
f 4 6 5
f 4 11 12
f 6 13 14
f 6 14 7
f 7 14 8
f 8 14 13
f 8 13 17
f 8 17 16
f 8 16 15
f 8 15 10
f 8 10 9
f 10 15 16
f 10 16 11
f 11 16 17
f 11 17 12
