v -0.0745225922299 0.134690464839 0.0509499984559
v -0.0745225922299 0.134690464839 0.0659499988515
v -0.0741904481509 0.135862430913 0.0509499984559
v -0.0604593340164 0.134690464839 0.0509499984559
v -0.0741904481509 0.135862430913 0.0659485307203
v -0.0604593340164 0.134690464839 0.0659499988515
v -0.0637717104358 0.135862430913 0.0659499988515
v -0.0591005649237 0.135862430913 0.0509499984559
v -0.0591005649237 0.135862430913 0.0659499988515
f 1 2 5
f 1 5 3
f 1 3 8
f 1 8 4
f 1 4 6
f 1 6 2
f 2 6 9
f 2 9 7
f 2 7 5
f 3 5 7
f 3 7 9
f 3 9 8
f 4 8 9
f 4 9 6
