v -0.0704332003684 -0.129658767585 -0.0170590552947
v -0.0704332003684 -0.128699600757 -0.0170590552947
v -0.0699730072671 -0.129658767585 -0.0170590552947
v -0.0704332003684 -0.129658767585 -0.00888906320065
v -0.0699730072671 -0.128699600757 -0.0170590552947
v -0.0704332003684 -0.128699600757 -0.00888906320065
v -0.0699730072671 -0.129658767585 -0.00888906320065
v -0.0699730072671 -0.128699600757 -0.00888906320065
f 1 2 5
f 1 5 3
f 1 3 7
f 1 7 4
f 1 4 6
f 1 6 2
f 2 6 8
f 2 8 5
f 3 5 8
f 3 8 7
f 4 7 8
f 4 8 6
