v -0.0531170507357 -0.0767252615339 -0.010999979342
v -0.0507117230108 -0.0767252615339 -0.010999979342
v -0.0572509397844 -0.0829601470899 -0.0109988049806
v -0.05501659888 -0.0767252615339 -0.0109988049806
v -0.0425747000851 -0.0767252615339 -0.0109988049806
v -0.0425747000851 -0.0793788718398 -0.0109988049806
v -0.0460706177941 -0.0829601470899 -0.0109988049806
v -0.0572523753436 -0.0829601470899 -0.000158161381758
v -0.05501659888 -0.0767252615339 0.000998847894146
v -0.0425747000851 -0.0767252615339 0.000998847894146
v -0.0425747000851 -0.0793788718398 0.000998847894146
v -0.0460706177941 -0.0829601470899 0.00100002225559
v -0.0572523753436 -0.0829601470899 0.00100002225559
v -0.0556100277804 -0.0812787543224 0.00100002225559
f 1 2 7
f 1 7 3
f 1 3 4
f 1 4 9
f 1 9 10
f 1 10 5
f 1 5 2
f 2 5 6
f 2 6 7
f 3 8 4
f 3 7 12
f 3 12 13
f 3 13 8
f 4 8 13
f 4 13 9
f 5 10 11
f 5 11 6
f 6 11 12
f 6 12 7
f 9 13 14
f 9 14 10
f 10 12 11
f 10 14 12
f 12 14 13
