v -0.049874373275 -0.122637712 -0.0234994587927
v -0.0505514755661 -0.122743166437 -0.0178110590757
v -0.049874373275 -0.122638679424 -0.0178110590757
v -0.0491909529866 -0.122688020659 -0.0178110590757
v -0.0480715755273 -0.122769289497 -0.0178110590757
v -0.0480715755273 -0.122769289497 -0.0234994587927
v -0.0444206993629 -0.132521456026 -0.0235000157151
v -0.0516603224854 -0.122915378354 -0.0234994587927
v -0.0516603224854 -0.122915378354 -0.0178110590757
v -0.0469985317908 -0.123100165474 -0.0178110590757
v -0.0463435433071 -0.12330236884 -0.0234994587927
v -0.0444206993629 -0.124509779262 -0.0234994587927
v -0.0444206993629 -0.132521456026 -0.0178110590757
v -0.0545656488283 -0.132521456026 -0.0234994587927
v -0.0551774627511 -0.130958012684 -0.0234994587927
v -0.0551774627511 -0.12387801745 -0.0234994587927
v -0.0536347650957 -0.123455229664 -0.0178110590757
v -0.0463435433071 -0.12330236884 -0.0178110590757
v -0.0444206993629 -0.124509779262 -0.0178110590757
v -0.0545656488283 -0.132521456026 -0.0178110590757
v -0.0551774627511 -0.130958012684 -0.0234794095855
v -0.0551774627511 -0.12387801745 -0.0178110590757
v -0.055176410024 -0.130958980107 -0.0178110590757
v -0.0551774627511 -0.126989422737 -0.0178110590757
f 1 2 3
f 1 3 4
f 1 4 5
f 1 5 6
f 1 6 7
f 1 7 8
f 1 8 9
f 1 9 2
f 2 9 17
f 2 17 22
f 2 22 24
f 2 24 23
f 2 23 20
f 2 20 13
f 2 13 19
f 2 19 18
f 2 18 10
f 2 10 5
f 2 5 4
f 2 4 3
f 5 10 6
f 6 10 11
f 6 11 7
f 7 11 12
f 7 12 19
f 7 19 13
f 7 13 20
f 7 20 14
f 7 14 15
f 7 15 16
f 7 16 8
f 8 16 17
f 8 17 9
f 10 18 11
f 11 18 19
f 11 19 12
f 14 20 21
f 14 21 15
f 15 21 24
f 15 24 22
f 15 22 16
f 16 22 17
f 20 23 21
f 21 23 24
