v -0.0302100376643 -0.0311311767332 0.00100001865641
v -0.0294626872046 -0.0328290689191 0.00100001865641
v -0.0306446830255 -0.0289928640427 0.000998550190435
v -0.0344172255829 -0.0289928640427 0.000998550190435
v -0.0344172255829 -0.0330644636032 0.00100001865641
v -0.0287024742993 -0.0351086175973 0.00100001865641
v -0.0306446830255 -0.0289928640427 -0.0139985153888
v -0.0344172255829 -0.0289928640427 -0.0139999828264
v -0.0344172255829 -0.0330811679178 0.00100001865641
v -0.0287069496241 -0.035179996561 0.00100001865641
v -0.028823863373 -0.0375081403569 0.000998550190435
v -0.0287024742993 -0.0351086175973 -0.0139985153888
v -0.031804865751 -0.0289928640427 -0.0139999828264
v -0.0287069496241 -0.0351815143872 -0.0139999828264
v -0.0344172255829 -0.029172070365 -0.0139999828264
v -0.0344172255829 -0.0330811679178 -0.0139985153888
v -0.0343450650827 -0.0445077705732 0.00100001865641
v -0.0298083937107 -0.0396996057569 0.00100001865641
v -0.0315290820826 -0.0445077705732 0.00100001865641
v -0.028823863373 -0.0375081403569 -0.0139985153888
v -0.0315290820826 -0.0445077705732 -0.0139985153888
v -0.0343450650827 -0.0403025282692 -0.0139999828264
v -0.0343450650827 -0.0445077705732 -0.0139985153888
f 1 2 3
f 1 3 4
f 1 4 5
f 1 5 9
f 1 9 17
f 1 17 19
f 1 19 18
f 1 18 10
f 1 10 6
f 1 6 2
f 2 6 3
f 3 6 12
f 3 12 7
f 3 7 13
f 3 13 8
f 3 8 4
f 4 8 15
f 4 15 16
f 4 16 9
f 4 9 5
f 6 10 11
f 6 11 20
f 6 20 12
f 7 12 14
f 7 14 13
f 8 13 14
f 8 14 22
f 8 22 15
f 9 16 23
f 9 23 17
f 10 18 11
f 11 18 19
f 11 19 21
f 11 21 20
f 12 20 14
f 14 20 21
f 14 21 22
f 15 22 23
f 15 23 16
f 17 23 21
f 17 21 19
f 21 23 22
