v -0.106903846224 0.0851397851259 -0.014000005879
v -0.118085081144 0.0851397851259 -0.0139985374128
v -0.097001201133 0.0851397851259 -0.0139985374128
v -0.0961709747609 0.0801868156974 -0.014000005879
v -0.105269134829 0.0801868156974 -0.014000005879
v -0.113247455726 0.0801868156974 -0.0139985374128
v -0.118085081144 0.0851397851259 0.000999995992397
v -0.097001201133 0.0851397851259 0.000999995992397
v -0.0961709747609 0.0801868156974 0.000998527526185
v -0.113247455726 0.0801868156974 0.000999995992397
v -0.097524649694 0.0842215271351 0.000999995992397
v -0.103488547563 0.0801868156974 0.000999995992397
f 1 2 7
f 1 7 8
f 1 8 3
f 1 3 4
f 1 4 5
f 1 5 2
f 2 6 10
f 2 10 7
f 2 5 6
f 3 8 9
f 3 9 4
f 4 9 12
f 4 12 10
f 4 10 6
f 4 6 5
f 7 10 12
f 7 12 11
f 7 11 8
f 8 11 9
f 9 11 12
