v 0.0338316473191 0.00366836946697 -0.00199998225716
v 0.0301604001204 0.00290503864227 -0.00199998225716
v 0.0338316473191 -0.00415182472678 -0.00199998225716
v 0.0338316473191 0.00366836946697 -0.0139999838548
v 0.0285005317425 0.00387569053687 -0.00200115661861
v 0.0242296239181 0.00387569053687 -0.00200115661861
v 0.0242296239181 -0.00616380409677 -0.00199998225716
v 0.0242296239181 -0.0121699121921 -0.00199998225716
v 0.0338316473191 -0.00415182472678 -0.0139999838548
v 0.0285005317425 0.00387569053687 -0.0139999838548
v 0.0242296239181 0.00387569053687 -0.0139999838548
v 0.0242296239181 -0.0121699121921 -0.0139988094933
v 0.0242296239181 -0.000185971169794 -0.0139999838548
f 1 2 7
f 1 7 8
f 1 8 3
f 1 3 9
f 1 9 4
f 1 4 10
f 1 10 5
f 1 5 6
f 1 6 2
f 2 6 7
f 3 8 12
f 3 12 9
f 4 9 13
f 4 13 11
f 4 11 10
f 5 10 11
f 5 11 6
f 6 11 13
f 6 13 12
f 6 12 8
f 6 8 7
f 9 12 13
