v -0.141918457189 -0.182567388303 -0.0139985066479
v -0.141918457189 -0.182567388303 0.00100002791145
v -0.141918457189 -0.165989287728 -0.0139985066479
v -0.124079330999 -0.151393287149 -0.0139999745997
v -0.123680290796 -0.151075777657 -0.0139999745997
v -0.112593273982 -0.151075777657 -0.0139985066479
v -0.141918457189 -0.176941682822 0.00100002791145
v -0.112593273982 -0.151075777657 0.000998559959641
v -0.137551971563 -0.176639590166 0.00100002791145
v -0.141918457189 -0.165989287728 0.000998559959641
v -0.123901342228 -0.151075777657 -0.0139999745997
v -0.137551971563 -0.175613095431 0.00100002791145
v -0.123901342228 -0.151075777657 0.000998559959641
f 1 2 7
f 1 7 10
f 1 10 3
f 1 3 4
f 1 4 5
f 1 5 6
f 1 6 8
f 1 8 2
f 2 8 9
f 2 9 12
f 2 12 7
f 3 10 13
f 3 13 11
f 3 11 4
f 4 11 5
f 5 11 13
f 5 13 8
f 5 8 6
f 7 12 13
f 7 13 10
f 8 13 12
f 8 12 9
