v -0.12382992252 0.146262123187 -0.0139999986807
v -0.12382992252 0.146262123187 0.00100000319076
v -0.124130427472 0.151444673631 -0.0139985302145
v -0.123061964052 0.149584735716 -0.0139999986807
v -0.107887216758 0.146262123187 -0.0139999986807
v -0.124130427472 0.151444673631 0.00100000319076
v -0.121088802045 0.146262123187 0.00100000319076
v -0.11294970672 0.151444673631 -0.0139985302145
v -0.107887216758 0.146262123187 0.000998534724549
v -0.113978422832 0.151444673631 0.00100000319076
v -0.11294970672 0.151444673631 0.000998534724549
f 1 2 6
f 1 6 3
f 1 3 4
f 1 4 5
f 1 5 9
f 1 9 7
f 1 7 2
f 2 7 10
f 2 10 6
f 3 6 10
f 3 10 11
f 3 11 8
f 3 8 4
f 4 8 5
f 5 8 11
f 5 11 9
f 7 9 10
f 9 11 10
