v -0.055240914 -0.106813796 -0.006250024
v -0.055240914 -0.106813796 0.003749976
v -0.054541819 -0.10220781 -0.006250024
v -0.054541815 -0.10220781 0.003749976
v -0.053543348 -0.111152254 -0.006250025
v -0.053543348 -0.111152254 0.003749975
v -0.053004798 -0.106564179 -0.006250025
v -0.049903981 -0.114060685 -0.006250025
v -0.049903981 -0.114060685 0.003749975
v -0.049002104 -0.11199934 -0.006250025
v -0.045297995 -0.114759766 -0.006250026
v -0.045297995 -0.114759766 0.003749975
v -0.040959548 -0.11306221 -0.006250026
v -0.040959548 -0.11306221 0.003749975
v -0.038051117 -0.109422848 -0.006250025
v -0.038051117 -0.109422848 0.003749975
v -0.033699006 -0.089496501 0.003749977
v -0.010981643 -0.014296943 0.003749983
v -0.008245332 0.003607531 -0.006250015
v -0.008245331 0.00360753 0.003749985
v -0.0053369 0.007246889 0.003749985
v -0.0053369 0.00724689 -0.006250015
v -0.003435926 -0.020327171 0.003749982
v -0.000998445 0.008944454 -0.006250015
v -0.000998444 0.008944453 0.003749985
v 0.003607543 0.008245364 0.003749985
v 0.003607543 0.008245365 -0.006250015
v 0.003664628 -0.00160333 0.003749984
v 0.003975327 0.000443774 0.003749984
v 0.004002716 -0.005435147 -0.006250017
v 0.007246902 0.005336932 0.003749985
v 0.007246902 0.005336933 -0.006250016
v 0.008245377 -0.00360751 -0.006250017
v 0.008245378 -0.003607511 0.003749984
v 0.008944473 0.000998486 -0.006250016
v 0.008944474 0.000998485 0.003749984
f 2 28 18
f 22 27 33
f 3 1 2
f 3 2 4
f 20 4 2
f 20 21 22
f 20 22 19
f 20 3 4
f 20 19 3
f 35 36 33
f 35 33 27
f 9 28 2
f 9 23 28
f 24 27 22
f 7 3 19
f 16 15 33
f 32 36 35
f 32 35 27
f 6 9 2
f 11 12 9
f 25 21 20
f 25 2 18
f 25 20 2
f 34 33 36
f 34 16 33
f 34 36 23
f 34 23 16
f 17 23 9
f 17 16 23
f 17 9 16
f 13 15 16
f 13 33 15
f 8 11 9
f 31 26 25
f 31 36 32
f 31 25 29
f 31 27 26
f 31 32 27
f 31 29 28
f 31 23 36
f 31 28 23
f 14 13 16
f 14 9 12
f 14 16 9
f 14 12 11
f 14 11 13
f 5 2 1
f 5 6 2
f 5 9 6
f 5 8 9
f 5 1 3
f 5 3 7
f 5 11 8
f 10 5 7
f 10 11 5
f 10 13 11
f 10 19 30
f 10 7 19
f 10 33 13
f 10 30 33
f 25 24 22
f 25 22 21
f 25 26 27
f 25 27 24
f 25 28 29
f 25 18 28
f 30 22 33
f 30 19 22
