v -0.0555971701417 -0.158195038363 -0.0235000176761
v -0.0555614081399 -0.15841773935 -0.0235000176761
v -0.0555971701417 -0.158195038363 -0.0192143035532
v -0.0462294193138 -0.158195038363 -0.0235000176761
v -0.0555614081399 -0.15841773935 -0.0192143035532
v -0.0462294193138 -0.15841773935 -0.0235000176761
v -0.0462294193138 -0.158195038363 -0.0192143035532
v -0.0462294193138 -0.15841773935 -0.0192143035532
f 1 2 5
f 1 5 3
f 1 3 7
f 1 7 4
f 1 4 6
f 1 6 2
f 2 6 8
f 2 8 5
f 3 5 8
f 3 8 7
f 4 7 8
f 4 8 6
