v -0.107884329185 0.146262119074 -0.00498075941643
v -0.0691789862562 0.106627701841 -0.00498075941643
v -0.107884329185 0.146262119074 -0.0139991209945
v -0.123824612185 0.146262119074 -0.00498075941643
v -0.0691789862562 0.106627701841 -0.0109991802638
v -0.0830120490344 0.106627701841 -0.00498075941643
v -0.0755953485927 0.11319269805 -0.0139991209945
v -0.0729613253733 0.108261191571 -0.0140000038224
v -0.123824612185 0.146262119074 -0.0139991209945
v -0.129649059237 0.141225851722 -0.00498075941643
v -0.0728547813626 0.106627701841 -0.0140000038224
v -0.0739261488082 0.110915125465 -0.0139991209945
v -0.0830298063695 0.106631582788 -0.00498075941643
v -0.129649059237 0.106627701841 -0.00500018214443
v -0.0776788923668 0.106627701841 -0.0140000038224
v -0.129649059237 0.141225851722 -0.0139991209945
v -0.129649059237 0.133368808858 -0.00498075941643
v -0.129649059237 0.106627701841 -0.0139991209945
f 1 2 5
f 1 5 3
f 1 3 9
f 1 9 4
f 1 4 10
f 1 10 17
f 1 17 13
f 1 13 6
f 1 6 2
f 2 6 14
f 2 14 18
f 2 18 15
f 2 15 11
f 2 11 5
f 3 5 7
f 3 7 8
f 3 8 9
f 4 9 16
f 4 16 10
f 5 11 8
f 5 8 12
f 5 12 7
f 6 13 14
f 7 12 8
f 8 11 15
f 8 15 9
f 9 15 16
f 10 16 18
f 10 18 14
f 10 14 17
f 13 17 14
f 15 18 16
