v -0.145046774821 0.163118182027 -0.013999996624
v -0.142779915458 0.17371531703 -0.013998528672
v -0.142779915458 0.165505348672 -0.013998528672
v -0.14674457679 0.158961929045 -0.013998528672
v -0.14841895734 0.158961929045 -0.013998528672
v -0.166701345227 0.158961929045 -0.0139970602058
v -0.159294253572 0.163118182027 -0.013998528672
v -0.159294253572 0.163123957172 -0.013998528672
v -0.153474890621 0.17371531703 -0.013998528672
v -0.142779915458 0.17371531703 0.000998539352068
v -0.142779915458 0.165505348672 0.000998539352068
v -0.14674457679 0.158961929045 0.000998539352068
v -0.166701345227 0.158961929045 0.000998539352068
v -0.153474890621 0.17371531703 0.00100000730411
f 1 2 3
f 1 3 4
f 1 4 5
f 1 5 6
f 1 6 7
f 1 7 8
f 1 8 9
f 1 9 2
f 2 10 11
f 2 11 3
f 2 9 14
f 2 14 10
f 3 11 12
f 3 12 4
f 4 12 13
f 4 13 6
f 4 6 5
f 6 13 14
f 6 14 9
f 6 9 8
f 6 8 7
f 10 14 11
f 11 14 12
f 12 14 13
