v 0.00420011002542 0.0241991279717 0.00100001351472
v -0.004608291841 0.0240944678927 0.000998546077085
v -0.004608291841 0.0164165873845 0.00100001351472
v 0.00420011002542 0.0165009851011 0.00100001351472
v 0.00420011002542 0.0244810240783 1.11587818995e-07
v -0.004608291841 0.0250152742112 -0.00200116073196
v -0.004608291841 0.016392952075 0.000988267843614
v -0.00460225755645 0.016396325022 0.00100001351472
v 0.00420011002542 0.0165009851011 -0.0139985195021
v 0.00420011002542 0.0250152742112 -0.00200116073196
v -0.004608291841 0.0250152742112 -0.0139999879681
v -0.004608291841 0.016392952075 -0.0139985195021
v -0.004608291841 0.0206636048717 -0.0139999879681
v 0.00420011002542 0.0240986881899 -0.0139999879681
v 0.00420011002542 0.0250152742112 -0.0139999879681
f 1 2 3
f 1 3 8
f 1 8 4
f 1 4 9
f 1 9 14
f 1 14 15
f 1 15 10
f 1 10 5
f 1 5 6
f 1 6 2
f 2 6 11
f 2 11 13
f 2 13 12
f 2 12 7
f 2 7 3
f 3 7 8
f 4 8 7
f 4 7 12
f 4 12 9
f 5 10 6
f 6 10 15
f 6 15 11
f 9 12 13
f 9 13 14
f 11 15 14
f 11 14 13
