v -0.0699677774808 0.135862430913 0.0509499978022
v -0.0699677774808 0.141298407707 0.0509499978022
v -0.0690912574365 0.135862430913 0.0509499978022
v -0.0699677774808 0.135862430913 0.0659499981978
v -0.0690912574365 0.141463449898 0.0509499978022
v -0.0699677774808 0.141298407707 0.0659499981978
v -0.0690912574365 0.141463998322 0.0658692424877
v -0.0690912574365 0.135862430913 0.0659499981978
v -0.0690912574365 0.141463998322 0.0659499981978
f 1 2 5
f 1 5 3
f 1 3 8
f 1 8 4
f 1 4 6
f 1 6 2
f 2 6 9
f 2 9 7
f 2 7 5
f 3 5 7
f 3 7 9
f 3 9 8
f 4 8 9
f 4 9 6
