v -0.0568670669975 -0.147927903583 -0.0100834833415
v -0.0568670669975 -0.147927903583 -0.0085001705498
v -0.0568670669975 -0.147153182825 -0.0100834833415
v -0.0490215629408 -0.147927903583 -0.0100834833415
v -0.0568670669975 -0.147153182825 -0.0085001705498
v -0.0481451298139 -0.147927903583 -0.0085001705498
v -0.0487542205692 -0.147153182825 -0.00850001563124
v -0.0480283297169 -0.147153182825 -0.0100834833415
v -0.0481451298139 -0.147927676107 -0.0100834833415
v -0.0480283297169 -0.147153182825 -0.0085001705498
f 1 2 5
f 1 5 3
f 1 3 8
f 1 8 9
f 1 9 4
f 1 4 6
f 1 6 2
f 2 6 7
f 2 7 5
f 3 5 7
f 3 7 10
f 3 10 8
f 4 9 6
f 6 9 8
f 6 8 10
f 6 10 7
