v 0.0338330705382 0.0366318848461 -0.0139999879681
v 0.0388912982449 0.0336292462468 -0.0139988136067
v 0.0338330705382 0.0336526265286 -0.0139988136067
v 0.0338330705382 0.0385044710092 -0.0139999879681
v 0.0414709446038 0.0385044710092 -0.0139999879681
v 0.0467185180405 0.0336292462468 -0.0139988136067
v 0.0388912982449 0.0336292462468 -0.00199998637051
v 0.0338330705382 0.0336526265286 -0.00199998637051
v 0.0338330705382 0.0385044710092 -0.00200116073196
v 0.0483742237081 0.0385044710092 -0.0139988136067
v 0.0467185180405 0.0336292462468 -0.00199998637051
v 0.0338330705382 0.0366318848461 -0.00199998637051
v 0.036963675458 0.0385044710092 -0.00199998637051
v 0.0483742237081 0.0385044710092 -0.00199998637051
f 1 2 3
f 1 3 8
f 1 8 12
f 1 12 9
f 1 9 4
f 1 4 5
f 1 5 6
f 1 6 2
f 2 6 11
f 2 11 7
f 2 7 8
f 2 8 3
f 4 9 13
f 4 13 14
f 4 14 10
f 4 10 5
f 5 10 6
f 6 10 14
f 6 14 11
f 7 11 14
f 7 14 13
f 7 13 12
f 7 12 8
f 9 12 13
