v -0.0447508093515 0.156936323174 0.0659499975441
v -0.0527065789635 0.156936323174 0.0659499975441
v -0.0447508093515 0.150766056932 0.0659499975441
v -0.0447508093515 0.156936323174 0.0509499971485
v -0.0559432060915 0.156936323174 0.065948529413
v -0.0568659238954 0.151523402118 0.0659499975441
v -0.0462273936799 0.150537412176 0.0659499975441
v -0.0447508093515 0.150766056932 0.0509514652797
v -0.049770012412 0.150537412176 0.0509499971485
v -0.0559432060915 0.156936323174 0.0509499971485
v -0.0568659238954 0.155523112301 0.065948529413
v -0.0568659238954 0.150537412176 0.0659499975441
v -0.0462273936799 0.150537412176 0.0509514652797
v -0.0568659238954 0.150537412176 0.0509499971485
v -0.0568659238954 0.155523112301 0.0509499971485
f 1 2 6
f 1 6 12
f 1 12 7
f 1 7 3
f 1 3 8
f 1 8 4
f 1 4 10
f 1 10 5
f 1 5 2
f 2 5 6
f 3 7 13
f 3 13 8
f 4 8 9
f 4 9 14
f 4 14 15
f 4 15 10
f 5 11 6
f 5 10 15
f 5 15 11
f 6 11 15
f 6 15 14
f 6 14 12
f 7 12 14
f 7 14 9
f 7 9 13
f 8 13 9
