v 0.0163968365501 -0.0045997124328 -0.0140000192474
v 0.0155655941804 0.00587894984194 -0.0139985507812
v 0.0242211535961 0.00105195743556 -0.0140000192474
v 0.0242211535961 -0.0045997124328 -0.0140000192474
v 0.0163968365501 -0.0045997124328 0.000994109787497
v 0.0242211535961 0.00587894984194 -0.0139985507812
v 0.0155655941804 0.00587894984194 0.000999982624007
v 0.0242211535961 -0.0045997124328 -0.00200119211192
v 0.0225807081899 -0.0045997124328 0.000998514157795
v 0.016501060631 0.00421114242658 0.000999982624007
v 0.0242211535961 0.00587894984194 -0.00200119211192
v 0.0242194588956 0.00587894984194 0.000999982624007
v 0.0240949066354 -0.0045997124328 0.000998514157795
f 1 2 3
f 1 3 4
f 1 4 8
f 1 8 13
f 1 13 9
f 1 9 5
f 1 5 7
f 1 7 2
f 2 6 3
f 2 7 12
f 2 12 11
f 2 11 6
f 3 6 11
f 3 11 8
f 3 8 4
f 5 9 10
f 5 10 7
f 7 10 12
f 8 11 12
f 8 12 13
f 9 13 10
f 10 13 12
