v -0.0568671099702 0.124339373586 0.0509514672407
v -0.0581533219435 0.124691766893 0.0509514672407
v -0.0581533219435 0.126591348171 0.0509499991095
v -0.0568671099702 0.127665257989 0.0509499991095
v -0.0568671099702 0.124339913513 0.0659499995051
v -0.0581533219435 0.124691766893 0.0659499995051
v -0.0581533219435 0.129656039886 0.0509499991095
v -0.0568671099702 0.129851934075 0.0509499991095
v -0.0568671099702 0.128320397454 0.0659499995051
v -0.0581533219435 0.128839004646 0.0659499995051
v -0.0581533219435 0.12965711974 0.05095880855
v -0.0568671099702 0.129852474002 0.0625567928578
v -0.0568671099702 0.129852474002 0.065948531374
v -0.0581533219435 0.12965711974 0.065948531374
f 1 2 3
f 1 3 4
f 1 4 8
f 1 8 12
f 1 12 13
f 1 13 9
f 1 9 5
f 1 5 6
f 1 6 2
f 2 6 10
f 2 10 14
f 2 14 11
f 2 11 7
f 2 7 3
f 3 7 8
f 3 8 4
f 5 9 10
f 5 10 6
f 7 11 8
f 8 11 12
f 9 13 10
f 10 13 14
f 11 14 13
f 11 13 12
