v -0.0452796359386 0.134178035433 0.0659499988515
v -0.0548144446458 0.134178035433 0.0659499988515
v -0.0452796359386 0.132534152136 0.0659499988515
v -0.0452796359386 0.134178035433 0.0509499984559
v -0.0545643145817 0.132534152136 0.0659499988515
v -0.0548144446458 0.134178035433 0.0658428141663
v -0.0452796359386 0.132534152136 0.0509499984559
v -0.0548135112125 0.134178035433 0.0509499984559
v -0.0545643145817 0.132534152136 0.050951466587
v -0.0510251605999 0.132534152136 0.0509499984559
f 1 2 5
f 1 5 3
f 1 3 7
f 1 7 4
f 1 4 8
f 1 8 6
f 1 6 2
f 2 6 9
f 2 9 5
f 3 5 9
f 3 9 10
f 3 10 7
f 4 7 10
f 4 10 8
f 6 8 9
f 8 10 9
