v -0.113896139 0.196476027 0.03594999
v -0.113896139 0.196476027 0.050949991
v -0.112098128 0.181422234 0.03594999
v -0.112098128 0.181422234 0.050949991
v -0.108103849 0.21048668 0.035949986
v -0.108103849 0.21048668 0.050949987
v -0.106489465 0.167145237 0.050949994
v -0.096200556 0.219876051 0.035949986
v -0.096200556 0.219876051 0.050949987
v -0.0812262 0.22224623 0.035949986
v -0.0812262 0.22224623 0.050949987
v -0.067005053 0.216991886 0.03594999
v -0.067005053 0.216991886 0.050949991
v -0.057169028 0.205454931 0.03594999
v -0.057169028 0.205454931 0.050949991
v -0.052384362 -0.006143307 0.035950013
v -0.052384362 -0.006143306 0.040950011
v -0.050933953 -0.010352575 0.035950013
v -0.050933953 -0.010352575 0.040950011
v -0.041536741 -0.011472816 0.029049989
v -0.041195687 -0.012642859 0.029049989
v -0.037243526 -0.021675922 0.029049989
v -0.036615651 -0.022720473 0.029049989
v -0.035958488 -0.023746852 0.029049989
v -0.035272557 -0.024754237 0.029049989
v -0.034823608 -0.015209066 0.050950013
v -0.034120552 0.008946332 0.02545001
v -0.034084938 0.009923101 0.02545001
v -0.033741072 -0.01028531 0.025450012
v -0.033666953 -0.011259913 0.025450012
v -0.033431191 0.011941813 0.02545001
v -0.032934073 -0.013251263 0.025450014
v -0.032658 0.013917859 0.02545001
v -0.032571897 -0.00879325 0.025450012
v -0.032083534 -0.015195269 0.025450014
v -0.031768121 0.015844181 0.02545001
v -0.031515054 0.016231634 0.02545001
v -0.031452499 0.001729343 0.053450014
v -0.031359803 -0.002968679 0.053450014
v -0.031118359 -0.017084986 0.025450014
v -0.030845307 0.006388884 0.053450011
v -0.0306454 -0.011848262 0.025450014
v -0.030620249 0.00698096 0.053450011
v -0.030569267 -0.007600641 0.053450014
v -0.030452855 -0.017800849 0.025450014
v -0.030225288 -0.008322144 0.053450014
v -0.028722454 -0.032123905 0.029049991
v -0.028722454 -0.032123905 0.029850008
v -0.027802525 -0.032923311 0.029049991
v -0.027802525 -0.032923311 0.02985001
v -0.027207788 0.014690096 0.053450011
v -0.026990229 0.01624128 0.053450011
v -0.026860354 -0.033696376 0.029049991
v -0.026860354 -0.033696376 0.02985001
v -0.0266071 -0.015751893 0.053450014
v -0.026328521 -0.017293287 0.053450014
v -0.025896702 -0.034442496 0.029049991
v -0.025896702 -0.034442496 0.02985001
v -0.02588124 -0.011323561 0.053450014
v -0.024273936 0.020075565 0.053450011
v -0.02346308 -0.021017432 0.053450014
v -0.022546941 -0.030588118 0.050950017
v -0.021017481 0.023463117 0.053450011
v -0.020075521 -0.024273885 0.053450014
v -0.01780089 0.030452898 0.02545001
v -0.017389834 -0.039427377 0.029049993
v -0.017389834 -0.039427377 0.02985001
v -0.017293338 0.02632856 0.053450011
v -0.017197628 0.026387639 0.053450011
v -0.017098749 0.026441246 0.053450011
v -0.017085031 0.031118397 0.025450008
v -0.016997019 0.026489208 0.053450011
v -0.016585696 -0.031131338 0.025450015
v -0.016327877 0.026652513 0.053450011
v -0.016267901 -0.039903376 0.029049993
v -0.016267901 -0.039903376 0.02985001
v -0.016241239 -0.026990183 0.053450014
v -0.016147386 0.031615105 0.025450008
v -0.015844142 -0.031768076 0.025450015
v -0.015714277 -0.021337993 0.025450014
v -0.015653646 -0.027226701 0.053450014
v -0.015195315 0.032083567 0.025450008
v -0.015132952 -0.040347464 0.029049993
v -0.015132952 -0.040347464 0.02985001
v -0.014408376 -0.027108818 0.053450014
v -0.014229669 0.032523368 0.025450008
v -0.013985896 -0.040759277 0.029049993
v -0.013985896 -0.040759277 0.02985001
v -0.01391782 -0.032657951 0.025450015
v -0.013251306 0.032934114 0.025450008
v -0.01226111 0.033315435 0.025450008
v -0.011941776 -0.033431143 0.025450015
v -0.011315095 0.029978221 0.02545001
v -0.011259958 0.033666991 0.025450008
v -0.010662226 0.024369635 0.053450011
v -0.010285349 0.033741109 0.02545001
v -0.009923068 -0.034084894 0.025450015
v -0.009103724 0.028867859 0.053450011
v -0.008946292 -0.034120508 0.025450015
v -0.0083222 0.030225327 0.053450011
v -0.007675755 -0.029952312 0.053450018
v -0.007600688 0.030569306 0.053450011
v -0.007123356 -0.030530011 0.053450018
v -0.006388844 -0.03084526 0.053450018
v -0.004354982 -0.042871412 0.029049993
v -0.004354982 -0.042871412 0.029850012
v -0.004223956 -0.037764467 0.050950017
v -0.003140856 -0.042977422 0.029049993
v -0.003140856 -0.042977422 0.029850012
v -0.002968729 0.03135984 0.053450011
v -0.001924227 -0.043049056 0.029049993
v -0.001924227 -0.043049056 0.029850012
v -0.001729298 -0.031452455 0.053450018
v -0.000706056 -0.043086253 0.029049993
v -0.000706056 -0.043086253 0.029850012
v 0.001729299 0.03145254 0.053450011
v 0.002968716 -0.031359751 0.053450018
v 0.00638883 0.03084535 0.053450011
v 0.007600674 -0.030569216 0.053450018
v 0.007675757 0.029952401 0.053450011
v 0.007709027 -0.030539019 0.053450018
v 0.007815503 -0.030502779 0.053450018
v 0.007919766 -0.030460611 0.053450018
v 0.009004936 0.034132205 0.02545001
v 0.009103711 -0.028867772 0.053450018
v 0.009106184 -0.042118892 0.029049993
v 0.009106184 -0.042118892 0.029850012
v 0.009466742 0.034162063 0.02545001
v 0.009923057 0.034084979 0.02545001
v 0.010285352 -0.033741023 0.025450017
v 0.010293639 -0.041844532 0.029049993
v 0.010293639 -0.041844532 0.029850012
v 0.011259947 -0.033666909 0.025450017
v 0.011472854 -0.0415367 0.029049993
v 0.011472854 -0.041536696 0.029850012
v 0.011941764 0.033431228 0.02545001
v 0.012642898 -0.041195642 0.029049993
v 0.012642898 -0.041195642 0.029850012
v 0.013251295 -0.032934029 0.025450017
v 0.013917807 0.032658033 0.02545001
v 0.015023648 -0.026277667 0.053450018
v 0.015195311 -0.032083485 0.025450017
v 0.015231748 -0.034813657 0.050950017
v 0.015487814 0.027257223 0.053450011
v 0.015844138 0.031768162 0.02545001
v 0.016241232 0.026990272 0.053450011
v 0.016551036 -0.026624937 0.053450018
v 0.0165857 0.03113142 0.02545001
v 0.016936943 0.030219298 0.02545001
v 0.017085019 -0.031118313 0.025450017
v 0.017293332 -0.026328471 0.053450018
v 0.017800886 -0.030452814 0.025450017
v 0.019314831 -0.020271545 0.025450015
v 0.020075507 0.024273973 0.053450011
v 0.021017468 -0.023463028 0.053450018
v 0.021675963 -0.037243482 0.029049993
v 0.021675963 -0.037243482 0.029850012
v 0.022720519 -0.036615603 0.029049993
v 0.022720519 -0.036615603 0.029850012
v 0.023463067 0.021017522 0.053450014
v 0.023746885 -0.035958439 0.029049993
v 0.023746885 -0.035958439 0.029850012
v 0.024273923 -0.020075476 0.053450018
v 0.024754271 -0.035272509 0.029049993
v 0.024754271 -0.035272509 0.029850012
v 0.026328515 0.017293377 0.053450014
v 0.026607094 0.015751982 0.053450014
v 0.026624978 0.016551085 0.053450014
v 0.026990214 -0.016241191 0.053450018
v 0.027207775 -0.014690006 0.053450018
v 0.027257167 -0.015487783 0.053450018
v 0.027644543 -0.026072524 0.050950017
v 0.028296839 -0.008224627 0.053450014
v 0.030452844 0.017800931 0.025450012
v 0.030530056 -0.007123306 0.053450014
v 0.030569253 0.00760073 0.053450014
v 0.030845301 -0.006388796 0.053450014
v 0.031118356 0.01708507 0.025450012
v 0.031131376 -0.016585656 0.025450015
v 0.031359795 0.002968768 0.053450014
v 0.031452496 -0.001729254 0.053450014
v 0.03176811 -0.015844097 0.025450015
v 0.032083523 0.015195352 0.025450012
v 0.032123946 -0.028722413 0.029049993
v 0.032123946 -0.028722413 0.029850012
v 0.032657988 -0.013917776 0.025450015
v 0.032923352 -0.02780248 0.029049993
v 0.032923352 -0.02780248 0.029850012
v 0.032934062 0.013251347 0.025450014
v 0.03343118 -0.01194173 0.025450015
v 0.033666942 0.011259996 0.025450014
v 0.033689022 -0.008069247 0.025450015
v 0.033696409 -0.026860312 0.029049993
v 0.033696409 -0.026860312 0.029850012
v 0.033741068 0.010285392 0.025450014
v 0.034084927 -0.009923018 0.025450015
v 0.034120541 -0.008946249 0.025450015
v 0.034208167 0.016546978 0.050950013
v 0.034442533 -0.025896657 0.029049993
v 0.034442533 -0.025896657 0.02985001
v 0.035644848 -0.013169802 0.050950017
v 0.03661564 0.022720557 0.029049987
v 0.037243523 0.021676006 0.029049987
v 0.037243523 0.021676006 0.029850006
v 0.037955668 0.001835034 0.050950017
v 0.039427411 -0.017389791 0.029049993
v 0.039427411 -0.017389791 0.02985001
v 0.03990341 -0.016267853 0.029049993
v 0.03990341 -0.016267853 0.02985001
v 0.040347502 -0.015132906 0.029049991
v 0.040347502 -0.015132905 0.02985001
v 0.040759321 -0.013985853 0.029049991
v 0.040759321 -0.013985853 0.02985001
v 0.041195672 0.012642942 0.029049989
v 0.041195672 0.012642942 0.029850008
v 0.041536737 0.011472899 0.029049989
v 0.041536737 0.011472899 0.029850008
v 0.041844569 0.010293679 0.029049989
v 0.041844569 0.010293679 0.029850008
v 0.042118937 0.009106226 0.029049989
v 0.042118937 0.009106226 0.029850008
v 0.042871457 -0.004354929 0.029049991
v 0.042871457 -0.004354929 0.02985001
v 0.04297746 -0.003140812 0.029049991
v 0.04297746 -0.003140812 0.029850008
v 0.043049101 -0.001924181 0.029049991
v 0.043049101 -0.001924181 0.029850008
v 0.043086283 -0.000706012 0.029049991
v 0.043086283 -0.000706012 0.029850008
f 26 19 62
f 166 198 15
f 17 19 4
f 7 4 19
f 7 19 26
f 61 26 62
f 204 14 15
f 204 15 198
f 117 107 143
f 127 143 107
f 115 127 107
f 3 17 4
f 56 26 61
f 64 85 61
f 64 62 77
f 64 61 62
f 215 204 198
f 203 14 204
f 205 219 198
f 205 221 219
f 39 2 4
f 52 60 6
f 52 6 2
f 94 8 10
f 12 14 178
f 160 15 13
f 160 166 15
f 199 182 206
f 157 143 138
f 157 159 143
f 119 117 143
f 132 143 127
f 112 115 107
f 112 114 115
f 186 206 182
f 137 157 138
f 37 5 65
f 55 46 56
f 55 56 61
f 81 64 77
f 81 85 64
f 81 107 104
f 81 77 62
f 81 62 107
f 217 198 219
f 217 215 198
f 202 178 14
f 202 14 203
f 202 203 178
f 214 204 215
f 214 203 204
f 118 13 11
f 118 146 13
f 172 165 185
f 172 143 165
f 141 173 160
f 38 39 46
f 38 46 55
f 38 41 2
f 38 2 39
f 38 85 141
f 38 141 160
f 44 46 39
f 44 39 4
f 44 4 7
f 44 7 26
f 44 56 46
f 44 26 56
f 51 60 52
f 51 52 41
f 51 41 38
f 43 2 41
f 43 52 2
f 43 41 52
f 128 10 129
f 136 10 12
f 136 129 10
f 154 13 146
f 154 160 13
f 176 198 166
f 176 205 198
f 162 143 159
f 162 165 143
f 121 143 122
f 121 122 119
f 121 119 143
f 113 107 117
f 113 104 107
f 135 138 143
f 135 143 132
f 135 137 138
f 109 107 106
f 109 112 107
f 109 106 105
f 222 223 212
f 158 159 157
f 158 162 159
f 18 19 17
f 93 129 178
f 33 1 5
f 48 19 18
f 48 18 47
f 58 62 54
f 111 114 112
f 116 11 110
f 116 118 11
f 116 110 118
f 144 146 118
f 144 154 146
f 144 160 154
f 9 110 11
f 74 51 38
f 201 205 177
f 201 223 205
f 188 172 185
f 188 185 184
f 188 184 187
f 169 172 201
f 169 201 177
f 101 141 85
f 101 85 81
f 170 173 141
f 151 143 172
f 229 221 205
f 229 220 221
f 229 228 220
f 59 85 38
f 59 38 55
f 95 38 160
f 95 74 38
f 71 5 8
f 71 65 5
f 71 37 65
f 71 82 37
f 96 94 10
f 96 10 128
f 124 129 94
f 124 128 129
f 124 94 96
f 124 96 128
f 192 93 178
f 152 184 150
f 168 166 160
f 168 176 166
f 180 205 176
f 175 170 171
f 175 169 177
f 175 171 169
f 208 206 186
f 208 186 210
f 183 178 203
f 183 203 214
f 156 150 158
f 156 157 137
f 156 158 157
f 164 165 162
f 164 150 184
f 16 17 3
f 16 18 17
f 28 27 1
f 36 5 37
f 36 33 5
f 36 37 33
f 50 19 48
f 50 62 19
f 50 54 62
f 67 62 58
f 108 109 105
f 120 160 144
f 120 144 118
f 120 95 160
f 120 118 110
f 102 110 9
f 102 9 72
f 70 72 9
f 70 102 72
f 63 60 51
f 63 51 74
f 63 74 70
f 63 70 68
f 63 6 60
f 63 9 6
f 63 68 9
f 213 212 223
f 213 223 201
f 207 206 208
f 200 201 172
f 200 207 201
f 200 199 206
f 200 206 207
f 125 141 101
f 103 104 113
f 103 113 101
f 103 81 104
f 103 101 81
f 163 169 171
f 163 170 151
f 163 171 170
f 163 172 169
f 227 229 205
f 78 8 82
f 78 71 8
f 78 82 71
f 86 82 8
f 86 8 90
f 91 8 94
f 91 90 8
f 91 94 129
f 91 129 93
f 91 37 82
f 91 93 37
f 148 178 145
f 148 145 12
f 140 136 12
f 140 12 145
f 140 129 136
f 140 145 129
f 149 178 129
f 149 145 178
f 149 129 145
f 191 220 228
f 191 218 220
f 191 216 218
f 191 214 216
f 190 186 182
f 190 212 210
f 190 210 186
f 226 228 229
f 226 229 227
f 153 93 192
f 153 80 93
f 153 79 80
f 31 37 93
f 31 33 37
f 31 1 33
f 31 28 1
f 130 133 114
f 126 114 133
f 126 132 127
f 42 34 31
f 42 93 80
f 42 31 93
f 97 108 105
f 97 111 108
f 167 168 160
f 167 176 168
f 167 160 173
f 181 177 205
f 181 205 180
f 181 175 177
f 181 180 176
f 181 167 173
f 181 176 167
f 181 173 170
f 181 170 175
f 142 150 156
f 142 156 137
f 161 162 158
f 161 164 162
f 161 158 150
f 161 150 164
f 25 40 47
f 25 47 18
f 45 73 47
f 45 47 40
f 45 79 73
f 45 34 42
f 21 16 3
f 21 22 18
f 21 18 16
f 57 67 58
f 98 120 110
f 98 74 95
f 98 95 120
f 69 9 68
f 69 70 9
f 69 68 70
f 100 70 74
f 100 102 70
f 100 110 102
f 100 98 110
f 100 74 98
f 209 207 208
f 209 201 207
f 194 172 188
f 194 200 172
f 123 141 125
f 123 147 141
f 123 125 101
f 123 151 147
f 123 101 113
f 123 122 143
f 123 143 151
f 123 113 117
f 155 151 172
f 155 172 163
f 155 163 151
f 225 205 223
f 225 227 205
f 225 226 227
f 174 12 178
f 174 178 148
f 174 148 12
f 189 192 178
f 189 191 192
f 189 178 183
f 189 183 214
f 189 214 191
f 197 228 226
f 179 190 182
f 179 152 150
f 179 184 152
f 179 187 184
f 179 182 187
f 139 79 153
f 139 192 150
f 139 153 192
f 139 150 142
f 139 137 133
f 139 142 137
f 131 126 133
f 131 132 126
f 89 79 139
f 23 22 40
f 23 18 22
f 35 40 22
f 35 22 21
f 35 45 40
f 53 54 50
f 53 79 57
f 211 210 212
f 211 212 213
f 211 208 210
f 211 209 208
f 211 213 201
f 211 201 209
f 193 182 199
f 193 187 182
f 193 199 200
f 193 200 194
f 195 191 228
f 195 228 197
f 196 192 191
f 196 191 195
f 196 195 197
f 196 190 179
f 196 212 190
f 196 150 192
f 196 179 150
f 196 222 212
f 196 197 226
f 134 133 137
f 134 131 133
f 134 137 135
f 99 89 139
f 99 139 133
f 99 97 89
f 99 133 130
f 99 130 114
f 99 114 111
f 99 111 97
f 87 97 105
f 24 40 25
f 24 23 40
f 24 25 18
f 24 18 23
f 30 3 1
f 49 53 50
f 49 79 53
f 49 47 73
f 49 73 79
f 224 222 196
f 224 196 226
f 224 226 225
f 224 223 222
f 224 225 223
f 92 89 97
f 92 97 87
f 88 84 87
f 88 106 107
f 88 107 84
f 76 62 67
f 76 107 62
f 76 84 107
f 66 79 89
f 66 57 79
f 66 67 57
f 20 21 3
f 20 3 30
f 20 30 21
f 32 35 21
f 32 21 30
f 32 45 35
f 32 30 45
f 29 1 27
f 29 30 1
f 29 27 28
f 29 28 31
f 29 45 30
f 29 31 34
f 29 34 45
f 83 89 92
f 83 92 87
f 83 87 84
f 75 66 89
f 75 89 83
f 75 76 67
f 75 67 66
f 75 84 76
f 75 83 84
f 220 218 219
f 220 219 221
f 12 13 15
f 12 15 14
f 12 10 11
f 12 11 13
f 1 6 5
f 1 2 6
f 1 4 2
f 1 3 4
f 216 219 218
f 216 217 219
f 216 215 217
f 216 214 215
f 9 11 10
f 9 10 8
f 9 5 6
f 9 8 5
f 59 55 61
f 59 61 85
f 164 185 165
f 164 184 185
f 108 111 112
f 108 112 109
f 147 151 170
f 147 170 141
f 91 82 86
f 91 86 90
f 126 127 115
f 126 115 114
f 45 42 80
f 45 80 79
f 123 117 119
f 123 119 122
f 53 57 58
f 53 58 54
f 193 194 188
f 193 188 187
f 134 132 131
f 134 135 132
f 49 50 48
f 49 48 47
f 88 87 105
f 88 105 106
