v -0.173202882717 0.146262119074 -0.013999996624
v -0.173202882717 0.146262119074 0.000998536781224
v -0.173202882717 0.150405468475 -0.013999996624
v -0.162309133993 0.146262119074 -0.013999996624
v -0.173202882717 0.150405468475 0.00100000524744
v -0.162309133993 0.146262119074 0.000998536781224
v -0.173202882717 0.157593244495 -0.0139985281578
v -0.172970001252 0.150797059465 -0.013999996624
v -0.154903317477 0.150661557465 -0.013999996624
v -0.173202882717 0.157593244495 0.00100000524744
v -0.154903317477 0.158960686813 0.00100000524744
v -0.154903317477 0.150661557465 0.000998536781224
v -0.166703541756 0.158960686813 -0.0139985281578
v -0.154903317477 0.158960686813 -0.0139985281578
v -0.154903317477 0.150765978987 -0.013999996624
v -0.166703541756 0.158960686813 0.00100000524744
f 1 2 5
f 1 5 10
f 1 10 7
f 1 7 3
f 1 3 8
f 1 8 15
f 1 15 9
f 1 9 4
f 1 4 6
f 1 6 2
f 2 6 5
f 3 7 8
f 4 9 12
f 4 12 6
f 5 6 11
f 5 11 16
f 5 16 10
f 6 12 11
f 7 10 16
f 7 16 13
f 7 13 8
f 8 13 14
f 8 14 15
f 9 15 14
f 9 14 11
f 9 11 12
f 11 14 13
f 11 13 16
