v -0.049874373275 -0.122637714615 -0.00894336967327
v -0.049874373275 -0.122638682039 -0.00850005615846
v -0.0480715755273 -0.122769290805 -0.00850005615846
v -0.0480715755273 -0.122769290805 -0.00894336967327
v -0.0516076707652 -0.122906672846 -0.00894336967327
v -0.0516603224854 -0.122915379661 -0.00850005615846
v -0.0480199765343 -0.122784770895 -0.00894336967327
v -0.0463435433071 -0.123302370147 -0.00850005615846
v -0.0516603224854 -0.122915379661 -0.00894336967327
v -0.0551774627511 -0.123878020064 -0.00850005615846
v -0.0463435433071 -0.123302370147 -0.00894336967327
v -0.0444206993629 -0.124509781876 -0.00850005615846
v -0.0551774627511 -0.123878020064 -0.00894336967327
v -0.0551774627511 -0.130958013991 -0.00850005615846
v -0.0444206993629 -0.124509781876 -0.00894336967327
v -0.0444206993629 -0.132520488602 -0.00850005615846
v -0.0551774627511 -0.130958013991 -0.00894336967327
v -0.0545656488283 -0.132520488602 -0.00850005615846
v -0.0444206993629 -0.132520488602 -0.00894336967327
v -0.0545656488283 -0.132520488602 -0.00894336967327
f 1 2 3
f 1 3 4
f 1 4 7
f 1 7 11
f 1 11 15
f 1 15 19
f 1 19 20
f 1 20 17
f 1 17 13
f 1 13 9
f 1 9 5
f 1 5 6
f 1 6 2
f 2 6 10
f 2 10 14
f 2 14 18
f 2 18 16
f 2 16 12
f 2 12 8
f 2 8 3
f 3 7 4
f 3 8 7
f 5 9 6
f 6 9 13
f 6 13 10
f 7 8 11
f 8 12 15
f 8 15 11
f 10 13 17
f 10 17 14
f 12 16 19
f 12 19 15
f 14 17 20
f 14 20 18
f 16 18 20
f 16 20 19
