v -0.0704332003684 -0.128699526239 -0.0170590552947
v -0.0704332003684 -0.128051637209 -0.0170590552947
v -0.0699730072671 -0.128699526239 -0.0170590552947
v -0.0704332003684 -0.128699526239 -0.00888906320065
v -0.0701595893512 -0.127976711533 -0.0170590552947
v -0.0704332003684 -0.128051637209 -0.00888906320065
v -0.0699730072671 -0.12792565116 -0.0170590552947
v -0.0699730072671 -0.128699526239 -0.00888906320065
v -0.0699730072671 -0.12792565116 -0.0101158417107
v -0.07003404518 -0.127942392823 -0.00888906320065
v -0.0699730072671 -0.127925725678 -0.00888906320065
f 1 2 5
f 1 5 7
f 1 7 3
f 1 3 8
f 1 8 4
f 1 4 6
f 1 6 2
f 2 6 5
f 3 7 9
f 3 9 11
f 3 11 8
f 4 8 11
f 4 11 10
f 4 10 6
f 5 6 9
f 5 9 7
f 6 10 9
f 9 10 11
