v -0.0682213890852 0.14217123814 0.0509514652797
v -0.0568671099702 0.155522133111 0.0509499971485
v -0.0568671099702 0.151522745838 0.0509499971485
v -0.0568671099702 0.14217123814 0.0509514652797
v -0.0682225003153 0.14217123814 0.0659470612819
v -0.0568671099702 0.155523439787 0.0657517789236
v -0.0568671099702 0.14217123814 0.0659499975441
v -0.0682225003153 0.14217123814 0.0659499975441
v -0.0568671099702 0.155523439787 0.065948529413
v -0.0568671099702 0.151522745838 0.0659499975441
f 1 2 3
f 1 3 4
f 1 4 7
f 1 7 8
f 1 8 5
f 1 5 6
f 1 6 2
f 2 6 9
f 2 9 10
f 2 10 7
f 2 7 4
f 2 4 3
f 5 8 9
f 5 9 6
f 7 10 8
f 8 10 9
