v -0.0130247313591 0.0102863557933 -0.0140000161624
v -0.011899339165 0.0121841982351 -0.0140000161624
v -0.00432703889181 0.016436872272 -0.0140000161624
v -0.00432499044314 0.016436872272 0.000778274047776
v -0.0130247313591 0.0102863557933 0.000998517242808
v -0.0252666842598 0.0102863557933 -0.0139985476962
v -0.0252666842598 0.0111558029647 -0.0139985476962
v -0.0189489189403 0.016436872272 -0.0139985476962
v -0.00432499044314 0.016436872272 0.00099998570902
v -0.011899339165 0.0121841982351 0.00099998570902
v -0.0247931594367 0.0102863557933 0.00099998570902
v -0.0252666842598 0.0102863557933 0.00099998570902
v -0.0252666842598 0.0111558029647 0.00099998570902
v -0.0189489189403 0.016436872272 0.00099998570902
f 1 2 3
f 1 3 4
f 1 4 9
f 1 9 5
f 1 5 11
f 1 11 12
f 1 12 6
f 1 6 7
f 1 7 2
f 2 7 8
f 2 8 3
f 3 8 14
f 3 14 9
f 3 9 4
f 5 9 10
f 5 10 11
f 6 12 13
f 6 13 7
f 7 13 14
f 7 14 8
f 9 14 13
f 9 13 12
f 9 12 11
f 9 11 10
