v -0.0468402573151 -0.144947750921 -0.00852644395327
v -0.0468402573151 -0.144947750921 -0.00850148310874
v -0.0468402573151 -0.144946534451 -0.0235000157151
v -0.0452782807965 -0.144335923925 -0.0235000157151
v -0.0452782807965 -0.144335923925 -0.00850148310874
v -0.0468402573151 -0.138958413076 -0.00850001497758
v -0.0468402573151 -0.138958413076 -0.0235000157151
v -0.0452782807965 -0.139891358141 -0.0235000157151
v -0.0452782807965 -0.134803340403 -0.00850001497758
v -0.0468402573151 -0.132521456026 -0.00850001497758
v -0.0468402573151 -0.132521456026 -0.0234985475839
v -0.0452782807965 -0.132521456026 -0.0234985475839
v -0.0452782807965 -0.132521456026 -0.00850001497758
f 1 2 6
f 1 6 10
f 1 10 11
f 1 11 7
f 1 7 3
f 1 3 4
f 1 4 5
f 1 5 2
f 2 5 6
f 3 7 8
f 3 8 4
f 4 8 12
f 4 12 13
f 4 13 9
f 4 9 5
f 5 9 6
f 6 9 13
f 6 13 10
f 7 11 12
f 7 12 8
f 10 13 12
f 10 12 11
