v -0.196566172018 -0.173225665921 0.00100002482643
v -0.205980626656 -0.173410922981 0.00100002482643
v -0.196566172018 -0.173410922981 0.00100002482643
v -0.195837401561 -0.154674662802 0.000998556874629
v -0.197121194569 -0.155367984408 0.000998556874629
v -0.205961762833 -0.170100202689 0.000998556874629
v -0.205980626656 -0.173410922981 -0.0139985097329
v -0.196566172018 -0.173410922981 -0.0139985097329
v -0.195837401561 -0.158179796471 0.000998556874629
v -0.195837401561 -0.154674662802 -0.0139999776847
v -0.197121194569 -0.155367984408 -0.0139999776847
v -0.205961762833 -0.170100202689 -0.0139985097329
v -0.196833260064 -0.159654490056 -0.0139999776847
v -0.196369586792 -0.159654490056 -0.0139999776847
v -0.195837401561 -0.158179796471 -0.0139999776847
f 1 2 3
f 1 3 9
f 1 9 4
f 1 4 2
f 2 4 5
f 2 5 6
f 2 6 12
f 2 12 7
f 2 7 8
f 2 8 3
f 3 8 15
f 3 15 9
f 4 9 15
f 4 15 10
f 4 10 11
f 4 11 5
f 5 11 12
f 5 12 6
f 7 12 11
f 7 11 13
f 7 13 14
f 7 14 8
f 8 14 15
f 10 15 14
f 10 14 13
f 10 13 11
