v -0.0551786861993 0.123877943762 0.0509514678943
v -0.0568671098885 0.124339923972 0.0509514678943
v -0.0568671098885 0.127665361268 0.0509499997632
v -0.0551786861993 0.127602149267 0.0509499997632
v -0.0551786861993 0.123877943762 0.0659500001588
v -0.0568671098885 0.124339923972 0.0659485320276
v -0.0568671098885 0.129852387718 0.0509499997632
v -0.0551786861993 0.129912645154 0.0509499997632
v -0.0551786861993 0.129912645154 0.0659485320276
v -0.0564869831365 0.129912645154 0.0659485320276
v -0.0568671098885 0.129852387718 0.0659485320276
v -0.0564869831365 0.129912645154 0.0509499997632
f 1 2 3
f 1 3 4
f 1 4 8
f 1 8 9
f 1 9 5
f 1 5 6
f 1 6 2
f 2 6 11
f 2 11 7
f 2 7 3
f 3 7 12
f 3 12 8
f 3 8 4
f 5 9 10
f 5 10 11
f 5 11 6
f 7 11 10
f 7 10 12
f 8 12 10
f 8 10 9
