v -0.0452806040162 0.125295911353 0.0659500001588
v -0.055178686281 0.123877711057 0.0659500001588
v -0.0452806040162 0.123970707948 0.0659500001588
v -0.0452806040162 0.132534152136 0.0659485320276
v -0.0545643557626 0.132534152136 0.0659485320276
v -0.0516603371423 0.122915777941 0.0659500001588
v -0.055178686281 0.130958052572 0.0659485320276
v -0.055178686281 0.123877711057 0.0509514678943
v -0.0463435695244 0.123302295165 0.0659500001588
v -0.0452806040162 0.123970707948 0.0509514678943
v -0.0452806040162 0.132534152136 0.0509499997632
v -0.0545643557626 0.132534152136 0.0509499997632
v -0.0498745157641 0.122638724731 0.0659500001588
v -0.0516603371423 0.122915777941 0.0509514678943
v -0.0498745157641 0.122637756 0.0509514678943
v -0.055178686281 0.130958052572 0.0509499997632
v -0.055178686281 0.127601453768 0.0509499997632
v -0.0480712526481 0.122769500833 0.0659500001588
v -0.0463435695244 0.123302295165 0.0509514678943
v -0.0452806040162 0.129603788537 0.0509499997632
v -0.0480712526481 0.122769500833 0.0509514678943
f 1 2 6
f 1 6 13
f 1 13 18
f 1 18 9
f 1 9 3
f 1 3 10
f 1 10 20
f 1 20 11
f 1 11 4
f 1 4 5
f 1 5 2
f 2 5 7
f 2 7 16
f 2 16 17
f 2 17 8
f 2 8 14
f 2 14 6
f 3 9 19
f 3 19 10
f 4 11 12
f 4 12 5
f 5 12 16
f 5 16 7
f 6 14 15
f 6 15 13
f 8 17 14
f 9 18 21
f 9 21 19
f 10 19 20
f 11 20 17
f 11 17 16
f 11 16 12
f 13 15 18
f 14 17 15
f 15 17 21
f 15 21 18
f 17 20 21
f 19 21 20
