v 0.0241023157337 0.00387419327745 -0.00198608016229
v 0.0240685780364 0.00675802187351 -0.00198725606623
v 0.0180544324551 0.0168927487878 -0.00198725606623
v 0.018558507052 0.00387419327745 -0.00198608016229
v 0.0242219401802 -0.00618168071614 -0.00198608016229
v 0.0284999394201 0.00387419327745 -0.00200254281758
v 0.0254662861613 0.0116357640061 -0.00200254281758
v 0.0223784354021 0.0168289178215 -0.00200254281758
v 0.0182476776411 0.0212372773517 -0.00200254281758
v 0.0180544324551 0.0214175161247 -0.00200254281758
v 0.0180544324551 0.00387419327745 -0.00198725606623
v 0.018558507052 -0.0162675903919 -0.00198608016229
v 0.0242290974093 -0.0121633801922 -0.00200136691363
v 0.0284999394201 0.00387419327745 -0.0139991056545
v 0.0254662861613 0.0116357640061 -0.0139991056545
v 0.0223784354021 0.0168289178215 -0.0139991056545
v 0.0182476776411 0.0212372773517 -0.0139991056545
v 0.0180544324551 0.0214175161247 -0.0139991056545
v 0.0180544324551 0.00387419327745 -0.0139991056545
v 0.018558507052 -0.0169434878476 -0.0139979297506
v 0.018558507052 -0.016939732359 -0.00500579919064
v 0.018558507052 -0.0169359768704 -0.00200136691363
v 0.0242290974093 -0.0121633801922 -0.0139979297506
f 1 2 3
f 1 3 4
f 1 4 12
f 1 12 5
f 1 5 6
f 1 6 2
f 2 6 7
f 2 7 3
f 3 7 8
f 3 8 9
f 3 9 10
f 3 10 18
f 3 18 19
f 3 19 11
f 3 11 12
f 3 12 4
f 5 12 13
f 5 13 6
f 6 13 23
f 6 23 14
f 6 14 15
f 6 15 7
f 7 15 16
f 7 16 8
f 8 16 17
f 8 17 9
f 9 17 18
f 9 18 10
f 11 19 20
f 11 20 21
f 11 21 22
f 11 22 12
f 12 22 13
f 13 22 21
f 13 21 20
f 13 20 23
f 14 23 20
f 14 20 19
f 14 19 18
f 14 18 17
f 14 17 16
f 14 16 15
