v 0.0113117632173 -0.0241989972313 0.00100001814224
v 0.0113117632173 -0.0241989972313 -0.000717875208282
v 0.0185558991881 -0.016943985563 -0.00200115661861
v 0.0163062010912 -0.0190820185457 0.000998550190435
v 0.0178856699287 -0.0174633782755 0.000998550190435
v 0.0185573141805 -0.0162679523667 0.000998550190435
v 0.0185573141805 0.00387295104573 0.000998550190435
v 0.0164047816388 0.00387295104573 0.000998550190435
v 0.0113117632173 -0.0124151007627 0.000998550190435
v 0.0113117632173 -0.0241962495135 -0.0139985164171
v 0.0185558991881 -0.016943985563 -0.0139985164171
v 0.0185573141805 -0.0169412378452 -0.00200115661861
v 0.0185573141805 0.00387295104573 -0.0139999843689
v 0.0164047816388 0.00387295104573 -0.0139999843689
v 0.0113117632173 -0.0124151007627 -0.0139985164171
v 0.0185573141805 -0.0169412378452 -0.0139985164171
f 1 2 11
f 1 11 3
f 1 3 4
f 1 4 5
f 1 5 6
f 1 6 7
f 1 7 8
f 1 8 9
f 1 9 15
f 1 15 10
f 1 10 2
f 2 10 11
f 3 5 4
f 3 11 16
f 3 16 12
f 3 12 6
f 3 6 5
f 6 12 16
f 6 16 13
f 6 13 7
f 7 13 14
f 7 14 8
f 8 14 15
f 8 15 9
f 10 13 11
f 10 15 14
f 10 14 13
f 11 13 16
