v 0.0548513103857 0.0423296973542 -0.0139999869398
v 0.0548513103857 0.0423296973542 -0.00199998534218
v 0.0548513103857 0.0474469434076 -0.0139999869398
v 0.0655802271701 0.0399562121005 -0.0139999869398
v 0.0650483792336 0.0357325255348 -0.0139988125783
v 0.0560335365542 0.0476653705226 -0.00200115970362
v 0.0548513103857 0.0474469434076 -0.00200115970362
v 0.0650483792336 0.0357325255348 -0.00199998534218
v 0.0660320869013 0.0435398038094 -0.00199998534218
v 0.0560335365542 0.0476653705226 -0.0139999869398
v 0.0680765370567 0.0399562121005 -0.0139999869398
v 0.0699520930585 0.0357325255348 -0.0139988125783
v 0.0614335507443 0.0465685704083 -0.00200115970362
v 0.0699520930585 0.0357325255348 -0.00199998534218
v 0.0699861680504 0.0366109067608 -0.00199998534218
v 0.0660320869013 0.0435398038094 -0.0139999869398
v 0.0614335507443 0.0465685704083 -0.0139999869398
v 0.0699861680504 0.0366109067608 -0.0139988125783
f 1 2 7
f 1 7 3
f 1 3 10
f 1 10 17
f 1 17 16
f 1 16 11
f 1 11 4
f 1 4 5
f 1 5 8
f 1 8 2
f 2 6 7
f 2 8 14
f 2 14 15
f 2 15 9
f 2 9 6
f 3 7 6
f 3 6 10
f 4 11 12
f 4 12 5
f 5 12 14
f 5 14 8
f 6 9 13
f 6 13 17
f 6 17 10
f 9 15 18
f 9 18 16
f 9 16 17
f 9 17 13
f 11 16 18
f 11 18 12
f 12 18 15
f 12 15 14
