v -0.0581533219435 0.124691889782 0.0509514672407
v -0.0598660930122 0.125160115106 0.0509499991095
v -0.0581533219435 0.126591512894 0.0509499991095
v -0.0581533219435 0.124691889782 0.0659499995051
v -0.0598660930122 0.130379068977 0.0509499991095
v -0.0598660930122 0.125160115106 0.0659499995051
v -0.0581533219435 0.129655852938 0.0509499991095
v -0.0581533219435 0.128839104003 0.0659499995051
v -0.0598079165184 0.130379068977 0.0509499991095
v -0.0598660930122 0.130379068977 0.065948531374
v -0.0598660930122 0.127936059548 0.0659499995051
v -0.0581543279336 0.129656966783 0.0509499991095
v -0.0581533219435 0.129656966783 0.05095880855
v -0.0598079165184 0.130379068977 0.065948531374
v -0.0581533219435 0.129656966783 0.065948531374
f 1 2 3
f 1 3 7
f 1 7 13
f 1 13 15
f 1 15 8
f 1 8 4
f 1 4 6
f 1 6 2
f 2 5 9
f 2 9 12
f 2 12 7
f 2 7 3
f 2 6 11
f 2 11 10
f 2 10 5
f 4 8 11
f 4 11 6
f 5 10 14
f 5 14 9
f 7 12 13
f 8 14 10
f 8 10 11
f 8 15 14
f 9 13 12
f 9 14 15
f 9 15 13
