v -0.169352741599 -0.15124532172 0.00100002482643
v -0.169352741599 -0.13763925642 0.00099855636046
v -0.175173707808 -0.143509537583 0.00099855636046
v -0.175173707808 -0.157614251971 0.00100002482643
v -0.169352741599 -0.157545805826 0.00100002482643
v -0.169352741599 -0.13763925642 -0.0139999776847
v -0.175173707808 -0.143509537583 -0.0139999776847
v -0.175173707808 -0.157614251971 -0.0139970417811
v -0.169352741599 -0.157545805826 -0.0139970417811
v -0.169352741599 -0.139952559249 -0.0139999776847
v -0.169352741599 -0.15124532172 -0.0139985102471
v -0.174423794732 -0.153386550776 -0.0139985102471
v -0.175173707808 -0.153625116853 -0.0139985102471
f 1 2 3
f 1 3 4
f 1 4 5
f 1 5 9
f 1 9 11
f 1 11 10
f 1 10 6
f 1 6 2
f 2 6 7
f 2 7 3
f 3 7 13
f 3 13 8
f 3 8 4
f 4 8 9
f 4 9 5
f 6 10 7
f 7 10 11
f 7 11 12
f 7 12 13
f 8 13 9
f 9 13 12
f 9 12 11
