v -0.0447508086978 0.158338474692 0.0641794209363
v -0.0447508086978 0.156936460443 0.0641794209363
v -0.0447508086978 0.158338474692 0.0509499958412
v -0.0553989340588 0.158338474692 0.0641794209363
v -0.055943446967 0.156936460443 0.0641794209363
v -0.0447508086978 0.156936460443 0.0509499958412
v -0.05555998726 0.158338474692 0.0509499958412
v -0.05555998726 0.158337376535 0.0641794209363
v -0.055943446967 0.156936460443 0.0509499958412
f 1 2 6
f 1 6 3
f 1 3 7
f 1 7 4
f 1 4 8
f 1 8 5
f 1 5 2
f 2 5 9
f 2 9 6
f 3 6 9
f 3 9 7
f 4 7 8
f 5 8 7
f 5 7 9
