v 0.0574913736303 0.015603073689 -0.0119608301518
v 0.0574913736303 0.015603073689 -0.0139999848831
v 0.0574890619276 0.015603073689 -0.00200115764694
v 0.0338339590218 -0.00415045909456 -0.0019999832855
v 0.0338339590218 -0.00415045909456 -0.0139988105217
v 0.0467847429766 0.0144795532526 -0.0139999848831
v 0.0476370126563 0.015603073689 -0.0139999848831
v 0.0476370126563 0.015603073689 -0.00200115764694
v 0.0338455422156 0.00367553492278 -0.0019999832855
v 0.0338339590218 0.00366973509919 -0.0019999832855
v 0.0338339590218 0.00366973509919 -0.0139988105217
f 1 2 7
f 1 7 8
f 1 8 3
f 1 3 4
f 1 4 5
f 1 5 2
f 2 5 6
f 2 6 7
f 3 8 9
f 3 9 4
f 4 9 10
f 4 10 11
f 4 11 5
f 5 11 6
f 6 11 7
f 7 11 10
f 7 10 8
f 8 10 9
