v -0.134695293238 0.17371531703 0.000998537809562
v -0.134695293238 0.17371531703 -0.0139985302145
v -0.135716037676 0.17371531703 0.00100000627577
v -0.112948661929 0.151447347309 0.000998537809562
v -0.137197308749 0.17371531703 -0.0139985302145
v -0.112948661929 0.151447347309 -0.0139999976523
v -0.137197308749 0.17371531703 0.00100000627577
v -0.124131760197 0.151447347309 0.000998537809562
v -0.137197308749 0.164827756406 -0.0139985302145
v -0.113290489602 0.151447347309 -0.0139999976523
v -0.137197308749 0.164827756406 0.000998537809562
v -0.124131760197 0.151447347309 -0.0139985302145
f 1 2 5
f 1 5 7
f 1 7 3
f 1 3 4
f 1 4 6
f 1 6 2
f 2 6 10
f 2 10 5
f 3 7 8
f 3 8 4
f 4 8 12
f 4 12 10
f 4 10 6
f 5 9 11
f 5 11 7
f 5 10 9
f 7 11 8
f 8 11 9
f 8 9 12
f 9 10 12
