v -0.0371724756284 0.0102863557933 -0.0140000151341
v -0.0449874080648 0.0102863557933 -0.0139985466679
v -0.055900123449 0.0214637447306 -0.0139985466679
v -0.0300772602834 0.0148651897499 -0.0140000151341
v -0.0252671490685 0.0102863557933 -0.0140000151341
v -0.0449874080648 0.0102863557933 0.000998518271146
v -0.0559031220817 0.0214637447306 -0.00784789997597
v -0.0304101290782 0.0214637447306 -0.0139985466679
v -0.0252671490685 0.0111561731663 -0.0140000151341
v -0.0252671490685 0.0102863557933 0.000998518271146
v -0.0559031220817 0.0214637447306 0.000999986737358
v -0.0293275568653 0.0127294969153 0.000999986737358
v -0.0304101290782 0.0214637447306 0.000999986737358
v -0.0252671490685 0.0111561731663 0.000998518271146
f 1 2 3
f 1 3 4
f 1 4 9
f 1 9 5
f 1 5 10
f 1 10 6
f 1 6 2
f 2 6 11
f 2 11 7
f 2 7 3
f 3 7 11
f 3 11 13
f 3 13 8
f 3 8 4
f 4 8 9
f 5 9 14
f 5 14 10
f 6 10 12
f 6 12 11
f 8 13 14
f 8 14 9
f 10 14 12
f 11 12 13
f 12 14 13
