v 0.00459698249295 -0.0230268117503 0.00100001865641
v 0.00459698249295 -0.0251978379139 0.00100001865641
v 0.00459698249295 -0.016401780211 0.000998550704604
v -0.00422385814406 -0.0164947871693 0.000998550704604
v -0.00252877126296 -0.0251978379139 0.00100001865641
v 0.00459698249295 -0.0251978379139 -0.0139985148746
v 0.00459698249295 -0.0164009205209 -0.0139999828264
v -0.00422385814406 -0.0251978379139 0.000998550704604
v -0.00422385814406 -0.0164947871693 -0.0139999828264
v -0.00422385814406 -0.0251978379139 -0.0139985148746
v -0.00422385814406 -0.0165507657503 -0.0139999828264
f 1 2 6
f 1 6 7
f 1 7 3
f 1 3 4
f 1 4 5
f 1 5 2
f 2 5 8
f 2 8 10
f 2 10 6
f 3 7 4
f 4 8 5
f 4 7 9
f 4 9 11
f 4 11 10
f 4 10 8
f 6 10 11
f 6 11 7
f 7 11 9
