v -0.0757026912014 0.130017372713 0.0509499984559
v -0.0757026912014 0.130017372713 0.0659499988515
v -0.0756995902156 0.130379068977 0.0509499984559
v -0.0754468860195 0.129564230051 0.0509499984559
v -0.0756995902156 0.130379068977 0.0659499988515
v -0.0754468860195 0.129564230051 0.0659499988515
v -0.0682812726246 0.130379068977 0.0509499984559
v -0.0749988419427 0.129300621419 0.0509499984559
v -0.0598660933391 0.130379068977 0.0659499988515
v -0.0749988419427 0.129300621419 0.0659499988515
v -0.0598660933391 0.130379068977 0.050951466587
v -0.0598660933391 0.125160526915 0.050951466587
v -0.0598660933391 0.125160526915 0.0659499988515
f 1 2 5
f 1 5 3
f 1 3 7
f 1 7 8
f 1 8 4
f 1 4 6
f 1 6 2
f 2 6 10
f 2 10 13
f 2 13 9
f 2 9 5
f 3 5 9
f 3 9 11
f 3 11 7
f 4 8 10
f 4 10 6
f 7 11 12
f 7 12 8
f 8 12 13
f 8 13 10
f 9 13 12
f 9 12 11
