v -0.0422946874066 0.132684211349 0.0659499988515
v -0.0422946874066 0.145649539525 0.0659485307203
v -0.0436030563287 0.14459567303 0.0659485307203
v -0.0436030563287 0.12929282189 0.0659499988515
v -0.0422946874066 0.127476290032 0.0659499988515
v -0.0422946874066 0.145649539525 0.065945594458
v -0.0436030563287 0.14459567303 0.0509499984559
v -0.0436030563287 0.125414118788 0.0659499988515
v -0.0427897286751 0.126355070571 0.0659499988515
v -0.0422946874066 0.127476290032 0.050951466587
v -0.0422946874066 0.145647558267 0.0509499984559
v -0.0436030563287 0.13663819049 0.0509499984559
v -0.0436030563287 0.125412136876 0.050951466587
v -0.0427897286751 0.126355070571 0.050951466587
v -0.0422946874066 0.132684211349 0.0509499984559
f 1 2 3
f 1 3 4
f 1 4 8
f 1 8 9
f 1 9 5
f 1 5 10
f 1 10 15
f 1 15 11
f 1 11 6
f 1 6 2
f 2 6 7
f 2 7 3
f 3 7 12
f 3 12 13
f 3 13 8
f 3 8 4
f 5 9 14
f 5 14 10
f 6 11 7
f 7 11 15
f 7 15 12
f 8 13 9
f 9 13 14
f 10 14 15
f 12 15 13
f 13 15 14
