v -0.141918119895 -0.128374737505 -0.00498073834829
v -0.138486129816 -0.132210411759 -0.00498073834829
v -0.138088895373 -0.134730032001 -0.00498015296716
v -0.141918119895 -0.128374737505 0.00100002225559
v -0.141918119895 -0.118313931605 -0.00498073834829
v -0.138486129816 -0.124741534681 -0.00498073834829
v -0.128254368973 -0.134730032001 -0.00498015296716
v -0.138088895373 -0.134730032001 0.000999436617374
v -0.141918119895 -0.118313931605 0.00100002225559
v -0.138486129816 -0.132210411759 0.00100002225559
v -0.141225300117 -0.118313931605 -0.00498073834829
v -0.128254368973 -0.134730032001 0.000999436617374
v -0.141225300117 -0.118313931605 0.00100002225559
v -0.138486129816 -0.124741534681 0.00100002225559
f 1 2 3
f 1 3 8
f 1 8 4
f 1 4 9
f 1 9 5
f 1 5 11
f 1 11 6
f 1 6 2
f 2 6 7
f 2 7 3
f 3 7 12
f 3 12 8
f 4 8 10
f 4 10 14
f 4 14 13
f 4 13 9
f 5 9 13
f 5 13 11
f 6 11 7
f 7 11 13
f 7 13 12
f 8 12 10
f 10 12 14
f 12 13 14
