v -0.0581527577024 -0.124691694179 -0.00850001367025
v -0.0694095991847 -0.127771296058 -0.00850001367025
v -0.0581527577024 -0.129198575791 -0.00850001367025
v -0.0581527577024 -0.124691147715 -0.0193271483244
v -0.0694095991847 -0.130271356101 -0.00850001367025
v -0.0694095991847 -0.127771296058 -0.0234985462766
v -0.0689523175065 -0.130271356101 -0.00850001367025
v -0.0597229416364 -0.130271356101 -0.00850148180142
v -0.0581549612065 -0.129656856269 -0.00850148180142
v -0.0581527577024 -0.129655216878 -0.00850148180142
v -0.0581527577024 -0.124691147715 -0.0234985462766
v -0.0694095991847 -0.130271356101 -0.0235000144078
v -0.0694095991847 -0.128796554936 -0.0235000144078
v -0.0581527577024 -0.129656856269 -0.00851469628926
v -0.0597229416364 -0.130271356101 -0.0235000144078
v -0.0581527577024 -0.127781128485 -0.0235000144078
v -0.0581527577024 -0.129656856269 -0.0235000144078
f 1 2 5
f 1 5 7
f 1 7 3
f 1 3 10
f 1 10 14
f 1 14 17
f 1 17 16
f 1 16 11
f 1 11 4
f 1 4 2
f 2 4 11
f 2 11 6
f 2 6 13
f 2 13 12
f 2 12 5
f 3 7 8
f 3 8 9
f 3 9 10
f 5 12 15
f 5 15 8
f 5 8 7
f 6 11 13
f 8 14 9
f 8 15 17
f 8 17 14
f 9 14 10
f 11 16 13
f 12 13 16
f 12 16 17
f 12 17 15
