v -0.0279045555189 0.0593437849685 0.000999990850709
v -0.0403251368452 0.0593437849685 0.000999990850709
v -0.0279045555189 0.0570043702121 0.000999990850709
v -0.0279045555189 0.0593437849685 -0.0140000110207
v -0.0403227058549 0.0593358400316 0.000999990850709
v -0.0403263523403 0.0593437849685 0.000979434894584
v -0.0397390090457 0.0477499974231 0.000998522384497
v -0.0279045555189 0.0508238159897 0.000998522384497
v -0.0315891429125 0.0477499974231 0.000998522384497
v -0.0279045555189 0.0508238159897 -0.0140000110207
v -0.028302201361 0.0593437849685 -0.0140000110207
v -0.0403239213501 0.0593437849685 -0.0139985425545
v -0.0397390090457 0.0477499974231 -0.0140000110207
v -0.0315891429125 0.0477499974231 -0.0140000110207
f 1 2 5
f 1 5 3
f 1 3 8
f 1 8 10
f 1 10 4
f 1 4 11
f 1 11 12
f 1 12 6
f 1 6 2
f 2 6 7
f 2 7 5
f 3 5 7
f 3 7 9
f 3 9 8
f 4 10 14
f 4 14 13
f 4 13 11
f 6 12 13
f 6 13 7
f 7 13 14
f 7 14 9
f 8 9 14
f 8 14 10
f 11 13 12
