v -0.0699730072671 -0.129658767585 -0.00888906320065
v -0.0699730072671 -0.129658767585 -0.016670008379
v -0.0704332003684 -0.129658767585 -0.00888906320065
v -0.0699730072671 -0.141298551407 -0.00888906320065
v -0.0704332003684 -0.129658767585 -0.016670008379
v -0.0699730072671 -0.141298551407 -0.016670008379
v -0.0704332003684 -0.141359318703 -0.00888906320065
v -0.0704329755077 -0.141370784637 -0.00888906320065
v -0.0704331559192 -0.141371931165 -0.016670008379
v -0.0704332003684 -0.140865155622 -0.016670008379
f 1 2 5
f 1 5 3
f 1 3 7
f 1 7 8
f 1 8 4
f 1 4 6
f 1 6 2
f 2 6 9
f 2 9 10
f 2 10 5
f 3 5 10
f 3 10 7
f 4 8 9
f 4 9 6
f 7 10 9
f 7 9 8
