v -0.0741905239761 0.135862430913 0.0509499978022
v -0.0727436996985 0.140976082981 0.0509499978022
v -0.0699678650719 0.135862430913 0.0509499978022
v -0.0741905239761 0.135862430913 0.0659499981978
v -0.0726234070731 0.141243657724 0.0509499978022
v -0.0727436996985 0.140976082981 0.0659499981978
v -0.0699678650719 0.141298544977 0.0509499978022
v -0.0699678650719 0.135862430913 0.0659499981978
v -0.0724303589412 0.141464349994 0.0509499978022
v -0.0726234070731 0.141243657724 0.0659499981978
v -0.0724307720573 0.141464349994 0.0659499981978
v -0.0715176193304 0.141668461403 0.0509499978022
v -0.0699678650719 0.141298544977 0.0659499981978
v -0.0721823323704 0.141619863386 0.0509499978022
v -0.0721823323704 0.141619863386 0.0659499981978
v -0.0717412576676 0.141702765731 0.0509499978022
v -0.0717412576676 0.141703337688 0.0659499981978
v -0.0715176193304 0.141668461403 0.0659499981978
v -0.0719665484694 0.141686757153 0.0509499978022
v -0.0719665484694 0.141686757153 0.0659499981978
f 1 2 5
f 1 5 9
f 1 9 14
f 1 14 19
f 1 19 16
f 1 16 12
f 1 12 7
f 1 7 3
f 1 3 8
f 1 8 4
f 1 4 6
f 1 6 2
f 2 6 10
f 2 10 5
f 3 7 13
f 3 13 8
f 4 8 13
f 4 13 18
f 4 18 17
f 4 17 20
f 4 20 15
f 4 15 11
f 4 11 10
f 4 10 6
f 5 10 11
f 5 11 9
f 7 12 18
f 7 18 13
f 9 11 14
f 11 15 14
f 12 16 17
f 12 17 18
f 14 15 20
f 14 20 19
f 16 19 17
f 17 19 20
