v 0.0242220173998 -0.0045997124328 -0.0140000192474
v 0.0242220173998 0.00105195743556 -0.0140000192474
v 0.0279190229993 -0.0045997124328 -0.0140000192474
v 0.0242220173998 -0.0045997124328 -0.00200119211192
v 0.0242220173998 0.00587894984194 -0.0139988438575
v 0.0329740348903 0.00191457644471 -0.0140000192474
v 0.0329740348903 -0.00325295204225 -0.0140000192474
v 0.0279190229993 -0.0045997124328 -0.00200001775028
v 0.0242220173998 0.000578074750882 -0.00200001775028
v 0.0317634017289 0.00587894984194 -0.0139988438575
v 0.0242220173998 0.00587894984194 -0.00200001775028
v 0.0329740348903 0.00486760029694 -0.0139988438575
v 0.0329740348903 -0.00325295204225 -0.00200119211192
v 0.0320984012394 -0.00282933450354 -0.00200001775028
v 0.0317634017289 0.00587894984194 -0.00200001775028
v 0.0329740348903 0.00486760029694 -0.00200001775028
f 1 2 6
f 1 6 7
f 1 7 3
f 1 3 8
f 1 8 4
f 1 4 9
f 1 9 11
f 1 11 5
f 1 5 2
f 2 5 6
f 3 7 13
f 3 13 8
f 4 8 9
f 5 10 6
f 5 11 15
f 5 15 10
f 6 10 12
f 6 12 16
f 6 16 13
f 6 13 7
f 8 13 14
f 8 14 16
f 8 16 15
f 8 15 11
f 8 11 9
f 10 15 16
f 10 16 12
f 13 16 14
