v -0.13583599 -0.125010967 -0.004999978
v -0.13583599 -0.125010967 -0.002999977
v -0.135815695 -0.125300124 -0.004999978
v -0.135815695 -0.125300124 -0.002999977
v -0.135713339 -0.125571311 -0.004999978
v -0.135713339 -0.125571311 -0.002999977
v -0.13553749 -0.125801742 -0.004999978
v -0.13553749 -0.125801742 -0.002999977
v -0.135505214 -0.12063209 -0.004999978
v -0.135505214 -0.12063209 -0.002999978
v -0.135460958 -0.120404162 -0.004999978
v -0.135460958 -0.120404162 -0.002999978
v -0.135365337 -0.120192572 -0.004999978
v -0.135365337 -0.120192572 -0.002999978
v -0.135223508 -0.120008752 -0.004999978
v -0.135223508 -0.120008752 -0.002999978
v -0.135130972 -0.120123602 0.005716758
v -0.13498874 -0.119768336 0.005700004
v -0.134980336 -0.120475397 0.005757164
v -0.130329907 -0.125016704 0.006500023
v -0.123878762 -0.118141443 0.006478538
v -0.123642072 -0.118168168 0.006500023
v -0.123033643 -0.117970683 0.006500023
v -0.122548774 -0.138485685 -0.004999976
v -0.122548774 -0.138485685 -0.002999976
v -0.122388966 -0.125997171 0.006500024
v -0.12231423 -0.138656005 -0.004999976
v -0.12231423 -0.138656005 -0.002999976
v -0.122081667 -0.126578942 0.006500024
v -0.122040696 -0.138751909 -0.004999976
v -0.122040696 -0.138751909 -0.002999976
v -0.121887587 -0.133260936 0.006500024
v -0.121751137 -0.13876532 -0.004999976
v -0.121751137 -0.13876532 -0.002999976
v -0.120311752 -0.128015518 0.006500024
v -0.117381349 -0.138330683 -0.004999976
v -0.117381349 -0.138330683 -0.002999975
v -0.117237158 -0.137802243 0.005757166
v -0.117154531 -0.138281047 -0.004999976
v -0.117154531 -0.138281032 -0.002999975
v -0.116945282 -0.13818042 -0.004999976
v -0.116945282 -0.13818042 -0.002999975
v -0.116881892 -0.137944475 0.005716761
v -0.116830945 -0.110741191 0.00646392
v -0.116810784 -0.11143475 0.006500022
v -0.116764873 -0.138034254 -0.004999976
v -0.116764873 -0.138034254 -0.002999975
v -0.116530105 -0.137793839 0.005700007
v -0.111010239 -0.107151814 0.006500022
v -0.108332865 -0.119380511 0.006500023
v -0.108245447 -0.109740078 0.006500022
v -0.107042201 -0.091150299 0.005700002
v -0.107004151 -0.118019871 0.006500023
v -0.106690414 -0.090999678 0.005716756
v -0.106440358 -0.111776277 0.006500023
v -0.106335148 -0.091141909 0.005757162
v -0.104900122 -0.11335472 0.006500023
v -0.104691789 -0.108671553 0.006500022
v -0.104356736 -0.113430113 0.006500023
v -0.103694141 -0.108061403 0.006500022
v -0.101684712 -0.095683224 0.006500022
v -0.100456581 -0.121334113 0.005700006
v -0.093242399 -0.103927448 0.006500022
v -0.088591963 -0.108468764 0.005757164
v -0.088583574 -0.109175816 0.005700005
v -0.088441335 -0.10882055 0.005716759
v -0.014841316 0.003919059 -0.031499986
v -0.014812473 -0.004026636 -0.031499986
v -0.014302813 0.013077327 0.004119979
v -0.014056815 0.013515102 0.001000014
v -0.014056815 0.013515102 0.004000014
v -0.013302447 0.01425822 0.001000014
v -0.013302447 0.01425822 0.004000014
v -0.013128905 0.013033947 0.005000014
v -0.012544769 -0.003410165 -0.031499986
v -0.012508849 0.0149593 0.001000014
v -0.012508849 0.014959301 0.004000014
v -0.011678367 0.015616268 0.001000014
v -0.011678367 0.015616268 0.004000014
v -0.011603116 0.011519188 -0.030499987
v -0.011315318 0.014636104 0.005000014
v -0.01124169 0.015802197 0.004107161
v -0.010893445 0.010814659 -0.031499986
v -0.010824454 0.015782375 0.004362349
v -0.01081465 -0.01089338 -0.031499986
v -0.01018389 0.015720502 0.004769179
v -0.009742938 0.015799632 0.004937911
v -0.009308128 0.015987836 0.005000014
v -0.008864863 0.016338315 0.004911727
v -0.008556483 0.016762372 0.004680129
v -0.00838084 0.017205045 0.004362349
v -0.008174529 0.017598797 0.004095412
v -0.007814814 0.017865628 0.001000014
v -0.007814814 0.017865628 0.004000014
v -0.007141669 0.017066006 0.005000014
v -0.006833488 0.0182635 0.004000014
v -0.006833487 0.0182635 0.001000014
v -0.005832011 0.01860751 0.001000014
v -0.005832011 0.01860751 0.004000014
v -0.004853015 0.01785217 0.005000014
v -0.004813334 0.018896664 0.001000014
v -0.004813334 0.018896664 0.004000014
v -0.004338748 0.018901318 0.004107161
v -0.004289018 0.015777459 -0.030499987
v -0.004026696 0.014812478 -0.031499986
v -0.003960856 0.018723339 0.004362349
v -0.003919058 -0.014841241 -0.031499986
v -0.003410237 0.012544777 -0.031499986
v -0.00339273 0.018421048 0.004769179
v -0.002955062 0.018325405 0.004937911
v -0.00248133 0.018332882 0.005000014
v -0.001937686 0.018487057 0.004911727
v -0.001490496 0.01876083 0.004680129
v -0.00115882 0.019102583 0.004362349
v -0.00081753 0.019387418 0.004095412
v -0.000383086 0.019496273 0.001000014
v -0.000383086 0.019496273 0.004000014
v -6.7183e-05 0.01849992 0.005000014
v 0.000675802 0.019488323 0.001000014
v 0.000675802 0.019488323 0.004000014
v 0.001732694 0.019422909 0.001000014
v 0.001732694 0.019422909 0.004000014
v 0.002348108 0.018350415 0.005000014
v 0.002784478 0.019300215 0.004000014
v 0.002784479 0.019300213 0.001000014
v 0.003224721 0.019122908 0.004107161
v 0.003319015 0.012569208 -0.031499986
v 0.003505739 0.018813856 0.004362349
v 0.003914937 0.018317167 0.00476918
v 0.003918998 0.014841318 -0.031499986
v 0.004026636 -0.014812401 -0.031499986
v 0.004174308 0.015808176 -0.030499987
v 0.00428269 0.018061323 0.004937911
v 0.004723226 0.017886929 0.005000014
v 0.005284486 0.017821332 0.004911727
v 0.0058024 0.017903119 0.004680129
v 0.006239614 0.018091947 0.004362349
v 0.006663923 0.018224485 0.004095412
v 0.007017526 0.0171174 0.005000014
v 0.007106958 0.01815881 0.001000014
v 0.007106958 0.018158812 0.004000014
v 0.008082201 0.017746244 0.001000014
v 0.008082201 0.017746244 0.004000015
v 0.009033605 0.017281339 0.001000014
v 0.009033605 0.01728134 0.004000015
v 0.009191755 0.016054975 0.005000015
v 0.009958372 0.016765485 0.001000014
v 0.009958372 0.016765486 0.004000015
v 0.010297255 0.016433194 0.004107162
v 0.010438612 0.016040144 0.00436235
v 0.010626585 0.015424666 0.00476918
v 0.01081459 0.010893458 -0.031499986
v 0.010868437 0.01504756 0.004937911
v 0.01089339 -0.010814582 -0.031499986
v 0.011208708 0.014717863 0.005000015
v 0.011519127 0.011603129 -0.030499987
v 0.011603053 -0.011519111 -0.030499984
v 0.011702139 0.014442458 0.004911728
v 0.012211928 0.014319838 0.00468013
v 0.012569139 -0.003319006 -0.031499986
v 0.012688116 0.014326964 0.00436235
v 0.013033873 0.01312892 0.005000015
v 0.013128839 -0.013033862 0.005000018
v 0.01313085 0.014287047 0.004095413
v 0.013302385 -0.014258136 0.001000018
v 0.013302385 -0.014258136 0.004000018
v 0.013515028 0.014056821 0.001000015
v 0.013515028 0.014056822 0.004000015
v 0.014056749 -0.013515018 0.001000018
v 0.014056749 -0.013515018 0.004000018
v 0.014258155 0.013302458 0.001000015
v 0.014258155 0.013302458 0.004000015
v 0.014286974 -0.013130847 0.004095416
v 0.014326898 -0.012688113 0.004362353
v 0.014375185 -0.011909823 0.00483208
v 0.014636031 0.011315336 0.005000015
v 0.014717789 -0.011208697 0.005000018
v 0.014812417 0.004026697 -0.031499986
v 0.014841257 -0.003918982 -0.031499986
v 0.014959227 0.012508864 0.001000015
v 0.014959227 0.012508864 0.004000015
v 0.015047487 -0.010868426 0.004937914
v 0.015424592 -0.010626574 0.004769183
v 0.015616194 0.011678373 0.001000015
v 0.015616194 0.011678373 0.004000016
v 0.015720427 0.010183898 0.00476918
v 0.01577739 0.004289027 -0.030499985
v 0.015782295 0.010824461 0.004362351
v 0.01579956 0.009742949 0.004937912
v 0.015802115 0.011241698 0.004107163
v 0.015808115 -0.004174307 -0.030499985
v 0.015987761 0.009308134 0.005000016
v 0.01604007 -0.010438601 0.004362353
v 0.01605491 -0.009191744 0.005000018
v 0.01633824 0.008864881 0.004911728
v 0.016433129 -0.010297243 0.004107165
v 0.016762298 0.008556486 0.004680131
v 0.016765412 -0.009958361 0.001000017
v 0.016765412 -0.009958361 0.004000017
v 0.017065933 0.007141676 0.005000016
v 0.017117325 -0.007017519 0.005000017
v 0.01720497 0.008380858 0.004362351
v 0.017281273 -0.009033603 0.001000017
v 0.017281273 -0.009033603 0.004000017
v 0.017598724 0.008174544 0.004095414
v 0.017746171 -0.008082187 0.001000017
v 0.017746171 -0.008082186 0.004000017
v 0.017821252 -0.005284472 0.00491173
v 0.017852096 0.004853026 0.005000016
v 0.017865553 0.007814833 0.001000016
v 0.017865553 0.007814833 0.004000016
v 0.017886857 -0.004723223 0.005000017
v 0.017903047 -0.005802386 0.004680132
v 0.018061241 -0.004282686 0.004937914
v 0.018091867 -0.006239611 0.004362353
v 0.01815873 -0.007106951 0.001000017
v 0.01815873 -0.007106951 0.004000017
v 0.018224413 -0.006663912 0.004095415
v 0.018263428 0.006833494 0.001000016
v 0.018263428 0.006833495 0.004000016
v 0.018317094 -0.003914934 0.004769182
v 0.018332817 0.002481337 0.005000017
v 0.018350342 -0.002348101 0.005000017
v 0.018381028 0.003260206 0.004832078
v 0.018486984 0.001937697 0.004911729
v 0.018499848 6.7198e-05 0.005000017
v 0.018607445 0.005832014 0.001000016
v 0.018607445 0.005832015 0.004000016
v 0.018723266 0.003960875 0.004362351
v 0.01876075 0.001490507 0.004680131
v 0.018813781 -0.003505724 0.004362352
v 0.018894386 0.004311202 0.004119981
v 0.018896583 0.004813337 0.001000016
v 0.018896583 0.004813338 0.004000016
v 0.018924316 0.004646635 0.001000016
v 0.019102516 0.001158827 0.004362352
v 0.019105179 -0.003248537 0.004120592
v 0.019277245 -0.00289699 0.001000017
v 0.019277245 -0.00289699 0.004006273
v 0.019286308 -0.002859774 0.001000017
v 0.019293945 -0.002822252 0.001000017
v 0.01930014 -0.002784472 0.001000017
v 0.01930014 -0.002784471 0.004000017
v 0.019387344 0.000817534 0.004095415
v 0.019422837 -0.001732683 0.001000017
v 0.019422837 -0.001732683 0.004000017
v 0.019488251 -0.000675783 0.001000017
v 0.019488251 -0.000675783 0.004000017
v 0.019496208 0.0003831 0.001000016
v 0.019496208 0.000383101 0.004000016
f 83 104 105
f 83 80 104
f 97 104 93
f 116 104 101
f 71 18 69
f 78 104 80
f 78 93 104
f 25 32 8
f 16 71 70
f 16 18 71
f 7 85 24
f 7 25 8
f 7 24 25
f 43 28 31
f 98 101 104
f 98 104 97
f 76 78 80
f 191 178 187
f 191 187 249
f 191 216 206
f 235 249 187
f 235 187 233
f 234 235 233
f 238 217 216
f 238 216 191
f 240 191 241
f 240 238 191
f 169 165 157
f 13 83 67
f 13 80 83
f 5 68 85
f 5 85 7
f 5 6 4
f 36 131 39
f 36 33 131
f 30 31 28
f 38 32 25
f 38 43 32
f 38 25 28
f 38 28 43
f 66 64 63
f 66 43 48
f 66 63 53
f 66 32 43
f 66 53 32
f 107 131 33
f 107 33 30
f 121 124 125
f 20 8 32
f 74 69 18
f 74 71 69
f 158 161 155
f 72 80 70
f 72 76 80
f 130 105 104
f 130 127 105
f 75 107 85
f 75 85 68
f 75 68 67
f 239 240 241
f 239 217 238
f 239 238 240
f 15 70 80
f 15 80 13
f 15 16 70
f 14 18 16
f 1 67 68
f 1 2 10
f 1 4 2
f 37 36 39
f 46 157 165
f 40 48 43
f 40 37 39
f 40 43 37
f 62 65 66
f 62 66 48
f 27 107 30
f 27 30 28
f 27 24 85
f 27 85 107
f 122 124 121
f 122 123 124
f 17 4 6
f 17 2 4
f 17 10 2
f 61 22 20
f 94 95 96
f 192 202 188
f 132 125 140
f 132 140 142
f 132 121 125
f 132 130 104
f 132 119 121
f 132 104 116
f 132 116 119
f 152 178 127
f 152 127 130
f 108 75 67
f 108 67 83
f 108 83 105
f 108 105 127
f 154 108 127
f 154 75 108
f 154 131 107
f 154 107 75
f 154 191 157
f 247 191 249
f 247 245 191
f 242 241 191
f 242 191 245
f 250 234 244
f 250 249 235
f 250 235 234
f 232 244 234
f 227 233 187
f 204 194 199
f 198 169 157
f 198 157 191
f 196 199 194
f 12 10 17
f 12 18 14
f 12 17 18
f 9 67 1
f 9 1 10
f 3 68 5
f 3 1 68
f 3 5 4
f 3 4 1
f 34 43 31
f 34 37 43
f 47 46 165
f 114 115 103
f 102 98 99
f 102 101 98
f 102 117 116
f 102 116 101
f 102 115 117
f 102 103 115
f 120 121 119
f 120 122 121
f 190 205 185
f 190 188 202
f 190 202 205
f 211 185 205
f 19 8 20
f 19 20 17
f 19 6 8
f 19 17 6
f 35 20 32
f 52 74 18
f 88 61 95
f 111 112 114
f 73 71 74
f 73 74 77
f 84 86 87
f 84 87 88
f 92 94 79
f 92 79 82
f 92 95 94
f 134 139 135
f 134 123 61
f 134 61 139
f 146 61 155
f 146 139 61
f 146 155 153
f 146 153 151
f 201 63 194
f 201 212 63
f 201 194 204
f 223 63 212
f 223 237 239
f 176 63 192
f 176 181 172
f 176 185 181
f 176 188 190
f 176 190 185
f 200 192 63
f 200 205 202
f 200 211 205
f 144 147 132
f 144 132 142
f 156 167 171
f 156 147 167
f 156 171 180
f 156 132 147
f 156 180 184
f 156 130 132
f 156 152 130
f 156 184 210
f 156 210 187
f 156 187 178
f 156 178 152
f 179 127 178
f 179 178 191
f 179 191 154
f 236 244 232
f 236 225 230
f 236 222 225
f 215 213 201
f 207 217 201
f 207 201 204
f 203 191 206
f 203 198 191
f 166 47 165
f 166 48 47
f 11 13 67
f 11 67 9
f 11 14 13
f 11 12 14
f 11 10 12
f 11 9 10
f 42 48 40
f 42 47 48
f 42 40 39
f 42 46 47
f 106 109 110
f 106 114 103
f 106 110 111
f 106 111 114
f 113 114 112
f 219 228 227
f 219 210 211
f 219 187 210
f 219 227 187
f 50 35 32
f 50 32 53
f 50 53 63
f 56 61 74
f 81 74 61
f 81 61 88
f 81 88 87
f 81 87 86
f 81 77 74
f 81 79 77
f 81 86 84
f 81 82 79
f 81 84 82
f 89 95 90
f 89 88 95
f 21 17 20
f 21 44 17
f 21 20 22
f 21 22 61
f 21 61 44
f 100 95 61
f 100 61 111
f 100 111 110
f 100 110 109
f 100 99 96
f 100 96 95
f 100 102 99
f 100 109 106
f 100 103 102
f 100 106 103
f 118 61 123
f 118 111 61
f 118 112 111
f 118 113 112
f 118 123 122
f 118 122 120
f 118 120 117
f 118 114 113
f 118 117 115
f 118 115 114
f 91 82 84
f 91 92 82
f 91 84 88
f 91 90 95
f 91 95 92
f 91 89 90
f 91 88 89
f 133 129 123
f 133 123 134
f 137 134 135
f 149 161 164
f 208 201 213
f 208 212 201
f 208 213 215
f 208 215 212
f 226 222 63
f 226 63 223
f 226 225 222
f 226 230 225
f 226 248 250
f 226 246 248
f 226 223 246
f 226 236 230
f 226 250 244
f 226 244 236
f 214 221 223
f 214 223 212
f 243 223 239
f 243 246 223
f 243 239 241
f 243 241 242
f 231 223 221
f 231 237 223
f 231 221 214
f 231 215 237
f 231 212 215
f 231 214 212
f 162 63 176
f 162 61 63
f 162 155 61
f 162 158 155
f 162 176 172
f 162 172 168
f 162 164 161
f 162 168 164
f 186 188 176
f 209 63 222
f 209 200 63
f 209 232 234
f 209 234 228
f 209 228 200
f 195 202 192
f 195 192 200
f 160 154 127
f 160 127 179
f 160 179 154
f 218 237 215
f 218 217 239
f 218 239 237
f 218 201 217
f 218 215 201
f 170 165 169
f 170 166 165
f 41 42 39
f 41 46 42
f 41 39 131
f 41 131 154
f 41 157 46
f 41 154 157
f 220 228 219
f 220 219 211
f 220 200 228
f 220 211 200
f 26 23 20
f 54 74 52
f 54 56 74
f 54 18 17
f 54 52 18
f 54 17 44
f 54 44 61
f 54 61 56
f 136 135 139
f 136 137 135
f 136 139 137
f 138 139 141
f 138 137 139
f 138 141 124
f 128 133 134
f 128 134 137
f 128 129 133
f 128 123 129
f 150 146 151
f 150 149 146
f 150 161 149
f 150 151 153
f 150 155 161
f 150 153 155
f 159 161 158
f 159 162 161
f 159 158 162
f 189 176 192
f 189 186 176
f 189 192 188
f 189 188 186
f 224 209 222
f 197 200 202
f 197 202 195
f 197 195 200
f 143 141 139
f 143 139 146
f 143 146 145
f 148 146 149
f 148 145 146
f 148 164 168
f 148 149 164
f 173 170 199
f 173 199 196
f 163 166 170
f 163 48 166
f 163 170 173
f 163 62 48
f 163 65 62
f 163 66 65
f 163 63 64
f 163 64 66
f 29 20 35
f 29 26 20
f 57 35 50
f 57 29 35
f 57 26 29
f 45 23 26
f 45 49 61
f 45 61 20
f 45 20 23
f 126 137 138
f 126 128 137
f 126 138 124
f 126 124 123
f 126 123 128
f 229 232 209
f 229 209 224
f 229 224 222
f 229 222 236
f 229 236 232
f 177 194 63
f 177 63 163
f 59 50 63
f 59 63 57
f 59 57 50
f 51 49 45
f 51 45 26
f 51 61 49
f 51 58 61
f 193 196 194
f 175 177 163
f 60 61 58
f 60 58 57
f 60 63 61
f 60 57 63
f 55 26 57
f 55 51 26
f 183 193 194
f 174 163 173
f 174 175 163
f 174 173 196
f 174 196 193
f 174 193 177
f 174 177 175
f 182 177 193
f 182 193 183
f 182 194 177
f 182 183 194
f 171 168 172
f 171 167 168
f 5 7 8
f 5 8 6
f 14 15 13
f 14 16 15
f 27 25 24
f 27 28 25
f 99 97 96
f 99 98 97
f 181 171 172
f 181 180 171
f 181 185 184
f 181 184 180
f 77 78 76
f 77 79 78
f 94 78 79
f 94 93 78
f 94 96 97
f 94 97 93
f 250 248 247
f 250 247 249
f 227 228 234
f 227 234 233
f 246 247 248
f 246 245 247
f 34 31 30
f 34 30 33
f 34 33 36
f 34 36 37
f 120 119 116
f 120 116 117
f 211 184 185
f 211 210 184
f 73 72 70
f 73 70 71
f 73 77 76
f 73 76 72
f 141 125 124
f 141 140 125
f 207 216 217
f 207 206 216
f 203 206 207
f 203 207 204
f 203 204 199
f 203 199 198
f 243 245 246
f 243 242 245
f 170 198 199
f 170 169 198
f 143 140 141
f 143 142 140
f 143 144 142
f 143 145 144
f 148 144 145
f 148 147 144
f 148 168 167
f 148 167 147
f 55 58 51
f 55 57 58
