v -0.055943446967 0.156936460443 0.0641795948112
v -0.055943446967 0.156936460443 0.0659498236693
v -0.05555998726 0.158338474692 0.0658616070292
v -0.05555998726 0.158337376535 0.0641795948112
v -0.0447508086978 0.156936460443 0.0641795948112
v -0.05555998726 0.158338474692 0.0659498236693
v -0.052707047968 0.156936460443 0.0659499975441
v -0.0553989340588 0.158338474692 0.0641795948112
v -0.0447508086978 0.158338474692 0.0641795948112
v -0.0447508086978 0.156936460443 0.0659499975441
v -0.0447508086978 0.158338474692 0.0659499975441
f 1 2 6
f 1 6 3
f 1 3 4
f 1 4 8
f 1 8 9
f 1 9 5
f 1 5 10
f 1 10 7
f 1 7 2
f 2 7 6
f 3 6 11
f 3 11 9
f 3 9 8
f 3 8 4
f 5 9 11
f 5 11 10
f 6 7 11
f 7 10 11
