v -0.0480283297169 -0.147153182825 -0.0100834839952
v -0.0568670669975 -0.147153182825 -0.0100834839952
v -0.0481451298139 -0.147927676107 -0.0100834839952
v -0.0481451298139 -0.147927903583 -0.0234842571638
v -0.0481451298139 -0.147927903583 -0.0235000170224
v -0.0480291945155 -0.147153182825 -0.0235000170224
v -0.0568670669975 -0.147927903583 -0.0100834839952
v -0.0568670669975 -0.147153182825 -0.0235000170224
v -0.0490215629408 -0.147927903583 -0.0100834839952
v -0.0568670669975 -0.147927903583 -0.0235000170224
f 1 2 7
f 1 7 9
f 1 9 3
f 1 3 4
f 1 4 5
f 1 5 6
f 1 6 8
f 1 8 2
f 2 8 10
f 2 10 7
f 3 9 4
f 4 9 7
f 4 7 10
f 4 10 5
f 5 10 8
f 5 8 6
