v -0.0574322229797 -0.145338969965 -0.0186695935527
v -0.0574322229797 -0.136117322374 -0.0186695935527
v -0.0568671222322 -0.145338969965 -0.0186695935527
v -0.0574322229797 -0.145338969965 -0.00850101050909
v -0.0571478194662 -0.136005460715 -0.0186695935527
v -0.0574322229797 -0.136117322374 -0.00850001497758
v -0.0568671222322 -0.135896372555 -0.0186695935527
v -0.0568671222322 -0.145338969965 -0.00850101050909
v -0.0568671222322 -0.136837489084 -0.00850001497758
v -0.0574322229797 -0.136147830218 -0.00850001497758
v -0.0568671222322 -0.135896372555 -0.00850001497758
f 1 2 5
f 1 5 7
f 1 7 3
f 1 3 8
f 1 8 4
f 1 4 10
f 1 10 6
f 1 6 2
f 2 6 5
f 3 7 11
f 3 11 9
f 3 9 8
f 4 8 9
f 4 9 10
f 5 6 11
f 5 11 7
f 6 10 9
f 6 9 11
