v -0.141918457189 -0.128371138324 -0.0139990984562
v -0.138088944734 -0.134731006865 -0.0139990984562
v -0.141918457189 -0.128371138324 -0.00498073834829
v -0.141918457189 -0.109544910952 -0.0139990984562
v -0.115958167094 -0.0829601485039 -0.0139999812839
v -0.108537675353 -0.134731006865 -0.0139990984562
v -0.138088944734 -0.134731006865 -0.00498073834829
v -0.108537675353 -0.0840344856135 -0.0139999812839
v -0.141918457189 -0.109544910952 -0.00498073834829
v -0.115958167094 -0.0829601485039 -0.00498073834829
v -0.108537675353 -0.0829601485039 -0.0139999812839
v -0.108537675353 -0.134731006865 -0.00500016107312
v -0.128253772538 -0.134731006865 -0.00498073834829
v -0.108537675353 -0.0829601485039 -0.00498073834829
v -0.108537675353 -0.0848858462429 -0.00498073834829
f 1 2 7
f 1 7 3
f 1 3 9
f 1 9 4
f 1 4 5
f 1 5 2
f 2 6 12
f 2 12 13
f 2 13 7
f 2 5 8
f 2 8 6
f 3 7 13
f 3 13 15
f 3 15 14
f 3 14 10
f 3 10 9
f 4 9 10
f 4 10 5
f 5 10 14
f 5 14 11
f 5 11 8
f 6 8 11
f 6 11 14
f 6 14 15
f 6 15 12
f 12 15 13
