v -0.0452796359386 0.144336396562 0.0659499981978
v -0.0468483000661 0.144954527814 0.0659499981978
v -0.0452796359386 0.135501190253 0.0659499981978
v -0.0452796359386 0.144336396562 0.0509499978022
v -0.0568671096433 0.144954527814 0.0659499981978
v -0.0468483000661 0.144954527814 0.0509499978022
v -0.0558633004725 0.135501190253 0.0659499981978
v -0.0452796359386 0.135501190253 0.0509514659333
v -0.0452796359386 0.144331769922 0.0509499978022
v -0.0568671096433 0.135896312974 0.0659499981978
v -0.0568671096433 0.144954527814 0.0509499978022
v -0.0558633004725 0.135501190253 0.0509499978022
v -0.0535823285004 0.135501190253 0.0509499978022
v -0.0568671096433 0.135896312974 0.0509499978022
f 1 2 5
f 1 5 10
f 1 10 7
f 1 7 3
f 1 3 8
f 1 8 9
f 1 9 4
f 1 4 6
f 1 6 2
f 2 6 11
f 2 11 5
f 3 7 12
f 3 12 13
f 3 13 8
f 4 9 13
f 4 13 12
f 4 12 14
f 4 14 11
f 4 11 6
f 5 11 14
f 5 14 10
f 7 10 14
f 7 14 12
f 8 13 9
