v 0.0279183072763 -0.00459972065951 -0.00200041057528
v 0.0240946516076 -0.00459972065951 0.000999123962041
v 0.024067939508 -0.00675700858552 0.000999123962041
v 0.0262131259561 -0.00938766091401 -0.00200041057528
v 0.0279183072763 -0.00459972065951 -0.0139985507812
v 0.022579243837 -0.00459972065951 0.000999123962041
v 0.0225061495944 -0.00938766091401 0.000999123962041
v 0.0262131259561 -0.00938766091401 -0.0140000192474
v 0.016396729603 -0.00459972065951 -0.0139985507812
v 0.0163995431349 -0.00459972065951 0.000993251125531
v 0.0163995431349 -0.00460347203537 0.000999123962041
v 0.0135571026038 -0.00938766091401 0.000999123962041
v 0.0225651844042 -0.00938766091401 -0.0140000192474
v 0.0135571026038 -0.00938766091401 -0.0139985507812
v 0.016396729603 -0.00460112742546 -0.00198719643604
f 1 2 3
f 1 3 4
f 1 4 8
f 1 8 5
f 1 5 9
f 1 9 10
f 1 10 6
f 1 6 2
f 2 6 11
f 2 11 12
f 2 12 7
f 2 7 3
f 3 7 4
f 4 7 12
f 4 12 14
f 4 14 13
f 4 13 8
f 5 8 13
f 5 13 9
f 6 10 11
f 9 13 14
f 9 14 12
f 9 12 15
f 9 15 10
f 10 15 12
f 10 12 11
