v -0.0717411470529 -0.141703298698 -0.00850148180142
v -0.0715177388006 -0.141668554452 -0.00850148180142
v -0.0704337167636 -0.131511278503 -0.00850001367025
v -0.0719666195786 -0.141685926902 -0.00850148180142
v -0.0719666195786 -0.141685926902 -0.0235000144078
v -0.0717411470529 -0.141701962607 -0.0235000144078
v -0.0715177388006 -0.141668554452 -0.0235000144078
v -0.0704337167636 -0.14137189456 -0.00850148180142
v -0.0704337167636 -0.128052913162 -0.00850001367025
v -0.0756974925501 -0.130538446158 -0.00850001367025
v -0.0721828048347 -0.141619111246 -0.00850148180142
v -0.0721828048347 -0.141619111246 -0.0235000144078
v -0.0704337167636 -0.14137189456 -0.0235000144078
v -0.0704337167636 -0.128051577071 -0.0226572188722
v -0.0749988882818 -0.129302360768 -0.00850001367025
v -0.0727441643317 -0.140976346948 -0.00850148180142
v -0.0726234298261 -0.141243608919 -0.00850148180142
v -0.0724309791394 -0.141464099865 -0.00850148180142
v -0.0757036827559 -0.13001862183 -0.00850001367025
v -0.0756974925501 -0.130538446158 -0.0234985462766
v -0.0724309791394 -0.141464099865 -0.0235000144078
v -0.0704337167636 -0.128889442013 -0.0235000144078
v -0.0704337167636 -0.128051577071 -0.0234985462766
v -0.075448285455 -0.129565613813 -0.00850001367025
v -0.0749988882818 -0.129302360768 -0.0234985462766
v -0.0727441643317 -0.140976346948 -0.0235000144078
v -0.0726234298261 -0.141243608919 -0.0235000144078
v -0.0757036827559 -0.13001862183 -0.0234985462766
v -0.075448285455 -0.129565613813 -0.0234985462766
f 1 2 3
f 1 3 4
f 1 4 5
f 1 5 6
f 1 6 7
f 1 7 2
f 2 8 3
f 2 7 13
f 2 13 8
f 3 9 15
f 3 15 24
f 3 24 19
f 3 19 10
f 3 10 4
f 3 8 13
f 3 13 22
f 3 22 23
f 3 23 14
f 3 14 9
f 4 10 11
f 4 11 12
f 4 12 5
f 5 12 21
f 5 21 27
f 5 27 26
f 5 26 22
f 5 22 13
f 5 13 7
f 5 7 6
f 9 14 15
f 10 16 17
f 10 17 18
f 10 18 11
f 10 19 28
f 10 28 20
f 10 20 26
f 10 26 16
f 11 18 21
f 11 21 12
f 14 23 25
f 14 25 15
f 15 25 29
f 15 29 24
f 16 26 27
f 16 27 17
f 17 27 21
f 17 21 18
f 19 24 29
f 19 29 28
f 20 28 26
f 22 26 28
f 22 28 29
f 22 29 25
f 22 25 23
