v -0.0462294186601 -0.159792923304 -0.0085014857234
v -0.0555574299358 -0.159792923304 -0.00850001759224
v -0.0462294186601 -0.166259344296 -0.0085014857234
v -0.0462294186601 -0.159792923304 -0.0235000183298
v -0.0559163487867 -0.164738993153 -0.00850001759224
v -0.0555942917287 -0.159792923304 -0.00850001759224
v -0.0530740991372 -0.166504415 -0.0085014857234
v -0.0462294186601 -0.166259344296 -0.0235000183298
v -0.0561384905634 -0.163005109325 -0.0234985501986
v -0.0555942917287 -0.159792923304 -0.0234985501986
v -0.0547639282442 -0.166054353703 -0.0085014857234
v -0.0561384905634 -0.163005109325 -0.00850001759224
v -0.0559163487867 -0.164738993153 -0.0234985501986
v -0.0547639282442 -0.166054353703 -0.0234985501986
v -0.0530740991372 -0.166503757413 -0.0234985501986
f 1 2 3
f 1 3 8
f 1 8 4
f 1 4 10
f 1 10 6
f 1 6 2
f 2 5 3
f 2 6 12
f 2 12 5
f 3 5 7
f 3 7 8
f 4 8 9
f 4 9 10
f 5 11 7
f 5 12 9
f 5 9 13
f 5 13 14
f 5 14 11
f 6 10 9
f 6 9 12
f 7 11 14
f 7 14 15
f 7 15 8
f 8 15 14
f 8 14 13
f 8 13 9
