v 0.0351448146067 -0.0355259810608 -0.0139976741233
v 0.0351448146067 -0.0355259810608 -0.00200237007273
v 0.0351448146067 -0.0341676457012 -0.0139976741233
v 0.0466958027377 -0.0355138960363 -0.0140000233608
v 0.0467013310811 -0.0355259810608 -0.0140000233608
v 0.0467013310811 -0.0355259810608 -0.0020011957111
v 0.038646748661 -0.0348407708688 -0.0020011957111
v 0.0413924431828 -0.0277142673214 -0.00200002083529
v 0.0351448146067 -0.0341624628793 -0.00200237007273
v 0.0351448146067 -0.0341624628793 -0.0139436411481
v 0.0481585184855 -0.0178952548772 -0.0139976741233
v 0.0492672968559 -0.0178952548772 -0.0139976741233
v 0.0492672968559 -0.026366289379 -0.0139976741233
v 0.0492672968559 -0.026366289379 -0.00200002083529
v 0.0492631505984 -0.0263697363669 -0.00200002083529
v 0.0429215155046 -0.0246938256506 -0.00200002083529
v 0.0481585184855 -0.0178952548772 -0.00200002083529
v 0.0492672968559 -0.0178952548772 -0.00200002083529
f 1 2 9
f 1 9 10
f 1 10 3
f 1 3 4
f 1 4 5
f 1 5 6
f 1 6 2
f 2 6 7
f 2 7 8
f 2 8 9
f 3 10 11
f 3 11 4
f 4 11 12
f 4 12 5
f 5 12 13
f 5 13 14
f 5 14 6
f 6 14 15
f 6 15 8
f 6 8 7
f 8 15 14
f 8 14 18
f 8 18 17
f 8 17 16
f 8 16 9
f 9 16 17
f 9 17 11
f 9 11 10
f 11 17 18
f 11 18 12
f 12 18 14
f 12 14 13
