v -0.0568671099702 0.149012112171 0.0652288876128
v -0.0568671099702 0.149012112171 0.0659499269483
v -0.0568671099702 0.149492676072 0.0652288876128
v -0.0477210621915 0.149012112171 0.0652288876128
v -0.0568671099702 0.149492676072 0.0659499269483
v -0.0477210621915 0.149012112171 0.0659499975441
v -0.048367041852 0.149492676072 0.0659499975441
v -0.0475328420277 0.149492676072 0.0652288876128
v -0.0475337558511 0.149492676072 0.0659499975441
f 1 2 5
f 1 5 3
f 1 3 8
f 1 8 4
f 1 4 6
f 1 6 2
f 2 6 7
f 2 7 5
f 3 5 7
f 3 7 9
f 3 9 8
f 4 8 6
f 6 8 9
f 6 9 7
