v -0.0568671222322 -0.145339894247 -0.0162009729904
v -0.0568671222322 -0.145339894247 -0.0186705887573
v -0.0574322229797 -0.145339894247 -0.0162009729904
v -0.0568671222322 -0.152128893595 -0.0162009729904
v -0.0574322229797 -0.145339894247 -0.0186705887573
v -0.0568671222322 -0.152128893595 -0.0186705887573
v -0.0574322229797 -0.152128893595 -0.0162009729904
v -0.0574322229797 -0.152128893595 -0.0186705887573
f 1 2 5
f 1 5 3
f 1 3 7
f 1 7 4
f 1 4 6
f 1 6 2
f 2 6 8
f 2 8 5
f 3 5 8
f 3 8 7
f 4 7 8
f 4 8 6
