v -0.093856680621 -0.0641652905679 0.00099855224711
v -0.093856680621 -0.0641652905679 -0.0139999823123
v -0.0976038294118 -0.0641652905679 0.00099855224711
v -0.093856680621 -0.0787397675292 0.00100002019891
v -0.093856680621 -0.0666655071087 -0.0139999823123
v -0.0976038294118 -0.0641652905679 -0.0139999823123
v -0.115956632815 -0.0829601474755 0.00099855224711
v -0.103486333394 -0.0829601474755 0.00100002019891
v -0.093856680621 -0.0792659354434 0.00100002019891
v -0.093856680621 -0.0792659354434 -0.0139985143605
v -0.0974740203104 -0.0829601474755 -0.0139985143605
v -0.115956632815 -0.0829601474755 -0.0139985143605
v -0.0974740203104 -0.0829601474755 0.00100002019891
f 1 2 6
f 1 6 3
f 1 3 4
f 1 4 9
f 1 9 10
f 1 10 5
f 1 5 2
f 2 5 6
f 3 6 12
f 3 12 7
f 3 7 8
f 3 8 4
f 4 8 13
f 4 13 9
f 5 10 11
f 5 11 12
f 5 12 6
f 7 12 11
f 7 11 13
f 7 13 8
f 9 13 11
f 9 11 10
