v -0.0568671927463 -0.129852431474 -0.0235000144078
v -0.0581527577024 -0.129657077208 -0.0235000144078
v -0.0568671927463 -0.127665215411 -0.0235000144078
v -0.0568671927463 -0.129852431474 -0.00850148180142
v -0.0581527577024 -0.127781240915 -0.0235000144078
v -0.0581527577024 -0.129657077208 -0.00851469628926
v -0.0568671927463 -0.124339330932 -0.0234985462766
v -0.0568671927463 -0.128320354891 -0.00850001367025
v -0.0581527577024 -0.129198371848 -0.00850001367025
v -0.0581527577024 -0.129655457426 -0.00850148180142
v -0.0581527577024 -0.124691185628 -0.0234985462766
v -0.0568671927463 -0.124339330932 -0.020153792783
v -0.0568671927463 -0.12433987086 -0.00850001367025
v -0.0581527577024 -0.124691185628 -0.00850001367025
f 1 2 5
f 1 5 3
f 1 3 7
f 1 7 12
f 1 12 13
f 1 13 8
f 1 8 4
f 1 4 6
f 1 6 2
f 2 6 10
f 2 10 9
f 2 9 14
f 2 14 11
f 2 11 5
f 3 5 7
f 4 8 9
f 4 9 10
f 4 10 6
f 5 11 7
f 7 11 14
f 7 14 12
f 8 13 14
f 8 14 9
f 12 14 13
