v 0.0548512939323 0.0474469516343 -0.00200116073196
v 0.0548512939323 0.0474469516343 -0.0139999879681
v 0.0506083322082 0.0466654809358 -0.00200116073196
v 0.0548512939323 0.0453203578781 -0.00199998637051
v 0.0548512939323 0.0423292119789 -0.0139988136067
v 0.0414705579488 0.0385027022687 -0.0139999879681
v 0.0506083322082 0.0466654809358 -0.0139999879681
v 0.0194176624798 0.0344538742142 -0.00200116073196
v 0.00420354878607 0.0284940413071 -0.00199998637051
v 0.0548512939323 0.0423292119789 -0.00199998637051
v 0.0483675354009 0.0385027022687 -0.0139988136067
v 0.0113158847941 0.0246181302626 -0.0139999879681
v 0.0194176624798 0.0344538742142 -0.0139999879681
v -0.00460247556401 0.0250447916113 -0.00199998637051
v 0.0483675354009 0.0385027022687 -0.00199998637051
v 0.0169556990662 0.0246181302626 -0.0139988136067
v 0.00914493267083 0.0245080899217 -0.0139999879681
v -0.00460247556401 0.0250447916113 -0.0139999879681
v -0.00460247556401 0.0250178491684 -0.00199998637051
v 0.0169556990662 0.0246181302626 -0.00199998637051
v 0.0113158847941 0.0245080899217 -0.0139988136067
v 0.00420354878607 0.0245080899217 -0.0139999879681
v -0.00460247556401 0.0250178491684 -0.0139999879681
v 0.00420354878607 0.0245080899217 -0.00199998637051
v 0.0113158847941 0.0245080899217 -0.00199998637051
f 1 2 7
f 1 7 3
f 1 3 4
f 1 4 10
f 1 10 5
f 1 5 2
f 2 5 6
f 2 6 12
f 2 12 17
f 2 17 22
f 2 22 23
f 2 23 18
f 2 18 13
f 2 13 7
f 3 7 13
f 3 13 8
f 3 8 9
f 3 9 4
f 4 9 14
f 4 14 19
f 4 19 24
f 4 24 25
f 4 25 20
f 4 20 15
f 4 15 10
f 5 10 15
f 5 15 11
f 5 11 6
f 6 11 12
f 8 13 18
f 8 18 14
f 8 14 9
f 11 15 20
f 11 20 16
f 11 16 12
f 12 16 17
f 14 18 23
f 14 23 19
f 16 20 25
f 16 25 21
f 16 21 17
f 17 21 25
f 17 25 24
f 17 24 22
f 19 23 22
f 19 22 24
