v 0.0118860867749 -0.0245999178534 -0.0140000202758
v 0.00642516943345 -0.0245999178534 -0.0139985518096
v 0.00642516943345 -0.0152589754849 -0.0139985518096
v 0.0118860867749 -0.0121906790917 -0.0139985518096
v 0.0118860867749 -0.0245999178534 -0.00200141731787
v 0.00642516943345 -0.0245999178534 -0.00200141731787
v 0.00642516943345 -0.0152589754849 0.000992360585097
v 0.0118860867749 -0.0121906790917 0.00099970188782
v 0.0118860867749 -0.0210190239184 0.00099970188782
v 0.00642516943345 -0.0240861027598 0.00099970188782
v 0.00642516943345 -0.0241419785161 0.000782399738562
v 0.00642516943345 -0.0167336034964 0.00099970188782
f 1 2 3
f 1 3 4
f 1 4 8
f 1 8 9
f 1 9 5
f 1 5 6
f 1 6 2
f 2 6 11
f 2 11 10
f 2 10 12
f 2 12 7
f 2 7 3
f 3 7 8
f 3 8 4
f 5 9 10
f 5 10 11
f 5 11 6
f 7 12 8
f 8 12 10
f 8 10 9
