v -0.055240974 0.106813841 -0.007500002
v -0.055240974 0.106813841 0.002499999
v -0.054541878 0.102207854 0.002499999
v -0.054541875 0.102207854 -0.007500002
v -0.053543411 0.111152299 -0.007500002
v -0.053543411 0.111152299 0.002499998
v -0.051731691 0.109818071 0.002499998
v -0.049904045 0.11406073 -0.007500003
v -0.049904045 0.11406073 0.002499998
v -0.045547675 0.112523712 0.002499998
v -0.045298059 0.11475981 -0.007500003
v -0.045298059 0.11475981 0.002499998
v -0.043248951 0.088047087 -0.0075
v -0.040959608 0.113062255 -0.007500002
v -0.040959608 0.113062255 0.002499998
v -0.038051177 0.1094229 -0.007500002
v -0.038051177 0.1094229 0.002499999
v -0.022575883 0.064073399 0.002500004
v -0.008571438 0.013353914 0.00250001
v -0.00824537 -0.003607476 -0.007499989
v -0.00824537 -0.003607475 0.002500011
v -0.005336938 -0.007246833 0.002500012
v -0.005336937 -0.007246834 -0.007499989
v -0.003990687 0.015358094 -0.007499991
v -0.000998482 -0.008944397 -0.007499988
v -0.000998482 -0.008944396 0.002500012
v 0.001603324 -0.003664558 -0.007499989
v 0.002705619 -0.006183966 0.002500012
v 0.003607505 -0.008245306 0.002500012
v 0.003607506 -0.008245308 -0.007499988
v 0.006183997 0.002705691 0.002500011
v 0.006708319 -0.000748808 0.002500012
v 0.007246864 -0.005336875 -0.007499988
v 0.007246864 -0.005336874 0.002500012
v 0.008245337 0.003607569 0.002500011
v 0.008245338 0.003607568 -0.007499989
v 0.008944434 -0.000998427 -0.007499989
v 0.008944434 -0.000998426 0.002500012
f 6 2 9
f 4 13 20
f 36 37 14
f 36 14 16
f 36 38 37
f 36 35 38
f 17 16 14
f 17 36 16
f 17 35 36
f 11 9 12
f 11 8 9
f 11 14 13
f 3 20 21
f 3 4 20
f 3 22 2
f 3 21 22
f 3 2 1
f 3 1 4
f 33 29 30
f 33 30 37
f 33 37 38
f 15 12 17
f 15 17 14
f 15 11 12
f 15 14 11
f 10 12 9
f 10 17 12
f 10 2 17
f 31 35 17
f 34 29 33
f 34 33 38
f 34 38 35
f 26 28 22
f 26 29 34
f 26 34 28
f 23 21 20
f 23 22 21
f 19 17 2
f 19 2 22
f 19 22 28
f 5 8 11
f 5 4 1
f 5 9 8
f 5 6 9
f 5 13 4
f 5 11 13
f 27 20 13
f 27 37 30
f 27 30 20
f 7 9 2
f 7 2 10
f 7 10 9
f 32 31 28
f 32 28 34
f 32 35 31
f 32 34 35
f 25 20 30
f 25 23 20
f 18 17 19
f 18 19 28
f 18 31 17
f 18 28 31
f 24 14 37
f 24 37 27
f 5 2 6
f 5 1 2
f 25 29 26
f 25 30 29
f 25 26 22
f 25 22 23
f 24 27 13
f 24 13 14
