v -0.0864219237816 -0.0641652905679 0.00100001968475
v -0.0864210702615 -0.0641652905679 -0.0139999817981
v -0.0865489831084 -0.0641652905679 0.00100001968475
v -0.0851436467758 -0.072738406754 0.00100001968475
v -0.0851436467758 -0.0718411853564 0.000991209917247
v -0.0938545169988 -0.0641652905679 -0.0139999817981
v -0.0851436467758 -0.0718411853564 -0.0139985143605
v -0.0851436467758 -0.0780788668336 -0.0139985143605
v -0.0883261210399 -0.0689780602795 -0.0139999817981
v -0.0938545169988 -0.0641652905679 0.000998551218773
v -0.0938545169988 -0.0689751038092 0.00100001968475
v -0.0851436467758 -0.0780788668336 0.00100001968475
v -0.0938545169988 -0.0787395875701 -0.0139999817981
v -0.0938545169988 -0.0792657997029 -0.0139985143605
v -0.0938545169988 -0.0792657997029 0.00100001968475
f 1 2 6
f 1 6 10
f 1 10 3
f 1 3 11
f 1 11 15
f 1 15 12
f 1 12 4
f 1 4 5
f 1 5 2
f 2 5 7
f 2 7 8
f 2 8 9
f 2 9 13
f 2 13 6
f 3 10 11
f 4 12 8
f 4 8 7
f 4 7 5
f 6 13 14
f 6 14 15
f 6 15 11
f 6 11 10
f 8 12 15
f 8 15 14
f 8 14 13
f 8 13 9
