v -0.0328263359796 0.00460734859599 -0.0140000161624
v -0.0130272610698 0.0102863557933 -0.0140000161624
v -0.0163938576583 0.00460734859599 -0.0140000161624
v -0.0394406286401 0.00460734859599 -0.0139985476962
v -0.0449879962739 0.0102863557933 -0.0139985476962
v -0.0130272610698 0.0102863557933 0.000998517242808
v -0.0163938576583 0.00460734859599 0.000998517242808
v -0.0394406286401 0.00460734859599 0.00099998570902
v -0.0449879962739 0.0102863557933 0.00099998570902
v -0.0247946937165 0.0102863557933 0.00099998570902
v -0.0364526207399 0.00460734859599 0.00099998570902
f 1 2 3
f 1 3 7
f 1 7 11
f 1 11 8
f 1 8 4
f 1 4 5
f 1 5 2
f 2 6 7
f 2 7 3
f 2 5 9
f 2 9 10
f 2 10 6
f 4 8 9
f 4 9 5
f 6 10 7
f 7 10 11
f 8 11 10
f 8 10 9
