v -0.0462294186601 -0.158195038363 -0.00850106541693
v -0.0536449439642 -0.158195038363 -0.00850001693857
v -0.0462294186601 -0.15841773935 -0.00850106541693
v -0.0462294186601 -0.158195038363 -0.0192143035532
v -0.05391911746 -0.15841773935 -0.00850001693857
v -0.0555953362851 -0.158195038363 -0.00850001693857
v -0.0462294186601 -0.15841773935 -0.0192143035532
v -0.0555971701417 -0.158195038363 -0.0192143035532
v -0.055560491375 -0.15841773935 -0.00850001693857
v -0.0555971701417 -0.158195038363 -0.0132866263999
v -0.055560491375 -0.15841773935 -0.0192143035532
f 1 2 3
f 1 3 7
f 1 7 4
f 1 4 8
f 1 8 10
f 1 10 6
f 1 6 2
f 2 5 3
f 2 6 9
f 2 9 5
f 3 5 9
f 3 9 11
f 3 11 7
f 4 7 11
f 4 11 8
f 6 10 9
f 8 11 9
f 8 9 10
