v -0.155686678975 -0.161739193455 0.0010000253406
v -0.159282446201 -0.162977114384 0.0010000253406
v -0.155686678975 -0.169202908279 0.0010000253406
v -0.155686678975 -0.150388547922 0.000998557388798
v -0.162645447172 -0.142800778574 0.000998557388798
v -0.15929715554 -0.163119255308 0.0010000253406
v -0.169352725146 -0.147090866949 0.000998557388798
v -0.169351384194 -0.157547311312 0.000998557388798
v -0.155686678975 -0.169202908279 -0.0139985092188
v -0.155686678975 -0.150388547922 -0.0139985092188
v -0.162645447172 -0.142800778574 -0.0139985092188
v -0.169352725146 -0.142800778574 0.000997088922825
v -0.169352725146 -0.147090866949 -0.0139985092188
v -0.169351384194 -0.157547311312 -0.0139985092188
v -0.169352725146 -0.14408005101 -0.0139999771706
v -0.167835762776 -0.142800778574 -0.0139999771706
v -0.169352725146 -0.142800778574 -0.0139999771706
f 1 2 6
f 1 6 3
f 1 3 9
f 1 9 10
f 1 10 4
f 1 4 5
f 1 5 2
f 2 5 7
f 2 7 6
f 3 6 8
f 3 8 14
f 3 14 9
f 4 10 11
f 4 11 5
f 5 11 16
f 5 16 17
f 5 17 12
f 5 12 7
f 6 7 8
f 7 12 17
f 7 17 15
f 7 15 13
f 7 13 14
f 7 14 8
f 9 14 15
f 9 15 16
f 9 16 10
f 10 16 11
f 13 15 14
f 15 17 16
