v -0.173034095483 0.141411553055 -0.013998531757
v -0.173034095483 0.141411553055 0.000998536267055
v -0.161854666324 0.141411553055 -0.013998531757
v -0.148461958308 0.120232551807 -0.013999999709
v -0.148461958308 0.116244090628 -0.013999999709
v -0.148461958308 0.116244090628 0.000998536267055
v -0.161854666324 0.141411553055 0.0010000042191
v -0.148461958308 0.127694597828 -0.013998531757
v -0.148461958308 0.127694597828 0.000998536267055
f 1 2 7
f 1 7 3
f 1 3 4
f 1 4 5
f 1 5 6
f 1 6 2
f 2 6 7
f 3 7 9
f 3 9 8
f 3 8 4
f 4 8 9
f 4 9 6
f 4 6 5
f 6 9 7
