v -0.0704332003684 -0.141370787252 -0.0170590558667
v -0.0704248216928 -0.141369640724 -0.0170590558667
v -0.0704331559192 -0.141370787252 -0.0166700086241
v -0.0704332003684 -0.140865158237 -0.0166700086241
v -0.0704332003684 -0.129659914113 -0.0170590558667
v -0.0704251825158 -0.141369640724 -0.0166700086241
v -0.0699730072671 -0.141298554676 -0.0170590558667
v -0.0699730072671 -0.141298554676 -0.0166700086241
v -0.0704332003684 -0.129659914113 -0.0166700086241
v -0.0699730072671 -0.129659914113 -0.0170590558667
v -0.0699730072671 -0.129659914113 -0.0166700086241
f 1 2 3
f 1 3 4
f 1 4 9
f 1 9 5
f 1 5 10
f 1 10 7
f 1 7 2
f 2 6 3
f 2 7 8
f 2 8 6
f 3 6 8
f 3 8 11
f 3 11 9
f 3 9 4
f 5 9 11
f 5 11 10
f 7 10 11
f 7 11 8
