v -0.151571725504 0.149491070607 -0.0139999976523
v -0.14841825807 0.146262978764 -0.0139999976523
v -0.154899804676 0.150661985254 -0.0139985291861
v -0.154899804676 0.155078391216 -0.0139985291861
v -0.148416530463 0.158961550617 -0.0139985291861
v -0.14674298081 0.158961550617 -0.0139985291861
v -0.137239363647 0.146262978764 -0.0139999976523
v -0.14841825807 0.146262978764 0.000997068829181
v -0.154901532283 0.155078391216 -0.0139970612341
v -0.154899804676 0.150661985254 0.000998536781224
v -0.154901532283 0.158961550617 -0.0139970612341
v -0.14674298081 0.158961550617 0.00100000524744
v -0.137239363647 0.146262978764 0.000997068829181
v -0.151571725504 0.149491070607 0.000998536781224
v -0.154901532283 0.155078391216 0.000998536781224
v -0.154901532283 0.158961550617 0.00100000524744
v -0.146784476292 0.156613510164 0.00100000524744
f 1 2 3
f 1 3 4
f 1 4 5
f 1 5 6
f 1 6 7
f 1 7 2
f 2 7 13
f 2 13 8
f 2 8 10
f 2 10 3
f 3 9 11
f 3 11 4
f 3 10 15
f 3 15 9
f 4 11 5
f 5 11 16
f 5 16 12
f 5 12 6
f 6 12 13
f 6 13 7
f 8 13 14
f 8 14 10
f 9 15 16
f 9 16 11
f 10 14 16
f 10 16 15
f 12 17 13
f 12 16 17
f 13 17 14
f 14 17 16
