v -0.203666925896 0.177724213335 0.00100000833245
v -0.206003827395 0.177724213335 0.00100000833245
v -0.195933908783 0.177672673051 0.00100000833245
v -0.203666925896 0.177724213335 -0.0139985261011
v -0.206003827395 0.177724213335 -0.0139985261011
v -0.205981862102 0.173710981558 0.00100000833245
v -0.195933908783 0.177672673051 -0.0139985261011
v -0.194197992506 0.170238943337 0.00100000833245
v -0.196369619573 0.159768935552 -0.0139999945673
v -0.196932457581 0.159768935552 -0.0139999945673
v -0.197122000782 0.1553691393 -0.0139999945673
v -0.205981862102 0.173713326168 -0.0139985261011
v -0.205981862102 0.173710981558 -0.0139970581491
v -0.205961065001 0.170098373689 0.00100000833245
v -0.194197992506 0.170238943337 -0.0139970581491
v -0.194197992506 0.157622926434 -0.0139999945673
v -0.194197992506 0.153790089766 0.000998539866237
v -0.194197992506 0.153790089766 -0.0139999945673
v -0.197122000782 0.1553691393 0.000998539866237
v -0.199762854221 0.159768935552 -0.0139985261011
v -0.205961065001 0.170098373689 -0.0139970581491
v -0.199762854221 0.159768935552 0.000998539866237
f 1 2 6
f 1 6 14
f 1 14 8
f 1 8 3
f 1 3 7
f 1 7 4
f 1 4 5
f 1 5 2
f 2 5 13
f 2 13 6
f 3 8 15
f 3 15 7
f 4 7 9
f 4 9 10
f 4 10 5
f 5 10 11
f 5 11 12
f 5 12 13
f 6 13 21
f 6 21 14
f 7 15 16
f 7 16 9
f 8 14 17
f 8 17 18
f 8 18 16
f 8 16 15
f 9 16 18
f 9 18 11
f 9 11 10
f 11 18 17
f 11 17 19
f 11 19 22
f 11 22 20
f 11 20 21
f 11 21 12
f 12 21 13
f 14 21 20
f 14 20 22
f 14 22 19
f 14 19 17
