v -0.000583527748898 -0.0266185035926 -0.0139985518096
v -0.00120418712782 -0.0263760791538 -0.0101164055789
v -0.00441358379125 -0.0251194834113 -0.0139985518096
v 0.00605594684486 -0.0245990540497 -0.0140000202758
v 0.00340991881132 -0.0266185035926 -0.0139985518096
v -0.000583527748898 -0.0266185035926 -0.00200119262608
v -0.00441358379125 -0.0251194834113 -0.0101164055789
v -0.00441358379125 -0.0163989330539 -0.0139985518096
v 0.00642516120675 -0.0245990540497 -0.0140000202758
v 0.00642516120675 -0.0233869400821 -0.0140000202758
v 0.00340991881132 -0.0266185035926 -0.0101164055789
v 0.00340885756683 -0.0266185035926 -0.00200119262608
v 0.00618220203229 -0.0242209630769 0.000998514157795
v 0.00340885756683 -0.0241887144072 0.000998514157795
v -0.00441358379125 -0.0240964190434 0.000998514157795
v -0.00441358379125 -0.0251183728066 -0.00200119262608
v 0.00642516120675 -0.0152579882807 -0.0139985518096
v -0.00441358379125 -0.0163989330539 0.000999982624007
v 0.00642516120675 -0.0245990540497 -0.0020026610923
v 0.00642516120675 -0.0241420114229 0.000781207895187
v 0.00642516120675 -0.024085296543 0.000998514157795
v 0.00642516120675 -0.0152579882807 0.000991172855072
v 0.00642516120675 -0.0167336528566 0.000998514157795
v 0.00421200575107 -0.0165023509181 0.000998514157795
f 1 2 3
f 1 3 4
f 1 4 9
f 1 9 5
f 1 5 11
f 1 11 12
f 1 12 6
f 1 6 2
f 2 6 7
f 2 7 3
f 3 7 16
f 3 16 15
f 3 15 18
f 3 18 8
f 3 8 4
f 4 8 10
f 4 10 9
f 5 9 19
f 5 19 11
f 6 12 13
f 6 13 14
f 6 14 15
f 6 15 16
f 6 16 7
f 8 17 10
f 8 18 22
f 8 22 17
f 9 10 17
f 9 17 22
f 9 22 23
f 9 23 21
f 9 21 20
f 9 20 19
f 11 19 12
f 12 19 20
f 12 20 21
f 12 21 13
f 13 21 18
f 13 18 14
f 14 18 15
f 18 21 23
f 18 23 24
f 18 24 22
f 22 24 23
