v -0.0673722314493 0.134690326262 0.0659499988515
v -0.0745220065462 0.134690326262 0.0659499988515
v -0.0673722314493 0.133268600752 0.0659499988515
v -0.0673722314493 0.134690326262 0.0509499984559
v -0.0749249660546 0.133268600752 0.0659499988515
v -0.0745220065462 0.134690326262 0.0509499984559
v -0.0673722314493 0.133268600752 0.0509499984559
v -0.0749249660546 0.133268600752 0.062025272518
v -0.0749242274134 0.133268600752 0.0509499984559
f 1 2 5
f 1 5 3
f 1 3 7
f 1 7 4
f 1 4 6
f 1 6 2
f 2 6 8
f 2 8 5
f 3 5 8
f 3 8 9
f 3 9 7
f 4 7 9
f 4 9 6
f 6 9 8
