v -0.0604119184025 -0.134810867353 -0.00850001497758
v -0.0590986678817 -0.135864377624 -0.00850001497758
v -0.0604119184025 -0.134810867353 -0.00853231713161
v -0.0604119184025 -0.137721742656 -0.00850001497758
v -0.0590986678817 -0.137013500754 -0.00850001497758
v -0.0590986678817 -0.135864377624 -0.0234985475839
v -0.0604119184025 -0.134812637477 -0.0234985475839
v -0.0604119184025 -0.1513536334 -0.00850148310874
v -0.0590986678817 -0.152899372885 -0.00850148310874
v -0.0590986678817 -0.142835251034 -0.0235000157151
v -0.0604119184025 -0.148587948164 -0.0235000157151
v -0.0604119184025 -0.1513536334 -0.0235000157151
v -0.0590986678817 -0.152899372885 -0.0235000157151
f 1 2 6
f 1 6 3
f 1 3 7
f 1 7 11
f 1 11 12
f 1 12 8
f 1 8 4
f 1 4 5
f 1 5 2
f 2 5 9
f 2 9 13
f 2 13 10
f 2 10 6
f 3 6 7
f 4 8 9
f 4 9 5
f 6 10 7
f 7 10 11
f 8 12 13
f 8 13 9
f 10 13 12
f 10 12 11
