v -0.141919806368 -0.176475467499 0.00100002688311
v -0.153440255105 -0.176475467499 0.00100002688311
v -0.141919806368 -0.176475467499 -0.0139985071621
v -0.141919806368 -0.16598646597 0.000998559445473
v -0.146810168259 -0.156881705458 0.000998559445473
v -0.15152130326 -0.153941186672 0.000998559445473
v -0.15568532157 -0.152975125276 0.000998559445473
v -0.15568532157 -0.169202241916 0.000998559445473
v -0.153440255105 -0.176475467499 -0.0139985071621
v -0.15568532157 -0.156879056461 -0.0139999756281
v -0.15152130326 -0.155563631791 -0.0139999756281
v -0.141919806368 -0.16598646597 -0.0139985071621
v -0.15152130326 -0.14943909212 0.0009970909795
v -0.146810168259 -0.156881705458 -0.0139985071621
v -0.15568532157 -0.150389271872 0.0009970909795
v -0.15568532157 -0.169202241916 -0.0139985071621
v -0.15568532157 -0.150389271872 -0.0139999756281
v -0.15152130326 -0.14943909212 -0.0139999756281
f 1 2 9
f 1 9 3
f 1 3 12
f 1 12 4
f 1 4 5
f 1 5 6
f 1 6 7
f 1 7 2
f 2 8 16
f 2 16 9
f 2 7 8
f 3 9 10
f 3 10 11
f 3 11 18
f 3 18 12
f 4 12 14
f 4 14 5
f 5 13 6
f 5 14 18
f 5 18 13
f 6 13 7
f 7 13 15
f 7 15 17
f 7 17 10
f 7 10 16
f 7 16 8
f 9 16 10
f 10 17 18
f 10 18 11
f 12 18 14
f 13 18 17
f 13 17 15
