v -0.201785652031 0.194579071077 -0.013999990454
v -0.199470592424 0.198529804603 -0.013999990454
v -0.193868990261 0.194579071077 -0.013999990454
v -0.201784673054 0.194579071077 0.00099854295125
v -0.197371952653 0.202114087939 0.00099854295125
v -0.197371952653 0.202114087939 -0.0139985219878
v -0.193868990261 0.194796650877 -0.013999990454
v -0.191782106446 0.205212214352 -0.0139985219878
v -0.191782106446 0.198529804603 -0.0139985219878
v -0.193868990261 0.194579071077 -0.00162087787307
v -0.199164065528 0.194579071077 0.00100001141746
v -0.199470592424 0.198529804603 0.00100001141746
v -0.198175956414 0.20074096097 0.00100001141746
v -0.191782106446 0.205211169561 0.00099854295125
v -0.191782106446 0.198529804603 0.00099854295125
v -0.193868990261 0.194583242014 0.00099854295125
v -0.194678876114 0.194579071077 0.00100001141746
v -0.193868990261 0.20074096097 0.00100001141746
v -0.193868990261 0.196265553104 0.00100001141746
f 1 2 7
f 1 7 3
f 1 3 10
f 1 10 17
f 1 17 11
f 1 11 4
f 1 4 5
f 1 5 6
f 1 6 2
f 2 6 8
f 2 8 7
f 3 7 8
f 3 8 9
f 3 9 15
f 3 15 10
f 4 11 12
f 4 12 13
f 4 13 5
f 5 13 14
f 5 14 8
f 5 8 6
f 8 14 15
f 8 15 9
f 10 16 17
f 10 15 16
f 11 17 19
f 11 19 18
f 11 18 13
f 11 13 12
f 13 18 14
f 14 18 19
f 14 19 15
f 15 19 17
f 15 17 16
