v -0.168683231651 0.210044652834 0.00100001141746
v -0.180121110863 0.210378187992 0.00099854295125
v -0.174180486333 0.210204834939 0.00100001141746
v -0.168683231651 0.206327146295 0.00100001141746
v -0.168683231651 0.210044652834 -0.0139985219878
v -0.180121110863 0.200172528806 0.00099854295125
v -0.180116635538 0.206341345582 0.00100001141746
v -0.180121110863 0.210378187992 -0.0139970535216
v -0.174180486333 0.204330015793 0.00100001141746
v -0.168683231651 0.20002147834 0.00099854295125
v -0.168683231651 0.200150226218 -0.013999990454
v -0.168691071697 0.206328166406 -0.013999990454
v -0.174180486333 0.210204834939 -0.0139985219878
v -0.174905990908 0.204339139205 0.00100001141746
v -0.180121110863 0.200172528806 -0.0139779660316
v -0.174181605164 0.210204834939 -0.0139985219878
v -0.180121110863 0.20990881354 -0.0139985219878
v -0.168683231651 0.20002147834 -0.013999990454
v -0.174181605164 0.200110688691 -0.013999990454
v -0.180121110863 0.200179628449 -0.0139985219878
v -0.174180486333 0.200109676806 -0.013999990454
f 1 2 3
f 1 3 7
f 1 7 14
f 1 14 9
f 1 9 4
f 1 4 10
f 1 10 18
f 1 18 11
f 1 11 5
f 1 5 8
f 1 8 2
f 2 6 7
f 2 7 3
f 2 8 17
f 2 17 20
f 2 20 15
f 2 15 6
f 4 9 10
f 5 11 12
f 5 12 13
f 5 13 8
f 6 10 14
f 6 14 7
f 6 15 18
f 6 18 10
f 8 13 16
f 8 16 17
f 9 14 10
f 11 18 21
f 11 21 19
f 11 19 12
f 12 19 17
f 12 17 16
f 12 16 13
f 15 20 18
f 17 19 20
f 18 20 21
f 19 21 20
