v 0.0625422231864 -0.03995888156 -0.014000023875
v 0.0651054247896 -0.0309816087566 -0.0139988489992
v 0.0650485782824 -0.0357329895498 -0.014000023875
v 0.0680752969264 -0.03995888156 -0.014000023875
v 0.0625422231864 -0.03995888156 -0.0020011972536
v 0.0697675787786 -0.0309816087566 -0.0139988489992
v 0.0651054247896 -0.0309816087566 -0.0020011972536
v 0.0699862198236 -0.0366099806064 -0.014000023875
v 0.0680752969264 -0.03995888156 -0.0020011972536
v 0.0697675787786 -0.0309816087566 -0.0020000223778
v 0.0699862198236 -0.0366099806064 -0.0020011972536
f 1 2 3
f 1 3 8
f 1 8 4
f 1 4 9
f 1 9 5
f 1 5 7
f 1 7 2
f 2 6 3
f 2 7 10
f 2 10 6
f 3 6 8
f 4 8 11
f 4 11 9
f 5 9 10
f 5 10 7
f 6 10 11
f 6 11 8
f 9 11 10
