v -0.0970117128008 0.0921853541271 -0.00498076044477
v -0.0979137706168 0.0916777645899 -0.00498076044477
v -0.0979137706168 0.0916777645899 0.000999995992397
v -0.0970117128008 0.0921846641125 0.000999995992397
v -0.0959763083807 0.0921729400346 0.000999995992397
v -0.0959763083807 0.0921729400346 -0.00498076044477
v -0.105326326858 0.0851404743692 -0.00498076044477
v -0.105326326858 0.0851404743692 0.000999995992397
v -0.0950854573888 0.0916446603432 0.000999995992397
v -0.0950832156126 0.0916419013132 -0.00498076044477
v -0.0970016289215 0.0851404743692 -0.00498076044477
v -0.0970016289215 0.0851404743692 0.000999995992397
v -0.0943873436155 0.0909287933481 0.000999995992397
v -0.0943851018394 0.0909260343181 -0.00498076044477
v -0.0944276832462 0.0880949790277 -0.00498076044477
v -0.0944209620311 0.088101186074 0.000999995992397
v -0.0938797273415 0.0900260280358 0.000999995992397
v -0.0938808461729 0.0900232690058 -0.00498076044477
v -0.0938942927164 0.0889880892775 -0.00498076044477
v -0.093892052997 0.0889908477934 0.000999995992397
f 1 2 3
f 1 3 4
f 1 4 5
f 1 5 6
f 1 6 10
f 1 10 14
f 1 14 18
f 1 18 19
f 1 19 15
f 1 15 11
f 1 11 7
f 1 7 2
f 2 7 8
f 2 8 3
f 3 8 12
f 3 12 16
f 3 16 20
f 3 20 17
f 3 17 13
f 3 13 9
f 3 9 5
f 3 5 4
f 5 9 6
f 6 9 10
f 7 11 12
f 7 12 8
f 9 13 14
f 9 14 10
f 11 15 16
f 11 16 12
f 13 17 14
f 14 17 18
f 15 19 16
f 16 19 20
f 17 20 18
f 18 20 19
