v -0.135835961 0.125010967 -0.004999999
v -0.135835961 0.125010967 -0.002999999
v -0.135815665 0.125300124 -0.004999999
v -0.135815665 0.125300124 -0.002999999
v -0.135713309 0.125571311 -0.004999999
v -0.135713309 0.125571311 -0.002999999
v -0.13553746 0.125801742 -0.004999999
v -0.13553746 0.125801742 -0.002999999
v -0.135505185 0.120632097 -0.004999999
v -0.135505185 0.120632097 -0.003
v -0.135460928 0.120404169 -0.005
v -0.135460928 0.120404169 -0.003
v -0.135365307 0.120192587 -0.005
v -0.135365307 0.120192587 -0.003
v -0.135223478 0.120008759 -0.005
v -0.135223478 0.120008759 -0.003
v -0.135130942 0.12012361 0.005716736
v -0.13498871 0.119768344 0.005699998
v -0.134980306 0.120475404 0.005757142
v -0.130329877 0.125016704 0.006500001
v -0.125316396 0.123555891 0.006500001
v -0.125117302 0.123786427 0.006500001
v -0.123898305 0.118120708 0.006475258
v -0.12331859 0.118085489 0.0065
v -0.122548752 0.138485685 -0.004999998
v -0.122548752 0.138485685 -0.002999998
v -0.122314207 0.13865602 -0.004999998
v -0.122314207 0.13865602 -0.002999998
v -0.122294918 0.126414984 0.006500001
v -0.122254685 0.126068562 0.006500001
v -0.122040667 0.138751909 -0.004999998
v -0.122040667 0.138751909 -0.002999998
v -0.121887565 0.133260936 0.006500002
v -0.121751115 0.138765335 -0.004999998
v -0.121751115 0.138765335 -0.002999998
v -0.121218927 0.120845675 0.0065
v -0.120897122 0.126229092 0.006500001
v -0.120802067 0.127948403 0.006500001
v -0.117381327 0.138330698 -0.004999998
v -0.117381327 0.138330698 -0.002999999
v -0.117237136 0.137802258 0.005757143
v -0.117154509 0.138281047 -0.004999998
v -0.117154509 0.138281047 -0.002999999
v -0.116945259 0.138180435 -0.004999998
v -0.116945259 0.138180435 -0.002999999
v -0.11688187 0.13794449 0.005716738
v -0.116810024 0.110862106 0.006475257
v -0.116775155 0.111136302 0.006499999
v -0.116764851 0.138034269 -0.004999998
v -0.116764851 0.138034269 -0.002999999
v -0.116530076 0.137793854 0.005699999
v -0.115145452 0.126094818 0.006500001
v -0.113334306 0.107612774 0.006499999
v -0.113056004 0.134236321 0.005699998
v -0.111195251 0.107148632 0.006499999
v -0.108314164 0.119361408 0.0065
v -0.107042164 0.091150321 0.005699994
v -0.107004121 0.118019886 0.0065
v -0.106690377 0.090999693 0.005716733
v -0.106335111 0.091141924 0.005757138
v -0.10624034 0.107328758 0.006499998
v -0.105074398 0.115829103 0.006499999
v -0.104396634 0.113391131 0.006499999
v -0.104059853 0.113939099 0.006499999
v -0.101684682 0.095683239 0.006499997
v -0.100456551 0.121334128 0.005699996
v -0.093242362 0.103927463 0.006499997
v -0.088591933 0.108468778 0.005757139
v -0.088583544 0.109175831 0.005699995
v -0.088441297 0.108820572 0.005716734
v -0.014841265 -0.003919025 -0.031500019
v -0.014812423 0.004026669 -0.031500019
v -0.014302757 -0.013077294 0.004119962
v -0.014056759 -0.013515068 0.003999982
v -0.014056759 -0.013515067 0.000999982
v -0.01330239 -0.014258186 0.003999982
v -0.01330239 -0.014258185 0.000999982
v -0.013128849 -0.013033913 0.004999983
v -0.012569143 -0.003319049 -0.031500019
v -0.012508793 -0.014959266 0.000999982
v -0.012508793 -0.014959266 0.003999982
v -0.01167831 -0.015616233 0.000999982
v -0.01167831 -0.015616233 0.003999982
v -0.011603063 -0.011519154 -0.030500021
v -0.011315261 -0.01463607 0.004999983
v -0.011268673 -0.01579731 0.00409538
v -0.010893391 -0.010814625 -0.031500019
v -0.010824397 -0.015782341 0.004362325
v -0.010814602 0.010893415 -0.031500019
v -0.010352721 -0.015716529 0.004680112
v -0.009831699 -0.015775353 0.004911695
v -0.00930807 -0.0159878 0.004999982
v -0.009225671 -0.009158969 -0.031500019
v -0.00892974 -0.016273001 0.004937887
v -0.008643226 -0.016617408 0.004769155
v -0.008380782 -0.017205009 0.004362325
v -0.008192031 -0.017577628 0.004107129
v -0.007814758 -0.017865593 0.000999982
v -0.007814758 -0.017865593 0.003999982
v -0.007141612 -0.01706597 0.004999982
v -0.00683343 -0.018263465 0.000999982
v -0.00683343 -0.018263465 0.003999982
v -0.005831954 -0.018607475 0.000999982
v -0.005831954 -0.018607475 0.003999982
v -0.004852958 -0.017852133 0.004999982
v -0.004813277 -0.018896628 0.000999982
v -0.004813277 -0.018896628 0.003999982
v -0.004365527 -0.018907158 0.00409538
v -0.004288964 -0.015777424 -0.030500021
v -0.004026643 -0.014812442 -0.031500023
v -0.003960799 -0.018723303 0.004362325
v -0.00391901 0.014841276 -0.031500019
v -0.003550211 -0.018482001 0.004680112
v -0.00304634 -0.018336967 0.004911694
v -0.002481272 -0.018332846 0.004999982
v -0.002022593 -0.018451575 0.004937886
v -0.001626093 -0.018660117 0.004769154
v -0.001158762 -0.019102545 0.004362324
v -0.00084178 -0.019374579 0.004107129
v -0.000383028 -0.019496238 0.000999981
v -0.000383028 -0.019496238 0.003999982
v -6.7126e-05 -0.018499885 0.004999982
v 0.000675859 -0.019488288 0.000999981
v 0.000675859 -0.019488288 0.003999982
v 0.001732751 -0.019422872 0.000999981
v 0.001732752 -0.019422874 0.003999982
v 0.002348165 -0.018350378 0.004999982
v 0.002784536 -0.019300178 0.003999982
v 0.002784536 -0.019300176 0.000999981
v 0.003202238 -0.019138556 0.004095379
v 0.003410226 0.012544738 -0.031500019
v 0.003505796 -0.018813819 0.004362324
v 0.003792791 -0.018433768 0.004680112
v 0.003919052 -0.01484128 -0.031500023
v 0.004026684 0.014812438 -0.031500019
v 0.004174362 -0.015808139 -0.030500023
v 0.004202802 -0.018106939 0.004911694
v 0.004723283 -0.017886892 0.004999981
v 0.00519248 -0.017821051 0.004937886
v 0.005638601 -0.01786199 0.004769154
v 0.006239672 -0.01809191 0.004362324
v 0.006636629 -0.01822193 0.004107128
v 0.007017584 -0.017117361 0.004999981
v 0.007107015 -0.018158773 0.000999981
v 0.007107016 -0.018158773 0.003999981
v 0.008082258 -0.017746206 0.000999981
v 0.008082259 -0.017746206 0.003999981
v 0.009033662 -0.017281301 0.000999981
v 0.009033662 -0.017281301 0.003999982
v 0.009191812 -0.016054938 0.004999982
v 0.009958429 -0.016765447 0.000999981
v 0.009958429 -0.016765447 0.003999982
v 0.010282488 -0.016456289 0.004095379
v 0.010438669 -0.016040105 0.004362324
v 0.010558374 -0.015579153 0.004680112
v 0.010812105 -0.01512029 0.004911694
v 0.010814643 -0.010893418 -0.031500023
v 0.010893438 0.010814621 -0.031500019
v 0.011208765 -0.014717824 0.004999982
v 0.011519181 -0.01160309 -0.030500021
v 0.011603101 0.01151915 -0.030500019
v 0.011617044 -0.014477437 0.004937886
v 0.012044878 -0.014344533 0.004769154
v 0.01254476 -0.003410203 -0.031500023
v 0.012688173 -0.014326924 0.004362324
v 0.013033929 -0.01312888 0.004999982
v 0.01310467 -0.01429514 0.004107129
v 0.01312889 0.013033901 0.004999984
v 0.013302435 0.014258176 0.000999984
v 0.013302436 0.014258175 0.003999984
v 0.013515085 -0.014056782 0.000999981
v 0.013515085 -0.014056782 0.003999982
v 0.0140568 0.013515057 0.000999984
v 0.0140568 0.013515057 0.003999984
v 0.014258211 -0.013302418 0.000999981
v 0.014258211 -0.013302418 0.003999982
v 0.014295165 0.013104642 0.004107131
v 0.01432695 0.012688152 0.004362327
v 0.014344551 0.012044842 0.004769157
v 0.014477454 0.011617016 0.004937889
v 0.014636087 -0.011315297 0.004999982
v 0.014717842 0.011208736 0.004999984
v 0.014812469 -0.004026658 -0.031500023
v 0.014841307 0.003919021 -0.031500019
v 0.014959283 -0.012508824 0.000999981
v 0.014959283 -0.012508824 0.003999982
v 0.015120314 0.010812084 0.004911697
v 0.015579162 0.010558346 0.004680114
v 0.01561625 -0.011678333 0.000999982
v 0.01561625 -0.011678333 0.003999982
v 0.015716547 -0.010352742 0.004680112
v 0.015775369 -0.00983173 0.004911695
v 0.015777443 -0.004288987 -0.030500021
v 0.015782351 -0.010824421 0.004362325
v 0.015797334 -0.011268697 0.00409538
v 0.015808165 0.004174347 -0.030500021
v 0.015987817 -0.009308094 0.004999982
v 0.016040122 0.010438642 0.004362327
v 0.016054962 0.009191784 0.004999984
v 0.016273027 -0.008929768 0.004937886
v 0.016456313 0.010282467 0.004095382
v 0.016617425 -0.008643254 0.004769155
v 0.016765464 0.009958401 0.000999984
v 0.016765464 0.009958401 0.003999984
v 0.017065987 -0.007141636 0.004999982
v 0.017117377 0.007017559 0.004999984
v 0.017205026 -0.008380817 0.004362325
v 0.017281326 0.009033643 0.000999984
v 0.017281326 0.009033643 0.003999983
v 0.017577654 -0.008192051 0.004107129
v 0.017746223 0.008082226 0.003999983
v 0.017746223 0.008082227 0.000999983
v 0.017821068 0.005192456 0.004937888
v 0.017852152 -0.004852985 0.004999982
v 0.017862 0.005638577 0.004769156
v 0.017865609 -0.007814793 0.000999982
v 0.017865609 -0.007814793 0.003999982
v 0.017886909 0.004723263 0.004999983
v 0.018091919 0.006239651 0.004362326
v 0.018106956 0.004202771 0.004911696
v 0.018158782 0.007106991 0.000999983
v 0.018158782 0.007106991 0.003999983
v 0.018221939 0.006636593 0.004107131
v 0.018263482 -0.006833454 0.000999982
v 0.018263482 -0.006833454 0.003999982
v 0.018332871 -0.002481296 0.004999983
v 0.018336983 -0.00304636 0.004911695
v 0.018350396 0.002348141 0.004999983
v 0.018433778 0.003792767 0.004680113
v 0.018451592 -0.002022617 0.004937887
v 0.018482026 -0.003550236 0.004680112
v 0.018499902 -6.7158e-05 0.004999983
v 0.018607499 -0.005831974 0.000999982
v 0.018607499 -0.005831974 0.003999982
v 0.018660134 -0.001626118 0.004769155
v 0.01872332 -0.003960834 0.004362325
v 0.018813835 0.003505765 0.004362326
v 0.018894441 -0.004311161 0.004119962
v 0.018896637 -0.004813297 0.000999982
v 0.018896637 -0.004813297 0.003999982
v 0.01892437 -0.004646595 0.000999982
v 0.01910257 -0.001158787 0.004362325
v 0.019105164 0.003248669 0.004120604
v 0.019277299 0.00289703 0.004006239
v 0.019277299 0.002897031 0.000999983
v 0.019286362 0.002859815 0.000999983
v 0.019293999 0.002822293 0.000999983
v 0.019300194 0.002784512 0.000999983
v 0.019300194 0.002784512 0.003999983
v 0.019374596 -0.0008418 0.00410713
v 0.019422891 0.001732724 0.000999983
v 0.019422891 0.001732724 0.003999983
v 0.019488305 0.000675824 0.000999983
v 0.019488305 0.000675824 0.003999982
v 0.019496262 -0.00038306 0.000999982
v 0.019496262 -0.00038306 0.003999982
f 160 193 216
f 75 15 84
f 136 109 134
f 136 134 160
f 196 251 253
f 151 160 171
f 151 136 160
f 183 193 160
f 183 196 193
f 183 184 196
f 26 8 33
f 9 1 71
f 9 10 1
f 87 109 84
f 87 93 134
f 120 109 136
f 79 87 71
f 79 93 87
f 79 134 93
f 145 144 147
f 189 160 216
f 146 147 144
f 146 144 136
f 164 183 134
f 164 184 183
f 157 160 134
f 157 134 183
f 157 183 160
f 2 4 1
f 2 1 10
f 13 71 87
f 13 84 15
f 13 87 84
f 13 15 16
f 110 134 109
f 110 87 134
f 110 109 87
f 41 26 33
f 168 67 182
f 78 18 73
f 124 122 121
f 129 136 144
f 158 161 196
f 158 196 184
f 89 5 7
f 89 7 25
f 89 134 79
f 89 164 134
f 143 145 147
f 255 193 196
f 255 196 253
f 175 171 160
f 240 234 239
f 233 239 234
f 233 193 239
f 148 147 146
f 148 136 151
f 148 146 136
f 3 1 4
f 11 9 71
f 11 71 13
f 14 16 18
f 14 13 16
f 77 75 84
f 106 103 109
f 106 109 120
f 106 120 121
f 101 98 109
f 101 109 103
f 46 41 33
f 180 168 182
f 170 51 168
f 57 18 78
f 65 78 85
f 65 166 67
f 125 136 129
f 241 239 193
f 241 193 255
f 241 255 256
f 241 240 239
f 241 256 240
f 172 151 171
f 172 171 175
f 185 160 189
f 185 175 160
f 224 216 193
f 224 193 233
f 224 233 234
f 224 234 225
f 72 3 5
f 72 5 89
f 72 79 71
f 72 89 79
f 72 71 1
f 72 1 3
f 27 89 25
f 12 11 13
f 12 13 14
f 12 14 18
f 107 106 121
f 107 121 108
f 81 85 78
f 81 83 85
f 82 98 83
f 82 84 109
f 82 109 98
f 181 67 166
f 181 197 67
f 181 186 190
f 205 67 197
f 205 225 234
f 205 217 225
f 210 217 205
f 206 67 218
f 206 223 222
f 228 218 67
f 228 252 249
f 245 196 221
f 245 246 196
f 245 221 222
f 248 251 196
f 244 222 223
f 244 223 243
f 244 245 222
f 244 228 249
f 244 243 228
f 244 246 245
f 43 46 51
f 28 26 41
f 28 41 46
f 28 31 27
f 68 67 168
f 212 221 196
f 212 196 208
f 169 161 49
f 169 49 170
f 17 6 4
f 17 4 2
f 17 2 10
f 17 10 12
f 17 12 18
f 60 78 65
f 115 122 65
f 127 65 122
f 150 65 143
f 150 143 147
f 123 120 136
f 123 136 125
f 123 125 124
f 123 121 120
f 123 124 121
f 131 135 158
f 131 89 135
f 131 158 184
f 131 184 164
f 131 164 89
f 112 31 34
f 112 34 135
f 112 135 89
f 112 89 27
f 112 27 31
f 167 166 165
f 167 172 166
f 176 166 172
f 176 181 166
f 176 186 181
f 176 172 175
f 242 230 226
f 242 226 236
f 250 240 256
f 119 121 122
f 119 122 118
f 119 108 121
f 76 81 78
f 91 85 90
f 86 85 83
f 80 77 84
f 80 84 82
f 80 83 81
f 80 82 83
f 214 226 67
f 214 67 205
f 214 205 234
f 214 234 240
f 195 190 217
f 195 217 210
f 195 181 190
f 199 182 67
f 199 67 206
f 199 187 182
f 232 67 226
f 232 228 67
f 232 226 230
f 232 254 252
f 232 252 228
f 232 256 254
f 232 250 256
f 232 242 250
f 219 243 223
f 219 223 206
f 219 206 215
f 20 33 8
f 20 17 23
f 38 52 33
f 38 33 20
f 247 249 248
f 247 244 249
f 247 246 244
f 247 196 246
f 247 248 196
f 58 67 56
f 58 33 52
f 58 56 33
f 45 43 51
f 39 135 34
f 40 46 43
f 40 43 39
f 35 34 31
f 35 46 40
f 35 39 34
f 35 40 39
f 54 51 46
f 54 168 51
f 70 54 46
f 70 67 68
f 70 168 69
f 70 68 168
f 70 56 67
f 70 46 33
f 70 33 56
f 211 206 222
f 179 168 180
f 174 170 168
f 174 168 177
f 178 180 182
f 178 179 180
f 178 177 168
f 178 168 179
f 203 196 161
f 203 208 196
f 59 57 78
f 59 78 60
f 59 18 57
f 59 17 18
f 59 60 65
f 105 65 100
f 105 115 65
f 105 114 115
f 105 113 114
f 105 104 107
f 105 107 108
f 117 118 122
f 138 143 65
f 138 65 127
f 126 128 127
f 126 124 125
f 126 122 124
f 126 127 122
f 152 151 172
f 163 165 166
f 163 166 162
f 163 162 165
f 159 165 162
f 159 150 156
f 159 162 166
f 159 166 65
f 159 65 150
f 238 240 250
f 238 214 240
f 238 236 214
f 238 242 236
f 238 250 242
f 74 78 73
f 74 76 78
f 74 73 18
f 74 18 16
f 74 15 75
f 74 16 15
f 88 90 85
f 88 85 86
f 88 91 90
f 99 86 83
f 99 83 98
f 227 236 226
f 227 226 214
f 207 210 205
f 207 205 202
f 200 205 197
f 200 202 205
f 200 197 207
f 200 207 202
f 213 206 218
f 213 215 206
f 213 218 219
f 213 219 215
f 235 230 242
f 235 232 230
f 235 242 232
f 220 218 228
f 220 228 229
f 237 243 219
f 237 228 243
f 237 229 228
f 237 219 218
f 237 218 220
f 237 220 229
f 19 20 8
f 19 17 20
f 19 8 6
f 19 6 17
f 29 30 38
f 29 38 20
f 50 45 51
f 50 49 45
f 50 51 170
f 50 170 49
f 42 135 39
f 42 43 45
f 42 39 43
f 32 31 28
f 32 35 31
f 32 28 46
f 32 46 35
f 66 70 69
f 66 69 168
f 66 54 70
f 66 168 54
f 173 169 170
f 173 170 174
f 173 161 169
f 173 203 161
f 47 59 65
f 47 65 48
f 47 23 17
f 47 17 59
f 47 48 20
f 47 20 23
f 21 20 24
f 53 65 55
f 53 24 20
f 53 21 24
f 53 55 21
f 53 48 65
f 53 20 48
f 37 38 30
f 111 105 108
f 111 113 105
f 111 108 119
f 111 119 118
f 111 118 115
f 111 115 114
f 111 114 113
f 116 115 118
f 116 118 117
f 116 122 115
f 116 117 122
f 149 150 147
f 149 152 150
f 149 147 148
f 154 165 159
f 154 159 156
f 154 167 165
f 102 100 99
f 102 104 105
f 102 105 100
f 231 214 236
f 231 236 227
f 231 227 214
f 192 197 181
f 192 181 191
f 194 181 195
f 194 191 181
f 194 195 210
f 194 210 207
f 194 207 197
f 194 197 192
f 194 192 191
f 44 45 49
f 44 42 45
f 44 49 161
f 44 161 158
f 44 158 135
f 44 135 42
f 198 182 187
f 198 178 182
f 198 177 178
f 209 204 199
f 209 199 206
f 209 206 211
f 36 21 55
f 63 36 55
f 63 65 67
f 63 52 38
f 63 38 37
f 63 37 30
f 63 30 36
f 139 143 138
f 139 140 143
f 142 145 143
f 155 156 150
f 155 154 156
f 155 150 154
f 153 150 152
f 153 154 150
f 153 167 154
f 153 172 167
f 153 152 172
f 92 85 91
f 92 91 88
f 92 65 85
f 92 100 65
f 96 100 95
f 96 92 88
f 188 187 199
f 188 198 187
f 188 199 198
f 201 177 198
f 201 204 174
f 201 174 177
f 201 199 204
f 201 198 199
f 22 36 30
f 22 21 36
f 22 30 29
f 22 29 20
f 22 20 21
f 61 55 65
f 61 65 63
f 61 63 55
f 62 67 58
f 62 58 52
f 130 128 145
f 130 145 142
f 130 127 128
f 141 143 140
f 141 142 143
f 141 139 138
f 141 140 139
f 94 95 100
f 94 100 92
f 94 96 95
f 94 92 96
f 97 99 100
f 97 100 96
f 97 86 99
f 97 88 86
f 97 96 88
f 64 52 63
f 64 62 52
f 64 63 67
f 64 67 62
f 137 138 127
f 132 130 142
f 132 142 141
f 132 127 130
f 132 141 138
f 132 138 137
f 133 137 127
f 133 127 132
f 133 132 137
f 5 6 8
f 5 8 7
f 25 7 8
f 25 8 26
f 217 190 189
f 217 189 216
f 3 6 5
f 3 4 6
f 128 129 144
f 128 144 145
f 185 189 190
f 185 190 186
f 224 217 216
f 224 225 217
f 12 9 11
f 12 10 9
f 107 103 106
f 107 104 103
f 254 255 253
f 254 256 255
f 254 253 251
f 254 251 252
f 248 252 251
f 248 249 252
f 28 25 26
f 28 27 25
f 176 185 186
f 176 175 185
f 80 81 76
f 80 76 77
f 211 221 212
f 211 222 221
f 126 129 128
f 126 125 129
f 74 77 76
f 74 75 77
f 173 204 203
f 173 174 204
f 149 151 152
f 149 148 151
f 102 103 104
f 102 101 103
f 102 98 101
f 102 99 98
f 209 211 212
f 209 212 208
f 209 203 204
f 209 208 203
