v -0.0305958945804 -0.0251978379139 0.000998549676266
v -0.0352492822604 -0.0251978379139 0.00100001762807
v -0.0307100976315 -0.0274676379525 0.00100001762807
v -0.0306449915267 -0.0289928887228 0.00100001762807
v -0.0305958945804 -0.0251978379139 -0.013998515903
v -0.0386091118392 -0.0251978379139 0.00100001762807
v -0.0344178631521 -0.0330800943334 0.00100001762807
v -0.0306449915267 -0.0289928887228 -0.013998515903
v -0.0344178631521 -0.0291716960501 -0.0139999838548
v -0.0344178631521 -0.0289928887228 -0.0139999838548
v -0.0386091118392 -0.0251978379139 -0.0139999838548
v -0.041461981306 -0.0344656187154 0.00100001762807
v -0.0380124971493 -0.0351798772738 0.00100001762807
v -0.0344178631521 -0.0330800943334 -0.013998515903
v -0.0380124971493 -0.0351798772738 -0.013998515903
v -0.0414982672236 -0.0351798772738 -0.013998515903
v -0.0389944052263 -0.0289928887228 -0.0139999838548
v -0.041461981306 -0.0344656187154 -0.013998515903
v -0.0414982672236 -0.0351798772738 0.00100001762807
f 1 2 3
f 1 3 4
f 1 4 8
f 1 8 5
f 1 5 11
f 1 11 6
f 1 6 2
f 2 6 12
f 2 12 19
f 2 19 13
f 2 13 7
f 2 7 4
f 2 4 3
f 4 7 14
f 4 14 8
f 5 8 9
f 5 9 10
f 5 10 11
f 6 11 18
f 6 18 12
f 7 13 15
f 7 15 14
f 8 14 9
f 9 14 15
f 9 15 16
f 9 16 17
f 9 17 11
f 9 11 10
f 11 17 18
f 12 18 16
f 12 16 19
f 13 19 16
f 13 16 15
f 16 18 17
