v -0.182342386073 0.210443269427 0.00100001141746
v -0.182342386073 0.210443269427 -0.0139985219878
v -0.191779934597 0.205211153107 0.00100001141746
v -0.180123603554 0.210376493292 0.00100001141746
v -0.180123603554 0.210376493292 -0.0139985219878
v -0.191779934597 0.196390014871 -0.013999990454
v -0.191779934597 0.205211153107 -0.0139985219878
v -0.193868192271 0.196509598204 0.00099854295125
v -0.193868192271 0.196317027576 0.00100001141746
v -0.180123603554 0.208728734348 0.00100001141746
v -0.180123603554 0.200177826801 -0.0139985219878
v -0.190034779735 0.194604047342 -0.013999990454
v -0.193868192271 0.194796626197 -0.013999990454
v -0.193868192271 0.196509598204 -0.0139985219878
v -0.193868192271 0.196265775225 0.00100001141746
v -0.180123603554 0.200173170488 0.00099854295125
v -0.191779934597 0.194577647857 0.00100001141746
v -0.180123603554 0.200173170488 -0.0139779665458
v -0.190049579571 0.194577647857 -0.013999990454
v -0.193868192271 0.194579202704 -0.013999990454
v -0.193868192271 0.19458230417 0.00099854295125
v -0.190049579571 0.194577647857 0.00099854295125
v -0.193868192271 0.194579202704 -0.00162087787307
v -0.191779934597 0.194577647857 -0.013999990454
f 1 2 7
f 1 7 3
f 1 3 9
f 1 9 15
f 1 15 17
f 1 17 10
f 1 10 4
f 1 4 5
f 1 5 2
f 2 5 6
f 2 6 7
f 3 7 14
f 3 14 8
f 3 8 9
f 4 10 16
f 4 16 18
f 4 18 11
f 4 11 5
f 5 11 12
f 5 12 6
f 6 12 19
f 6 19 24
f 6 24 20
f 6 20 13
f 6 13 7
f 7 13 14
f 8 14 13
f 8 13 20
f 8 20 23
f 8 23 21
f 8 21 15
f 8 15 9
f 10 17 16
f 11 18 19
f 11 19 12
f 15 21 17
f 16 17 22
f 16 22 19
f 16 19 18
f 17 21 23
f 17 23 20
f 17 20 24
f 17 24 19
f 17 19 22
