v -0.0468475450833 0.144954527977 0.0659499975441
v -0.0478940284336 0.146263978715 0.0659499975441
v -0.0568671096433 0.144954527977 0.0659499975441
v -0.0468485255805 0.144954527977 0.0509514652797
v -0.0478940284336 0.146263978715 0.0509499971485
v -0.0568671096433 0.146263978715 0.0659499975441
v -0.0568671096433 0.144954527977 0.0509499971485
v -0.0488630302808 0.144954527977 0.0509499971485
v -0.0478940284336 0.146262953278 0.0509499971485
v -0.0568671096433 0.146263978715 0.0509499971485
f 1 2 6
f 1 6 3
f 1 3 7
f 1 7 8
f 1 8 4
f 1 4 5
f 1 5 2
f 2 5 10
f 2 10 6
f 3 6 10
f 3 10 7
f 4 8 9
f 4 9 5
f 5 9 8
f 5 8 7
f 5 7 10
