v -0.044458673848 0.0813049758497 0.000997645212452
v -0.044458673848 0.0813049758497 -0.0109988352565
v -0.0486700416168 0.0813049758497 0.000999993935722
v -0.0407379177614 0.0774969385738 0.000997645212452
v -0.0446824936015 0.0813049758497 -0.0109988352565
v -0.0407379177614 0.0774969385738 -0.0109988352565
v -0.0430244471675 0.0711171346702 -0.0110000096181
v -0.0430244471675 0.0646885299735 0.000997645212452
v -0.0556352689086 0.0813049758497 0.000999993935722
v -0.0512538007186 0.0774969385738 0.000999993935722
v -0.0517694781317 0.0774969385738 -0.0109988352565
v -0.055628107565 0.0813049758497 -0.0109976598665
v -0.0430244471675 0.0648723443061 -0.0110000096181
v -0.047234023572 0.0668617622753 -0.0110000096181
v -0.0527739748344 0.0774969385738 0.000999993935722
v -0.0590283565041 0.0710943611039 0.000998819574087
v -0.0590283565041 0.0684689142207 0.000997645212452
v -0.0590283565041 0.0684689142207 -0.0109976598665
v -0.0556352689086 0.0813049758497 0.000978851312948
v -0.0590283565041 0.0745217571295 0.000998819574087
v -0.0590283565041 0.0745217571295 -0.0109976598665
f 1 2 5
f 1 5 12
f 1 12 19
f 1 19 9
f 1 9 3
f 1 3 4
f 1 4 6
f 1 6 2
f 2 6 7
f 2 7 5
f 3 8 4
f 3 9 15
f 3 15 10
f 3 10 8
f 4 8 6
f 5 7 11
f 5 11 12
f 6 8 13
f 6 13 7
f 7 13 14
f 7 14 11
f 8 10 15
f 8 15 16
f 8 16 17
f 8 17 18
f 8 18 13
f 9 19 21
f 9 21 20
f 9 20 16
f 9 16 15
f 11 21 12
f 11 14 21
f 12 21 19
f 13 18 14
f 14 18 21
f 16 20 21
f 16 21 18
f 16 18 17
