v -0.0429688117647 -0.150159573429 -0.00850001759224
v -0.0429688117647 -0.150158003326 -0.0232181077304
v -0.0445368359901 -0.150789229133 -0.00850001759224
v -0.0429688117647 -0.164657354339 -0.00850001759224
v -0.0429688117647 -0.150158003326 -0.0234985501986
v -0.0445368359901 -0.150789229133 -0.0234985501986
v -0.0445368359901 -0.164822226908 -0.00850001759224
v -0.0429688117647 -0.16614277625 -0.0085014857234
v -0.0429688117647 -0.164657354339 -0.0235000183298
v -0.0445368359901 -0.159312347627 -0.0235000183298
v -0.0445368359901 -0.166199303875 -0.0085014857234
v -0.0429688117647 -0.16614277625 -0.0235000183298
v -0.0445368359901 -0.166197733773 -0.0235000183298
v -0.0445368359901 -0.166199303875 -0.0198733542368
f 1 2 3
f 1 3 7
f 1 7 4
f 1 4 8
f 1 8 12
f 1 12 9
f 1 9 5
f 1 5 2
f 2 5 6
f 2 6 3
f 3 6 10
f 3 10 13
f 3 13 14
f 3 14 11
f 3 11 7
f 4 7 8
f 5 9 10
f 5 10 6
f 7 11 8
f 8 11 14
f 8 14 12
f 9 12 13
f 9 13 10
f 12 14 13
