v -0.047532841374 0.149492676072 0.0509541884472
v -0.047532841374 0.149492676072 0.0509513933766
v -0.0475333244323 0.149492676072 0.0652274194816
v -0.0475458741428 0.149459606843 0.0652274194816
v -0.0477210922601 0.149012112171 0.0652274194816
v -0.0477210922601 0.149012112171 0.0509513933766
v -0.0524635679627 0.149492676072 0.0509513933766
v -0.0524635679627 0.149492676072 0.0652274194816
v -0.0524635679627 0.149012112171 0.0652274194816
v -0.0524635679627 0.149012112171 0.0509513933766
f 1 2 7
f 1 7 8
f 1 8 3
f 1 3 4
f 1 4 5
f 1 5 6
f 1 6 2
f 2 6 10
f 2 10 7
f 3 8 9
f 3 9 5
f 3 5 4
f 5 9 10
f 5 10 6
f 7 10 9
f 7 9 8
