v -0.0060841718317 0.0214637447306 -0.0140000151341
v -0.0138031212853 0.0214637447306 -0.0139985466679
v -0.00708780061737 0.0304103113707 -0.0139985466679
v 0.0139801936336 0.0214637447306 -0.0140000151341
v -0.0138031212853 0.0214637447306 0.000998518271146
v -0.00708780061737 0.0304103113707 0.000999986737358
v 0.00524402077015 0.0304103113707 -0.0139985466679
v 0.0139829166718 0.0214637447306 -2.04718228396e-05
v -0.00816486094035 0.02696831295 0.000999986737358
v 0.0139829166718 0.0214637447306 0.000998518271146
v 0.00297566414761 0.0304103113707 0.000999986737358
v 0.00524402077015 0.0304103113707 0.000998518271146
f 1 2 3
f 1 3 7
f 1 7 4
f 1 4 8
f 1 8 10
f 1 10 5
f 1 5 2
f 2 5 6
f 2 6 3
f 3 6 11
f 3 11 12
f 3 12 7
f 4 7 8
f 5 9 6
f 5 10 9
f 6 9 11
f 7 12 10
f 7 10 8
f 9 10 11
f 10 12 11
