v -0.0568671222322 -0.155523393268 -0.0186705887573
v -0.0574322229797 -0.154858847551 -0.0186705887573
v -0.0568671222322 -0.152128893595 -0.0186705887573
v -0.0568671222322 -0.155523393268 -0.00850101247008
v -0.0574322229797 -0.152128893595 -0.0186705887573
v -0.0574322229797 -0.154858847551 -0.00850101247008
v -0.0568671222322 -0.152128893595 -0.00850101247008
v -0.05727627408 -0.152128893595 -0.00850001628491
v -0.0574322229797 -0.152128893595 -0.00850001628491
f 1 2 5
f 1 5 3
f 1 3 7
f 1 7 4
f 1 4 6
f 1 6 2
f 2 6 9
f 2 9 5
f 3 5 9
f 3 9 8
f 3 8 7
f 4 7 8
f 4 8 9
f 4 9 6
