v -0.0291219743055 -0.00641989304503 -0.0139999853973
v -0.0252842474896 -0.0081652532906 -0.0139999853973
v -0.0291219743055 -0.012569902579 -0.0139985174455
v -0.0291219743055 -0.00641989304503 0.00099854813376
v -0.0225789382863 -0.00641989304503 -0.0139999853973
v -0.0118809004209 -0.0121936215418 -0.0139985174455
v -0.0291219743055 -0.012569902579 0.00100001608556
v -0.0291219743055 -0.0121882001465 0.00100001608556
v -0.0252842474896 -0.00910326163909 0.00100001608556
v -0.0188644145316 -0.00641989304503 0.00100001608556
v -0.0153186533033 -0.00641989304503 -0.0139985174455
v -0.0118809004209 -0.0121936215418 0.00100001608556
v -0.0153186533033 -0.00641989304503 0.00100001608556
f 1 2 3
f 1 3 7
f 1 7 8
f 1 8 4
f 1 4 10
f 1 10 13
f 1 13 11
f 1 11 5
f 1 5 2
f 2 5 6
f 2 6 3
f 3 6 12
f 3 12 7
f 4 8 9
f 4 9 10
f 5 11 6
f 6 11 13
f 6 13 12
f 7 12 13
f 7 13 10
f 7 10 9
f 7 9 8
