v -0.0475302704667 -0.14949487214 -0.0234721199156
v -0.0475302704667 -0.14949487214 -0.0235000170224
v -0.0481453514063 -0.147927903583 -0.00850001628491
v -0.0475311842902 -0.14949487214 -0.00850001628491
v -0.0498736091408 -0.14949487214 -0.0235000170224
v -0.0481453514063 -0.147927903583 -0.0235000170224
v -0.0568670669975 -0.147927903583 -0.00850001628491
v -0.0568670669975 -0.14949487214 -0.00850001628491
v -0.0481480935302 -0.147927903583 -0.0235000170224
v -0.0568670669975 -0.14949487214 -0.0234985488913
v -0.0568670669975 -0.147927903583 -0.0234985488913
f 1 2 6
f 1 6 3
f 1 3 4
f 1 4 8
f 1 8 10
f 1 10 5
f 1 5 2
f 2 5 9
f 2 9 6
f 3 7 8
f 3 8 4
f 3 6 9
f 3 9 11
f 3 11 7
f 5 10 11
f 5 11 9
f 7 11 10
f 7 10 8
