v 0.0177032943302 -0.021991444712 -0.0139991400187
v 0.0177032943302 -0.0093881216093 -0.0139991400187
v 0.0223767106735 -0.0168284738177 -0.0139991400187
v 0.0177032943302 -0.021991444712 -0.00200101729451
v 0.0177024634333 -0.0174872598446 -0.00198780315528
v 0.0262129038352 -0.0093881216093 -0.0139991400187
v 0.0177024634333 -0.00939058961974 -0.00198780315528
v 0.0177032943302 -0.0093881216093 -0.00198780315528
v 0.0254656560874 -0.0116383630352 -0.0139991400187
v 0.0246925847238 -0.0129386672426 -0.00500642042645
v 0.0223767106735 -0.0168284738177 -0.00500642042645
v 0.0223767106735 -0.0168272398125 -0.00200101729451
v 0.0177024634333 -0.0174872598446 0.000998514157795
v 0.0257738859113 -0.0107118636891 -0.00500642042645
v 0.0262129038352 -0.0093881216093 -0.00200101729451
v 0.0177024634333 -0.00939058961974 0.000999981595669
v 0.0225074987735 -0.0093881216093 -0.00198780315528
v 0.0254656560874 -0.0116383630352 -0.00500642042645
v 0.0254648251906 -0.0116395970404 -0.00200101729451
v 0.0225074987735 -0.00939058961974 0.000998514157795
v 0.0177024634333 -0.0106575839129 0.000999981595669
v 0.0181698058903 -0.00939058961974 0.000999981595669
f 1 2 6
f 1 6 9
f 1 9 3
f 1 3 11
f 1 11 4
f 1 4 13
f 1 13 5
f 1 5 7
f 1 7 2
f 2 7 16
f 2 16 8
f 2 8 17
f 2 17 15
f 2 15 6
f 3 9 10
f 3 10 11
f 4 12 13
f 4 11 12
f 5 13 21
f 5 21 16
f 5 16 7
f 6 14 9
f 6 15 14
f 8 16 22
f 8 22 17
f 9 14 18
f 9 18 10
f 10 18 19
f 10 19 12
f 10 12 11
f 12 19 13
f 13 20 21
f 13 19 20
f 14 15 19
f 14 19 18
f 15 17 20
f 15 20 19
f 16 21 22
f 17 22 20
f 20 22 21
