v -0.141918457189 -0.176476232582 0.00100002791145
v -0.143264189023 -0.176476232582 0.00100002791145
v -0.141918457189 -0.182568449547 0.00100002791145
v -0.141918457189 -0.176476232582 -0.0139999735714
v -0.153442320007 -0.176476232582 0.00099856047381
v -0.153348691933 -0.18429748802 0.00100002791145
v -0.142486979755 -0.18429748802 0.00100002791145
v -0.141918457189 -0.182568449547 -0.0139985051054
v -0.141918457189 -0.17950243245 -0.0139999735714
v -0.153442320007 -0.176476232582 -0.0139999735714
v -0.153348691933 -0.18429748802 -0.0139999735714
v -0.142486979755 -0.18429748802 -0.0139985051054
v -0.153306957883 -0.18429748802 -0.0139999735714
f 1 2 6
f 1 6 7
f 1 7 3
f 1 3 8
f 1 8 9
f 1 9 4
f 1 4 10
f 1 10 5
f 1 5 2
f 2 5 6
f 3 7 12
f 3 12 8
f 4 9 13
f 4 13 11
f 4 11 10
f 5 10 11
f 5 11 6
f 6 11 13
f 6 13 12
f 6 12 7
f 8 12 9
f 9 12 13
