v -0.078685433 -0.086938784 -0.004999998
v -0.078685433 -0.086938784 0.005000003
v -0.078144796 -0.091566056 0.005000003
v -0.078144796 -0.091566049 -0.004999998
v -0.076839998 -0.082661137 -0.004999997
v -0.076839998 -0.082661137 0.005000004
v -0.075362958 -0.095303066 -0.004999998
v -0.075362958 -0.095303066 0.005000002
v -0.073497973 -0.089720234 -0.004999998
v -0.071257174 -0.084526122 -0.004999998
v -0.071085311 -0.097148493 -0.004999998
v -0.071085311 -0.097148493 0.005000002
v -0.068303861 -0.091961034 -0.004999998
v -0.066458039 -0.096607856 -0.004999999
v -0.066458039 -0.096607856 0.005000002
v -0.062721029 -0.093826018 -0.004999998
v -0.062721029 -0.093826018 0.005000002
v -0.042533822 -0.045726754 -0.004999995
v -0.034689948 -0.051929466 0.005000005
v -0.013846274 -0.009448828 -0.004999992
v -0.007059486 0.005582452 0.00500001
v -0.007059486 0.005582453 -0.004999991
v -0.006273207 -0.002491843 0.005000009
v -0.003322471 0.00836429 0.00500001
v -0.003322471 0.008364291 -0.004999991
v 0.001304795 0.008904925 0.005000009
v 0.001304795 0.008904926 -0.004999991
v 0.005582444 0.007059497 0.005000009
v 0.005582444 0.007059498 -0.004999992
v 0.007059488 -0.005582432 -0.004999993
v 0.007059489 -0.005582433 0.005000008
v 0.008364282 0.003322483 -0.004999992
v 0.008364283 0.003322482 0.005000009
v 0.008904916 -0.001304783 -0.004999992
v 0.008904917 -0.001304784 0.005000008
f 4 1 7
f 31 34 35
f 12 8 7
f 12 7 11
f 12 11 14
f 12 17 31
f 12 31 19
f 18 20 34
f 18 34 13
f 18 1 22
f 18 22 20
f 30 34 31
f 33 19 31
f 33 31 35
f 33 32 28
f 25 22 21
f 29 34 20
f 29 20 22
f 29 22 25
f 29 25 27
f 29 32 34
f 29 27 28
f 29 28 32
f 5 21 22
f 5 22 1
f 5 1 2
f 15 12 14
f 15 17 12
f 9 18 13
f 9 13 7
f 9 7 1
f 16 34 30
f 16 13 34
f 16 14 11
f 16 11 7
f 16 7 13
f 3 8 12
f 3 7 8
f 3 4 7
f 26 33 28
f 26 28 27
f 10 1 18
f 10 9 1
f 10 18 9
f 6 19 33
f 6 12 19
f 6 3 12
f 6 21 5
f 6 5 2
f 6 2 3
f 24 25 21
f 24 21 6
f 24 6 26
f 23 33 26
f 23 6 33
f 23 26 6
f 33 34 32
f 33 35 34
f 16 17 15
f 16 15 14
f 16 31 17
f 16 30 31
f 3 2 1
f 3 1 4
f 24 26 27
f 24 27 25
