v -0.180642472532 -0.148197395137 0.0010000237981
v -0.180642472532 -0.146747151305 0.000998555332123
v -0.182001474032 -0.147202708938 0.000998555332123
v -0.190399026268 -0.15173861934 0.000998555332123
v -0.190399026268 -0.15459977515 0.0010000237981
v -0.180642472532 -0.157698550967 0.0010000237981
v -0.180642472532 -0.146748788418 -0.0139999776847
v -0.182001474032 -0.147202708938 -0.0139999776847
v -0.190399026268 -0.15173861934 -0.0139999776847
v -0.190399026268 -0.163486421162 0.0010000237981
v -0.190399026268 -0.163488058275 -0.0139882320136
v -0.180642472532 -0.157698550967 -0.0139985102471
v -0.180642472532 -0.148490722243 -0.0139999776847
v -0.190399026268 -0.15885055224 -0.0139985102471
f 1 2 3
f 1 3 4
f 1 4 5
f 1 5 10
f 1 10 6
f 1 6 12
f 1 12 13
f 1 13 7
f 1 7 2
f 2 7 8
f 2 8 3
f 3 8 9
f 3 9 4
f 4 9 14
f 4 14 11
f 4 11 10
f 4 10 5
f 6 10 11
f 6 11 12
f 7 13 9
f 7 9 8
f 9 13 12
f 9 12 14
f 11 14 12
