v -0.195821244107 0.184851416152 0.000998540894575
v -0.202127323397 0.184852115422 0.00100000936079
v -0.202127323397 0.181933816477 0.00100000936079
v -0.195933291781 0.177673364094 0.000998540894575
v -0.195821244107 0.184851416152 -0.0139985240444
v -0.206041234207 0.184852115422 0.00100000936079
v -0.202127323397 0.184852115422 -0.0139985240444
v -0.206003218619 0.177725365074 0.000998540894575
v -0.200720631486 0.177673364094 0.000998540894575
v -0.195933291781 0.177673364094 -0.0139985240444
v -0.199337961543 0.177673364094 -0.0139999925107
v -0.200129345544 0.179709777095 -0.0139999925107
v -0.200661604903 0.180656308459 -0.0139999925107
v -0.205529985844 0.184852115422 -0.0139999925107
v -0.206041234207 0.184852115422 -0.0139985240444
v -0.206003218619 0.177725365074 -0.0139999925107
v -0.200720631486 0.177673364094 -0.0139999925107
f 1 2 3
f 1 3 4
f 1 4 10
f 1 10 5
f 1 5 7
f 1 7 2
f 2 6 3
f 2 7 14
f 2 14 15
f 2 15 6
f 3 6 8
f 3 8 9
f 3 9 4
f 4 9 17
f 4 17 11
f 4 11 10
f 5 10 11
f 5 11 12
f 5 12 13
f 5 13 14
f 5 14 7
f 6 15 16
f 6 16 8
f 8 16 17
f 8 17 9
f 11 17 16
f 11 16 14
f 11 14 13
f 11 13 12
f 14 16 15
