v 0.0696756183473 0.0286346027055 -0.0019999832855
v 0.058470005424 0.0240192511734 -0.0019999832855
v 0.0651942715336 0.022037735274 -0.0019999832855
v 0.0696756183473 0.0286346027055 -0.01399881155
v 0.0697115937069 0.0295554007973 -0.00200115764694
v 0.0699521917789 0.0357325255348 -0.00200233252256
v 0.0650481159792 0.0357325255348 -0.00200233252256
v 0.0584677595349 0.0240173590324 -0.0019999832855
v 0.0584677595349 0.0164164968908 -0.0019999832855
v 0.0651942715336 0.022037735274 -0.01399881155
v 0.0699521917789 0.0357325255348 -0.0139999859114
v 0.0697115937069 0.0295554007973 -0.01399881155
v 0.0650481159792 0.0357325255348 -0.0139999859114
v 0.0584677595349 0.0240192511734 -0.01399881155
v 0.0584677595349 0.0164164968908 -0.01399881155
f 1 2 8
f 1 8 9
f 1 9 3
f 1 3 10
f 1 10 4
f 1 4 12
f 1 12 5
f 1 5 6
f 1 6 7
f 1 7 2
f 2 7 8
f 3 9 15
f 3 15 10
f 4 10 11
f 4 11 12
f 5 12 11
f 5 11 6
f 6 11 13
f 6 13 7
f 7 13 14
f 7 14 8
f 8 14 15
f 8 15 9
f 10 15 11
f 11 15 13
f 13 15 14
