v -0.0976027866775 -0.0641652895395 0.000998550190435
v -0.090992205337 -0.0641652895395 0.00100001762807
v -0.0595550914378 -0.0251979983345 0.000998550190435
v -0.0595550914378 -0.0251979983345 -0.0139985164171
v -0.0975975215894 -0.0641652895395 -0.0139985164171
v -0.0864132158195 -0.0641652895395 0.00100001762807
v -0.0438339055433 -0.0199969715671 0.000998550190435
v -0.0438339055433 -0.00910445451061 0.000997081724462
v -0.0438339055433 -0.00910445451061 -0.0139999848831
v -0.0438339055433 -0.0124298800294 -0.0139999848831
v -0.0864132158195 -0.0641652895395 -0.0139985164171
v -0.0438339055433 -0.0212150373547 0.000998550190435
v -0.0438339055433 -0.0212150373547 -0.0139985164171
f 1 2 3
f 1 3 4
f 1 4 5
f 1 5 11
f 1 11 6
f 1 6 2
f 2 6 7
f 2 7 3
f 3 7 8
f 3 8 9
f 3 9 4
f 4 9 5
f 5 9 10
f 5 10 11
f 6 11 13
f 6 13 12
f 6 12 7
f 7 12 13
f 7 13 10
f 7 10 9
f 7 9 8
f 10 13 11
