v -0.0590963843037 -0.135864526659 -0.00850001497758
v -0.0590985047923 -0.135862666983 -0.0234985475839
v -0.0590985047923 -0.135864526659 -0.00850001497758
v -0.0574322233065 -0.13611741258 -0.00850001497758
v -0.0574322233065 -0.13611741258 -0.0234985475839
v -0.0574322233065 -0.149321400284 -0.0235000157151
v -0.0590985047923 -0.149674696964 -0.0235000157151
v -0.0590985047923 -0.1370136694 -0.00850001497758
v -0.0574322233065 -0.136149023157 -0.00850001497758
v -0.0574322233065 -0.154858856703 -0.0235000157151
v -0.0590985047923 -0.152898991145 -0.0235000157151
v -0.0590985047923 -0.152898991145 -0.00850148310874
v -0.0574322233065 -0.154856997026 -0.00850148310874
v -0.0574322233065 -0.154858856703 -0.0195532656905
f 1 2 3
f 1 3 8
f 1 8 9
f 1 9 4
f 1 4 2
f 2 4 5
f 2 5 6
f 2 6 7
f 2 7 11
f 2 11 12
f 2 12 8
f 2 8 3
f 4 9 13
f 4 13 14
f 4 14 10
f 4 10 6
f 4 6 5
f 6 10 11
f 6 11 7
f 8 12 13
f 8 13 9
f 10 14 12
f 10 12 11
f 12 14 13
