v -0.0645047036828 -0.14654270483 -0.0235000150614
v -0.0682254173958 -0.142166577588 -0.0235000150614
v -0.0645047036828 -0.133249063402 -0.0235000150614
v -0.0645047036828 -0.14654270483 -0.023432474491
v -0.0682254173958 -0.140098880377 -0.0235000150614
v -0.0682254173958 -0.142166577588 -0.00850148245508
v -0.0682254173958 -0.133249063402 -0.0234985469303
v -0.0645047036828 -0.133249063402 -0.00850001432391
v -0.0645047036828 -0.146541403383 -0.00850148245508
v -0.0645047036828 -0.139445649271 -0.00850001432391
v -0.0682254173958 -0.133249063402 -0.00850001432391
f 1 2 5
f 1 5 3
f 1 3 8
f 1 8 10
f 1 10 9
f 1 9 4
f 1 4 6
f 1 6 2
f 2 6 11
f 2 11 7
f 2 7 5
f 3 5 7
f 3 7 11
f 3 11 8
f 4 9 6
f 6 9 10
f 6 10 11
f 8 11 10
