v -0.0230069574471 0.0593409549832 0.000999989822371
v -0.0230069574471 0.0593409549832 -0.0139970787158
v -0.0279033420804 0.0593409549832 0.000999989822371
v -0.0279033420804 0.0535465065975 0.000999989822371
v 0.0052454193094 0.0304111875144 0.000998521870328
v -0.011682643735 0.0477492241132 0.000998521870328
v -0.0248207929269 0.0497515086435 -0.013998547182
v -0.0279033420804 0.0593409549832 -0.0139970787158
v -0.011682643735 0.0477492241132 -0.00517121423962
v -0.011682643735 0.0477463920712 -0.013998547182
v -0.0116858891688 0.0477492241132 -0.013998547182
v -0.0279033420804 0.0508220369655 0.000998521870328
v -0.00709126817204 0.0304111875144 0.000998521870328
v 0.0052454193094 0.0304111875144 -0.00230218423813
v -0.0279033420804 0.0508220369655 -0.0139970787158
v 0.00524217798902 0.0304111875144 -0.0140000151341
v 0.00324013614642 0.0304111875144 -0.0140000151341
v -0.00709126817204 0.0304111875144 -0.013998547182
f 1 2 8
f 1 8 3
f 1 3 4
f 1 4 5
f 1 5 6
f 1 6 9
f 1 9 2
f 2 7 8
f 2 9 10
f 2 10 11
f 2 11 7
f 3 8 15
f 3 15 12
f 3 12 4
f 4 12 13
f 4 13 5
f 5 14 9
f 5 9 6
f 5 13 18
f 5 18 17
f 5 17 16
f 5 16 14
f 7 15 8
f 7 11 16
f 7 16 17
f 7 17 18
f 7 18 15
f 9 14 16
f 9 16 10
f 10 16 11
f 12 15 18
f 12 18 13
