v -0.0568670669975 -0.147153106837 -0.0235000157151
v -0.0568670669975 -0.135896243783 -0.0234985475839
v -0.0548751502925 -0.138838223073 -0.0235000157151
v -0.0548751502925 -0.147153106837 -0.0235000157151
v -0.0568670669975 -0.147153106837 -0.00850148310874
v -0.0558629195118 -0.135499264645 -0.0234985475839
v -0.0568670669975 -0.135896243783 -0.00850001497758
v -0.0548751502925 -0.135499264645 -0.0234985475839
v -0.0548751502925 -0.147153106837 -0.00850148310874
v -0.0548751502925 -0.139369809445 -0.00850001497758
v -0.0568670669975 -0.136837357697 -0.00850001497758
v -0.0558629195118 -0.135499264645 -0.00850001497758
v -0.0548751502925 -0.135499264645 -0.00850001497758
f 1 2 3
f 1 3 4
f 1 4 9
f 1 9 5
f 1 5 11
f 1 11 7
f 1 7 2
f 2 6 3
f 2 7 12
f 2 12 6
f 3 6 8
f 3 8 13
f 3 13 10
f 3 10 9
f 3 9 4
f 5 9 10
f 5 10 11
f 6 12 13
f 6 13 8
f 7 11 10
f 7 10 13
f 7 13 12
