v -0.0462266079748 0.150536708833 0.0510424985614
v -0.0462266079748 0.150536708833 0.0509499971485
v -0.0462271531313 0.150536708833 0.0659499975441
v -0.0472146445409 0.149747222622 0.0659499975441
v -0.0472146445409 0.149747222622 0.0509499971485
v -0.0518002037601 0.150536708833 0.0509499971485
v -0.0518002037601 0.150536708833 0.0659499975441
v -0.0518002037601 0.149747222622 0.0659499975441
v -0.0518002037601 0.149747222622 0.0509499971485
f 1 2 6
f 1 6 7
f 1 7 3
f 1 3 4
f 1 4 5
f 1 5 2
f 2 5 9
f 2 9 6
f 3 7 8
f 3 8 4
f 4 8 9
f 4 9 5
f 6 9 8
f 6 8 7
