v -0.0389692911675 -0.0233357901537 0.00100001659973
v -0.0438339055433 -0.0212090524303 0.000998548647929
v -0.0386092681465 -0.0251978379139 0.00100001659973
v -0.0352495455148 -0.0251978379139 0.00100001659973
v -0.0291219743055 -0.00641929249592 0.000998548647929
v -0.0412100674081 -0.00641929249592 0.000998548647929
v -0.0438339055433 -0.00910666749294 0.000998548647929
v -0.0438339055433 -0.0212108910978 -0.0139985179596
v -0.0386092681465 -0.0251978379139 -0.0139985179596
v -0.0305966226433 -0.0251978379139 0.000998548647929
v -0.0291219743055 -0.0125715808258 0.000998548647929
v -0.0291219743055 -0.00641929249592 -0.0139985179596
v -0.0412100674081 -0.00641929249592 -0.0139999859114
v -0.0438339055433 -0.00910666749294 -0.0139985179596
v -0.0305966226433 -0.0251978379139 -0.0139985179596
v -0.0291219743055 -0.0125715808258 -0.0139985179596
v -0.0339117051434 -0.00641929249592 -0.0139999859114
f 1 2 3
f 1 3 4
f 1 4 5
f 1 5 6
f 1 6 7
f 1 7 2
f 2 8 3
f 2 7 14
f 2 14 8
f 3 9 15
f 3 15 10
f 3 10 4
f 3 8 9
f 4 10 11
f 4 11 5
f 5 12 17
f 5 17 13
f 5 13 6
f 5 11 16
f 5 16 12
f 6 13 14
f 6 14 7
f 8 14 13
f 8 13 9
f 9 13 17
f 9 17 15
f 10 15 16
f 10 16 11
f 12 16 17
f 15 17 16
