v -0.058992837 -0.084411271 0.05445002
v -0.058992837 -0.084411271 0.064450018
v -0.058210336 -0.077285521 0.05445002
v -0.058210336 -0.077285513 0.064450018
v -0.055731744 -0.090795144 0.05445002
v -0.055731744 -0.090795144 0.064450018
v -0.049499571 -0.094337575 0.05445002
v -0.049499571 -0.094337575 0.064450026
v -0.043086097 -0.000718121 0.020049985
v -0.043048561 -0.00193628 0.020049987
v -0.042976584 -0.00315289 0.020049987
v -0.042870231 -0.004366978 0.020049987
v -0.042346023 -0.093873486 0.05445002
v -0.042346023 -0.093873486 0.064450026
v -0.0421215 0.009094388 0.020049985
v -0.0421215 0.009094388 0.020850005
v -0.041847467 0.010281919 0.020049985
v -0.041847467 0.010281919 0.020850003
v -0.041539963 0.011461225 0.020049985
v -0.041539963 0.011461225 0.020850003
v -0.041199245 0.012631363 0.020049985
v -0.041199245 0.012631363 0.020850003
v -0.040755391 -0.013997308 0.020049987
v -0.037249614 0.021665538 0.020049984
v -0.037249614 0.021665538 0.020850003
v -0.036623802 -0.089555524 0.05445002
v -0.036623802 -0.089555517 0.064450026
v -0.036622033 0.022710267 0.020049984
v -0.036622033 0.022710267 0.020850003
v -0.03596516 0.023736831 0.020049984
v -0.03596516 0.023736831 0.020850003
v -0.035279512 0.024744406 0.020049984
v -0.035279512 0.024744406 0.020850003
v -0.029999327 -0.000201898 0.007499998
v -0.028731486 0.032115914 0.020049984
v -0.028731486 0.032115914 0.020850003
v -0.027811777 0.032915577 0.020049984
v -0.027811777 0.032915577 0.020850003
v -0.026869822 0.033688914 0.020049984
v -0.026869822 0.033688914 0.020850003
v -0.026081147 0.014824818 0.007499997
v -0.025906382 0.034435298 0.020049984
v -0.025906382 0.034435298 0.020850003
v -0.025879208 -0.015174504 0.0075
v -0.024078611 -0.013162338 0.0075
v -0.022439755 -0.011501269 0.0075
v -0.021643098 0.009155724 0.064450011
v -0.021005291 -0.012316632 0.0075
v -0.017400913 0.039422568 0.020049984
v -0.017400913 0.039422568 0.020850001
v -0.016279109 0.039898887 0.020049984
v -0.016279109 0.039898887 0.020850001
v -0.015174546 0.025879245 0.007499997
v -0.015144289 0.040343292 0.020049984
v -0.015144289 0.040343292 0.020850001
v -0.014824779 -0.026081104 0.007500002
v -0.01480124 0.022417579 0.007499997
v -0.013997355 0.040755428 0.020049984
v -0.013997355 0.040755428 0.020850001
v -0.01398587 0.023852041 0.007499997
v -0.013499703 -9.0826e-05 0.073050022
v -0.013425921 0.019287214 0.064450011
v -0.01173652 0.006671196 0.073050022
v -0.011645645 -0.006828499 0.073050022
v -0.006828546 0.011645689 0.073050022
v -0.006671149 -0.011736468 0.073050022
v -0.00531109 0.009057769 0.073050022
v -0.00436703 0.042870272 0.020049984
v -0.00436703 0.042870272 0.020850003
v -0.003152933 0.042976622 0.020049984
v -0.003152933 0.042976622 0.020850003
v -0.00193632 0.043048598 0.020049984
v -0.00193632 0.043048598 0.020850003
v -0.001071711 0.023475597 0.064450011
v -0.000718165 0.043086138 0.020049984
v -0.000718165 0.043086138 0.020850003
v -0.000201943 0.029999362 0.007499997
v -9.0875e-05 0.013499741 0.073050022
v -7.0687e-05 0.01049981 0.073050022
v 9.086e-05 -0.013499648 0.073050022
v 0.000201933 -0.029999282 0.007500003
v 0.004910134 0.025147734 0.007499998
v 0.006671149 0.011736561 0.073050022
v 0.006828546 -0.011645596 0.073050022
v 0.009094351 0.042121533 0.020049984
v 0.009094351 0.042121533 0.020850003
v 0.010281881 0.041847505 0.020049984
v 0.010281881 0.041847505 0.020850003
v 0.011461188 0.041540008 0.020049984
v 0.011461188 0.041540008 0.020850003
v 0.011612738 0.020430274 0.064450011
v 0.011645637 0.006828592 0.073050022
v 0.011736505 -0.006671104 0.073050022
v 0.012631323 0.041199278 0.020049984
v 0.012631323 0.041199278 0.020850003
v 0.013499687 9.0918e-05 0.073050022
v 0.013997344 -0.040755346 0.020049993
v 0.014824776 0.026081184 0.007499998
v 0.015144287 -0.04034321 0.020049993
v 0.015174543 -0.025879165 0.007500003
v 0.016279113 -0.039898805 0.020049993
v 0.017400909 -0.039422486 0.020049993
v 0.018939601 -0.013911878 0.064450018
v 0.02071885 0.011089627 0.064450011
v 0.021665489 0.037249655 0.020049985
v 0.021665489 0.037249655 0.020850003
v 0.022710228 0.03662207 0.020049985
v 0.022710228 0.03662207 0.020850003
v 0.023440713 -0.001668141 0.064450018
v 0.023736779 0.035965193 0.020049985
v 0.023736779 0.035965193 0.020850005
v 0.024744362 0.03527955 0.020049985
v 0.024744362 0.03527955 0.020850005
v 0.025879206 0.015174584 0.007499999
v 0.025906371 -0.034435216 0.020049993
v 0.026081145 -0.014824738 0.007500002
v 0.026808759 -0.006548947 0.007500001
v 0.026869826 -0.033688832 0.020049993
v 0.027811768 -0.032915495 0.020049993
v 0.028731475 -0.032115832 0.020049993
v 0.028731475 -0.032115832 0.02085001
v 0.029999325 0.000201978 0.007500001
v 0.032115869 0.028731521 0.020049987
v 0.032115869 0.028731521 0.020850005
v 0.032915536 0.027811816 0.020049987
v 0.032915536 0.027811816 0.020850005
v 0.033688866 0.026869863 0.020049987
v 0.033688866 0.026869863 0.020850005
v 0.03443525 0.025906418 0.020049987
v 0.03443525 0.025906418 0.020850005
v 0.035279509 -0.024744324 0.020049991
v 0.035279509 -0.024744324 0.02085001
v 0.035965148 -0.023736749 0.020049991
v 0.035965148 -0.023736749 0.02085001
v 0.036622021 -0.022710184 0.020049991
v 0.036622021 -0.022710184 0.02085001
v 0.037249617 -0.021665456 0.020049991
v 0.037249617 -0.021665456 0.02085001
v 0.039422527 0.017400952 0.020049987
v 0.039422527 0.017400952 0.020850006
v 0.039898843 0.01627915 0.020049987
v 0.039898843 0.01627915 0.020850006
v 0.04034324 0.015144328 0.020049987
v 0.04034324 0.015144328 0.020850006
v 0.04075538 0.01399739 0.020049987
v 0.04075538 0.01399739 0.020850006
v 0.041199233 -0.012631281 0.020049991
v 0.041199233 -0.012631281 0.020850008
v 0.04153996 -0.011461142 0.020049991
v 0.04153996 -0.011461142 0.020850008
v 0.041847456 -0.010281837 0.020049991
v 0.041847456 -0.010281837 0.020850008
v 0.042121489 -0.009094306 0.020049991
v 0.042121489 -0.009094306 0.020850008
v 0.04287022 0.00436706 0.020049989
v 0.04287022 0.00436706 0.020850008
v 0.042976573 0.003152973 0.020049989
v 0.042976573 0.003152973 0.020850008
v 0.043048549 0.001936362 0.020049989
v 0.043048549 0.001936363 0.020850008
v 0.043086085 0.000718204 0.020049989
v 0.043086085 0.000718204 0.020850008
f 64 2 6
f 3 2 4
f 93 84 27
f 93 27 103
f 80 84 64
f 109 93 103
f 5 8 6
f 5 7 8
f 66 64 6
f 66 80 64
f 66 6 8
f 66 8 80
f 67 64 84
f 67 84 93
f 91 92 104
f 91 104 124
f 114 129 139
f 14 13 27
f 14 27 84
f 14 8 7
f 14 7 13
f 14 84 80
f 14 80 8
f 1 2 3
f 1 44 5
f 81 13 7
f 77 98 114
f 159 162 161
f 159 161 122
f 145 155 122
f 145 122 114
f 156 104 109
f 156 146 104
f 9 10 1
f 21 24 41
f 16 3 4
f 79 67 93
f 79 78 67
f 65 67 78
f 96 109 104
f 96 104 92
f 96 93 109
f 96 92 93
f 106 95 91
f 106 91 108
f 106 108 105
f 113 91 124
f 74 78 91
f 74 69 59
f 74 65 78
f 154 162 109
f 154 109 152
f 26 27 13
f 132 103 27
f 23 44 1
f 97 13 81
f 56 5 44
f 56 7 5
f 56 81 7
f 29 24 25
f 29 25 47
f 32 35 41
f 82 114 41
f 82 77 114
f 68 59 69
f 53 41 35
f 94 105 98
f 123 114 98
f 126 124 104
f 140 130 104
f 141 114 139
f 160 109 162
f 160 162 159
f 34 17 41
f 34 10 9
f 34 44 23
f 19 41 17
f 19 21 41
f 22 25 24
f 22 24 21
f 22 4 47
f 22 47 25
f 22 21 19
f 83 78 79
f 83 91 78
f 83 92 91
f 83 93 92
f 83 79 93
f 111 108 91
f 111 91 113
f 86 76 74
f 73 74 76
f 62 74 59
f 62 65 74
f 62 36 33
f 62 33 47
f 153 122 161
f 153 154 152
f 100 97 81
f 100 81 56
f 117 114 122
f 117 122 116
f 117 116 100
f 117 41 114
f 117 100 41
f 12 23 1
f 12 34 23
f 101 102 13
f 101 100 102
f 45 56 44
f 45 44 34
f 45 34 41
f 28 24 29
f 28 41 24
f 31 47 33
f 31 29 47
f 57 82 41
f 57 77 82
f 75 85 77
f 58 68 77
f 58 77 53
f 58 59 68
f 125 114 123
f 125 123 124
f 125 124 126
f 112 113 124
f 112 124 123
f 112 111 113
f 112 123 98
f 143 145 114
f 143 114 141
f 158 156 109
f 158 109 160
f 158 155 156
f 158 160 159
f 15 17 34
f 15 34 9
f 15 3 16
f 15 16 17
f 15 1 3
f 15 9 1
f 20 22 19
f 20 4 22
f 61 64 67
f 61 2 64
f 61 4 2
f 89 98 77
f 89 94 98
f 90 91 95
f 90 95 94
f 90 94 89
f 88 74 91
f 88 86 74
f 88 91 90
f 71 69 74
f 71 74 73
f 71 68 69
f 38 36 62
f 120 116 131
f 120 100 116
f 115 13 102
f 115 102 100
f 115 100 118
f 115 26 13
f 115 118 26
f 48 41 100
f 48 100 56
f 134 103 132
f 11 1 10
f 11 12 1
f 11 10 34
f 11 34 12
f 99 13 97
f 99 101 13
f 99 97 100
f 99 100 101
f 30 32 41
f 30 41 28
f 30 28 29
f 30 29 31
f 60 53 77
f 60 77 57
f 60 41 53
f 60 57 41
f 72 71 73
f 72 75 77
f 72 76 75
f 72 73 76
f 37 53 35
f 49 53 42
f 49 42 43
f 127 129 114
f 127 114 125
f 110 108 111
f 110 111 112
f 110 112 98
f 142 143 141
f 142 140 104
f 142 139 140
f 142 141 139
f 157 155 158
f 157 158 159
f 157 122 155
f 157 159 122
f 18 17 16
f 18 16 4
f 18 4 20
f 63 67 65
f 63 61 67
f 63 62 47
f 63 65 62
f 63 47 4
f 63 4 61
f 87 85 86
f 87 86 88
f 87 77 85
f 87 89 77
f 40 62 43
f 40 38 62
f 40 37 38
f 147 137 116
f 121 131 132
f 121 120 131
f 121 132 27
f 121 27 26
f 121 26 120
f 119 118 100
f 119 100 120
f 119 26 118
f 119 120 26
f 46 56 45
f 46 48 56
f 46 45 41
f 46 41 48
f 136 138 103
f 136 103 134
f 136 137 138
f 133 131 116
f 133 136 134
f 70 68 71
f 70 71 72
f 70 77 68
f 70 72 77
f 39 42 53
f 39 53 37
f 39 37 40
f 39 43 42
f 39 40 43
f 54 58 53
f 54 59 58
f 50 43 62
f 50 49 43
f 128 104 130
f 128 126 104
f 128 125 126
f 128 127 125
f 107 105 108
f 107 108 110
f 107 98 105
f 107 110 98
f 144 143 142
f 144 104 146
f 144 142 104
f 149 116 122
f 149 147 116
f 150 147 149
f 150 152 109
f 148 138 137
f 148 137 147
f 148 147 150
f 148 103 138
f 148 109 103
f 148 150 109
f 135 116 137
f 135 133 116
f 135 137 136
f 135 136 133
f 51 53 49
f 51 54 53
f 55 59 54
f 55 62 59
f 151 122 153
f 151 149 122
f 151 153 152
f 151 152 150
f 151 150 149
f 52 50 62
f 52 62 55
f 1 5 6
f 1 6 2
f 156 145 146
f 156 155 145
f 36 35 32
f 36 32 33
f 94 106 105
f 94 95 106
f 140 129 130
f 140 139 129
f 153 162 154
f 153 161 162
f 75 86 85
f 75 76 86
f 30 33 32
f 30 31 33
f 37 35 36
f 37 36 38
f 18 20 19
f 18 19 17
f 87 88 90
f 87 90 89
f 133 134 132
f 133 132 131
f 128 130 129
f 128 129 127
f 144 146 145
f 144 145 143
f 52 51 49
f 52 49 50
f 52 54 51
f 52 55 54
