v -0.0462294186601 -0.150535998077 -0.00850001759224
v -0.0445371536712 -0.150789980193 -0.00850001759224
v -0.0462294186601 -0.150535998077 -0.0234985501986
v -0.0462294186601 -0.152158403946 -0.00850001759224
v -0.0445371536712 -0.150850012116 -0.00850001759224
v -0.0445371536712 -0.150789980193 -0.0234985501986
v -0.0445371536712 -0.15931299737 -0.0235000183298
v -0.0462294186601 -0.163398257334 -0.0235000183298
v -0.0462294186601 -0.166259787481 -0.0085014857234
v -0.0445371536712 -0.16619821487 -0.0085014857234
v -0.0445371536712 -0.16619821487 -0.0235000183298
v -0.0462294186601 -0.166258247446 -0.0235000183298
v -0.0462294186601 -0.166259787481 -0.0159618422201
f 1 2 6
f 1 6 3
f 1 3 8
f 1 8 12
f 1 12 13
f 1 13 9
f 1 9 4
f 1 4 5
f 1 5 2
f 2 5 10
f 2 10 11
f 2 11 7
f 2 7 6
f 3 6 7
f 3 7 8
f 4 9 10
f 4 10 5
f 7 11 12
f 7 12 8
f 9 13 11
f 9 11 10
f 11 13 12
