v 0.0492612923294 0.0205683314575 -0.00199998431384
v 0.047772983556 0.0193901034653 -0.00199998431384
v 0.0492612923294 0.017664956222 -0.00199998431384
v 0.0492612923294 0.0219778284437 -0.00200115867528
v 0.0467181725191 0.0336272965189 -0.00200233355089
v 0.0473729849425 0.0295566265756 -0.00200115867528
v 0.040923301403 0.0295566265756 -0.00200115867528
v 0.0482217089145 0.017664956222 -0.00199998431384
v 0.0413923302573 0.0277142735355 -0.00200115867528
v 0.0492612923294 0.017664956222 -0.0139976377027
v 0.0492612923294 0.0263719640093 -0.00201173049911
v 0.0388908375497 0.0336272965189 -0.00200233355089
v 0.0467181725191 0.0336272965189 -0.0139988125783
v 0.0482176449246 0.017664956222 -0.013949478086
v 0.0429232862442 0.0246936925033 -0.00200115867528
v 0.0413923302573 0.0277142735355 -0.0139988125783
v 0.0492612923294 0.0219778284437 -0.0139976377027
v 0.0482308487783 0.017664956222 -0.0139976377027
v 0.0429232862442 0.0246936925033 -0.0139988125783
v 0.0399151933427 0.0326662698635 -0.0139999869398
v 0.0422055231115 0.0336272965189 -0.0139999869398
v 0.0473729849425 0.0295566265756 -0.0139988125783
v 0.0492612923294 0.0263719640093 -0.0139952884657
v 0.0388908375497 0.0336272965189 -0.0139999869398
f 1 2 8
f 1 8 3
f 1 3 10
f 1 10 17
f 1 17 23
f 1 23 11
f 1 11 4
f 1 4 5
f 1 5 6
f 1 6 7
f 1 7 2
f 2 7 9
f 2 9 8
f 3 8 14
f 3 14 18
f 3 18 10
f 4 11 5
f 5 12 7
f 5 7 6
f 5 11 23
f 5 23 13
f 5 13 21
f 5 21 24
f 5 24 12
f 7 12 9
f 8 9 15
f 8 15 14
f 9 16 19
f 9 19 15
f 9 12 24
f 9 24 16
f 10 18 19
f 10 19 20
f 10 20 21
f 10 21 22
f 10 22 17
f 13 23 17
f 13 17 22
f 13 22 21
f 14 15 19
f 14 19 18
f 16 24 19
f 19 24 20
f 20 24 21
