v -0.059999999 0 -0.018999996
v -0.059999999 0 0.001000019
v -0.059871536 -0.003924188 -0.018999996
v -0.059871536 -0.003924188 0.001000019
v -0.059871536 0.003924188 -0.018999996
v -0.059871536 0.003924188 0.001000019
v -0.059486691 -0.007831572 -0.018999996
v -0.059486691 -0.007831572 0.001000019
v -0.059486691 0.007831572 -0.018999996
v -0.059486691 0.007831572 0.001000019
v -0.058847118 -0.011705419 -0.018999996
v -0.058847118 -0.011705419 0.001000019
v -0.058847118 0.011705419 -0.018999996
v -0.058847118 0.011705419 0.001000019
v -0.057955548 -0.015529143 -0.018999996
v -0.057955548 -0.015529143 0.001000019
v -0.057955548 0.015529143 -0.018999996
v -0.057955548 0.015529143 0.001000019
v -0.056815807 -0.019286368 -0.018999996
v -0.056815807 -0.019286368 0.001000019
v -0.056815807 0.019286368 -0.018999996
v -0.056815807 0.019286368 0.001000019
v -0.05543277 -0.022961006 -0.018999996
v -0.05543277 -0.022961006 0.001000019
v -0.05543277 0.022961006 -0.018999996
v -0.05543277 0.022961006 0.001000019
v -0.053812366 -0.026537322 -0.018999996
v -0.053812366 -0.026537322 0.001000019
v -0.053812366 0.026537322 -0.018999996
v -0.053812366 0.026537322 0.001000019
v -0.051961523 -0.029999999 -0.018999996
v -0.051961523 -0.029999999 0.001000019
v -0.051961523 0.029999999 -0.018999996
v -0.051961523 0.029999999 0.001000019
v -0.049888175 -0.033334214 -0.018999996
v -0.049888175 -0.033334214 0.001000019
v -0.049888175 0.033334214 -0.018999996
v -0.049888175 0.033334214 0.001000019
v -0.047601201 -0.036525685 -0.018999996
v -0.047601201 -0.036525685 0.001000019
v -0.047601201 0.036525685 -0.018999996
v -0.047601201 0.036525685 0.001000019
v -0.04511039 -0.03956075 -0.018999996
v -0.04511039 -0.03956075 0.001000019
v -0.04511039 0.03956075 -0.018999996
v -0.04511039 0.03956075 0.001000019
v -0.042426407 -0.042426407 -0.018999996
v -0.042426407 -0.042426407 0.001000019
v -0.042426407 0.042426407 -0.018999996
v -0.042426407 0.042426407 0.001000019
v -0.03956075 -0.04511039 -0.018999996
v -0.03956075 -0.04511039 0.001000019
v -0.03956075 0.04511039 -0.018999996
v -0.03956075 0.04511039 0.001000019
v -0.036525685 -0.047601201 -0.018999996
v -0.036525685 -0.047601201 0.001000019
v -0.036525685 0.047601201 -0.018999996
v -0.036525685 0.047601201 0.001000019
v -0.033334214 -0.049888175 -0.018999996
v -0.033334214 -0.049888175 0.001000019
v -0.033334214 0.049888175 -0.018999996
v -0.033334214 0.049888175 0.001000019
v -0.029999999 -0.051961523 -0.018999996
v -0.029999999 -0.051961523 0.001000019
v -0.029999999 0.051961523 -0.018999996
v -0.029999999 0.051961523 0.001000019
v -0.026537322 -0.053812366 -0.018999996
v -0.026537322 -0.053812366 0.001000019
v -0.026537322 0.053812366 -0.018999996
v -0.026537322 0.053812366 0.001000019
v -0.022961006 -0.05543277 -0.018999996
v -0.022961006 -0.05543277 0.001000019
v -0.022961006 0.05543277 -0.018999996
v -0.022961006 0.05543277 0.001000019
v -0.019286368 -0.056815807 -0.018999996
v -0.019286368 -0.056815807 0.001000019
v -0.019286368 0.056815807 -0.018999996
v -0.019286368 0.056815807 0.001000019
v -0.015529143 -0.057955548 -0.018999996
v -0.015529143 -0.057955548 0.001000019
v -0.015529143 0.057955548 -0.018999996
v -0.015529143 0.057955548 0.001000019
v -0.011705419 -0.058847118 -0.018999996
v -0.011705419 -0.058847118 0.001000019
v -0.011705419 0.058847118 -0.018999996
v -0.011705419 0.058847118 0.001000019
v -0.007831572 -0.059486691 -0.018999996
v -0.007831572 -0.059486691 0.001000019
v -0.007831572 0.059486691 -0.018999996
v -0.007831572 0.059486691 0.001000019
v -0.003924188 -0.059871536 -0.018999996
v -0.003924188 -0.059871536 0.001000019
v -0.003924188 0.059871536 -0.018999996
v -0.003924188 0.059871536 0.001000019
v -0 -0.059999999 -0.018999996
v -0 -0.059999999 0.001000019
v 0 0.059999999 -0.018999996
v 0 0.059999999 0.001000019
v 0.003924188 -0.059871536 -0.018999996
v 0.003924188 -0.059871536 0.001000019
v 0.003924188 0.059871536 -0.018999996
v 0.003924188 0.059871536 0.001000019
v 0.007831572 -0.059486691 -0.018999996
v 0.007831572 -0.059486691 0.001000019
v 0.007831572 0.059486691 -0.018999996
v 0.007831572 0.059486691 0.001000019
v 0.011705419 -0.058847118 -0.018999996
v 0.011705419 -0.058847118 0.001000019
v 0.011705419 0.058847118 -0.018999996
v 0.011705419 0.058847118 0.001000019
v 0.015529143 -0.057955548 -0.018999996
v 0.015529143 -0.057955548 0.001000019
v 0.015529143 0.057955548 -0.018999996
v 0.015529143 0.057955548 0.001000019
v 0.019286368 -0.056815807 -0.018999996
v 0.019286368 -0.056815807 0.001000019
v 0.019286368 0.056815807 -0.018999996
v 0.019286368 0.056815807 0.001000019
v 0.022961006 -0.05543277 -0.018999996
v 0.022961006 -0.05543277 0.001000019
v 0.022961006 0.05543277 -0.018999996
v 0.022961006 0.05543277 0.001000019
v 0.026537322 -0.053812366 -0.018999996
v 0.026537322 -0.053812366 0.001000019
v 0.026537322 0.053812366 -0.018999996
v 0.026537322 0.053812366 0.001000019
v 0.029999999 -0.051961523 -0.018999996
v 0.029999999 -0.051961523 0.001000019
v 0.029999999 0.051961523 -0.018999996
v 0.029999999 0.051961523 0.001000019
v 0.033334214 -0.049888175 -0.018999996
v 0.033334214 -0.049888175 0.001000019
v 0.033334214 0.049888175 -0.018999996
v 0.033334214 0.049888175 0.001000019
v 0.036525685 -0.047601201 -0.018999996
v 0.036525685 -0.047601201 0.001000019
v 0.036525685 0.047601201 -0.018999996
v 0.036525685 0.047601201 0.001000019
v 0.03956075 -0.04511039 -0.018999996
v 0.03956075 -0.04511039 0.001000019
v 0.03956075 0.04511039 -0.018999996
v 0.03956075 0.04511039 0.001000019
v 0.042426407 -0.042426407 -0.018999996
v 0.042426407 -0.042426407 0.001000019
v 0.042426407 0.042426407 -0.018999996
v 0.042426407 0.042426407 0.001000019
v 0.04511039 -0.03956075 -0.018999996
v 0.04511039 -0.03956075 0.001000019
v 0.04511039 0.03956075 -0.018999996
v 0.04511039 0.03956075 0.001000019
v 0.047601201 -0.036525685 -0.018999996
v 0.047601201 -0.036525685 0.001000019
v 0.047601201 0.036525685 -0.018999996
v 0.047601201 0.036525685 0.001000019
v 0.049888175 -0.033334214 -0.018999996
v 0.049888175 -0.033334214 0.001000019
v 0.049888175 0.033334214 -0.018999996
v 0.049888175 0.033334214 0.001000019
v 0.051961523 -0.029999999 -0.018999996
v 0.051961523 -0.029999999 0.001000019
v 0.051961523 0.029999999 -0.018999996
v 0.051961523 0.029999999 0.001000019
v 0.053812366 -0.026537322 -0.018999996
v 0.053812366 -0.026537322 0.001000019
v 0.053812366 0.026537322 -0.018999996
v 0.053812366 0.026537322 0.001000019
v 0.05543277 -0.022961006 -0.018999996
v 0.05543277 -0.022961006 0.001000019
v 0.05543277 0.022961006 -0.018999996
v 0.05543277 0.022961006 0.001000019
v 0.056815807 -0.019286368 -0.018999996
v 0.056815807 -0.019286368 0.001000019
v 0.056815807 0.019286368 -0.018999996
v 0.056815807 0.019286368 0.001000019
v 0.057955548 -0.015529143 -0.018999996
v 0.057955548 -0.015529143 0.001000019
v 0.057955548 0.015529143 -0.018999996
v 0.057955548 0.015529143 0.001000019
v 0.058847118 -0.011705419 -0.018999996
v 0.058847118 -0.011705419 0.001000019
v 0.058847118 0.011705419 -0.018999996
v 0.058847118 0.011705419 0.001000019
v 0.059486691 -0.007831572 -0.018999996
v 0.059486691 -0.007831572 0.001000019
v 0.059486691 0.007831572 -0.018999996
v 0.059486691 0.007831572 0.001000019
v 0.059871536 -0.003924188 -0.018999996
v 0.059871536 -0.003924188 0.001000019
v 0.059871536 0.003924188 -0.018999996
v 0.059871536 0.003924188 0.001000019
v 0.059999999 0 -0.018999996
v 0.059999999 -0 0.001000019
f 191 189 190
f 191 190 192
f 189 185 186
f 189 186 190
f 185 181 182
f 185 182 186
f 181 177 178
f 181 178 182
f 177 173 174
f 177 174 178
f 173 169 170
f 173 170 174
f 169 165 166
f 169 166 170
f 165 161 162
f 165 162 166
f 161 157 158
f 161 158 162
f 157 153 154
f 157 154 158
f 153 149 150
f 153 150 154
f 149 145 146
f 149 146 150
f 145 141 142
f 145 142 146
f 141 137 138
f 141 138 142
f 137 133 134
f 137 134 138
f 133 129 130
f 133 130 134
f 129 125 126
f 129 126 130
f 125 121 122
f 125 122 126
f 121 117 118
f 121 118 122
f 117 113 114
f 117 114 118
f 113 109 110
f 113 110 114
f 109 105 106
f 109 106 110
f 105 101 102
f 105 102 106
f 101 97 98
f 101 98 102
f 97 93 94
f 97 94 98
f 93 89 90
f 93 90 94
f 89 85 86
f 89 86 90
f 85 81 82
f 85 82 86
f 81 77 78
f 81 78 82
f 77 73 74
f 77 74 78
f 73 69 70
f 73 70 74
f 69 65 66
f 69 66 70
f 65 61 62
f 65 62 66
f 61 57 58
f 61 58 62
f 57 53 54
f 57 54 58
f 53 49 50
f 53 50 54
f 49 45 46
f 49 46 50
f 45 41 42
f 45 42 46
f 41 37 38
f 41 38 42
f 37 33 34
f 37 34 38
f 33 29 30
f 33 30 34
f 29 25 26
f 29 26 30
f 25 21 22
f 25 22 26
f 21 17 18
f 21 18 22
f 17 13 14
f 17 14 18
f 13 9 10
f 13 10 14
f 9 5 6
f 9 6 10
f 5 1 2
f 5 2 6
f 1 3 4
f 1 4 2
f 3 7 8
f 3 8 4
f 7 11 12
f 7 12 8
f 11 15 16
f 11 16 12
f 15 19 20
f 15 20 16
f 19 23 24
f 19 24 20
f 23 27 28
f 23 28 24
f 27 31 32
f 27 32 28
f 31 35 36
f 31 36 32
f 35 39 40
f 35 40 36
f 39 43 44
f 39 44 40
f 43 47 48
f 43 48 44
f 47 51 52
f 47 52 48
f 51 55 56
f 51 56 52
f 55 59 60
f 55 60 56
f 59 63 64
f 59 64 60
f 63 67 68
f 63 68 64
f 67 71 72
f 67 72 68
f 71 75 76
f 71 76 72
f 75 79 80
f 75 80 76
f 79 83 84
f 79 84 80
f 83 87 88
f 83 88 84
f 87 91 92
f 87 92 88
f 91 95 96
f 91 96 92
f 95 99 100
f 95 100 96
f 99 103 104
f 99 104 100
f 103 107 108
f 103 108 104
f 107 111 112
f 107 112 108
f 111 115 116
f 111 116 112
f 115 119 120
f 115 120 116
f 119 123 124
f 119 124 120
f 123 127 128
f 123 128 124
f 127 131 132
f 127 132 128
f 131 135 136
f 131 136 132
f 135 139 140
f 135 140 136
f 139 143 144
f 139 144 140
f 143 147 148
f 143 148 144
f 147 151 152
f 147 152 148
f 151 155 156
f 151 156 152
f 155 159 160
f 155 160 156
f 159 163 164
f 159 164 160
f 163 167 168
f 163 168 164
f 167 171 172
f 167 172 168
f 171 175 176
f 171 176 172
f 175 179 180
f 175 180 176
f 179 183 184
f 179 184 180
f 183 187 188
f 183 188 184
f 187 191 192
f 187 192 188
f 187 183 179
f 187 179 175
f 187 175 171
f 187 171 167
f 187 167 163
f 187 163 159
f 187 159 155
f 187 155 151
f 187 151 147
f 187 147 143
f 187 143 139
f 187 139 135
f 187 135 131
f 187 131 127
f 187 127 123
f 187 123 119
f 187 119 115
f 187 115 111
f 187 111 107
f 187 107 103
f 187 103 99
f 187 99 95
f 187 95 91
f 187 91 87
f 187 87 83
f 187 83 79
f 187 79 75
f 187 75 71
f 187 71 67
f 187 67 63
f 187 63 59
f 187 59 55
f 187 55 51
f 187 51 47
f 187 47 43
f 187 43 39
f 187 39 35
f 187 35 31
f 187 31 27
f 187 27 23
f 187 23 19
f 187 19 15
f 187 15 11
f 187 11 7
f 187 7 3
f 187 3 1
f 187 1 5
f 187 5 9
f 187 9 13
f 187 13 17
f 187 17 21
f 187 21 25
f 187 25 29
f 187 29 33
f 187 33 37
f 187 37 41
f 187 41 45
f 187 45 49
f 187 49 53
f 187 53 57
f 187 57 61
f 187 61 65
f 187 65 69
f 187 69 73
f 187 73 77
f 187 77 81
f 187 81 85
f 187 85 89
f 187 89 93
f 187 93 97
f 187 97 101
f 187 101 105
f 187 105 109
f 187 109 113
f 187 113 117
f 187 117 121
f 187 121 125
f 187 125 129
f 187 129 133
f 187 133 137
f 187 137 141
f 187 141 145
f 187 145 149
f 187 149 153
f 187 153 157
f 187 157 161
f 187 161 165
f 187 165 169
f 187 169 173
f 187 173 177
f 187 177 181
f 187 181 185
f 187 185 189
f 187 189 191
f 192 190 186
f 192 186 182
f 192 182 178
f 192 178 174
f 192 174 170
f 192 170 166
f 192 166 162
f 192 162 158
f 192 158 154
f 192 154 150
f 192 150 146
f 192 146 142
f 192 142 138
f 192 138 134
f 192 134 130
f 192 130 126
f 192 126 122
f 192 122 118
f 192 118 114
f 192 114 110
f 192 110 106
f 192 106 102
f 192 102 98
f 192 98 94
f 192 94 90
f 192 90 86
f 192 86 82
f 192 82 78
f 192 78 74
f 192 74 70
f 192 70 66
f 192 66 62
f 192 62 58
f 192 58 54
f 192 54 50
f 192 50 46
f 192 46 42
f 192 42 38
f 192 38 34
f 192 34 30
f 192 30 26
f 192 26 22
f 192 22 18
f 192 18 14
f 192 14 10
f 192 10 6
f 192 6 2
f 192 2 4
f 192 4 8
f 192 8 12
f 192 12 16
f 192 16 20
f 192 20 24
f 192 24 28
f 192 28 32
f 192 32 36
f 192 36 40
f 192 40 44
f 192 44 48
f 192 48 52
f 192 52 56
f 192 56 60
f 192 60 64
f 192 64 68
f 192 68 72
f 192 72 76
f 192 76 80
f 192 80 84
f 192 84 88
f 192 88 92
f 192 92 96
f 192 96 100
f 192 100 104
f 192 104 108
f 192 108 112
f 192 112 116
f 192 116 120
f 192 120 124
f 192 124 128
f 192 128 132
f 192 132 136
f 192 136 140
f 192 140 144
f 192 144 148
f 192 148 152
f 192 152 156
f 192 156 160
f 192 160 164
f 192 164 168
f 192 168 172
f 192 172 176
f 192 176 180
f 192 180 184
f 192 184 188
