v -0.194326107387 -0.170469992859 0.00100002482643
v -0.196565497429 -0.17322392186 0.00100002482643
v -0.19597818508 -0.17341062682 0.00100002482643
v -0.190399626817 -0.1634875729 0.000998556874629
v -0.190399026268 -0.159653716746 0.000998556874629
v -0.190399026268 -0.154602012813 0.000998556874629
v -0.195836940865 -0.156679131194 0.000998556874629
v -0.196565497429 -0.17341062682 0.00100002482643
v -0.196565497429 -0.159653716746 0.000998556874629
v -0.19597818508 -0.17341062682 -0.0139867635477
v -0.190399626817 -0.1634875729 -0.0139867635477
v -0.190399026268 -0.159653716746 -0.00159149831657
v -0.190399026268 -0.151737763763 0.000997088408656
v -0.195836940865 -0.154676275235 0.000997088408656
v -0.196565497429 -0.17341062682 -0.013997041267
v -0.196565497429 -0.159653716746 -0.0139985097329
v -0.19600353977 -0.17341062682 -0.013997041267
v -0.190406265764 -0.163491817877 -0.013997041267
v -0.190399026268 -0.15885384292 -0.0139985097329
v -0.190399026268 -0.151737763763 -0.0139999776847
v -0.195836940865 -0.154676275235 -0.0139985097329
v -0.196565497429 -0.161822061006 -0.0139985097329
v -0.190400836142 -0.159653716746 -0.0139985097329
f 1 2 8
f 1 8 3
f 1 3 4
f 1 4 5
f 1 5 6
f 1 6 7
f 1 7 2
f 2 7 9
f 2 9 16
f 2 16 22
f 2 22 15
f 2 15 8
f 3 8 15
f 3 15 17
f 3 17 10
f 3 10 11
f 3 11 4
f 4 11 12
f 4 12 5
f 5 12 19
f 5 19 20
f 5 20 13
f 5 13 6
f 6 13 7
f 7 13 14
f 7 14 9
f 9 14 21
f 9 21 16
f 10 17 18
f 10 18 11
f 11 18 19
f 11 19 12
f 13 20 21
f 13 21 14
f 15 22 20
f 15 20 17
f 16 21 20
f 16 20 22
f 17 20 23
f 17 23 18
f 18 23 19
f 19 23 20
