v -0.140034755672 0.11620741188 0.00100000010575
v -0.140034755672 0.11620741188 -0.00498017506354
v -0.146268546936 0.11620741188 0.00100000010575
v -0.108970068678 0.0851428256633 0.000998829343295
v -0.148419862277 0.11620741188 -0.00498017506354
v -0.108970068678 0.0851428256633 -0.00498017506354
v -0.148419862277 0.11620741188 0.000985949927978
v -0.139065312944 0.106621941093 0.000999414981606
v -0.118089017621 0.0851428256633 0.000998829343295
v -0.139065312944 0.106621941093 -0.00498017506354
v -0.118089017621 0.0851428256633 -0.00498017506354
f 1 2 5
f 1 5 7
f 1 7 3
f 1 3 9
f 1 9 4
f 1 4 6
f 1 6 2
f 2 6 11
f 2 11 10
f 2 10 5
f 3 7 8
f 3 8 9
f 4 9 11
f 4 11 6
f 5 10 8
f 5 8 7
f 8 10 11
f 8 11 9
