v -0.0362654362716 0.148869482839 0.0659499975441
v -0.0419347887204 0.148869482839 0.0659499975441
v -0.0367347819769 0.147153150605 0.0659499975441
v -0.0362654362716 0.148869482839 0.0509499971485
v -0.0419392310264 0.148869482839 0.065948529413
v -0.0419381211035 0.148868474888 0.0659499975441
v -0.0417059485188 0.147153150605 0.0659499975441
v -0.0367347819769 0.147153150605 0.0509499971485
v -0.0419392310264 0.148869482839 0.0509499971485
v -0.0417059485188 0.147153150605 0.0509514652797
v -0.0419381211035 0.148868474888 0.0509499971485
f 1 2 6
f 1 6 7
f 1 7 3
f 1 3 8
f 1 8 4
f 1 4 9
f 1 9 5
f 1 5 2
f 2 5 6
f 3 7 10
f 3 10 8
f 4 8 11
f 4 11 9
f 5 7 6
f 5 9 10
f 5 10 7
f 8 10 11
f 9 11 10
