v -0.194196840768 0.170242217564 0.00100000781828
v -0.180630319004 0.157693034384 0.000997071400025
v -0.194196840768 0.170242217564 -0.0139955912254
v -0.194196840768 0.153792113535 0.000998539866237
v -0.189835792279 0.151434546562 0.000998539866237
v -0.180630319004 0.146747004972 0.000997071400025
v -0.180630319004 0.157693034384 -0.0139985281578
v -0.189835792279 0.163153400536 -0.0139985281578
v -0.194196840768 0.153792113535 -0.0139985281578
v -0.189835792279 0.151434546562 -0.0139985281578
v -0.182002113247 0.147204718075 0.000997071400025
v -0.180630319004 0.146747004972 -0.0139999961098
v -0.182002113247 0.147204718075 -0.0139999961098
f 1 2 7
f 1 7 3
f 1 3 9
f 1 9 4
f 1 4 5
f 1 5 6
f 1 6 2
f 2 6 12
f 2 12 7
f 3 7 8
f 3 8 9
f 4 9 10
f 4 10 5
f 5 10 13
f 5 13 11
f 5 11 6
f 6 11 13
f 6 13 12
f 7 12 8
f 8 12 13
f 8 13 9
f 9 13 10
