v -0.190036895155 -0.194605024997 0.00100002791145
v -0.190026381432 -0.194609154801 0.00100002791145
v -0.195679835573 -0.185090467872 0.000998559959641
v -0.195679835573 -0.196793697432 0.00100002791145
v -0.190026381432 -0.194609154801 -0.0139985056196
v -0.190026381432 -0.20618436868 0.00100002791145
v -0.195679835573 -0.185092532774 -0.0139999735714
v -0.195679835573 -0.197601032876 0.00100002791145
v -0.193072802529 -0.189484340183 -0.0139999735714
v -0.190026381432 -0.198536384 -0.0139999735714
v -0.19378114609 -0.204103062908 0.00100002791145
v -0.190026381432 -0.20618436868 -0.0139985056196
v -0.195679835573 -0.189215919411 -0.0139999735714
v -0.195679835573 -0.197601032876 -0.0139985056196
v -0.190026381432 -0.200037485293 -0.0139999735714
v -0.19378114609 -0.204103062908 -0.0139985056196
v -0.19378114609 -0.200737454073 -0.0139999735714
f 1 2 3
f 1 3 4
f 1 4 8
f 1 8 11
f 1 11 6
f 1 6 2
f 2 5 3
f 2 6 12
f 2 12 15
f 2 15 10
f 2 10 5
f 3 5 7
f 3 7 13
f 3 13 14
f 3 14 8
f 3 8 4
f 5 9 7
f 5 10 9
f 6 11 16
f 6 16 12
f 7 9 10
f 7 10 15
f 7 15 17
f 7 17 13
f 8 14 16
f 8 16 11
f 12 16 17
f 12 17 15
f 13 17 14
f 14 17 16
