v -0.165090919054 0.146262114961 -0.013999996624
v -0.162309018819 0.146262114961 -0.013999996624
v -0.161881954293 0.141439087824 -0.013999996624
v -0.179236880309 0.146262114961 -0.0139985281578
v -0.162309018819 0.146262114961 0.000998536781224
v -0.161854732137 0.14141202609 -0.013999996624
v -0.17303504978 0.14141202609 -0.0139985281578
v -0.179236880309 0.146262114961 0.00100000524744
v -0.161854732137 0.14141202609 0.000998536781224
v -0.17456125921 0.146262114961 0.00100000524744
v -0.17303504978 0.14141202609 0.000998536781224
v -0.176824202663 0.144905137007 0.00100000524744
f 1 2 6
f 1 6 3
f 1 3 4
f 1 4 8
f 1 8 10
f 1 10 5
f 1 5 2
f 2 5 9
f 2 9 6
f 3 6 4
f 4 7 11
f 4 11 8
f 4 6 7
f 5 10 9
f 6 9 11
f 6 11 7
f 8 11 12
f 8 12 10
f 9 10 12
f 9 12 11
