v -0.035907646308 0.150175013876 0.0514932631911
v -0.035907646308 0.150175013876 0.0509499971485
v -0.0359083391927 0.150175013876 0.0659499975441
v -0.0362649917796 0.148869651158 0.0659499975441
v -0.0362649917796 0.148869651158 0.0509499971485
v -0.0429818237638 0.150175013876 0.0509499971485
v -0.0429818237638 0.150175013876 0.0659499975441
v -0.0419347207393 0.148869651158 0.0659499975441
v -0.0419388754327 0.148869651158 0.0509499971485
v -0.0419388754327 0.148869651158 0.065948529413
f 1 2 6
f 1 6 7
f 1 7 3
f 1 3 4
f 1 4 5
f 1 5 2
f 2 5 9
f 2 9 6
f 3 7 8
f 3 8 4
f 4 8 10
f 4 10 9
f 4 9 5
f 6 9 10
f 6 10 7
f 7 10 8
