v -0.0284149387898 -0.0571724216708 0.00100002071308
v -0.0363313668649 -0.0593258426961 0.00100002071308
v -0.0284149387898 -0.0593258426961 0.00100002071308
v -0.0284149387898 -0.0508298004068 0.000998552761279
v -0.0315770807645 -0.0478797715548 0.000998552761279
v -0.0397371076004 -0.0478797715548 0.000998552761279
v -0.0403222151936 -0.0593258426961 0.000998552761279
v -0.0284149387898 -0.0593258426961 -0.0139985138463
v -0.0284149387898 -0.0508298004068 -0.0139985138463
v -0.0315770807645 -0.0478797715548 -0.0139985138463
v -0.0397371076004 -0.0478797715548 -0.0105862187445
v -0.040312890229 -0.0593258426961 -0.0139985138463
v -0.0397347773876 -0.0478797715548 -0.0139999817981
f 1 2 3
f 1 3 8
f 1 8 9
f 1 9 4
f 1 4 5
f 1 5 6
f 1 6 2
f 2 6 7
f 2 7 12
f 2 12 8
f 2 8 3
f 4 9 10
f 4 10 5
f 5 10 13
f 5 13 11
f 5 11 6
f 6 11 7
f 7 11 12
f 8 12 13
f 8 13 9
f 9 13 10
f 11 13 12
