v -0.0452796359386 0.135501190253 0.0659499988515
v -0.0548249124339 0.135501190253 0.0659499988515
v -0.0452796359386 0.134178035433 0.0659499988515
v -0.0452796359386 0.135501190253 0.0509499984559
v -0.0548249124339 0.13420070126 0.0659485307203
v -0.0548155692761 0.134189821663 0.0659499988515
v -0.0548249124339 0.135501190253 0.0509499984559
v -0.0548137004485 0.134178035433 0.0659499988515
v -0.0452796359386 0.134178035433 0.0509499984559
v -0.0548249124339 0.13420070126 0.0509499984559
v -0.0548137004485 0.134178035433 0.0509499984559
f 1 2 6
f 1 6 8
f 1 8 3
f 1 3 9
f 1 9 4
f 1 4 7
f 1 7 2
f 2 5 6
f 2 7 10
f 2 10 5
f 3 8 11
f 3 11 9
f 4 9 11
f 4 11 10
f 4 10 7
f 5 8 6
f 5 10 11
f 5 11 8
