v -0.05899284 0.084411316 0.04635001
v -0.05899284 0.084411316 0.056350011
v -0.058210339 0.077285558 0.04635001
v -0.058210336 0.077285558 0.056350008
v -0.055731747 0.090795189 0.04635001
v -0.055731747 0.090795189 0.056350011
v -0.049499579 0.09433762 0.04635001
v -0.049499575 0.094337612 0.056350011
v -0.043086085 0.000718166 0.011949995
v -0.043048549 0.001936325 0.011949995
v -0.042976573 0.003152935 0.011949995
v -0.04287022 0.004367023 0.011949995
v -0.042346027 0.093873531 0.04635001
v -0.042346027 0.093873531 0.056350011
v -0.042121485 -0.009094344 0.011949993
v -0.042121485 -0.009094344 0.012749999
v -0.041847453 -0.010281874 0.011949993
v -0.041847453 -0.010281874 0.012749999
v -0.041539948 -0.01146118 0.011949993
v -0.041539948 -0.01146118 0.012749999
v -0.04119923 -0.012631319 0.011949993
v -0.04119923 -0.012631319 0.012749999
v -0.040755384 0.013997353 0.011949996
v -0.037249599 -0.021665491 0.011949992
v -0.037249599 -0.021665491 0.012749998
v -0.036623806 0.089555569 0.04635001
v -0.036623806 0.089555569 0.056350008
v -0.036622018 -0.022710221 0.011949992
v -0.036622018 -0.022710221 0.012749998
v -0.035965141 -0.023736784 0.011949992
v -0.035965141 -0.023736784 0.012749997
v -0.035279498 -0.02474436 0.011949992
v -0.035279498 -0.02474436 0.012749997
v -0.029999318 0.000201945 -0.000600004
v -0.028731467 -0.032115869 0.012749996
v -0.028731467 -0.032115865 0.01194999
v -0.02781176 -0.032915533 0.01194999
v -0.02781176 -0.032915533 0.012749996
v -0.026869804 -0.033688866 0.01194999
v -0.026869804 -0.033688866 0.012749996
v -0.026593257 -0.007375448 -0.000600005
v -0.026081134 -0.014824769 -0.000600006
v -0.025906364 -0.03443525 0.01194999
v -0.025906364 -0.03443525 0.012749996
v -0.025879201 0.015174552 -0.000600003
v -0.024078602 0.013162388 -0.000600003
v -0.02350883 -0.006571191 -0.000600005
v -0.023263242 0.011727924 -0.000600003
v -0.021643082 -0.009155676 0.05635
v -0.017400892 -0.03942252 0.011949989
v -0.017400892 -0.03942252 0.012749995
v -0.01627909 -0.039898835 0.011949989
v -0.016279088 -0.039898835 0.012749995
v -0.01517453 -0.025879195 -0.000600007
v -0.01514427 -0.04034324 0.011949989
v -0.01514427 -0.04034324 0.012749995
v -0.014824773 0.026081154 -0.000600002
v -0.013997336 -0.040755376 0.011949989
v -0.013997336 -0.040755376 0.012749995
v -0.013985856 -0.023851991 -0.000600007
v -0.013966622 -0.020994172 -0.000600007
v -0.013499687 9.0876e-05 0.064949997
v -0.013425902 -0.019287163 0.056349996
v -0.011736503 -0.006671145 0.064949997
v -0.011645631 0.00682855 0.064949997
v -0.009128395 -0.005188667 0.064949997
v -0.007983441 0.025993412 -0.000600002
v -0.006828528 -0.011645637 0.064949997
v -0.006671136 0.01173652 0.064949997
v -0.006548978 0.026808776 -0.000600002
v -0.00436701 -0.04287022 0.011949988
v -0.00436701 -0.04287022 0.012749994
v -0.003152913 -0.042976569 0.011949988
v -0.003152913 -0.042976569 0.012749994
v -0.0019363 -0.043048542 0.011949988
v -0.0019363 -0.043048542 0.012749994
v -0.001071691 -0.023475543 0.056349996
v -0.000718145 -0.043086085 0.011949988
v -0.000718145 -0.043086085 0.012749994
v -0.000201926 -0.029999308 -0.000600008
v -0.000148079 -0.02199949 -0.000600007
v -9.0857e-05 -0.013499687 0.064949997
v -7.067e-05 -0.010499756 0.064949997
v 9.0873e-05 0.013499701 0.064949997
v 0.000201937 0.029999336 -0.000600002
v 0.005311104 0.00905773 0.064949997
v 0.006671167 -0.011736506 0.064949997
v 0.00682856 0.01164565 0.064949997
v 0.008210076 -0.025169892 -0.000600008
v 0.009094371 -0.042121481 0.012749994
v 0.009094371 -0.042121477 0.011949988
v 0.00912841 0.005188681 0.064949997
v 0.010281902 -0.041847449 0.011949988
v 0.010281902 -0.041847449 0.012749994
v 0.01049978 -7.0669e-05 0.064949997
v 0.011461208 -0.041539952 0.011949988
v 0.011461208 -0.041539952 0.012749994
v 0.011612757 -0.020430218 0.056349996
v 0.011645654 -0.006828536 0.064949997
v 0.01173652 0.006671159 0.064949997
v 0.01233591 0.023863124 -0.000600003
v 0.012631343 -0.041199222 0.011949988
v 0.012631343 -0.041199222 0.012749994
v 0.013499703 -9.0862e-05 0.064949997
v 0.013997348 0.040755402 0.011949996
v 0.014824792 -0.026081126 -0.000600008
v 0.015144289 0.040343266 0.011949996
v 0.015174549 0.025879223 -0.000600003
v 0.016279116 0.039898861 0.011949996
v 0.017400913 0.039422542 0.011949996
v 0.018939612 0.013911935 0.05635
v 0.020718867 -0.011089569 0.056349996
v 0.021665508 -0.037249599 0.011949988
v 0.021665508 -0.037249599 0.012749994
v 0.022710247 -0.03662201 0.011949988
v 0.022710247 -0.03662201 0.012749994
v 0.023244012 -0.014585717 -0.000600008
v 0.023440728 0.001668199 0.056349996
v 0.023735449 0.007394712 -0.000600006
v 0.023736797 -0.035965137 0.011949988
v 0.023736797 -0.035965137 0.012749994
v 0.02474438 -0.03527949 0.011949988
v 0.02474438 -0.03527949 0.012749994
v 0.025169913 0.008210075 -0.000600006
v 0.025879219 -0.015174525 -0.000600008
v 0.025906377 0.034435272 0.011949995
v 0.026081152 0.014824796 -0.000600005
v 0.026808769 0.006549006 -0.000600006
v 0.026869832 0.033688892 0.011949995
v 0.027811771 0.032915555 0.011949995
v 0.02873148 0.032115892 0.011949995
v 0.02873148 0.032115892 0.012750001
v 0.029999336 -0.000201918 -0.000600006
v 0.032115884 -0.028731462 0.011949988
v 0.032115884 -0.028731462 0.012749994
v 0.032915551 -0.027811754 0.011949988
v 0.032915551 -0.027811754 0.012749994
v 0.033688884 -0.026869804 0.011949988
v 0.033688884 -0.026869804 0.012749994
v 0.034435268 -0.025906358 0.011949988
v 0.034435268 -0.025906358 0.012749994
v 0.035279516 0.024744384 0.011949994
v 0.035279516 0.024744384 0.01275
v 0.035965156 0.023736808 0.011949994
v 0.035965156 0.023736808 0.012749999
v 0.036622029 0.022710245 0.011949993
v 0.036622029 0.022710245 0.012749999
v 0.037249625 0.021665515 0.011949993
v 0.037249625 0.021665515 0.012749999
v 0.039422542 -0.017400891 0.011949989
v 0.039422542 -0.017400891 0.012749995
v 0.039898857 -0.016279088 0.011949989
v 0.039898857 -0.016279088 0.012749995
v 0.040343255 -0.015144266 0.011949989
v 0.040343255 -0.015144266 0.012749995
v 0.040755395 -0.013997328 0.011949989
v 0.040755395 -0.013997328 0.012749995
v 0.041199241 0.012631343 0.011949992
v 0.041199241 0.012631343 0.012749998
v 0.041539971 0.011461204 0.011949992
v 0.041539971 0.011461204 0.012749998
v 0.041847464 0.010281898 0.011949992
v 0.041847464 0.010281898 0.012749998
v 0.042121496 0.009094368 0.011949992
v 0.042121496 0.009094368 0.012749998
v 0.042870231 -0.004366999 0.01194999
v 0.042870231 -0.004366999 0.012749996
v 0.042976584 -0.00315291 0.01194999
v 0.042976588 -0.003152911 0.012749996
v 0.043048561 -0.001936301 0.012749996
v 0.043048561 -0.0019363 0.011949991
v 0.043086097 -0.000718142 0.011949991
v 0.043086097 -0.000718142 0.012749997
f 100 111 27
f 118 111 100
f 22 20 21
f 22 49 4
f 22 4 20
f 85 57 7
f 85 7 13
f 45 23 1
f 88 100 27
f 5 45 1
f 5 7 57
f 5 57 45
f 8 13 7
f 8 5 6
f 8 7 5
f 8 6 69
f 2 4 62
f 2 1 3
f 2 3 4
f 64 4 49
f 64 62 4
f 18 20 4
f 18 4 16
f 96 80 106
f 86 100 88
f 86 69 83
f 65 83 69
f 65 69 6
f 65 6 2
f 65 2 62
f 14 88 27
f 14 13 8
f 84 8 69
f 84 69 86
f 84 86 88
f 84 88 14
f 84 14 8
f 123 135 98
f 114 98 103
f 114 116 98
f 150 141 140
f 66 62 64
f 66 65 62
f 66 83 65
f 66 68 83
f 66 64 68
f 131 127 108
f 15 18 16
f 15 3 1
f 15 4 3
f 15 16 4
f 24 21 42
f 32 42 36
f 32 30 42
f 76 79 77
f 76 78 79
f 91 78 80
f 89 106 80
f 101 108 127
f 101 85 108
f 104 118 100
f 95 104 100
f 82 68 77
f 82 83 68
f 82 87 83
f 82 77 98
f 82 98 87
f 121 98 116
f 121 123 98
f 122 135 123
f 122 123 121
f 156 133 166
f 171 133 172
f 171 172 173
f 167 157 156
f 167 156 166
f 17 18 15
f 28 42 30
f 28 24 42
f 25 22 21
f 25 21 24
f 25 49 22
f 35 32 36
f 74 77 72
f 74 76 77
f 59 72 77
f 93 80 96
f 93 91 80
f 90 79 78
f 90 78 91
f 90 77 79
f 117 89 81
f 117 106 89
f 34 42 17
f 34 17 15
f 34 23 45
f 54 34 47
f 54 36 42
f 54 50 43
f 54 89 80
f 54 52 50
f 54 80 58
f 92 86 83
f 92 83 95
f 92 100 86
f 92 95 100
f 99 83 87
f 99 95 83
f 99 104 95
f 99 87 98
f 134 122 106
f 134 135 122
f 120 122 121
f 120 106 122
f 102 96 106
f 102 106 113
f 115 114 113
f 115 116 114
f 115 121 116
f 115 120 121
f 115 113 106
f 115 106 120
f 151 141 150
f 168 166 133
f 168 133 171
f 169 118 167
f 169 168 171
f 142 127 131
f 160 133 127
f 126 108 110
f 126 110 13
f 126 13 26
f 105 108 85
f 105 85 13
f 19 42 21
f 19 17 42
f 19 21 20
f 31 30 32
f 31 28 30
f 71 58 80
f 94 98 77
f 94 77 90
f 94 91 93
f 94 90 91
f 128 127 133
f 9 34 15
f 9 10 34
f 9 15 1
f 9 1 10
f 12 23 34
f 12 1 23
f 41 42 34
f 41 54 42
f 41 34 54
f 61 54 47
f 61 81 89
f 37 36 54
f 37 35 36
f 37 38 35
f 55 52 54
f 55 54 58
f 55 58 59
f 46 34 45
f 46 45 57
f 46 57 67
f 112 151 153
f 112 141 151
f 112 118 104
f 112 104 99
f 112 99 98
f 112 167 118
f 112 157 167
f 112 139 141
f 112 137 139
f 112 135 137
f 112 98 135
f 155 153 152
f 155 152 154
f 155 157 112
f 155 112 153
f 155 156 157
f 155 154 156
f 170 171 173
f 170 169 171
f 170 173 118
f 170 118 169
f 144 127 142
f 132 26 27
f 132 131 26
f 158 127 148
f 158 160 127
f 164 172 133
f 164 173 172
f 129 108 126
f 129 126 26
f 109 110 108
f 109 13 110
f 29 49 25
f 29 31 49
f 29 28 31
f 33 32 35
f 33 31 32
f 33 49 31
f 63 35 38
f 63 49 33
f 63 33 35
f 63 77 68
f 63 64 49
f 63 68 64
f 63 59 77
f 73 72 71
f 73 74 72
f 73 76 74
f 73 71 80
f 97 103 98
f 97 98 94
f 125 128 133
f 125 117 128
f 125 106 117
f 125 152 150
f 125 150 140
f 125 154 152
f 125 133 156
f 125 156 154
f 125 136 134
f 125 134 106
f 11 34 10
f 11 12 34
f 11 10 1
f 11 1 12
f 60 89 54
f 60 61 89
f 60 54 61
f 39 54 43
f 39 37 54
f 124 101 127
f 124 127 128
f 124 128 117
f 48 47 34
f 48 34 46
f 48 46 67
f 48 61 47
f 48 81 61
f 138 140 141
f 138 141 139
f 138 125 140
f 138 136 125
f 146 148 127
f 146 127 144
f 143 144 142
f 143 27 111
f 143 132 27
f 149 158 148
f 162 133 160
f 162 164 133
f 165 118 173
f 165 173 164
f 165 164 162
f 130 131 108
f 130 108 129
f 130 26 131
f 130 129 26
f 107 108 105
f 107 109 108
f 107 105 13
f 107 13 109
f 51 63 44
f 75 78 76
f 75 76 73
f 75 80 78
f 75 73 80
f 40 63 38
f 40 44 63
f 70 101 124
f 70 85 101
f 70 57 85
f 70 67 57
f 119 81 48
f 159 149 111
f 159 158 149
f 159 111 118
f 147 146 144
f 147 111 149
f 56 59 63
f 56 55 59
f 163 118 165
f 163 165 162
f 161 160 158
f 161 158 159
f 161 162 160
f 161 163 162
f 161 159 118
f 161 118 163
f 145 144 143
f 145 147 144
f 145 143 111
f 145 111 147
f 53 63 51
f 53 56 63
f 53 51 50
f 53 50 52
f 53 52 55
f 53 55 56
f 2 6 5
f 2 5 1
f 26 13 14
f 26 14 27
f 102 113 114
f 102 114 103
f 151 152 153
f 151 150 152
f 169 166 168
f 169 167 166
f 19 18 17
f 19 20 18
f 71 59 58
f 71 72 59
f 136 135 134
f 136 137 135
f 29 25 24
f 29 24 28
f 97 102 103
f 97 96 102
f 97 93 96
f 97 94 93
f 138 137 136
f 138 139 137
f 143 131 132
f 143 142 131
f 51 44 43
f 51 43 50
f 40 37 39
f 40 38 37
f 40 43 44
f 40 39 43
f 119 67 70
f 119 48 67
f 119 70 124
f 119 124 117
f 119 117 81
f 147 149 148
f 147 148 146
