v -0.138111821791 0.132842698959 -0.013999999709
v -0.138111821791 0.132842698959 0.000998535752886
v -0.148419269954 0.146262114961 -0.0139970638049
v -0.138100798011 0.134936731777 -0.013999999709
v -0.129650897905 0.132842698959 -0.013999999709
v -0.143394162123 0.146262114961 0.0010000042191
v -0.148419269954 0.146262114961 0.0010000042191
v -0.13019107135 0.132842698959 0.000997067286674
v -0.129650897905 0.134936731777 0.000998535752886
v -0.13724092672 0.146262114961 -0.0139970638049
v -0.138056702891 0.134936731777 -0.013999999709
v -0.129650897905 0.141226715526 -0.0139970638049
v -0.129650897905 0.132842698959 -0.00500234679525
v -0.129650897905 0.141226715526 0.000998535752886
v -0.13724092672 0.146262114961 0.000998535752886
v -0.129650897905 0.133369491674 0.000997067286674
f 1 2 7
f 1 7 3
f 1 3 4
f 1 4 11
f 1 11 5
f 1 5 13
f 1 13 8
f 1 8 2
f 2 6 7
f 2 8 9
f 2 9 6
f 3 7 6
f 3 6 15
f 3 15 10
f 3 10 11
f 3 11 4
f 5 10 12
f 5 12 14
f 5 14 9
f 5 9 16
f 5 16 13
f 5 11 10
f 6 9 14
f 6 14 15
f 8 13 16
f 8 16 9
f 10 15 14
f 10 14 12
