v -0.11766710301 0.146259178028 0.00099941755245
v -0.11766710301 0.146259178028 -0.00498075941643
v -0.123830494276 0.146259178028 0.00100000319076
v -0.11766710301 0.144120441314 0.00099941755245
v -0.11766710301 0.144120441314 -0.00498075941643
v -0.123830494276 0.146259178028 -0.00498075941643
v -0.124143939829 0.145732586867 0.00100000319076
v -0.129650309696 0.141225646055 0.00099941755245
v -0.148453937274 0.122474200444 0.000998831914139
v -0.144406284978 0.122474200444 0.00099941755245
v -0.140036154211 0.116208024769 0.000998831914139
v -0.129650309696 0.133367924487 -0.00498075941643
v -0.140036154211 0.116208024769 -0.0049795883969
v -0.129650309696 0.141225646055 -0.00498075941643
v -0.14393009059 0.122474200444 0.00099941755245
v -0.13811329437 0.132841333327 0.000998831914139
v -0.148453937274 0.122474200444 -0.0049795883969
v -0.148453937274 0.116246270704 0.000998831914139
v -0.146268867778 0.116208024769 0.000998831914139
v -0.140452071557 0.122474200444 -0.00498017377812
v -0.143601581947 0.122474200444 -0.00498017377812
v -0.148420783667 0.116208024769 -0.0049795883969
v -0.143601581947 0.127087043584 -0.00498017377812
v -0.13811329437 0.132841333327 -0.00498017377812
v -0.148453937274 0.116246270704 -0.0049795883969
v -0.148420783667 0.116208024769 0.000985953012991
f 1 2 6
f 1 6 3
f 1 3 4
f 1 4 5
f 1 5 2
f 2 5 12
f 2 12 14
f 2 14 6
f 3 7 4
f 3 6 14
f 3 14 8
f 3 8 9
f 3 9 10
f 3 10 7
f 4 7 11
f 4 11 13
f 4 13 5
f 5 13 12
f 7 10 15
f 7 15 11
f 8 14 24
f 8 24 16
f 8 16 9
f 9 17 25
f 9 25 18
f 9 18 10
f 9 16 24
f 9 24 17
f 10 18 19
f 10 19 11
f 10 11 15
f 11 19 26
f 11 26 22
f 11 22 13
f 12 13 20
f 12 20 21
f 12 21 23
f 12 23 14
f 13 22 21
f 13 21 20
f 14 23 24
f 17 24 23
f 17 23 21
f 17 21 25
f 18 25 22
f 18 22 26
f 18 26 19
f 21 22 25
