v -0.036283941222 -0.148800877515 -0.00850001759224
v -0.0419279512153 -0.148800877515 -0.00850001759224
v -0.0356854091145 -0.150989532295 -0.00850001759224
v -0.036283941222 -0.148800877515 -0.0234985501986
v -0.0419279512153 -0.148800877515 -0.0234985501986
v -0.0419495914425 -0.148883883795 -0.00850001759224
v -0.0356495464483 -0.151158932799 -0.00850001759224
v -0.0356854091145 -0.150989532295 -0.0234985501986
v -0.0365708399375 -0.163255826386 -0.0235000183298
v -0.0419495914425 -0.158570206667 -0.0235000183298
v -0.0419495914425 -0.148883883795 -0.0234985501986
v -0.0419495914425 -0.152300693049 -0.00850001759224
v -0.0356495464483 -0.151158932799 -0.0234985501986
v -0.0356334689085 -0.151330027603 -0.00850001759224
v -0.0356334689085 -0.151330027603 -0.0234985501986
v -0.03563717911 -0.151504510351 -0.0234985501986
v -0.0365708399375 -0.163255826386 -0.0085014857234
v -0.0370265410542 -0.1646245822 -0.0235000183298
v -0.0419495914425 -0.166106836451 -0.0235000183298
v -0.0419495914425 -0.166106836451 -0.0085014857234
v -0.0394534403159 -0.166017054282 -0.0085014857234
v -0.03563717911 -0.151504510351 -0.00850001759224
v -0.0370265410542 -0.1646245822 -0.0085014857234
v -0.0380677885732 -0.165620657559 -0.0235000183298
v -0.0394534403159 -0.166017054282 -0.0235000183298
v -0.0380677885732 -0.165620657559 -0.0085014857234
f 1 2 6
f 1 6 12
f 1 12 22
f 1 22 14
f 1 14 7
f 1 7 3
f 1 3 8
f 1 8 4
f 1 4 5
f 1 5 2
f 2 5 11
f 2 11 6
f 3 7 13
f 3 13 8
f 4 8 9
f 4 9 10
f 4 10 5
f 5 10 11
f 6 11 10
f 6 10 19
f 6 19 20
f 6 20 12
f 7 14 15
f 7 15 13
f 8 13 9
f 9 13 15
f 9 15 16
f 9 16 22
f 9 22 17
f 9 17 23
f 9 23 18
f 9 18 24
f 9 24 25
f 9 25 19
f 9 19 10
f 12 20 21
f 12 21 22
f 14 22 16
f 14 16 15
f 17 22 23
f 18 23 26
f 18 26 24
f 19 25 21
f 19 21 20
f 21 25 24
f 21 24 26
f 21 26 22
f 22 26 23
