v -0.0268732315427 -0.00435909786826 -0.0140000171908
v -0.0165017138279 -0.00421165069785 -0.0140000171908
v -0.0164204957176 -0.00435909786826 -0.0140000171908
v -0.0306861225724 -0.00435909786826 -0.0139985487245
v -0.0394422390169 0.00460734859599 -0.0139985487245
v -0.0163956757593 0.00460734859599 -0.0139985487245
v -0.0164204957176 -0.00435909786826 0.00099851621447
v -0.0306861225724 -0.00435909786826 0.00099851621447
v -0.0394422390169 0.00460734859599 0.000999984680683
v -0.0163956757593 0.00460734859599 0.00099851621447
v -0.0211358435584 0.00460734859599 0.000999984680683
f 1 2 3
f 1 3 7
f 1 7 8
f 1 8 4
f 1 4 5
f 1 5 2
f 2 6 3
f 2 5 6
f 3 6 10
f 3 10 7
f 4 8 9
f 4 9 5
f 5 9 11
f 5 11 10
f 5 10 6
f 7 10 11
f 7 11 9
f 7 9 8
