v -0.0574252331599 0.14178592464 0.0659499981978
v -0.0685783959583 0.14178592464 0.0659499981978
v -0.0574252331599 0.136113495064 0.0659499981978
v -0.0574252331599 0.14178592464 0.0509499978022
v -0.0690911711527 0.141463541737 0.0659499981978
v -0.0685795372571 0.14178592464 0.0510072607995
v -0.0590994638254 0.135863010714 0.0659499981978
v -0.0574252331599 0.136113495064 0.0509499978022
v -0.0685783959583 0.14178592464 0.0509499978022
v -0.0690911711527 0.135863010714 0.0659499981978
v -0.0690911711527 0.141463541737 0.0509499978022
v -0.0590994638254 0.135863010714 0.0509499978022
v -0.0690911711527 0.135863010714 0.0509499978022
f 1 2 5
f 1 5 10
f 1 10 7
f 1 7 3
f 1 3 8
f 1 8 4
f 1 4 9
f 1 9 6
f 1 6 2
f 2 6 5
f 3 7 12
f 3 12 8
f 4 8 12
f 4 12 13
f 4 13 11
f 4 11 9
f 5 6 11
f 5 11 13
f 5 13 10
f 6 9 11
f 7 10 13
f 7 13 12
