v -0.0872891255245 0.0650560239264 0.00099852546951
v -0.0872891255245 0.0650560239264 -0.013997076145
v -0.0924966913108 0.0650560239264 0.000999993935722
v -0.0703924062126 0.0477471365877 0.00099852546951
v -0.0442431013628 0.0214637447306 0.000997057003298
v -0.0984739781366 0.0650560239264 -0.013997076145
v -0.0442431013628 0.0214637447306 -0.0140000130774
v -0.0703924062126 0.0477471365877 -0.0139985446112
v -0.0984739781366 0.0650560239264 0.000999993935722
v -0.0559057124643 0.0214637447306 0.000997057003298
v -0.0815666422666 0.0477471365877 -0.0139985446112
v -0.0559057124643 0.0214637447306 -0.0139985446112
v -0.0815719505457 0.0477471365877 -0.013997076145
v -0.0449385044379 0.0214637447306 -0.0140000130774
v -0.0454640384677 0.0222276268687 -0.0140000130774
v -0.0815719505457 0.0477471365877 0.00099852546951
f 1 2 6
f 1 6 9
f 1 9 3
f 1 3 4
f 1 4 5
f 1 5 7
f 1 7 2
f 2 7 8
f 2 8 11
f 2 11 6
f 3 9 10
f 3 10 5
f 3 5 4
f 5 10 12
f 5 12 14
f 5 14 7
f 6 11 12
f 6 12 13
f 6 13 16
f 6 16 9
f 7 14 15
f 7 15 8
f 8 15 11
f 9 16 10
f 10 16 13
f 10 13 12
f 11 15 14
f 11 14 12
