v -0.078685448 0.086938813 -0.011999968
v -0.078685448 0.086938813 -0.001999967
v -0.078144811 0.091566078 -0.011999968
v -0.078144811 0.091566078 -0.001999967
v -0.076840013 0.082661167 -0.011999967
v -0.076840013 0.082661167 -0.001999967
v -0.075362973 0.095303096 -0.011999968
v -0.075362973 0.095303096 -0.001999968
v -0.075075142 0.08405678 -0.011999967
v -0.07396736 0.093538225 -0.011999968
v -0.072261617 0.091381155 -0.001999967
v -0.071085326 0.097148523 -0.011999968
v -0.071085326 0.097148523 -0.001999968
v -0.070759125 0.094922297 -0.011999968
v -0.066458054 0.096607886 -0.011999968
v -0.066458054 0.096607886 -0.001999967
v -0.064485915 0.092430443 -0.011999968
v -0.062721044 0.093826048 -0.011999968
v -0.062721044 0.093826056 -0.001999967
v -0.038319852 0.045234442 -0.001999961
v -0.027246699 0.042516854 -0.001999961
v -0.012600606 0.008521594 -0.001999957
v -0.007059482 -0.00558241 -0.011999955
v -0.007059482 -0.005582409 -0.001999955
v -0.006002401 0.015651586 -0.001999957
v -0.005294612 -0.004186796 -0.011999955
v -0.003322467 -0.008364248 -0.011999955
v -0.003322467 -0.008364247 -0.001999954
v -0.003137546 -0.002481052 -0.001999955
v 0.001304799 -0.008904881 -0.001999954
v 0.0013048 -0.008904882 -0.011999954
v 0.003957745 0.000579945 -0.001999955
v 0.005294621 0.004186863 -0.011999956
v 0.005582448 -0.007059452 -0.001999954
v 0.005582449 -0.007059453 -0.011999954
v 0.00705949 0.005582478 -0.011999956
v 0.00705949 0.005582479 -0.001999955
v 0.008364285 -0.003322437 -0.011999955
v 0.008364285 -0.003322436 -0.001999954
v 0.008904919 0.001304829 -0.011999955
v 0.008904919 0.00130483 -0.001999955
f 4 3 2
f 8 4 2
f 17 18 40
f 36 37 40
f 36 40 18
f 36 18 37
f 19 37 18
f 41 40 37
f 41 39 40
f 11 8 2
f 11 2 20
f 11 19 8
f 7 13 12
f 7 8 13
f 7 12 3
f 16 13 8
f 16 8 19
f 28 24 23
f 28 2 24
f 1 2 3
f 1 5 2
f 1 3 5
f 9 5 3
f 9 23 5
f 6 24 2
f 6 2 5
f 33 17 40
f 25 37 19
f 15 18 17
f 15 17 12
f 27 28 23
f 34 39 41
f 34 28 30
f 22 20 2
f 22 2 28
f 22 28 29
f 26 23 9
f 26 9 3
f 38 33 40
f 38 40 39
f 38 39 34
f 38 34 35
f 14 33 26
f 14 12 17
f 14 17 33
f 21 11 20
f 21 20 25
f 21 19 11
f 21 25 19
f 32 41 37
f 32 34 41
f 32 29 28
f 32 28 34
f 32 37 25
f 32 22 29
f 32 25 20
f 32 20 22
f 31 27 23
f 31 23 26
f 31 38 35
f 31 30 28
f 31 28 27
f 10 26 3
f 10 14 26
f 10 3 12
f 10 12 14
f 7 4 8
f 7 3 4
f 6 5 23
f 6 23 24
f 15 16 19
f 15 19 18
f 15 12 13
f 15 13 16
f 31 35 34
f 31 34 30
f 31 33 38
f 31 26 33
