v -0.0726366277498 0.0987143225251 -0.0140000048507
v -0.0728528573428 0.10662278433 -0.0139985363845
v -0.0727751494632 0.105440161031 -0.0139985363845
v -0.0726095989221 0.10662278433 -0.0109988296006
v -0.0726095989221 0.0986861913194 -0.0109988296006
v -0.0867354808557 0.0959791838896 -0.00498179700916
v -0.0877710189597 0.0959906447131 -0.00498179700916
v -0.080848288751 0.101355686019 -0.0139985363845
v -0.080848288751 0.10662278433 -0.0139985363845
v -0.0726095989221 0.10662278433 0.000999997020735
v -0.0726095989221 0.0986861913194 -0.0109812105769
v -0.0867354808557 0.0959791838896 0.000998528554523
v -0.0877710189597 0.0959906447131 0.000998528554523
v -0.0886612776291 0.0965199599406 0.000998528554523
v -0.0886629661596 0.096522044381 -0.00498179700916
v -0.0893606439177 0.0972357847737 -0.00498179700916
v -0.0898674334082 0.0981381202409 -0.00498179700916
v -0.0898556075248 0.0991727842578 -0.00498179700916
v -0.0893268589114 0.100063657873 -0.00498179700916
v -0.0830274792414 0.106621741596 -0.00498179700916
v -0.080848288751 0.10662278433 -0.00498179700916
v -0.0726095989221 0.100430428905 0.000999997020735
v -0.0769189898955 0.10662278433 0.000999997020735
v -0.0726095989221 0.0986882747316 0.000998528554523
v -0.0898674334082 0.0981381202409 0.000999997020735
v -0.0893606439177 0.0972357847737 0.000998528554523
v -0.0898556075248 0.0991727842578 0.000999997020735
v -0.0893268589114 0.100063657873 0.000999997020735
v -0.0830274792414 0.106621741596 0.000999997020735
f 1 2 3
f 1 3 4
f 1 4 5
f 1 5 6
f 1 6 7
f 1 7 8
f 1 8 9
f 1 9 2
f 2 4 3
f 2 9 21
f 2 21 23
f 2 23 10
f 2 10 4
f 4 10 22
f 4 22 24
f 4 24 11
f 4 11 5
f 5 11 12
f 5 12 6
f 6 12 13
f 6 13 7
f 7 13 14
f 7 14 15
f 7 15 8
f 8 15 16
f 8 16 17
f 8 17 9
f 9 17 18
f 9 18 19
f 9 19 20
f 9 20 29
f 9 29 21
f 10 23 29
f 10 29 28
f 10 28 27
f 10 27 25
f 10 25 22
f 11 24 12
f 12 25 13
f 12 24 22
f 12 22 25
f 13 25 14
f 14 25 26
f 14 26 16
f 14 16 15
f 16 26 25
f 16 25 17
f 17 25 27
f 17 27 18
f 18 27 28
f 18 28 19
f 19 28 29
f 19 29 20
f 21 29 23
