v -0.179650513484 -0.210363877866 -0.0139970361253
v -0.179650513484 -0.208367249519 -0.0139985045913
v -0.17599448568 -0.210257885062 -0.0139985045913
v -0.179650513484 -0.210363877866 0.000998562016317
v -0.179650513484 -0.206355475816 -0.0139985045913
v -0.179649509826 -0.200872322595 -0.0139999725431
v -0.177041802193 -0.206355475816 -0.0139999725431
v -0.169352741599 -0.21006408046 -0.0139985045913
v -0.17599448568 -0.210257885062 0.00100002996812
v -0.179650513484 -0.210181171083 0.00100002996812
v -0.179649509826 -0.200174813598 -0.0139999725431
v -0.179650513484 -0.206355475816 0.000998562016317
v -0.173821221854 -0.20432553756 -0.0139999725431
v -0.169353745257 -0.201057044919 -0.0139999725431
v -0.169352741599 -0.206355475816 -0.0139985045913
v -0.169352741599 -0.21006408046 0.00100002996812
v -0.179650513484 -0.20970573363 0.00100002996812
v -0.175835216766 -0.200129393986 -0.0139999725431
v -0.179649509826 -0.200174813598 0.000998562016317
v -0.169353745257 -0.200052680008 -0.0139999725431
v -0.169352741599 -0.206355475816 0.000998562016317
v -0.169352741599 -0.208787164973 0.00100002996812
v -0.17599448568 -0.208628685822 0.00100002996812
v -0.175835216766 -0.200129393986 0.000998562016317
v -0.172838419123 -0.207828219673 0.00100002996812
v -0.169353745257 -0.200052680008 0.000998562016317
f 1 2 3
f 1 3 9
f 1 9 4
f 1 4 10
f 1 10 17
f 1 17 12
f 1 12 5
f 1 5 2
f 2 5 11
f 2 11 6
f 2 6 7
f 2 7 3
f 3 7 8
f 3 8 16
f 3 16 9
f 4 9 10
f 5 12 19
f 5 19 11
f 6 11 18
f 6 18 20
f 6 20 14
f 6 14 13
f 6 13 7
f 7 13 8
f 8 13 14
f 8 14 20
f 8 20 15
f 8 15 21
f 8 21 22
f 8 22 16
f 9 16 22
f 9 22 25
f 9 25 23
f 9 23 17
f 9 17 10
f 11 19 24
f 11 24 18
f 12 17 19
f 15 20 26
f 15 26 21
f 17 23 19
f 18 24 26
f 18 26 20
f 19 23 25
f 19 25 24
f 21 26 22
f 22 26 25
f 24 25 26
