v -0.0452796346313 0.130025140865 0.0659499988515
v -0.0436032210523 0.144594277456 0.0659485307203
v -0.0452796346313 0.144335845195 0.0659485307203
v -0.0452796346313 0.12397216562 0.0659499988515
v -0.0436032210523 0.129294262567 0.0659499988515
v -0.0436032210523 0.144594277456 0.0509499984559
v -0.0452796346313 0.144335845195 0.0509499984559
v -0.0452796346313 0.123970147103 0.050951466587
v -0.0443381193889 0.124563734877 0.0659499988515
v -0.0436032210523 0.125413734433 0.0659499988515
v -0.0436032210523 0.13663939977 0.0509499984559
v -0.0452796346313 0.130025140865 0.0509499984559
v -0.0443381193889 0.124563734877 0.050951466587
v -0.0436032210523 0.125413734433 0.050951466587
f 1 2 3
f 1 3 7
f 1 7 12
f 1 12 8
f 1 8 4
f 1 4 9
f 1 9 10
f 1 10 5
f 1 5 2
f 2 6 7
f 2 7 3
f 2 5 10
f 2 10 14
f 2 14 11
f 2 11 6
f 4 8 9
f 6 11 12
f 6 12 7
f 8 12 13
f 8 13 9
f 9 13 14
f 9 14 10
f 11 14 12
f 12 14 13
