v -0.0548751502925 -0.14627247947 -0.0235000157151
v -0.0548751502925 -0.13426456241 -0.0234985475839
v -0.0545652690491 -0.132521456026 -0.0234985475839
v -0.0468402573151 -0.138959508618 -0.0235000157151
v -0.0478949552949 -0.14627247947 -0.0235000157151
v -0.0548751502925 -0.14627247947 -0.00850148310874
v -0.0548751502925 -0.13426456241 -0.00850001497758
v -0.0468402573151 -0.132521456026 -0.0234985475839
v -0.0545652690491 -0.132521456026 -0.00850001497758
v -0.0468402573151 -0.144946641325 -0.0235000157151
v -0.0478949552949 -0.14627247947 -0.00850148310874
v -0.0548751502925 -0.139370047053 -0.00850001497758
v -0.0468402573151 -0.132521456026 -0.00850001497758
v -0.0468402573151 -0.144946641325 -0.00850148310874
v -0.0468402573151 -0.138959508618 -0.00850001497758
f 1 2 3
f 1 3 4
f 1 4 10
f 1 10 5
f 1 5 11
f 1 11 6
f 1 6 12
f 1 12 7
f 1 7 2
f 2 7 9
f 2 9 3
f 3 8 4
f 3 9 13
f 3 13 8
f 4 8 13
f 4 13 15
f 4 15 14
f 4 14 10
f 5 10 14
f 5 14 11
f 6 11 12
f 7 12 15
f 7 15 13
f 7 13 9
f 11 14 15
f 11 15 12
