v -0.0135959852824 -0.0093881216093 0.000999982624007
v -0.0135959852824 -0.0093881216093 -0.0139985507812
v -0.0257751602242 -0.0093881216093 0.000999982624007
v -0.00441508105092 -0.0163990070942 0.000999982624007
v -0.00441508105092 -0.0163990070942 -0.0140000192474
v -0.0121867554342 -0.0118996019403 -0.0140000192474
v -0.025773070642 -0.0093881216093 -0.0139985507812
v -0.0196636177437 -0.0156460253356 0.000999982624007
v -0.0196636177437 -0.0156460253356 -0.0139985507812
v -0.00441508105092 -0.0240966658444 0.000998514157795
v -0.01788430973 -0.0174661172218 0.000999982624007
v -0.00441508105092 -0.0251191214364 -0.0140000192474
v -0.0160192753737 -0.0156460253356 -0.0140000192474
v -0.0152456610477 -0.0198112947826 -0.0140000192474
v -0.01788430973 -0.0174661172218 -0.0139985507812
v -0.00441508105092 -0.0251191214364 -0.00200266057813
v -0.00675891765943 -0.0240689500872 0.000998514157795
v -0.0123038419629 -0.0217607350961 -0.0140000192474
v -0.0091173936832 -0.0232774755923 -0.00200266057813
v -0.0091173936832 -0.0232774755923 -0.0140000192474
f 1 2 7
f 1 7 3
f 1 3 8
f 1 8 11
f 1 11 4
f 1 4 5
f 1 5 2
f 2 5 6
f 2 6 7
f 3 7 9
f 3 9 8
f 4 10 16
f 4 16 12
f 4 12 5
f 4 11 10
f 5 12 20
f 5 20 18
f 5 18 14
f 5 14 13
f 5 13 6
f 6 13 7
f 7 13 14
f 7 14 9
f 8 9 15
f 8 15 11
f 9 14 15
f 10 11 17
f 10 17 16
f 11 15 14
f 11 14 18
f 11 18 19
f 11 19 17
f 12 16 19
f 12 19 20
f 16 17 19
f 18 20 19
