v -0.0607665499346 0.131578498124 0.0659499988515
v -0.0610158439614 0.133268600752 0.0659499988515
v -0.0754032499723 0.131578498124 0.0659499988515
v -0.0607665499346 0.131578498124 0.0509499984559
v -0.0749247202767 0.133268600752 0.0659499988515
v -0.0610158439614 0.133268600752 0.0509499984559
v -0.0754032499723 0.131578498124 0.0602339647678
v -0.0754018171391 0.131578498124 0.0509499984559
v -0.0749247202767 0.133268600752 0.0509499984559
f 1 2 5
f 1 5 3
f 1 3 7
f 1 7 8
f 1 8 4
f 1 4 6
f 1 6 2
f 2 6 9
f 2 9 5
f 3 5 9
f 3 9 7
f 4 8 9
f 4 9 6
f 7 9 8
