v -0.153475063382 0.173715325256 -0.0139999945673
v -0.153475063382 0.173715325256 0.00100000730411
v -0.153348232325 0.184299750005 -0.0139985261011
v -0.142003010452 0.182725973788 -0.0139999945673
v -0.134696268102 0.173715325256 -0.0139999945673
v -0.153316979087 0.184299750005 0.00100000730411
v -0.153348232325 0.184299750005 0.000994134467601
v -0.134696268102 0.173715325256 0.000998538837899
v -0.142488295345 0.184299750005 -0.0139985261011
v -0.142488295345 0.184299750005 0.000998538837899
f 1 2 7
f 1 7 3
f 1 3 4
f 1 4 5
f 1 5 8
f 1 8 2
f 2 6 7
f 2 8 6
f 3 7 6
f 3 6 10
f 3 10 9
f 3 9 4
f 4 9 5
f 5 9 10
f 5 10 8
f 6 8 10
