v -0.0284149387898 -0.0593258426961 -0.0110090837282
v -0.0284177111877 -0.0593258426961 0.00100002071308
v -0.0284149387898 -0.0647331477992 -0.0110090837282
v -0.0284149387898 -0.0593258426961 -0.013998512818
v -0.0363297955652 -0.0593258426961 0.00100002071308
v -0.0284177111877 -0.064879228285 0.00100002071308
v -0.0284149387898 -0.0647331477992 -0.013998512818
v -0.0403114793499 -0.0593258426961 -0.0139999807698
v -0.0403211786294 -0.0593258426961 0.000998552761279
v -0.0425732624693 -0.0641970014119 0.00100002071308
v -0.0307446333187 -0.0672631357394 0.00100002071308
v -0.0284177111877 -0.064879228285 -0.00831478056426
v -0.0325282806266 -0.0671730009278 -0.013998512818
v -0.0403211786294 -0.059336722507 -0.0139999807698
v -0.0284177111877 -0.0648753432259 -0.0109988060089
v -0.0307474057166 -0.0672631357394 -0.0109988060089
v -0.0403225648283 -0.0593374978735 -0.0110090837282
v -0.0425732624693 -0.0672631357394 0.00100002071308
v -0.0425732624693 -0.0644899398067 -0.0109988060089
v -0.0307446333187 -0.0672631357394 -0.00875526611126
v -0.037701834329 -0.067233608056 -0.013998512818
v -0.0422143150893 -0.0646989586618 -0.013998512818
v -0.0423085560526 -0.0646080474554 -0.013998512818
v -0.042490109041 -0.0644207841087 -0.013998512818
v -0.0425732624693 -0.0672631357394 -0.0109988060089
f 1 2 6
f 1 6 3
f 1 3 7
f 1 7 4
f 1 4 8
f 1 8 9
f 1 9 5
f 1 5 2
f 2 5 10
f 2 10 18
f 2 18 11
f 2 11 6
f 3 6 12
f 3 12 7
f 4 7 8
f 5 9 10
f 6 11 20
f 6 20 12
f 7 13 14
f 7 14 8
f 7 12 15
f 7 15 16
f 7 16 13
f 8 14 9
f 9 14 17
f 9 17 10
f 10 17 14
f 10 14 19
f 10 19 25
f 10 25 18
f 11 18 25
f 11 25 16
f 11 16 20
f 12 20 16
f 12 16 15
f 13 21 14
f 13 16 21
f 14 21 22
f 14 22 23
f 14 23 24
f 14 24 19
f 16 25 21
f 19 24 25
f 21 25 22
f 22 25 23
f 23 25 24
