v 0.0180534123443 0.00387442362505 -0.00198578708609
v 0.0185576597019 -0.0162716626085 -0.00198607964812
v 0.0180534123443 0.00387442362505 0.000999725580216
v 0.0180534123443 0.0168971418457 -0.00198578708609
v 0.0185576597019 -0.0162716626085 0.00100001814224
v 0.0185576597019 0.00387442362505 -0.00198607964812
v 0.0242220718074 -0.00618400887228 -0.00198607964812
v 0.0180534123443 0.00506598709816 0.000999725580216
v 0.0180534123443 0.0168971418457 0.000999433532361
v 0.0240692937593 0.0067575364982 -0.00198578708609
v 0.0241031054969 0.00387442362505 -0.00198607964812
v 0.0242220718074 -0.00618400887228 0.000999433532361
v 0.0241037142727 0.00387442362505 0.000999725580216
v 0.0240692937593 0.0067575364982 0.000999725580216
v 0.0242220718074 -0.00613530680753 -0.00198607964812
v 0.0241037142727 0.00387442362505 -0.00198578708609
f 1 2 5
f 1 5 3
f 1 3 8
f 1 8 9
f 1 9 4
f 1 4 6
f 1 6 2
f 2 6 11
f 2 11 15
f 2 15 7
f 2 7 12
f 2 12 5
f 3 5 8
f 4 9 14
f 4 14 10
f 4 10 11
f 4 11 6
f 5 12 13
f 5 13 14
f 5 14 8
f 7 15 12
f 8 14 9
f 10 16 11
f 10 14 13
f 10 13 16
f 11 16 15
f 12 15 13
f 13 15 16
