v 0.0329776299588 0.00486282881009 -0.00200001723611
v 0.0500486442813 -0.00938721667214 -0.00200119211192
v 0.0329776299588 0.00486282881009 -0.0139964997617
v 0.0329776299588 -0.00325699135267 -0.00200001723611
v 0.069673103339 -0.0286340865858 -0.00200119211192
v 0.0651928663995 -0.0220336559173 -0.00200119211192
v 0.0500486442813 -0.00938721667214 -0.0139976741233
v 0.0467857041313 -0.0144787797977 -0.0139988489992
v 0.0329776299588 -0.00325699135267 -0.0139964997617
v 0.0602300264718 -0.017889529093 -0.0139988489992
v 0.0481614718713 -0.017889529093 -0.00200236698772
v 0.0651028251519 -0.0309780959551 -0.00200236698772
v 0.0584689035817 -0.0240197544124 -0.00200119211192
v 0.0626970414814 -0.0265251798912 -0.00200119211192
v 0.0697667396551 -0.0309780959551 -0.00200236698772
v 0.069673103339 -0.0286340865858 -0.014000023875
v 0.0651928663995 -0.0220336559173 -0.0139976741233
v 0.0481614718713 -0.017889529093 -0.0139988489992
v 0.0626970414814 -0.0265251798912 -0.014000023875
v 0.0651028251519 -0.0309780959551 -0.014000023875
v 0.0697667396551 -0.0309780959551 -0.014000023875
f 1 2 7
f 1 7 3
f 1 3 9
f 1 9 4
f 1 4 5
f 1 5 6
f 1 6 2
f 2 6 17
f 2 17 7
f 3 8 9
f 3 7 10
f 3 10 8
f 4 9 18
f 4 18 11
f 4 11 12
f 4 12 13
f 4 13 14
f 4 14 5
f 5 15 21
f 5 21 16
f 5 16 17
f 5 17 6
f 5 14 12
f 5 12 15
f 7 17 10
f 8 18 9
f 8 10 19
f 8 19 18
f 10 17 16
f 10 16 19
f 11 18 20
f 11 20 12
f 12 14 13
f 12 20 21
f 12 21 15
f 16 21 20
f 16 20 19
f 18 19 20
