v -0.0422940167465 0.128721201176 0.0659500001588
v -0.0422940167465 0.127476865257 0.0659500001588
v -0.0418330444873 0.12852087514 0.0659500001588
v -0.0367351310339 0.147153150278 0.065948531374
v -0.0417056922822 0.147153150278 0.065948531374
v -0.0422940167465 0.145648776698 0.065948531374
v -0.0422940167465 0.127474940868 0.0509514659333
v -0.0418330444873 0.12852087514 0.0509514659333
v -0.0367345871848 0.147153150278 0.0535106868315
v -0.0417056922822 0.147153150278 0.0509514659333
v -0.0422940167465 0.145648776698 0.0509514659333
v -0.0367345871848 0.147153150278 0.0509499971485
f 1 2 3
f 1 3 4
f 1 4 5
f 1 5 6
f 1 6 11
f 1 11 7
f 1 7 2
f 2 7 3
f 3 7 8
f 3 8 12
f 3 12 9
f 3 9 4
f 4 9 12
f 4 12 10
f 4 10 5
f 5 10 11
f 5 11 6
f 7 12 8
f 7 11 12
f 10 12 11
