v -0.114928484513 -0.151067690811 -0.00498014988215
v -0.112586635035 -0.151067690811 -0.00498014988215
v -0.114928484513 -0.151067690811 0.0010000253406
v -0.114928484513 -0.143992806855 -0.00498014988215
v -0.0836190418014 -0.121412283747 -0.00498073526328
v -0.112586635035 -0.151067690811 0.0010000253406
v -0.10747553844 -0.145844098205 -0.00498014988215
v -0.114928484513 -0.149750925189 0.0010000253406
v -0.114928484513 -0.143992806855 0.000999439702386
v -0.083000906064 -0.106675838999 -0.00498073526328
v -0.0836190418014 -0.11282507728 -0.00498073526328
v -0.0788470353889 -0.116523312169 -0.00498073526328
v -0.0836225741408 -0.121416627445 -0.00498014988215
v -0.108535199116 -0.14692618898 0.000999439702386
v -0.0836190418014 -0.121412283747 0.000999439702386
v -0.0788470353889 -0.116523312169 0.000999439702386
v -0.0788470353889 -0.115441221394 0.000999439702386
v -0.0836225741408 -0.121416627445 0.00099885457834
v -0.0836190418014 -0.113781143235 0.000999439702386
v -0.083000906064 -0.106675838999 0.00099885457834
v -0.0788470353889 -0.106675838999 -0.00498073526328
v -0.0788470353889 -0.106675838999 0.00099885457834
f 1 2 6
f 1 6 3
f 1 3 8
f 1 8 9
f 1 9 4
f 1 4 11
f 1 11 5
f 1 5 2
f 2 5 7
f 2 7 6
f 3 6 8
f 4 9 20
f 4 20 10
f 4 10 11
f 5 11 10
f 5 10 21
f 5 21 12
f 5 12 13
f 5 13 7
f 6 7 14
f 6 14 15
f 6 15 16
f 6 16 17
f 6 17 8
f 7 13 18
f 7 18 14
f 8 17 19
f 8 19 20
f 8 20 9
f 10 20 22
f 10 22 21
f 12 16 18
f 12 18 13
f 12 21 22
f 12 22 17
f 12 17 16
f 14 18 15
f 15 18 16
f 17 22 19
f 19 22 20
