v -0.148459556112 0.122472320642 -0.013999999709
v -0.148459556112 0.122472320642 0.000998533696211
v -0.148459556112 0.127693392616 -0.013999999709
v -0.129652263537 0.122472320642 -0.013999999709
v -0.144407198142 0.122472320642 0.00100000216242
v -0.148459556112 0.127668017355 0.00100000216242
v -0.143604453066 0.127086434808 -0.013999999709
v -0.148459556112 0.127693392616 0.00100000216242
v -0.138112323619 0.1328413868 -0.0139985312428
v -0.129652263537 0.1328413868 -0.0139985312428
v -0.129652263537 0.12363244597 -0.013999999709
v -0.129652263537 0.122472320642 -0.00500087987155
v -0.143604453066 0.122472320642 0.00100000216242
v -0.143604453066 0.127086434808 0.00100000216242
v -0.129652263537 0.1328413868 -0.00500087987155
v -0.130191721259 0.1328413868 -0.00498179212455
v -0.138112323619 0.1328413868 -0.00498179212455
f 1 2 6
f 1 6 8
f 1 8 3
f 1 3 7
f 1 7 11
f 1 11 4
f 1 4 12
f 1 12 13
f 1 13 5
f 1 5 2
f 2 5 6
f 3 8 17
f 3 17 9
f 3 9 10
f 3 10 7
f 4 11 10
f 4 10 15
f 4 15 12
f 5 13 14
f 5 14 8
f 5 8 6
f 7 10 11
f 8 14 15
f 8 15 16
f 8 16 17
f 9 17 16
f 9 16 15
f 9 15 10
f 12 15 14
f 12 14 13
