v -0.137199678039 0.164828455676 -0.0139999961098
v -0.142779915458 0.165503497665 -0.0139985276436
v -0.137556363134 0.165193819941 -0.0139999961098
v -0.137199678039 0.168060998164 -0.0139999961098
v -0.137199678039 0.164828455676 0.000998537295393
v -0.142779915458 0.173714461453 -0.0139985276436
v -0.142779915458 0.165503497665 0.00100000576161
v -0.137199678039 0.173714461453 -0.0139985276436
v -0.137199678039 0.168060998164 0.00100000576161
v -0.137556363134 0.165193819941 0.00100000576161
v -0.142779915458 0.173714461453 0.00100000576161
v -0.137199678039 0.173714461453 0.00100000576161
f 1 2 3
f 1 3 4
f 1 4 8
f 1 8 12
f 1 12 9
f 1 9 5
f 1 5 7
f 1 7 2
f 2 6 3
f 2 7 11
f 2 11 6
f 3 6 4
f 4 6 8
f 5 9 10
f 5 10 7
f 6 11 12
f 6 12 8
f 7 10 9
f 7 9 12
f 7 12 11
