v -0.0597219271486 -0.130271356101 -0.00850148180142
v -0.0689525266792 -0.130271356101 -0.00850001367025
v -0.0669165595026 -0.131583420873 -0.00850001367025
v -0.0607707293986 -0.131583420873 -0.00850148180142
v -0.0597219271486 -0.130271356101 -0.00851469628926
v -0.0694095991847 -0.130271356101 -0.00850001367025
v -0.0694095991847 -0.131583420873 -0.00850001367025
v -0.0607707293986 -0.131583420873 -0.0235000144078
v -0.0597228752894 -0.130271356101 -0.0235000144078
v -0.0694095991847 -0.130271356101 -0.0234985462766
v -0.0694095991847 -0.131583420873 -0.0234985462766
v -0.0607821090494 -0.131583420873 -0.0235000144078
f 1 2 3
f 1 3 4
f 1 4 8
f 1 8 5
f 1 5 9
f 1 9 10
f 1 10 6
f 1 6 2
f 2 6 7
f 2 7 3
f 3 7 11
f 3 11 12
f 3 12 8
f 3 8 4
f 5 8 9
f 6 10 11
f 6 11 7
f 8 12 9
f 9 12 10
f 10 12 11
