v -0.0568671099702 0.142171200391 0.0659499975441
v -0.0682215969506 0.142171200391 0.0659499975441
v -0.0568671099702 0.141785962552 0.0659499975441
v -0.0568671099702 0.142171200391 0.0509499971485
v -0.0685793280843 0.14178664171 0.0659499975441
v -0.0682215969506 0.142171200391 0.0509499971485
v -0.0685804746124 0.141785962552 0.0510072607995
v -0.0685781815563 0.141785962552 0.0659499975441
v -0.0568671099702 0.141785962552 0.0509499971485
v -0.0685793280843 0.14178664171 0.0509499971485
v -0.0685781815563 0.141785962552 0.0509499971485
f 1 2 5
f 1 5 8
f 1 8 3
f 1 3 9
f 1 9 4
f 1 4 6
f 1 6 2
f 2 6 7
f 2 7 5
f 3 8 7
f 3 7 11
f 3 11 9
f 4 9 11
f 4 11 10
f 4 10 6
f 5 7 8
f 6 10 7
f 7 10 11
