v -0.0308757216719 0.00416320547961 -0.0139999864256
v -0.0412092159446 -0.0064182641584 -0.0139985184738
v -0.0308757216719 0.00416320547961 0.00099854813376
v -0.0268127848267 0.00416320547961 -0.0139999864256
v -0.0412092159446 -0.0064182641584 0.00099854813376
v -0.0153184517491 -0.0064182641584 -0.0139985184738
v -0.0188643322646 -0.0064182641584 0.00100001608556
v -0.016398185574 -0.00460236818594 0.00100001608556
v -0.0165021011367 0.00416320547961 0.00099854813376
v -0.0165021011367 0.00416320547961 -0.0139985184738
v -0.0153184517491 -0.0064182641584 0.00100001608556
f 1 2 5
f 1 5 3
f 1 3 9
f 1 9 10
f 1 10 4
f 1 4 6
f 1 6 2
f 2 6 11
f 2 11 7
f 2 7 5
f 3 5 7
f 3 7 8
f 3 8 9
f 4 10 6
f 6 10 9
f 6 9 11
f 7 11 8
f 8 11 9
