v -0.124142717723 -0.145731285466 -0.00498014782547
v -0.124142717723 -0.145731285466 0.000998855606677
v -0.124142717723 -0.138746508557 -0.00203484598396
v -0.124129188915 -0.13875858124 -0.00498014782547
v -0.119907299883 -0.142870750772 -0.0049807332066
v -0.119907299883 -0.151074568332 -0.0049807332066
v -0.123899199173 -0.151074568332 -0.00498014782547
v -0.124142717723 -0.138746508557 0.000998855606677
v -0.123899199173 -0.151074568332 0.000999440730724
v -0.114929599231 -0.143996858505 -0.0049807332066
v -0.114929599231 -0.151074568332 -0.0049807332066
v -0.114929599231 -0.143996858505 0.000998855606677
v -0.123086569848 -0.147513990817 0.000999440730724
v -0.114929599231 -0.149756552252 0.00100002636894
v -0.11604797798 -0.151074568332 0.00100002636894
v -0.114929599231 -0.151074568332 0.00100002636894
f 1 2 8
f 1 8 3
f 1 3 4
f 1 4 5
f 1 5 6
f 1 6 7
f 1 7 9
f 1 9 2
f 2 9 8
f 3 8 12
f 3 12 10
f 3 10 4
f 4 10 5
f 5 10 11
f 5 11 6
f 6 11 16
f 6 16 15
f 6 15 9
f 6 9 7
f 8 9 13
f 8 13 14
f 8 14 12
f 9 15 13
f 10 12 14
f 10 14 16
f 10 16 11
f 13 15 14
f 14 15 16
