v -0.0704332003684 -0.14137193378 -0.00870219219674
v -0.0704332003684 -0.14137193378 -0.00850005092914
v -0.0704332003684 -0.141358771585 -0.00888906320065
v -0.0704329755077 -0.141370617299 -0.00888906320065
v -0.0699730072671 -0.141298226536 -0.00888906320065
v -0.0699730072671 -0.141298226536 -0.00850005092914
v -0.0704332003684 -0.128052005876 -0.00850005092914
v -0.0704332003684 -0.128052005876 -0.00888906320065
v -0.0699730072671 -0.12792565116 -0.00888906320065
v -0.0699730072671 -0.12792565116 -0.00850005092914
f 1 2 7
f 1 7 8
f 1 8 3
f 1 3 4
f 1 4 5
f 1 5 6
f 1 6 2
f 2 6 10
f 2 10 7
f 3 8 9
f 3 9 5
f 3 5 4
f 5 9 10
f 5 10 6
f 7 10 9
f 7 9 8
