v -0.169351310154 -0.201056386783 -0.0139999715147
v -0.169351310154 -0.210064820863 -0.0139985035629
v -0.169351310154 -0.200052852768 -0.0139999715147
v -0.154885604051 -0.203437572228 -0.0139999715147
v -0.165163352147 -0.209942440472 -0.0139985035629
v -0.165163352147 -0.209942440472 0.00100002996812
v -0.169351310154 -0.210062492707 0.00100002996812
v -0.169351310154 -0.200052852768 0.000998562016317
v -0.165539797718 -0.19815769254 -0.0139999715147
v -0.150644707228 -0.200754508022 -0.0139999715147
v -0.150644707228 -0.200754508022 0.00100002996812
v -0.169351310154 -0.207512297935 0.00100002996812
v -0.165539797718 -0.19815769254 0.000998562016317
v -0.15701879562 -0.19815769254 -0.0139999715147
v -0.149323227707 -0.198158860732 -0.0139999715147
v -0.149323227707 -0.198158860732 0.00100002996812
v -0.15701879562 -0.19815769254 0.000998562016317
f 1 2 7
f 1 7 12
f 1 12 8
f 1 8 3
f 1 3 9
f 1 9 14
f 1 14 15
f 1 15 10
f 1 10 4
f 1 4 2
f 2 4 5
f 2 5 6
f 2 6 7
f 3 8 13
f 3 13 9
f 4 10 5
f 5 10 11
f 5 11 6
f 6 11 16
f 6 16 12
f 6 12 7
f 8 12 13
f 9 13 17
f 9 17 14
f 10 15 16
f 10 16 11
f 12 16 13
f 13 16 17
f 14 17 16
f 14 16 15
