v 0.0584644935349 0.0240147264884 -0.00200115764694
v 0.0482235023351 0.01766528529 -0.0019999832855
v 0.0492631762438 0.01766528529 -0.0019999832855
v 0.0584644935349 0.0164171138933 -0.00200115764694
v 0.0584644935349 0.0240178937679 -0.01399881155
v 0.0492642374881 0.0263729758934 -0.00201290383222
v 0.0492652987324 0.0263687555962 -0.00200233252256
v 0.0482213798465 0.0176579059399 -0.0019999832855
v 0.0492631762438 0.0156043323741 -0.0019999832855
v 0.0574905180535 0.0156043323741 -0.00200115764694
v 0.0584644935349 0.0164171138933 -0.01399881155
v 0.0492652987324 0.0263687555962 -0.0139999859114
v 0.0492642374881 0.0263729758934 -0.0139952874373
v 0.0476384852357 0.0156043323741 -0.0019999832855
v 0.0574905180535 0.0156043323741 -0.01399881155
v 0.0476384852357 0.0156043323741 -0.01399881155
f 1 2 3
f 1 3 9
f 1 9 4
f 1 4 11
f 1 11 5
f 1 5 6
f 1 6 7
f 1 7 2
f 2 7 8
f 2 8 14
f 2 14 9
f 2 9 3
f 4 9 10
f 4 10 15
f 4 15 11
f 5 11 12
f 5 12 13
f 5 13 6
f 6 14 7
f 6 13 16
f 6 16 14
f 7 14 8
f 9 14 16
f 9 16 15
f 9 15 10
f 11 15 12
f 12 16 13
f 12 15 16
