v -0.0808507197413 0.106623825008 -0.00498164327267
v -0.0808507197413 0.101353758914 -0.00498164327267
v -0.0808507197413 0.106623825008 -0.0139991220228
v -0.130674529915 0.106623825008 -0.00498076044477
v -0.108970632207 0.0851397858971 -0.00498076044477
v -0.0808507197413 0.101353758914 -0.0139991220228
v -0.0970047139345 0.0851397858971 -0.00498164327267
v -0.106902237904 0.0851397858971 -0.0140000048507
v -0.108919351064 0.0872028091927 -0.0140000048507
v -0.139056378746 0.106623825008 -0.0139991220228
v -0.139056378746 0.106623825008 -0.00498076044477
v -0.118081827484 0.0851397858971 -0.00498076044477
v -0.0970047139345 0.0851397858971 -0.0139991220228
v -0.110264091799 0.0851397858971 -0.0140000048507
v -0.118081827484 0.0851397858971 -0.0139991220228
f 1 2 6
f 1 6 3
f 1 3 10
f 1 10 11
f 1 11 4
f 1 4 5
f 1 5 2
f 2 5 7
f 2 7 13
f 2 13 6
f 3 6 8
f 3 8 9
f 3 9 10
f 4 11 12
f 4 12 5
f 5 12 15
f 5 15 14
f 5 14 8
f 5 8 13
f 5 13 7
f 6 13 8
f 8 14 9
f 9 14 10
f 10 14 15
f 10 15 12
f 10 12 11
