v -0.0234985769002 -0.00938763623391 -0.0140000177049
v -0.0165167563515 -0.00435910609496 -0.0140000177049
v -0.0135938627934 -0.00938763623391 -0.0140000177049
v -0.0257739838059 -0.00938763623391 -0.0139985492387
v -0.0306861842727 -0.00435910609496 -0.0139985492387
v -0.0164197182944 -0.00435910609496 -0.0140000177049
v -0.0135938627934 -0.00938763623391 0.000998515700302
v -0.0257739838059 -0.00938763623391 0.000998515700302
v -0.0306861842727 -0.00435910609496 0.000999984166514
v -0.0164197182944 -0.00435910609496 0.000999984166514
f 1 2 6
f 1 6 3
f 1 3 7
f 1 7 8
f 1 8 4
f 1 4 5
f 1 5 2
f 2 5 9
f 2 9 10
f 2 10 6
f 3 6 10
f 3 10 7
f 4 8 9
f 4 9 5
f 7 10 9
f 7 9 8
