v -0.146638049239 -0.125224223971 0.00100002276976
v -0.146638049239 -0.126588210852 0.00100002276976
v -0.141918917885 -0.126295138774 0.00100002276976
v -0.141918917885 -0.10954762165 0.000998554817954
v -0.146638049239 -0.11438055089 0.000998554817954
v -0.146638049239 -0.126588210852 -0.0139985117896
v -0.141918917885 -0.128376136044 0.00100002276976
v -0.141918917885 -0.10954762165 -0.0139999797414
v -0.146638049239 -0.11438055089 -0.0139999797414
v -0.141918917885 -0.128376136044 -0.0139985117896
v -0.146638049239 -0.114610954024 -0.0139999797414
v -0.141918917885 -0.113838643756 -0.0139999797414
f 1 2 7
f 1 7 3
f 1 3 4
f 1 4 5
f 1 5 9
f 1 9 11
f 1 11 6
f 1 6 2
f 2 6 10
f 2 10 7
f 3 7 10
f 3 10 12
f 3 12 8
f 3 8 4
f 4 8 9
f 4 9 5
f 6 11 10
f 8 12 11
f 8 11 9
f 10 11 12
