v -0.0046086867226 0.0250427842965 -0.00200262868376
v -0.0046086867226 0.0250427842965 -0.0139999879681
v -0.00865598461085 0.0234588319074 -0.00200262868376
v -0.00675833169252 0.0240678874246 0.000997078125281
v -0.0046086867226 0.024094459666 0.000997078125281
v -0.0046086867226 0.0206608571538 -0.0139999879681
v -0.00865598461085 0.0234588319074 -0.0139999879681
v -0.00911625614291 0.0232769313409 -0.00200262868376
v -0.00865598461085 0.023432259666 -0.00141531479248
v -0.0121864400636 0.020848886612 0.000998546591254
v -0.00865598461085 0.019812676144 0.000998546591254
v -0.0046086867226 0.0164158634348 0.000998546591254
v -0.00865598461085 0.01921587841 -0.0139999879681
v -0.0046086867226 0.0163913396418 -0.0139985200163
v -0.0165011591795 0.00416322193301 -0.0139985200163
v -0.00911625614291 0.0232769313409 -0.0139999879681
v -0.0121838692198 0.0218196948139 -0.0135404146772
v -0.0121838692198 0.021245388878 -0.000952804569644
v -0.0178845446195 0.0174643399127 0.000998546591254
v -0.0165011591795 0.0042143179675 0.00100001454306
v -0.0046086867226 0.0163913396418 0.000986800405979
v -0.0165011591795 0.00416322193301 0.00100001454306
v -0.0308749812688 0.00416322193301 -0.0139985200163
v -0.0152489155663 0.0198106276957 -0.0139999879681
v -0.0121838692198 0.0218196948139 -0.0139999879681
v -0.0123072944018 0.0217604296661 -0.0139999879681
v -0.0178845446195 0.0174643399127 -0.0139985200163
v -0.0308775521126 0.00416322193301 0.000998546591254
v -0.0165474425944 0.00416322193301 0.00100001454306
v -0.0308775521126 0.00416322193301 -0.00735159221481
f 1 2 7
f 1 7 3
f 1 3 4
f 1 4 5
f 1 5 12
f 1 12 21
f 1 21 14
f 1 14 6
f 1 6 2
f 2 6 13
f 2 13 24
f 2 24 26
f 2 26 25
f 2 25 16
f 2 16 7
f 3 7 16
f 3 16 8
f 3 8 9
f 3 9 4
f 4 9 10
f 4 10 5
f 5 10 11
f 5 11 12
f 6 14 15
f 6 15 13
f 8 16 25
f 8 25 17
f 8 17 18
f 8 18 9
f 9 18 10
f 10 19 20
f 10 20 11
f 10 18 19
f 11 20 12
f 12 20 22
f 12 22 21
f 13 15 23
f 13 23 24
f 14 21 22
f 14 22 15
f 15 22 29
f 15 29 28
f 15 28 30
f 15 30 23
f 17 25 26
f 17 26 19
f 17 19 18
f 19 26 24
f 19 24 27
f 19 27 30
f 19 30 28
f 19 28 20
f 20 28 29
f 20 29 22
f 23 30 27
f 23 27 24
