v -0.0788430392693 -0.116520029715 -0.0139985102471
v -0.0788430392693 -0.116520029715 0.00100002431226
v -0.0788430392693 -0.102950641101 -0.0139999781989
v -0.0769504982168 -0.102365951013 -0.0139999781989
v -0.0751702269409 -0.101308256518 -0.0139999781989
v -0.0726329388326 -0.0987165703833 -0.0139999781989
v -0.0755904344433 -0.113185986728 -0.0139985102471
v -0.0460732092046 -0.0829628098414 -0.0109988034381
v -0.0788430392693 -0.115436055026 0.00100002431226
v -0.0460732092046 -0.0829628098414 0.00099855636046
v -0.0788430392693 -0.10238894464 -0.0139999781989
v -0.0572552402919 -0.0829628098414 -0.0109988034381
v -0.0727740771284 -0.105440497142 -0.0139985102471
v -0.0729569155387 -0.108255546411 -0.0139985102471
v -0.0739224329441 -0.110909640293 -0.0139985102471
v -0.0572552402919 -0.0829628098414 0.00099855636046
v -0.0788430392693 -0.10238894464 0.00099855636046
f 1 2 9
f 1 9 17
f 1 17 11
f 1 11 3
f 1 3 4
f 1 4 5
f 1 5 6
f 1 6 7
f 1 7 8
f 1 8 10
f 1 10 2
f 2 10 9
f 3 11 6
f 3 6 5
f 3 5 4
f 6 11 12
f 6 12 8
f 6 8 13
f 6 13 14
f 6 14 15
f 6 15 7
f 7 15 8
f 8 15 14
f 8 14 13
f 8 12 16
f 8 16 10
f 9 10 16
f 9 16 17
f 11 17 16
f 11 16 12
