v -0.0313229309663 0.0430806697504 0.000998521356159
v -0.0315890441921 0.0477484076131 0.000998521356159
v -0.0397388198316 0.0477484076131 0.000999989822371
v -0.0396366585961 0.0430806697504 0.000998521356159
v -0.0313229309663 0.0430806697504 -0.0140000120491
v -0.0315890441921 0.0477484076131 -0.0139985435829
v -0.0397388198316 0.0477484076131 -0.0139985435829
v -0.0396366585961 0.0430806697504 -0.0139985435829
v -0.0381248479506 0.0430806697504 -0.0140000120491
v -0.0316796695355 0.0467554550292 -0.0140000120491
f 1 2 3
f 1 3 4
f 1 4 8
f 1 8 9
f 1 9 5
f 1 5 6
f 1 6 2
f 2 6 7
f 2 7 3
f 3 7 8
f 3 8 4
f 5 9 10
f 5 10 6
f 6 10 7
f 7 10 9
f 7 9 8
