v -0.049874373275 -0.122637714615 -0.00894336967327
v -0.049874373275 -0.122637714615 -0.0178105021533
v -0.0516076707652 -0.122906672846 -0.00894336967327
v -0.0480715755273 -0.122769290805 -0.00894336967327
v -0.0516603224854 -0.122915379661 -0.0178105021533
v -0.0480715755273 -0.122769290805 -0.0178105021533
v -0.0516603224854 -0.122915379661 -0.00894336967327
v -0.0480199765343 -0.122784770895 -0.00894336967327
v -0.0536347650957 -0.123455232278 -0.0178105021533
v -0.0469985317908 -0.123100168089 -0.0178105021533
v -0.0551774627511 -0.123878020064 -0.00894336967327
v -0.0463435433071 -0.123302370147 -0.0178105021533
v -0.0463435433071 -0.123302370147 -0.00894336967327
v -0.0551774627511 -0.123878020064 -0.0178105021533
v -0.0551774627511 -0.130958013991 -0.00894336967327
v -0.0444206993629 -0.124509781876 -0.0178105021533
v -0.0444206993629 -0.124509781876 -0.00894336967327
v -0.0551774627511 -0.126989424044 -0.0178105021533
v -0.0545656488283 -0.132520488602 -0.00894336967327
v -0.055176410024 -0.130958981415 -0.0178105021533
v -0.0545656488283 -0.132520488602 -0.0178105021533
v -0.0444206993629 -0.132520488602 -0.0178105021533
v -0.0444206993629 -0.132520488602 -0.00894336967327
f 1 2 3
f 1 3 7
f 1 7 11
f 1 11 15
f 1 15 19
f 1 19 23
f 1 23 17
f 1 17 13
f 1 13 8
f 1 8 4
f 1 4 6
f 1 6 2
f 2 5 3
f 2 6 10
f 2 10 12
f 2 12 16
f 2 16 22
f 2 22 21
f 2 21 20
f 2 20 18
f 2 18 14
f 2 14 9
f 2 9 5
f 3 5 7
f 4 8 6
f 5 9 7
f 6 8 10
f 7 9 11
f 8 12 10
f 8 13 12
f 9 14 11
f 11 14 18
f 11 18 15
f 12 13 17
f 12 17 16
f 15 18 20
f 15 20 21
f 15 21 19
f 16 17 23
f 16 23 22
f 19 21 22
f 19 22 23
