v -0.179235860198 0.146263237905 -0.013999996624
v -0.180629595054 0.146744327181 -0.013999996624
v -0.173203614893 0.146263237905 -0.013999996624
v -0.179235860198 0.146263237905 0.000998537809562
v -0.180630319004 0.152303689345 -0.0139985281578
v -0.176495652886 0.149897132365 -0.013999996624
v -0.180629595054 0.146744327181 0.000998537809562
v -0.173203614893 0.150406192425 -0.013999996624
v -0.173202890944 0.152320471816 -0.0139970602058
v -0.173203614893 0.146263237905 0.000997069857519
v -0.176104506138 0.146263237905 0.000998537809562
v -0.180630319004 0.157539721575 0.00100000627577
v -0.180630319004 0.157691874419 -0.0139970602058
v -0.180630319004 0.152303689345 0.000998537809562
v -0.173202890944 0.157592306651 -0.0139970602058
v -0.173202890944 0.152320471816 0.000998537809562
v -0.173203614893 0.150406192425 0.000998537809562
v -0.173525698483 0.149862448591 0.000998537809562
v -0.173202890944 0.157592306651 0.00100000627577
v -0.180630319004 0.157691874419 0.00100000627577
f 1 2 6
f 1 6 8
f 1 8 3
f 1 3 10
f 1 10 11
f 1 11 4
f 1 4 7
f 1 7 2
f 2 5 6
f 2 7 14
f 2 14 5
f 3 8 15
f 3 15 9
f 3 9 16
f 3 16 10
f 4 11 12
f 4 12 7
f 5 13 6
f 5 14 12
f 5 12 20
f 5 20 13
f 6 13 8
f 7 12 14
f 8 13 15
f 9 15 19
f 9 19 16
f 10 16 17
f 10 17 18
f 10 18 11
f 11 18 19
f 11 19 12
f 12 19 20
f 13 20 19
f 13 19 15
f 16 19 17
f 17 19 18
