v -0.0663893955978 0.0694707228487 -0.0140000079357
v -0.0663893955978 0.0694716061908 -0.0140000079357
v -0.0596891195102 0.0685586222869 -0.0140000079357
v -0.0590290773688 0.0684684730639 -0.0109988326856
v -0.0663893955978 0.0694707228487 -0.0110091109208
v -0.0839109457404 0.0718579141739 -0.0139985394695
v -0.0663893955978 0.0755248743172 -0.0139985394695
v -0.0839109457404 0.0774966717202 -0.0139985394695
v -0.080864038771 0.0774966717202 -0.0139985394695
v -0.0646041165413 0.0752809407928 -0.0139985394695
v -0.0590290773688 0.0745226250465 -0.0109988326856
v -0.0590290773688 0.0684684730639 -0.0103630654836
v -0.0839109457404 0.0718579141739 0.000999993935722
v -0.0663893955978 0.0694716061908 0.00099852546951
v -0.0839109457404 0.0774966717202 0.000999993935722
v -0.080864038771 0.0774966717202 0.000999993935722
v -0.0590290773688 0.0745226250465 0.00099852546951
v -0.0590290773688 0.0684693564059 0.00099852546951
v -0.06638695998 0.0737333758744 0.000999993935722
v -0.06638695998 0.0755239904609 0.000999993935722
f 1 2 3
f 1 3 4
f 1 4 12
f 1 12 5
f 1 5 13
f 1 13 6
f 1 6 8
f 1 8 2
f 2 7 3
f 2 8 9
f 2 9 7
f 3 10 11
f 3 11 4
f 3 7 10
f 4 11 17
f 4 17 18
f 4 18 12
f 5 12 14
f 5 14 13
f 6 13 15
f 6 15 8
f 7 9 11
f 7 11 10
f 8 15 16
f 8 16 9
f 9 16 17
f 9 17 11
f 12 18 14
f 13 14 18
f 13 18 19
f 13 19 20
f 13 20 16
f 13 16 15
f 16 20 17
f 17 20 19
f 17 19 18
