v -0.0699730072671 -0.127926965026 -0.0170596860812
v -0.0699730072671 -0.127925648545 -0.0234993842749
v -0.0701595893512 -0.127976979536 -0.0170596860812
v -0.0699730072671 -0.141298226536 -0.0170596860812
v -0.0704332003684 -0.128052004568 -0.0234993842749
v -0.0704332003684 -0.128052004568 -0.0170596860812
v -0.0699730072671 -0.140267642905 -0.0235000150614
v -0.0704332003684 -0.139485821223 -0.0235000150614
v -0.0704332003684 -0.14137193378 -0.0170596860812
v -0.0699730072671 -0.141298226536 -0.0235000150614
v -0.0704332003684 -0.141370617299 -0.0235000150614
f 1 2 3
f 1 3 6
f 1 6 9
f 1 9 4
f 1 4 10
f 1 10 7
f 1 7 2
f 2 5 6
f 2 6 3
f 2 7 8
f 2 8 5
f 4 9 10
f 5 8 11
f 5 11 9
f 5 9 6
f 7 10 11
f 7 11 8
f 9 11 10
