v -0.0974739339301 -0.0829601474755 0.000999435589036
v -0.0974739339301 -0.0829601474755 -0.00498015296716
v -0.103484309626 -0.0829601474755 0.000999435589036
v -0.0944221140608 -0.0881010046725 0.00100002122725
v -0.093892672434 -0.0889913757997 0.00100002122725
v -0.0938941079932 -0.0889886671587 -0.00498015296716
v -0.108536239794 -0.0829601474755 -0.00498015296716
v -0.108536239794 -0.0829601474755 0.00099885046499
v -0.108536239794 -0.0845341003106 0.000999435589036
v -0.0979144181917 -0.091676938866 0.00100002122725
v -0.0938811961874 -0.0900262298904 0.00100002122725
v -0.0938811961874 -0.0900262298904 -0.00498015296716
v -0.108536239794 -0.0848853726935 -0.00498015296716
v -0.108536239794 -0.0848853726935 0.000999435589036
v -0.0979144181917 -0.091676938866 -0.00498015296716
v -0.097011928621 -0.0921853355655 0.00100002122725
v -0.0943876791507 -0.0909283410329 0.00100002122725
v -0.0943905482124 -0.0909310496739 -0.00498015296716
v -0.0970147976827 -0.0921835298048 -0.00498015296716
v -0.0959774375334 -0.0921726931841 0.00100002122725
v -0.0959803065951 -0.0921726931841 -0.00498015296716
v -0.0950864283227 -0.0916444300321 0.00100002122725
v -0.0950864283227 -0.0916444300321 -0.00498015296716
f 1 2 7
f 1 7 8
f 1 8 3
f 1 3 4
f 1 4 5
f 1 5 6
f 1 6 2
f 2 6 12
f 2 12 18
f 2 18 23
f 2 23 21
f 2 21 19
f 2 19 15
f 2 15 13
f 2 13 7
f 3 8 9
f 3 9 4
f 4 9 10
f 4 10 16
f 4 16 20
f 4 20 22
f 4 22 17
f 4 17 11
f 4 11 5
f 5 11 12
f 5 12 6
f 7 13 14
f 7 14 9
f 7 9 8
f 9 14 10
f 10 14 13
f 10 13 15
f 10 15 16
f 11 17 12
f 12 17 18
f 15 19 16
f 16 19 21
f 16 21 20
f 17 22 23
f 17 23 18
f 20 21 23
f 20 23 22
