v 0.0191900238195 0.0163940317241 -0.00500558837272
v 0.0245625288002 0.0118909574613 -0.00500558837272
v 0.0317613121467 0.00587895806864 -0.00500646862977
v 0.0191900238195 0.0163940317241 -0.013999137962
v 0.00460637736605 0.0163940317241 -0.00500558837272
v 0.0188045699489 0.0118909574613 -0.00500558837272
v 0.0317613121467 0.00587895806864 -0.013999137962
v 0.0155667047851 0.00587895806864 -0.00500646862977
v 0.00460903459062 0.0163940317241 -0.013999137962
v 0.0155667047851 0.00587895806864 -0.013999137962
v 0.0121879573585 0.011895070812 -0.00500558837272
f 1 2 3
f 1 3 7
f 1 7 4
f 1 4 9
f 1 9 5
f 1 5 11
f 1 11 6
f 1 6 2
f 2 6 8
f 2 8 3
f 3 8 10
f 3 10 7
f 4 7 10
f 4 10 9
f 5 9 10
f 5 10 8
f 5 8 11
f 6 11 8
