v -0.0574322229797 -0.152128893595 -0.0162007312978
v -0.0568671222322 -0.152128893595 -0.0162007312978
v -0.0574322229797 -0.152128893595 -0.00850076930677
v -0.0574322229797 -0.145339894247 -0.0162007312978
v -0.0568671222322 -0.145339894247 -0.0162007312978
v -0.0568671222322 -0.152128893595 -0.00850076930677
v -0.0574322229797 -0.145339894247 -0.00850001497758
v -0.0568671222322 -0.145339894247 -0.00850001497758
f 1 2 6
f 1 6 3
f 1 3 7
f 1 7 4
f 1 4 5
f 1 5 2
f 2 5 8
f 2 8 6
f 3 6 8
f 3 8 7
f 4 7 8
f 4 8 5
