v -0.153349160855 -0.184305031904 -0.0139999725431
v -0.165538909234 -0.198156335135 -0.0139985051054
v -0.153349160855 -0.184299610509 -0.0139999725431
v -0.153308545636 -0.184299610509 -0.0139999725431
v -0.149321261525 -0.198156335135 -0.0139985051054
v -0.165538909234 -0.198156335135 0.000998561502148
v -0.153349160855 -0.184299610509 0.000998561502148
v -0.142486247579 -0.184299610509 -0.0139985051054
v -0.142840522193 -0.185444610859 -0.0139985051054
v -0.149321261525 -0.198156335135 0.00100002996812
v -0.152505216596 -0.198156335135 0.00100002996812
v -0.14732198418 -0.194228859134 0.00100002996812
v -0.142486247579 -0.184299610509 0.000998561502148
v -0.142840522193 -0.185444610859 0.000998561502148
f 1 2 3
f 1 3 4
f 1 4 5
f 1 5 2
f 2 6 7
f 2 7 3
f 2 5 10
f 2 10 11
f 2 11 6
f 3 7 13
f 3 13 8
f 3 8 4
f 4 8 9
f 4 9 5
f 5 9 14
f 5 14 10
f 6 11 7
f 7 11 12
f 7 12 13
f 8 13 14
f 8 14 9
f 10 14 12
f 10 12 11
f 12 14 13
