v -0.107884057704 0.146258853074 0.000999417038281
v -0.107884057704 0.146258853074 -0.00498075941643
v -0.112877032039 0.146258853074 0.00100000216242
v -0.0836690632355 0.121460711956 0.000999417038281
v -0.0691789862562 0.106625279078 0.00099883139997
v -0.117665926591 0.146258853074 -0.00498075941643
v -0.0691789862562 0.106625279078 -0.00498075941643
v -0.117665926591 0.146258853074 0.00100000216242
v -0.112858048926 0.142763368753 0.00100000216242
v -0.0822547030106 0.110469921062 0.000999417038281
v -0.0830283296766 0.106625279078 0.00099883139997
v -0.117665926591 0.144121214624 -0.00498075941643
v -0.0830140913131 0.106625279078 -0.00498075941643
v -0.117665926591 0.144121214624 0.00100000216242
v -0.0830283296766 0.106625279078 -0.00237910466811
v -0.0830283296766 0.106629160024 -0.00498075941643
f 1 2 6
f 1 6 8
f 1 8 3
f 1 3 4
f 1 4 5
f 1 5 7
f 1 7 2
f 2 7 13
f 2 13 16
f 2 16 12
f 2 12 6
f 3 8 14
f 3 14 9
f 3 9 10
f 3 10 4
f 4 10 5
f 5 10 11
f 5 11 15
f 5 15 13
f 5 13 7
f 6 12 14
f 6 14 8
f 9 14 10
f 10 14 11
f 11 14 12
f 11 12 15
f 12 16 15
f 13 15 16
