v -0.206055343 0.187286355253 -0.0139999914823
v -0.206041242434 0.184852115422 -0.0139999914823
v -0.206055343 0.187286355253 0.000998541922913
v -0.201784854041 0.194576701787 -0.0139985230161
v -0.190051200231 0.194576701787 -0.0139999914823
v -0.206041242434 0.184852115422 0.000998541922913
v -0.195822469885 0.184852115422 -0.0139999914823
v -0.201784854041 0.194576701787 0.00100001038912
v -0.190051200231 0.194576701787 0.000998541922913
v -0.195822469885 0.184852115422 0.000998541922913
v -0.194678867887 0.194576701787 0.00100001038912
f 1 2 6
f 1 6 3
f 1 3 8
f 1 8 4
f 1 4 5
f 1 5 7
f 1 7 2
f 2 7 10
f 2 10 6
f 3 6 8
f 4 8 11
f 4 11 9
f 4 9 5
f 5 9 10
f 5 10 7
f 6 10 11
f 6 11 8
f 9 11 10
