v -0.113896087 -0.196475998 -0.038500022
v -0.113896087 -0.196475998 -0.02350002
v -0.112098083 -0.181422204 -0.038500018
v -0.112098083 -0.181422204 -0.023500018
v -0.108103797 -0.21048665 -0.038500022
v -0.108103797 -0.21048665 -0.023500022
v -0.106489412 -0.167145208 -0.023500016
v -0.096200496 -0.219876021 -0.038500026
v -0.096200496 -0.219876021 -0.023500022
v -0.08122614 -0.2222462 -0.038500026
v -0.08122614 -0.2222462 -0.023500023
v -0.067004994 -0.216991842 -0.038500026
v -0.067004994 -0.216991842 -0.023500023
v -0.057168975 -0.205454886 -0.038500026
v -0.057168975 -0.205454886 -0.023500022
v -0.05238435 0.006143349 -0.033500001
v -0.05238435 0.00614335 -0.038500004
v -0.050933942 0.010352618 -0.033500001
v -0.050933942 0.010352619 -0.038500004
v -0.041536734 0.01147286 -0.045400005
v -0.041195676 0.012642903 -0.045400005
v -0.037243519 0.021675967 -0.045400005
v -0.036615644 0.022720519 -0.045400005
v -0.03595848 0.023746898 -0.045400005
v -0.03527255 0.024754284 -0.045400005
v -0.034823596 0.015209112 -0.023500001
v -0.034120537 -0.008946286 -0.049000006
v -0.034084924 -0.009923055 -0.049000006
v -0.033741061 0.010285356 -0.049000006
v -0.033666942 0.01125996 -0.049000006
v -0.033431176 -0.011941766 -0.049000006
v -0.032934062 0.01325131 -0.049000006
v -0.032657985 -0.013917812 -0.049000006
v -0.032083523 0.015195316 -0.049000006
v -0.031768106 -0.015844133 -0.049000006
v -0.031452484 -0.001729296 -0.021000003
v -0.031359788 0.002968727 -0.021000002
v -0.031131364 -0.016585691 -0.049000006
v -0.031118352 0.017085033 -0.049000002
v -0.030845292 -0.006388837 -0.021000003
v -0.030620232 -0.006980912 -0.021000003
v -0.030569255 0.007600688 -0.021000002
v -0.030452847 0.017800895 -0.049000002
v -0.029626232 0.008851375 -0.021000002
v -0.028722448 0.032123953 -0.045400005
v -0.028722448 0.032123953 -0.044599999
v -0.02780252 0.032923359 -0.045400005
v -0.02780252 0.032923359 -0.044599999
v -0.027257165 -0.015487824 -0.021000005
v -0.027079737 0.009817077 -0.021000002
v -0.026990211 -0.016241232 -0.021000005
v -0.026860349 0.033696424 -0.045400005
v -0.026860349 0.033696424 -0.044599999
v -0.02632851 0.017293336 -0.021000002
v -0.025896696 0.03444254 -0.045400005
v -0.025896696 0.03444254 -0.044599999
v -0.024273917 -0.020075517 -0.021000005
v -0.023773309 -0.015614775 -0.049000006
v -0.02346307 0.021017481 -0.021000002
v -0.022546932 0.030588169 -0.023499999
v -0.021017462 -0.023463069 -0.021000005
v -0.020075511 0.024273934 -0.021000002
v -0.017800871 -0.030452847 -0.04900001
v -0.01738983 0.039427426 -0.045400005
v -0.01738983 0.039427426 -0.044599999
v -0.017293319 -0.02632851 -0.021000005
v -0.017197607 -0.026387591 -0.021000005
v -0.01709873 -0.026441196 -0.021000005
v -0.017085014 -0.031118346 -0.04900001
v -0.016997 -0.026489159 -0.021000005
v -0.016585691 0.031131389 -0.049000002
v -0.016267898 0.039903428 -0.045400005
v -0.016267898 0.039903428 -0.044599999
v -0.01624123 0.026990233 -0.021
v -0.015844136 0.031768128 -0.049000002
v -0.015653636 0.027226752 -0.021
v -0.015195296 -0.032083519 -0.04900001
v -0.015132948 0.040347517 -0.045400005
v -0.015132948 0.040347517 -0.044599999
v -0.013985892 0.040759329 -0.045400005
v -0.013985892 0.040759329 -0.044599999
v -0.013917814 0.032658003 -0.049000002
v -0.013488105 -0.030828441 -0.04900001
v -0.013251288 -0.032934062 -0.04900001
v -0.01300978 -0.027676977 -0.04900001
v -0.01194177 0.033431195 -0.049000002
v -0.011848289 -0.030645385 -0.04900001
v -0.01125994 -0.033666942 -0.04900001
v -0.01028533 -0.033741057 -0.04900001
v -0.009923063 0.034084946 -0.049000002
v -0.009466749 0.03416203 -0.049000002
v -0.007675747 0.029952364 -0.021000002
v -0.007600667 -0.030569253 -0.021000007
v -0.007123348 0.030530063 -0.021
v -0.006388836 0.030845312 -0.021
v -0.004354978 0.042871464 -0.045400005
v -0.004354978 0.042871464 -0.044599999
v -0.00422395 0.037764523 -0.023500001
v -0.003140852 0.042977475 -0.045400005
v -0.003140852 0.042977475 -0.044599999
v -0.002968709 -0.031359788 -0.021000007
v -0.001924223 0.043049108 -0.045400005
v -0.001924223 0.043049108 -0.044599999
v -0.00172929 0.031452507 -0.021000002
v -0.000706053 0.043086305 -0.045400005
v -0.000706053 0.043086305 -0.044599999
v 0.00172932 -0.031452488 -0.021000007
v 0.002968724 0.031359807 -0.021000002
v 0.00533613 -0.028462363 -0.04900001
v 0.006388851 -0.030845294 -0.021000007
v 0.007600682 0.03056927 -0.021000002
v 0.007675777 -0.029952345 -0.021000007
v 0.007709035 0.030539073 -0.021000002
v 0.007815511 0.030502833 -0.021000002
v 0.007919774 0.030460667 -0.021000002
v 0.0089463 -0.034120537 -0.04900001
v 0.009106188 0.042118948 -0.045400005
v 0.009106189 0.042118948 -0.044599999
v 0.009923075 -0.034084924 -0.04900001
v 0.010285358 0.033741079 -0.049000002
v 0.010293643 0.041844588 -0.045400005
v 0.010293643 0.041844588 -0.044599999
v 0.011259953 0.033666965 -0.049000002
v 0.011472858 0.041536752 -0.045400005
v 0.011472858 0.041536752 -0.044599999
v 0.011477198 -0.028160155 -0.04900001
v 0.011941782 -0.033431172 -0.04900001
v 0.012261112 0.033315405 -0.049000006
v 0.012638682 -0.031128565 -0.04900001
v 0.012642901 0.041195698 -0.045400005
v 0.012642901 0.041195698 -0.044599999
v 0.013009801 0.027677001 -0.049000006
v 0.013251301 0.032934085 -0.049000006
v 0.013917826 -0.032657977 -0.04900001
v 0.013975337 -0.026849914 -0.021000007
v 0.014229664 0.032523341 -0.049000006
v 0.015195317 0.032083541 -0.049000006
v 0.015231755 0.034813713 -0.023500001
v 0.015751943 0.026607106 -0.021000002
v 0.015844157 -0.031768106 -0.04900001
v 0.016147388 0.031615078 -0.049000006
v 0.016241252 -0.026990216 -0.021000007
v 0.016551046 0.026624992 -0.021000002
v 0.016585719 -0.031131364 -0.04900001
v 0.017085025 0.031118371 -0.049000006
v 0.01729334 0.026328528 -0.021000002
v 0.017800892 0.030452872 -0.049000006
v 0.018115895 0.029527603 -0.049000006
v 0.020075526 -0.024273915 -0.021000007
v 0.021017477 0.023463085 -0.021000002
v 0.021675969 0.037243538 -0.045400005
v 0.021675969 0.037243538 -0.044600002
v 0.022720523 0.036615662 -0.045400005
v 0.022720523 0.036615662 -0.044600002
v 0.023463083 -0.021017462 -0.021000007
v 0.023746891 0.035958495 -0.045400005
v 0.023746891 0.035958495 -0.044600002
v 0.024273932 0.020075534 -0.021000003
v 0.024754276 0.035272568 -0.045400005
v 0.024754276 0.035272568 -0.044600002
v 0.02558816 -0.013226263 -0.021000007
v 0.026277721 -0.01502364 -0.021000007
v 0.026328532 -0.017293319 -0.021000007
v 0.026624994 -0.016551025 -0.021000007
v 0.026990226 0.016241251 -0.021000003
v 0.027257178 0.015487841 -0.021000003
v 0.027644552 0.026072584 -0.023500003
v 0.029626245 -0.008851358 -0.021000005
v 0.02975649 0.016939182 -0.049000006
v 0.02995237 0.007675769 -0.021000003
v 0.030452861 -0.017800871 -0.04900001
v 0.030530067 0.007123366 -0.021000005
v 0.030569268 -0.00760067 -0.021000005
v 0.030780036 0.01678383 -0.049000006
v 0.030845314 0.006388855 -0.021000005
v 0.031118372 -0.01708501 -0.04900001
v 0.031311639 0.010998874 -0.049000006
v 0.03135981 -0.002968709 -0.021000005
v 0.031452507 0.001729314 -0.021000005
v 0.031515051 0.01623161 -0.049000006
v 0.031768117 0.015844157 -0.049000006
v 0.032083537 -0.015195292 -0.04900001
v 0.032123953 0.028722472 -0.045400009
v 0.032123953 0.028722472 -0.044600002
v 0.032657996 0.013917835 -0.049000006
v 0.032923359 0.02780254 -0.045400009
v 0.032923359 0.02780254 -0.044600002
v 0.032934077 -0.013251286 -0.04900001
v 0.033431191 0.01194179 -0.049000006
v 0.033666957 -0.011259936 -0.04900001
v 0.033696417 0.026860371 -0.045400009
v 0.033696417 0.026860371 -0.044600002
v 0.033741083 -0.010285333 -0.04900001
v 0.034084938 0.009923078 -0.049000006
v 0.034120552 0.00894631 -0.049000006
v 0.034208186 -0.016546916 -0.023500007
v 0.03444254 0.025896719 -0.045400009
v 0.03444254 0.025896719 -0.044600002
v 0.035644859 0.013169861 -0.023500005
v 0.036615659 -0.022720497 -0.045400012
v 0.037243541 -0.021675944 -0.045400012
v 0.037243541 -0.021675944 -0.044600006
v 0.037955683 -0.001834973 -0.023500007
v 0.039427422 0.017389851 -0.045400009
v 0.039427422 0.017389851 -0.044600002
v 0.039903417 0.016267914 -0.045400009
v 0.039903417 0.016267914 -0.044600002
v 0.040347509 0.015132966 -0.044600002
v 0.040347509 0.015132967 -0.045400009
v 0.040759329 0.013985914 -0.045400009
v 0.040759329 0.013985914 -0.044600002
v 0.041195687 -0.012642881 -0.045400012
v 0.041195687 -0.012642881 -0.044600006
v 0.041536752 -0.011472838 -0.045400012
v 0.041536752 -0.011472838 -0.044600006
v 0.041844584 -0.010293618 -0.045400012
v 0.041844584 -0.010293618 -0.044600006
v 0.042118952 -0.009106164 -0.045400012
v 0.042118952 -0.009106164 -0.044600006
v 0.042871468 0.004354991 -0.045400009
v 0.042871468 0.004354991 -0.044600006
v 0.042977471 0.003140874 -0.045400009
v 0.042977471 0.003140874 -0.044600006
v 0.043049112 0.001924243 -0.045400009
v 0.043049112 0.001924243 -0.044600006
v 0.043086298 0.000706074 -0.045400009
v 0.043086298 0.000706074 -0.044600006
f 6 1 5
f 6 5 8
f 17 3 4
f 203 173 196
f 15 202 196
f 171 12 144
f 171 176 12
f 171 144 176
f 2 6 51
f 2 37 4
f 2 1 6
f 60 18 26
f 60 62 74
f 21 3 17
f 16 4 18
f 16 17 4
f 16 18 17
f 13 110 11
f 13 12 15
f 14 15 12
f 14 12 176
f 30 1 3
f 38 63 5
f 88 10 8
f 127 12 10
f 127 116 88
f 42 4 37
f 9 6 8
f 61 6 9
f 108 138 98
f 81 98 97
f 19 17 18
f 19 18 45
f 19 21 17
f 201 202 15
f 201 15 14
f 213 196 202
f 213 202 201
f 155 13 15
f 29 1 30
f 32 30 21
f 20 3 21
f 20 30 3
f 20 21 30
f 33 5 1
f 89 116 10
f 89 10 88
f 89 88 116
f 140 144 12
f 140 127 144
f 119 10 116
f 119 127 10
f 119 116 127
f 83 88 63
f 83 127 88
f 83 63 38
f 83 38 85
f 7 4 42
f 7 42 26
f 7 18 4
f 7 26 18
f 54 26 42
f 36 37 2
f 36 2 40
f 41 2 51
f 41 40 2
f 41 36 40
f 41 44 42
f 41 42 37
f 41 37 36
f 93 70 9
f 57 51 6
f 57 6 61
f 57 61 93
f 46 45 18
f 55 65 64
f 200 14 176
f 200 176 201
f 200 201 14
f 217 203 196
f 212 214 213
f 212 213 201
f 212 190 214
f 221 211 199
f 221 199 203
f 205 198 199
f 163 155 15
f 163 196 173
f 163 15 196
f 142 110 13
f 142 135 93
f 167 160 138
f 167 184 160
f 167 187 184
f 167 165 199
f 167 158 165
f 167 192 187
f 167 198 192
f 167 199 198
f 210 220 194
f 210 194 189
f 169 194 177
f 80 96 90
f 75 132 29
f 75 55 64
f 136 132 75
f 136 75 90
f 136 177 132
f 91 90 96
f 27 1 29
f 58 85 38
f 58 29 85
f 58 38 29
f 84 63 88
f 84 77 63
f 84 88 8
f 84 8 77
f 69 77 8
f 69 63 77
f 69 8 5
f 69 5 63
f 134 12 127
f 134 140 12
f 134 127 140
f 50 44 41
f 66 93 61
f 66 61 9
f 66 9 67
f 101 9 11
f 101 93 9
f 49 57 41
f 49 41 51
f 49 51 57
f 59 41 57
f 59 50 41
f 59 44 50
f 59 74 62
f 59 62 60
f 59 54 42
f 59 42 44
f 59 60 26
f 59 26 54
f 103 98 106
f 118 106 98
f 118 98 138
f 118 138 122
f 105 106 118
f 131 138 152
f 178 173 203
f 178 203 179
f 146 167 138
f 76 74 95
f 76 95 98
f 76 60 74
f 76 98 60
f 56 53 60
f 56 60 65
f 56 55 53
f 56 65 55
f 25 19 45
f 25 45 39
f 22 23 39
f 22 21 19
f 22 19 23
f 48 46 18
f 48 18 60
f 48 60 53
f 193 177 194
f 193 176 144
f 193 132 177
f 193 144 127
f 193 127 129
f 193 129 126
f 193 126 85
f 215 196 213
f 215 217 196
f 215 213 214
f 219 227 203
f 219 203 217
f 216 214 190
f 216 190 218
f 216 218 219
f 216 219 217
f 182 201 176
f 182 212 201
f 225 203 227
f 208 199 211
f 162 155 163
f 162 142 155
f 149 13 155
f 149 142 13
f 149 155 142
f 112 110 142
f 112 142 93
f 185 189 194
f 186 192 191
f 186 187 192
f 186 183 184
f 186 184 187
f 43 75 29
f 43 39 45
f 128 136 90
f 35 29 38
f 35 27 29
f 35 38 5
f 35 5 33
f 28 1 27
f 109 85 126
f 109 126 129
f 87 127 83
f 87 129 127
f 87 83 85
f 87 85 109
f 87 109 129
f 68 70 93
f 68 93 66
f 68 66 67
f 68 9 70
f 68 67 9
f 107 11 110
f 107 101 11
f 107 110 112
f 107 93 101
f 107 112 93
f 104 57 93
f 104 59 57
f 104 74 59
f 104 92 74
f 104 108 98
f 104 98 95
f 100 97 98
f 100 98 103
f 100 96 97
f 117 121 123
f 117 123 105
f 117 105 118
f 102 100 103
f 102 105 91
f 125 122 138
f 125 138 131
f 124 123 121
f 151 131 152
f 157 138 160
f 156 153 157
f 150 158 167
f 150 146 158
f 150 167 146
f 175 199 165
f 175 203 199
f 175 179 203
f 94 95 74
f 94 74 92
f 94 104 95
f 94 92 104
f 24 23 19
f 24 19 25
f 24 39 23
f 24 25 39
f 47 48 53
f 226 218 190
f 226 190 193
f 226 227 219
f 226 219 218
f 188 190 212
f 188 212 182
f 188 182 176
f 188 176 193
f 188 193 190
f 223 221 203
f 223 203 225
f 204 181 197
f 204 206 185
f 204 185 181
f 207 205 199
f 207 199 208
f 209 211 210
f 209 208 211
f 209 210 189
f 209 206 207
f 209 207 208
f 209 189 185
f 209 185 206
f 168 173 178
f 145 159 183
f 145 183 147
f 145 156 159
f 145 153 156
f 145 141 151
f 145 151 153
f 180 147 183
f 180 183 186
f 180 145 147
f 180 186 191
f 180 191 197
f 180 197 181
f 180 181 185
f 180 185 194
f 72 64 65
f 86 80 90
f 86 78 80
f 79 98 81
f 34 29 30
f 34 43 29
f 34 30 32
f 34 39 43
f 34 22 39
f 34 32 21
f 34 21 22
f 71 43 45
f 71 75 43
f 71 45 47
f 71 47 75
f 120 123 128
f 120 128 90
f 120 90 91
f 120 105 123
f 120 91 105
f 31 35 33
f 31 27 35
f 31 28 27
f 31 33 1
f 31 1 28
f 161 93 135
f 161 135 142
f 161 142 162
f 99 91 96
f 99 102 91
f 99 96 100
f 99 100 102
f 133 136 128
f 130 131 151
f 130 124 125
f 130 125 131
f 130 151 136
f 130 136 133
f 130 133 128
f 130 128 123
f 130 123 124
f 154 157 153
f 154 151 152
f 154 153 151
f 154 152 138
f 154 138 157
f 111 138 108
f 115 108 104
f 115 146 138
f 115 138 114
f 52 55 75
f 52 75 47
f 52 53 55
f 52 47 53
f 224 225 227
f 224 227 226
f 195 193 194
f 195 226 193
f 195 194 224
f 195 224 226
f 164 162 163
f 164 168 162
f 164 163 173
f 164 173 168
f 137 141 145
f 137 145 136
f 137 151 141
f 137 136 151
f 148 169 177
f 148 145 169
f 148 177 136
f 148 136 145
f 174 169 145
f 174 145 180
f 174 194 169
f 174 180 194
f 82 72 78
f 82 78 86
f 82 64 72
f 82 75 64
f 82 90 75
f 82 86 90
f 73 72 65
f 73 65 60
f 73 60 98
f 73 98 79
f 139 115 104
f 139 104 93
f 139 93 161
f 113 111 108
f 113 108 115
f 113 115 114
f 113 114 138
f 113 138 111
f 222 194 220
f 222 224 194
f 143 146 115
f 143 115 139
f 170 162 168
f 170 161 162
f 170 139 161
f 170 143 139
f 166 146 143
f 166 143 170
f 166 158 146
f 166 165 158
f 172 166 170
f 172 179 175
f 172 175 165
f 172 165 166
f 172 178 179
f 172 168 178
f 172 170 168
f 2 4 3
f 2 3 1
f 13 10 12
f 13 11 10
f 9 10 11
f 9 8 10
f 183 160 184
f 183 159 160
f 210 221 220
f 210 211 221
f 80 97 96
f 80 81 97
f 193 29 132
f 193 85 29
f 216 217 215
f 216 215 214
f 197 192 198
f 197 191 192
f 117 118 122
f 117 122 121
f 102 106 105
f 102 103 106
f 124 121 122
f 124 122 125
f 156 160 159
f 156 157 160
f 47 46 48
f 47 45 46
f 204 197 198
f 204 198 205
f 207 204 205
f 207 206 204
f 79 81 80
f 79 80 78
f 73 79 78
f 73 78 72
f 222 220 221
f 222 221 223
f 222 223 225
f 222 225 224
