v -0.0447508086978 0.166206307105 0.0659499962368
v -0.0530741085326 0.166504458 0.0659485281057
v -0.0547634015959 0.166054433319 0.0659485281057
v -0.0555979615896 0.159810845497 0.0659499962368
v -0.0447508086978 0.158338474692 0.0659499962368
v -0.0447508086978 0.166206307105 0.0509499958412
v -0.0530741085326 0.166503657914 0.0509499958412
v -0.0547634015959 0.166054433319 0.0509499958412
v -0.0555979615896 0.165102428064 0.0659485281057
v -0.0555597372332 0.158338474692 0.0659499962368
v -0.0555979615896 0.159810845497 0.0509499958412
v -0.0447508086978 0.158338474692 0.0509514639724
v -0.0447508086978 0.16396977339 0.0509499958412
v -0.0555979615896 0.165102428064 0.0509499958412
v -0.0555597372332 0.158338474692 0.0509499958412
v -0.0538226638878 0.158338474692 0.0509499958412
f 1 2 3
f 1 3 4
f 1 4 10
f 1 10 5
f 1 5 12
f 1 12 13
f 1 13 6
f 1 6 2
f 2 6 7
f 2 7 8
f 2 8 3
f 3 9 4
f 3 8 14
f 3 14 9
f 4 9 14
f 4 14 11
f 4 11 15
f 4 15 10
f 5 10 15
f 5 15 16
f 5 16 12
f 6 13 16
f 6 16 15
f 6 15 11
f 6 11 14
f 6 14 8
f 6 8 7
f 12 16 13
