v -0.193781211904 -0.204104165286 0.00100002791145
v -0.197374494666 -0.202111600929 0.000998559959641
v -0.195681768847 -0.203051912753 0.000998559959641
v -0.193781211904 -0.204104165286 -0.013997038182
v -0.193781211904 -0.200564561743 0.000998559959641
v -0.195890809298 -0.181232178419 0.000998559959641
v -0.204628321689 -0.181232178419 0.000998559959641
v -0.206029114827 -0.182651605032 0.000998559959641
v -0.206053136791 -0.187288239038 0.000998559959641
v -0.197374494666 -0.202111600929 -0.0139985066479
v -0.195681768847 -0.203051912753 -0.0139985066479
v -0.193781211904 -0.200739189907 -0.0139985066479
v -0.193781211904 -0.200564561743 -0.0139985066479
v -0.195890809298 -0.181232178419 -0.0139985066479
v -0.206020707139 -0.181232178419 0.000995623541865
v -0.206029114827 -0.18264936737 0.000995623541865
v -0.206053136791 -0.187288239038 -0.0139985066479
v -0.206029114827 -0.18264936737 -0.0139999745997
v -0.202649676908 -0.18264936737 -0.0139999745997
v -0.199994665749 -0.181232178419 -0.0139999745997
v -0.206020707139 -0.181232178419 -0.0139999745997
f 1 2 3
f 1 3 11
f 1 11 4
f 1 4 12
f 1 12 13
f 1 13 5
f 1 5 6
f 1 6 7
f 1 7 8
f 1 8 9
f 1 9 2
f 2 10 11
f 2 11 3
f 2 9 17
f 2 17 10
f 4 11 12
f 5 13 14
f 5 14 6
f 6 14 20
f 6 20 21
f 6 21 15
f 6 15 7
f 7 15 8
f 8 15 16
f 8 16 9
f 9 16 18
f 9 18 17
f 10 17 18
f 10 18 11
f 11 18 19
f 11 19 20
f 11 20 12
f 12 20 13
f 13 20 14
f 15 21 18
f 15 18 16
f 18 21 20
f 18 20 19
