v -0.078685431 -0.086938787 0.005000003
v -0.078685431 -0.086938786 -0.004999997
v -0.078144795 -0.091566052 -0.004999998
v -0.078144794 -0.091566053 0.005000003
v -0.076840002 -0.082661138 0.005000003
v -0.076840002 -0.082661137 -0.004999997
v -0.076459201 -0.087264984 0.002500003
v -0.076459201 -0.087264984 0.005000003
v -0.076053725 -0.090735435 0.002500002
v -0.076053725 -0.090735435 0.005000003
v -0.075362956 -0.095303065 -0.004999998
v -0.075362955 -0.095303066 0.005000002
v -0.07507513 -0.084056748 0.002500003
v -0.07507513 -0.084056748 0.005000003
v -0.073967346 -0.093538194 0.002500002
v -0.073967346 -0.093538194 0.005000002
v -0.073738256 -0.08766367 -0.004999998
v -0.073738255 -0.087663671 0.002500003
v -0.073497973 -0.089720234 0.002500002
v -0.073497973 -0.089720233 -0.004999998
v -0.072918065 -0.085762494 0.002500003
v -0.072918065 -0.085762493 -0.004999997
v -0.072272371 -0.081970369 0.002500003
v -0.072272371 -0.081970369 0.005000003
v -0.072261599 -0.091381128 0.002500002
v -0.072261599 -0.091381127 -0.004999998
v -0.071257171 -0.084526121 0.002500003
v -0.071257171 -0.08452612 -0.004999997
v -0.071085308 -0.097148495 0.005000002
v -0.071085308 -0.097148494 -0.004999999
v -0.07075911 -0.094922266 0.002500002
v -0.070759109 -0.094922266 0.005000002
v -0.070360423 -0.092201319 -0.004999998
v -0.070360422 -0.092201319 0.002500002
v -0.069200607 -0.084285838 -0.004999997
v -0.069200606 -0.084285838 0.002500003
v -0.068801921 -0.081564892 0.002500003
v -0.068801921 -0.081564892 0.005000003
v -0.06830386 -0.091961036 0.002500002
v -0.06830386 -0.091961035 -0.004999998
v -0.06729943 -0.085106029 0.002500003
v -0.06729943 -0.085106028 -0.004999998
v -0.06728866 -0.094516788 0.002500002
v -0.06728866 -0.094516788 0.005000002
v -0.066642966 -0.090724664 0.002500002
v -0.066642966 -0.090724663 -0.004999998
v -0.06645804 -0.096607858 0.005000002
v -0.06645804 -0.096607857 -0.004999999
v -0.066063058 -0.086766923 -0.004999998
v -0.066063058 -0.086766923 0.002500002
v -0.065822776 -0.088823486 -0.004999998
v -0.065822775 -0.088823486 0.002500002
v -0.065593684 -0.082948964 0.005000003
v -0.065593684 -0.082948963 0.002500003
v -0.064485899 -0.09243041 0.002500002
v -0.064485899 -0.09243041 0.005000002
v -0.064393255 -0.074017907 0.005000004
v -0.064393255 -0.074017906 -0.004999997
v -0.064213043 -0.075560328 0.005000004
v -0.064213043 -0.075560327 -0.004999997
v -0.063778113 -0.072592022 -0.004999997
v -0.063778112 -0.072592023 0.005000004
v -0.063507306 -0.085751723 0.002500002
v -0.063507306 -0.085751723 0.005000003
v -0.063285765 -0.076805999 -0.004999997
v -0.063285764 -0.076806 0.005000003
v -0.063101828 -0.089222173 0.002500002
v -0.063101828 -0.089222173 0.005000002
v -0.062721027 -0.09382602 0.005000002
v -0.062721027 -0.093826019 -0.004999999
v -0.060148214 -0.079287084 -0.004999997
v -0.060148213 -0.079287085 0.005000003
v -0.058722329 -0.079902227 0.005000003
v -0.058722329 -0.079902226 -0.004999997
v -0.05717991 -0.079722015 0.005000003
v -0.05717991 -0.079722014 -0.004999998
v -0.05593424 -0.078794735 -0.004999997
v -0.055934239 -0.078794736 0.005000003
v -0.042533821 -0.045726754 0.005000006
v -0.042533821 -0.045726753 -0.004999995
v -0.041288151 -0.044799472 -0.004999995
v -0.04128815 -0.044799473 0.005000006
v -0.039745728 -0.044619262 -0.004999995
v -0.039745727 -0.044619263 0.005000006
v -0.038319847 -0.045234406 0.005000006
v -0.038319847 -0.045234405 -0.004999995
v -0.035705712 -0.037739985 -0.004999994
v -0.035705711 -0.037739986 0.005000006
v -0.035525498 -0.039282408 -0.004999994
v -0.035525497 -0.039282409 0.005000006
v -0.035182296 -0.047715489 0.005000005
v -0.035182296 -0.047715488 -0.004999995
v -0.035090569 -0.036314106 0.005000006
v -0.035090569 -0.036314105 -0.004999994
v -0.034689948 -0.051929466 0.005000005
v -0.034689948 -0.051929465 -0.004999996
v -0.034598217 -0.04052808 0.005000006
v -0.034598217 -0.040528079 -0.004999995
v -0.034255016 -0.048961158 -0.004999995
v -0.034255015 -0.048961159 0.005000005
v -0.034074805 -0.050503582 0.005000005
v -0.034074805 -0.050503581 -0.004999996
v -0.03146067 -0.043009166 0.005000006
v -0.03146067 -0.043009165 -0.004999995
v -0.030034786 -0.043624308 -0.004999995
v -0.030034785 -0.043624309 0.005000005
v -0.028492363 -0.043444094 -0.004999995
v -0.028492362 -0.043444095 0.005000005
v -0.027246692 -0.042516814 0.005000005
v -0.027246692 -0.042516813 -0.004999995
v -0.013846274 -0.009448829 -0.004999992
v -0.013846273 -0.00944883 0.005000008
v -0.012600607 -0.008521553 0.005000008
v -0.012600607 -0.008521552 -0.004999992
v -0.011058188 -0.008341338 -0.004999992
v -0.011058187 -0.008341339 0.005000008
v -0.0096323 -0.00895648 -0.004999992
v -0.009632299 -0.008956481 0.005000008
v -0.007059486 0.005582452 0.005000009
v -0.007059486 0.005582453 -0.004999991
v -0.006678687 0.000978601 0.002500009
v -0.006678687 0.000978601 0.005000009
v -0.006494749 -0.011437568 0.005000008
v -0.006494749 -0.011437567 -0.004999993
v -0.006273207 -0.002491843 0.002500008
v -0.006273207 -0.002491843 0.005000009
v -0.006002401 -0.015651541 -0.004999993
v -0.0060024 -0.015651542 0.005000007
v -0.005567472 -0.012683242 0.005000008
v -0.005567472 -0.012683241 -0.004999993
v -0.005387258 -0.014225662 0.005000007
v -0.005387258 -0.014225661 -0.004999993
v -0.005294616 0.004186838 0.002500009
v -0.005294616 0.004186838 0.005000009
v -0.004186834 -0.005294608 0.002500008
v -0.004186834 -0.005294608 0.005000008
v -0.00395774 0.00057992 -0.004999992
v -0.003957739 0.00057992 0.002500009
v -0.003717459 -0.001476645 0.002500008
v -0.003717459 -0.001476644 -0.004999992
v -0.003322471 0.00836429 0.00500001
v -0.003322471 0.008364291 -0.004999991
v -0.00313755 0.002481097 -0.004999992
v -0.003137549 0.002481096 0.002500009
v -0.002491859 0.006273218 0.002500009
v -0.002491859 0.006273218 0.005000009
v -0.002481085 -0.003137541 0.002500008
v -0.002481085 -0.00313754 -0.004999992
v -0.001476653 0.00371747 0.002500009
v -0.001476653 0.003717471 -0.004999991
v -0.000978597 -0.006678679 0.002500008
v -0.000978597 -0.006678679 0.005000008
v -0.000579909 -0.003957731 -0.004999992
v -0.000579908 -0.003957731 0.002500008
v 0.000579911 0.003957751 0.002500009
v 0.000579911 0.003957752 -0.004999992
v 0.000978593 0.006678698 0.002500009
v 0.000978593 0.006678698 0.005000009
v 0.001304795 0.008904925 0.005000009
v 0.001304795 0.008904926 -0.004999991
v 0.001476656 -0.003717451 0.002500008
v 0.001476656 -0.00371745 -0.004999992
v 0.002481088 0.00313756 0.002500009
v 0.002481088 0.003137561 -0.004999992
v 0.002491854 -0.006273199 0.002500008
v 0.002491854 -0.006273199 0.005000008
v 0.003137552 -0.002481077 0.002500008
v 0.003137552 -0.002481076 -0.004999992
v 0.003717454 0.001476665 -0.004999992
v 0.003717455 0.001476664 0.002500008
v 0.003957742 -0.000579899 -0.004999992
v 0.003957743 -0.0005799 0.002500008
v 0.00418683 0.005294627 0.002500009
v 0.00418683 0.005294627 0.005000009
v 0.005294619 -0.004186819 0.002500008
v 0.005294619 -0.004186819 0.005000008
v 0.005582444 0.007059497 0.005000009
v 0.005582444 0.007059498 -0.004999991
v 0.00627321 0.002491862 0.002500008
v 0.00627321 0.002491862 0.005000009
v 0.00667869 -0.000978582 0.002500008
v 0.00667869 -0.000978582 0.005000008
v 0.007059489 -0.005582433 0.005000008
v 0.007059489 -0.005582432 -0.004999993
v 0.008364282 0.003322482 0.005000009
v 0.008364282 0.003322483 -0.004999992
v 0.008904917 -0.001304784 0.005000008
v 0.008904917 -0.001304783 -0.004999992
f 136 152 135
f 135 152 151
f 151 166 165
f 152 166 151
f 165 176 175
f 166 176 165
f 175 182 181
f 181 182 179
f 176 182 175
f 182 180 179
f 179 174 173
f 180 174 179
f 16 32 15
f 15 32 31
f 31 44 43
f 32 44 31
f 43 56 55
f 44 56 43
f 55 68 67
f 67 68 63
f 56 68 55
f 68 64 63
f 63 53 54
f 64 53 63
f 183 184 188
f 187 183 188
f 185 188 186
f 185 187 188
f 177 186 178
f 177 185 186
f 25 34 26
f 33 34 40
f 26 34 33
f 34 39 40
f 46 45 51
f 40 45 46
f 39 45 40
f 45 52 51
f 51 50 49
f 52 50 51
f 49 41 42
f 50 41 49
f 147 154 148
f 148 154 153
f 153 161 162
f 154 161 153
f 162 167 168
f 161 167 162
f 171 172 169
f 168 172 171
f 167 172 168
f 172 170 169
f 169 163 164
f 170 163 169
f 163 155 164
f 164 155 156
f 156 149 150
f 155 149 156
f 150 144 143
f 149 144 150
f 143 138 137
f 144 138 143
f 137 139 140
f 138 139 137
f 140 147 148
f 139 147 140
f 41 36 42
f 42 36 35
f 35 27 28
f 36 27 35
f 28 21 22
f 27 21 28
f 22 18 17
f 21 18 22
f 17 19 20
f 18 19 17
f 20 25 26
f 19 25 20
f 183 70 184
f 69 70 183
f 1 5 6
f 1 2 3
f 1 6 2
f 4 1 3
f 12 3 11
f 12 4 3
f 29 30 48
f 29 11 30
f 29 12 11
f 47 29 48
f 69 48 70
f 69 47 48
f 6 5 119
f 6 119 120
f 177 178 160
f 159 177 160
f 141 160 142
f 141 159 160
f 119 142 120
f 119 141 142
f 169 186 188
f 169 188 171
f 168 188 184
f 168 171 188
f 164 178 186
f 164 186 169
f 162 168 184
f 156 160 178
f 156 178 164
f 142 156 150
f 142 160 156
f 120 143 137
f 120 150 143
f 120 142 150
f 130 184 132
f 130 153 162
f 130 162 184
f 127 132 184
f 124 148 153
f 124 153 130
f 117 148 124
f 117 140 148
f 115 120 137
f 115 140 117
f 115 137 140
f 114 120 115
f 111 120 114
f 110 127 184
f 102 99 105
f 102 105 107
f 102 107 110
f 96 102 110
f 92 105 99
f 92 104 105
f 86 89 98
f 86 98 104
f 86 104 92
f 83 89 86
f 81 87 89
f 81 89 83
f 80 94 87
f 80 87 81
f 70 74 76
f 70 76 77
f 70 77 96
f 70 110 184
f 70 96 110
f 49 71 74
f 51 74 70
f 51 49 74
f 46 51 70
f 42 65 71
f 42 71 49
f 40 70 48
f 40 46 70
f 35 60 65
f 35 65 42
f 28 60 35
f 30 33 40
f 30 40 48
f 11 26 33
f 11 33 30
f 6 61 58
f 6 58 60
f 6 22 17
f 6 28 22
f 6 60 28
f 2 6 17
f 2 17 20
f 3 26 11
f 3 20 26
f 3 2 20
f 6 120 111
f 6 111 94
f 6 94 80
f 6 80 61
f 185 180 187
f 180 182 187
f 182 183 187
f 177 174 185
f 185 174 180
f 182 176 183
f 159 158 177
f 177 158 174
f 176 166 183
f 159 146 158
f 159 141 146
f 146 119 134
f 141 119 146
f 119 122 134
f 152 131 166
f 129 131 152
f 166 131 183
f 131 128 183
f 136 123 152
f 152 123 129
f 126 118 136
f 136 118 123
f 126 116 118
f 126 113 116
f 122 113 126
f 119 113 122
f 119 112 113
f 128 109 183
f 106 101 108
f 108 101 109
f 100 101 106
f 103 91 106
f 106 91 100
f 101 95 109
f 103 85 91
f 97 85 103
f 90 84 97
f 97 84 85
f 90 82 84
f 88 82 90
f 93 79 88
f 88 79 82
f 72 64 73
f 73 64 75
f 75 64 68
f 75 69 78
f 78 69 95
f 109 69 183
f 95 69 109
f 68 69 75
f 68 56 69
f 66 53 72
f 72 53 64
f 57 38 59
f 59 38 66
f 66 38 53
f 69 44 47
f 56 44 69
f 44 32 47
f 57 24 38
f 32 29 47
f 32 16 29
f 62 5 57
f 24 5 14
f 57 5 24
f 16 12 29
f 16 10 12
f 5 1 14
f 14 1 8
f 8 1 10
f 1 4 10
f 10 4 12
f 119 5 112
f 112 5 93
f 93 5 79
f 79 5 62
f 53 38 54
f 54 38 37
f 37 24 23
f 38 24 37
f 23 14 13
f 24 14 23
f 13 8 7
f 7 8 9
f 14 8 13
f 8 10 9
f 9 16 15
f 10 16 9
f 34 31 43
f 34 43 39
f 45 43 55
f 45 39 43
f 25 15 31
f 25 31 34
f 52 55 67
f 52 45 55
f 19 9 15
f 19 15 25
f 7 19 18
f 7 9 19
f 63 50 52
f 63 52 67
f 41 50 63
f 13 21 27
f 13 18 21
f 13 7 18
f 54 36 41
f 54 41 63
f 23 13 27
f 37 27 36
f 37 36 54
f 37 23 27
f 174 158 173
f 173 158 157
f 157 146 145
f 158 146 157
f 145 134 133
f 146 134 145
f 133 122 121
f 121 122 125
f 134 122 133
f 122 126 125
f 125 136 135
f 126 136 125
f 154 151 165
f 154 165 161
f 167 165 175
f 167 161 165
f 147 135 151
f 147 151 154
f 172 175 181
f 172 167 175
f 139 125 135
f 139 135 147
f 121 139 138
f 121 125 139
f 179 170 172
f 179 172 181
f 144 121 138
f 173 163 170
f 173 170 179
f 133 144 149
f 133 121 144
f 145 133 149
f 157 155 163
f 157 149 155
f 157 163 173
f 157 145 149
f 128 131 127
f 127 131 132
f 132 129 130
f 131 129 132
f 130 123 124
f 129 123 130
f 127 110 128
f 128 110 109
f 103 106 104
f 104 106 105
f 105 108 107
f 106 108 105
f 107 109 110
f 108 109 107
f 98 97 104
f 104 97 103
f 93 88 94
f 94 88 87
f 87 90 89
f 88 90 87
f 89 97 98
f 90 97 89
f 112 94 111
f 93 94 112
f 118 116 117
f 117 116 115
f 115 113 114
f 116 113 115
f 114 112 111
f 113 112 114
f 123 117 124
f 118 117 123
f 85 84 86
f 86 84 83
f 83 82 81
f 84 82 83
f 81 79 80
f 82 79 81
f 91 86 92
f 85 86 91
f 96 95 102
f 95 101 102
f 102 100 99
f 101 100 102
f 99 91 92
f 100 91 99
f 96 77 95
f 95 77 78
f 72 73 71
f 71 73 74
f 74 75 76
f 73 75 74
f 76 78 77
f 75 78 76
f 65 66 71
f 71 66 72
f 62 57 61
f 61 57 58
f 58 59 60
f 57 59 58
f 60 66 65
f 59 66 60
f 79 61 80
f 62 61 79
