v -0.012174222 -0.002835182 2e-09
v -0.012174222 -0.002835181 -0.009999998
v -0.011996467 0.003512072 3e-09
v -0.011996467 0.003512073 -0.009999997
v -0.009499327 0.000112764 3e-09
v -0.009499327 0.000112765 -0.009999998
v -0.009210501 -0.008450838 2e-09
v -0.009210501 -0.008450837 -0.009999999
v -0.008723106 0.008953059 3e-09
v -0.008723106 0.00895306 -0.009999997
v -0.008283042 -0.004652008 -0.009999998
v -0.008283041 -0.004652009 2e-09
v -0.008170273 0.004847322 3e-09
v -0.008170273 0.004847323 -0.009999997
v -0.004847321 -0.008170281 -0.009999999
v -0.00484732 -0.008170282 2e-09
v -0.004652 0.008283042 3e-09
v -0.004652 0.008283043 -0.009999997
v -0.003198809 0.012083772 -0.009999997
v -0.003198808 0.012083771 4e-09
v -0.000112764 -0.009499335 1e-09
v -0.000112764 -0.009499334 -0.009999999
v 0.000112772 0.009499328 -0.009999997
v 0.000112773 0.009499327 3e-09
v 0.003150923 0.012096348 3e-09
v 0.003150923 0.012096349 -0.009999997
v 0.00465201 -0.008283049 -0.009999999
v 0.004652011 -0.00828305 1e-09
v 0.004847331 0.008170274 3e-09
v 0.004847331 0.008170275 -0.009999998
v 0.006414232 -0.016064126 0
v 0.006414232 -0.016064125 -0.01
v 0.006588888 -0.017746072 0
v 0.006588888 -0.017746071 -0.01
v 0.006950154 -0.014460308 -0.01
v 0.006950155 -0.014460309 1e-09
v 0.007313611 -0.013945086 1e-09
v 0.007313611 -0.013945085 -0.01
v 0.007442909 -0.019205556 0
v 0.007442909 -0.019205555 -0.01
v 0.007753514 -0.013493377 -0.01
v 0.007753515 -0.013493378 1e-09
v 0.008170283 -0.004847329 1e-09
v 0.008170283 -0.004847328 -0.009999999
v 0.008258935 -0.01311641 1e-09
v 0.008258935 -0.013116409 -0.01
v 0.00828305 0.004652002 2e-09
v 0.00828305 0.004652003 -0.009999998
v 0.008687581 0.008987546 3e-09
v 0.008687581 0.008987547 -0.009999998
v 0.009499334 -0.000112772 2e-09
v 0.009499334 -0.000112771 -0.009999999
v 0.010011931 -0.011832641 -0.01
v 0.010011932 -0.011832642 1e-09
v 0.01156819 -0.010316356 -0.01
v 0.011568191 -0.010316357 1e-09
v 0.012897124 -0.008597348 1e-09
v 0.012897124 -0.008597347 -0.01
v 0.014671134 -0.007130341 1e-09
v 0.014671134 -0.00713034 -0.01
v 0.016959918 -0.006884033 1e-09
v 0.016959918 -0.006884032 -0.01
v 0.019005439 -0.007940002 1e-09
v 0.019005439 -0.007940001 -0.01
v 0.028543326 -0.042202752 -0.010000004
v 0.028543327 -0.042202753 -3e-09
v 0.030336963 -0.043328489 -3e-09
v 0.030336963 -0.043328488 -0.010000004
v 0.032453967 -0.043380765 -0.010000004
v 0.032453968 -0.043380765 -3e-09
v 0.034300983 -0.04234493 -3e-09
v 0.034300983 -0.042344929 -0.010000004
v 0.037068222 -0.050737011 -0.010000005
v 0.037068223 -0.050737012 -4e-09
v 0.037118172 -0.048714246 -4e-09
v 0.037118172 -0.048714245 -0.010000005
v 0.038014599 -0.052525429 -0.010000005
v 0.0380146 -0.05252543 -4e-09
v 0.038151669 -0.046974721 -4e-09
v 0.038151669 -0.04697472 -0.010000004
v 0.04139826 -0.029585429 -0.010000003
v 0.041398261 -0.02958543 -2e-09
v 0.041428535 -0.035307892 -3e-09
v 0.041428535 -0.035307891 -0.010000003
v 0.041661185 -0.035057689 -0.010000003
v 0.041661186 -0.03505769 -3e-09
v 0.041871642 -0.034788548 -3e-09
v 0.041871642 -0.034788547 -0.010000003
v 0.042058356 -0.034502425 -0.010000003
v 0.042058357 -0.034502426 -3e-09
v 0.042366843 -0.031065754 -3e-09
v 0.042366843 -0.031065753 -0.010000003
v 0.042602217 -0.032819064 -0.010000003
v 0.042602218 -0.032819065 -3e-09
v 0.045876747 -0.039347744 -3e-09
v 0.045876747 -0.039347743 -0.010000004
v 0.04764637 -0.038331932 -3e-09
v 0.04764637 -0.038331931 -0.010000004
v 0.04968679 -0.038321139 -0.010000004
v 0.049686791 -0.03832114 -4e-09
v 0.051467064 -0.039318172 -4e-09
v 0.051467064 -0.039318171 -0.010000004
v 0.058189793 -0.074514229 -7e-09
v 0.058189793 -0.074514228 -0.010000008
v 0.059788532 -0.075575759 -0.010000008
v 0.059788533 -0.07557576 -8e-09
v 0.061697689 -0.075770492 -0.010000008
v 0.06169769 -0.075770493 -8e-09
v 0.063477833 -0.075053612 -8e-09
v 0.063477833 -0.075053611 -0.010000008
v 0.064719204 -0.07359011 -0.010000008
v 0.064719204 -0.07359011 -8e-09
v 0.064894169 -0.073248703 -8e-09
v 0.064894169 -0.073248702 -0.010000008
v 0.065077534 -0.072911735 -8e-09
v 0.065077534 -0.072911734 -0.010000008
v 0.065269184 -0.072579398 -0.010000008
v 0.065269185 -0.072579399 -8e-09
v 0.066810186 -0.091305259 -0.01000001
v 0.066810187 -0.09130526 -9e-09
v 0.067058094 -0.070142043 -7e-09
v 0.067058094 -0.070142042 -0.010000008
v 0.068136496 -0.09259285 -1e-08
v 0.068136496 -0.092592849 -0.01000001
v 0.069100308 -0.080375426 -0.010000009
v 0.069100309 -0.080375427 -8e-09
v 0.069286136 -0.068098326 -0.010000008
v 0.069286137 -0.068098327 -7e-09
v 0.069602461 -0.093718871 -0.01000001
v 0.069602462 -0.093718872 -1e-08
v 0.070316587 -0.085140197 -9e-09
v 0.070316587 -0.085140196 -0.010000009
v 0.070429356 -0.075640867 -0.010000009
v 0.070429357 -0.075640868 -8e-09
v 0.071188513 -0.094668296 -0.01000001
v 0.071188514 -0.094668297 -1e-08
v 0.071868534 -0.066526023 -7e-09
v 0.071868534 -0.066526022 -0.010000008
v 0.072911502 -0.060046866 -7e-09
v 0.072911502 -0.060046865 -0.010000007
v 0.073338451 -0.06531355 -0.010000008
v 0.073338452 -0.065313551 -7e-09
v 0.07375231 -0.08865847 -9e-09
v 0.07375231 -0.088658469 -0.01000001
v 0.073926677 -0.061659369 -7e-09
v 0.073926677 -0.061659368 -0.010000007
v 0.073947628 -0.072205145 -0.010000008
v 0.073947629 -0.072205146 -8e-09
v 0.074080638 -0.063558583 -0.010000007
v 0.074080639 -0.063558584 -7e-09
v 0.078486868 -0.089987524 -0.01000001
v 0.078486869 -0.089987525 -1e-08
v 0.078712407 -0.070988867 -8e-09
v 0.078712407 -0.070988866 -0.010000008
v 0.083251639 -0.088771239 -1e-08
v 0.083251639 -0.088771238 -0.01000001
v 0.083446965 -0.072317914 -0.010000009
v 0.083446966 -0.072317915 -8e-09
v 0.086201565 -0.065939282 -0.010000008
v 0.086201566 -0.065939282 -8e-09
v 0.086654815 -0.095839788 -0.010000011
v 0.086654816 -0.095839789 -1.1e-08
v 0.086769911 -0.085335523 -0.01000001
v 0.086769912 -0.085335524 -1e-08
v 0.08688268 -0.075836186 -0.010000009
v 0.086882681 -0.075836187 -9e-09
v 0.08708424 -0.066742954 -0.010000008
v 0.087084241 -0.066742955 -8e-09
v 0.087214622 -0.093774466 -1.1e-08
v 0.087214622 -0.093774465 -0.010000011
v 0.087239723 -0.097898146 -1.1e-08
v 0.087239723 -0.097898145 -0.010000011
v 0.087490913 -0.093367956 -1e-08
v 0.087490913 -0.093367955 -0.010000011
v 0.087814964 -0.092998411 -1e-08
v 0.087814964 -0.09299841 -0.010000011
v 0.088013295 -0.067492528 -8e-09
v 0.088013295 -0.067492527 -0.010000008
v 0.088098967 -0.080600965 -9e-09
v 0.088098967 -0.080600964 -0.01000001
v 0.088181899 -0.092671392 -0.010000011
v 0.0881819 -0.092671393 -1e-08
v 0.088801964 -0.099360465 -1.1e-08
v 0.088801964 -0.099360464 -0.010000012
v 0.08898541 -0.068185346 -8e-09
v 0.08898541 -0.068185345 -0.010000009
v 0.090859481 -0.089972196 -1e-08
v 0.090859481 -0.089972195 -0.010000011
v 0.09279943 -0.086702375 -1e-08
v 0.09279943 -0.086702374 -0.010000011
v 0.093885016 -0.083058667 -1e-08
v 0.093885016 -0.083058666 -0.01000001
v 0.093996146 -0.082579885 -1e-08
v 0.093996146 -0.082579884 -0.01000001
v 0.094165167 -0.082118351 -0.01000001
v 0.094165168 -0.082118352 -1e-08
v 0.09438951 -0.081681035 -1e-08
v 0.09438951 -0.081681034 -0.01000001
v 0.095933829 -0.080199803 -1e-08
v 0.095933829 -0.080199802 -0.01000001
v 0.098020697 -0.079726574 -1e-08
v 0.098020697 -0.079726573 -0.01000001
v 0.100052878 -0.080396786 -1e-08
v 0.100052878 -0.080396785 -0.01000001
v 0.113748843 -0.112398778 -1.3e-08
v 0.113748843 -0.112398777 -0.010000014
v 0.11547893 -0.112851863 -0.010000014
v 0.115478931 -0.112851864 -1.4e-08
v 0.117233523 -0.112505717 -0.010000014
v 0.117233524 -0.112505718 -1.4e-08
v 0.118661914 -0.111429531 -1.4e-08
v 0.118661914 -0.11142953 -0.010000014
v 0.119478533 -0.109838435 -0.010000014
v 0.119478534 -0.109838436 -1.3e-08
v 0.119911257 -0.108422137 -0.010000014
v 0.119911258 -0.108422138 -1.3e-08
v 0.12047716 -0.1070536 -1.3e-08
v 0.12047716 -0.107053599 -0.010000014
v 0.121171084 -0.105745311 -1.3e-08
v 0.121171084 -0.10574531 -0.010000014
v 0.121986696 -0.104509226 -0.010000013
v 0.121986697 -0.104509227 -1.3e-08
v 0.122916567 -0.103356616 -1.3e-08
v 0.122916567 -0.103356615 -0.010000013
v 0.12345302 -0.09604217 -1.2e-08
v 0.12345302 -0.096042169 -0.010000013
v 0.123952181 -0.102298007 -1.3e-08
v 0.123952181 -0.102298006 -0.010000013
v 0.124679903 -0.097343409 -1.2e-08
v 0.124679903 -0.097343408 -0.010000013
v 0.124957201 -0.10081869 -1.3e-08
v 0.124957201 -0.100818689 -0.010000013
v 0.1250022 -0.113541338 -0.010000014
v 0.125002201 -0.113541339 -1.4e-08
v 0.125217089 -0.09904925 -1.3e-08
v 0.125217089 -0.099049249 -0.010000013
v 0.126218494 -0.118306109 -0.010000015
v 0.126218495 -0.11830611 -1.5e-08
v 0.126331256 -0.108806781 -1.4e-08
v 0.126331256 -0.10880678 -0.010000014
v 0.128711598 -0.124732311 -1.5e-08
v 0.128711598 -0.12473231 -0.010000016
v 0.12965421 -0.12182439 -1.5e-08
v 0.12965421 -0.121824389 -0.010000015
v 0.129849536 -0.105371066 -1.3e-08
v 0.129849536 -0.105371065 -0.010000014
v 0.134388768 -0.123153438 -1.5e-08
v 0.134388768 -0.123153437 -0.010000016
v 0.134614306 -0.104154778 -0.010000014
v 0.134614307 -0.104154779 -1.3e-08
v 0.134802068 -0.126150493 -1.6e-08
v 0.134802068 -0.126150492 -0.010000016
v 0.139153539 -0.121937159 -1.5e-08
v 0.139153539 -0.121937158 -0.010000016
v 0.139348865 -0.105483827 -1.4e-08
v 0.139348865 -0.105483826 -0.010000014
v 0.140817312 -0.124441187 -1.6e-08
v 0.140817312 -0.124441186 -0.010000016
v 0.141449206 -0.103262772 -0.010000014
v 0.141449207 -0.103262773 -1.4e-08
v 0.142671818 -0.118501435 -0.010000016
v 0.142671819 -0.118501436 -1.5e-08
v 0.14278458 -0.109002099 -1.4e-08
v 0.14278458 -0.109002098 -0.010000015
v 0.144000874 -0.113766878 -1.5e-08
v 0.144000874 -0.113766877 -0.010000015
v 0.145251912 -0.120032166 -0.010000016
v 0.145251913 -0.120032167 -1.5e-08
v 0.145613041 -0.107928338 -1.4e-08
v 0.145613041 -0.107928337 -0.010000015
v 0.146995976 -0.114026902 -1.5e-08
v 0.146995976 -0.114026901 -0.010000015
f 197 198 199
f 199 200 201
f 198 200 199
f 201 202 203
f 200 202 201
f 202 204 203
f 170 174 169
f 169 174 173
f 173 176 175
f 174 176 173
f 175 181 182
f 176 181 175
f 90 94 89
f 89 94 93
f 93 91 92
f 94 91 93
f 92 82 81
f 91 82 92
f 35 38 36
f 36 38 37
f 37 41 42
f 38 41 37
f 42 46 45
f 41 46 42
f 215 214 216
f 215 213 214
f 218 216 217
f 218 215 216
f 220 217 219
f 220 218 217
f 114 112 113
f 114 111 112
f 116 113 115
f 116 114 113
f 117 115 118
f 117 116 115
f 163 156 164
f 164 156 155
f 155 151 152
f 156 151 155
f 152 144 143
f 151 144 152
f 143 132 131
f 131 132 126
f 144 132 143
f 132 125 126
f 126 133 134
f 125 133 126
f 13 5 14
f 14 5 6
f 6 12 11
f 5 12 6
f 11 16 15
f 12 16 11
f 22 21 27
f 15 21 22
f 16 21 15
f 21 28 27
f 27 43 44
f 28 43 27
f 251 252 258
f 251 242 252
f 251 241 242
f 257 258 267
f 257 251 258
f 268 257 267
f 239 234 240
f 240 234 233
f 233 238 237
f 234 238 233
f 237 243 244
f 238 243 237
f 248 247 254
f 244 247 248
f 243 247 244
f 247 253 254
f 254 262 261
f 253 262 254
f 254 258 252
f 248 252 242
f 248 254 252
f 261 267 258
f 261 258 254
f 244 248 242
f 272 267 261
f 237 244 242
f 266 272 261
f 270 266 264
f 270 272 266
f 209 233 237
f 207 237 242
f 207 209 237
f 212 233 209
f 206 207 242
f 213 240 233
f 213 233 212
f 259 264 256
f 259 270 264
f 215 240 213
f 249 259 256
f 218 240 215
f 220 240 218
f 221 240 220
f 224 240 221
f 228 246 240
f 228 240 224
f 232 246 228
f 236 249 246
f 236 246 232
f 230 259 249
f 230 249 236
f 226 259 230
f 135 184 206
f 135 161 172
f 135 172 184
f 135 206 242
f 156 181 176
f 156 176 174
f 156 174 170
f 156 170 161
f 151 156 161
f 151 161 135
f 144 135 129
f 144 129 124
f 144 124 119
f 144 151 135
f 163 181 156
f 163 190 188
f 163 188 181
f 192 190 163
f 180 200 198
f 180 198 195
f 180 195 194
f 180 194 192
f 180 192 163
f 132 144 119
f 165 200 180
f 125 132 119
f 107 125 119
f 110 133 125
f 110 125 107
f 186 226 204
f 186 204 202
f 186 202 200
f 186 165 157
f 186 200 165
f 186 259 226
f 105 107 119
f 111 133 110
f 178 186 157
f 114 133 111
f 116 133 114
f 104 105 119
f 117 133 116
f 167 178 157
f 159 157 154
f 159 167 157
f 122 147 133
f 122 133 117
f 127 147 122
f 138 147 127
f 141 154 147
f 141 147 138
f 149 154 141
f 149 159 154
f 146 159 149
f 140 159 146
f 77 104 119
f 102 159 140
f 69 80 76
f 72 80 69
f 68 69 76
f 68 76 73
f 96 80 72
f 65 77 119
f 65 68 73
f 65 73 77
f 84 96 72
f 85 96 84
f 88 96 85
f 89 98 96
f 89 96 88
f 93 99 98
f 93 98 89
f 92 102 99
f 92 99 93
f 81 102 92
f 22 35 32
f 22 32 34
f 27 55 53
f 27 53 46
f 27 46 41
f 27 41 38
f 27 38 35
f 27 35 22
f 15 22 34
f 44 55 27
f 44 60 58
f 44 58 55
f 8 65 119
f 8 34 40
f 8 40 65
f 8 15 34
f 52 60 44
f 52 62 60
f 11 15 8
f 2 11 8
f 48 62 52
f 6 11 2
f 4 6 2
f 50 81 64
f 50 64 62
f 50 62 48
f 30 50 48
f 14 6 4
f 10 18 14
f 10 14 4
f 26 30 23
f 26 50 30
f 19 18 10
f 19 26 23
f 19 23 18
f 50 159 81
f 81 159 102
f 257 253 251
f 251 247 241
f 253 247 251
f 268 262 257
f 257 262 253
f 247 243 241
f 268 271 262
f 243 238 241
f 271 265 262
f 271 269 265
f 265 269 263
f 234 210 238
f 210 208 238
f 238 208 241
f 234 211 210
f 208 205 241
f 239 214 234
f 234 214 211
f 263 260 255
f 269 260 263
f 239 216 214
f 260 250 255
f 239 217 216
f 239 219 217
f 239 222 219
f 239 223 222
f 245 227 239
f 239 227 223
f 245 231 227
f 250 235 245
f 245 235 231
f 260 229 250
f 250 229 235
f 260 225 229
f 171 136 183
f 162 136 171
f 183 136 205
f 205 136 241
f 162 152 136
f 173 155 169
f 175 155 173
f 182 155 175
f 169 155 162
f 162 155 152
f 136 143 130
f 130 143 123
f 123 143 120
f 152 143 136
f 189 164 187
f 187 164 182
f 182 164 155
f 189 191 164
f 199 179 197
f 193 179 191
f 196 179 193
f 197 179 196
f 191 179 164
f 143 131 120
f 199 166 179
f 131 126 120
f 126 108 120
f 126 109 108
f 134 109 126
f 225 185 203
f 201 185 199
f 203 185 201
f 199 185 166
f 166 185 158
f 260 185 225
f 108 106 120
f 134 112 109
f 185 177 158
f 134 113 112
f 134 115 113
f 106 103 120
f 134 118 115
f 177 168 158
f 158 160 153
f 168 160 158
f 148 121 134
f 134 121 118
f 148 128 121
f 148 137 128
f 148 142 137
f 153 142 148
f 153 150 142
f 160 150 153
f 160 145 150
f 160 139 145
f 103 78 120
f 160 101 139
f 79 70 75
f 79 71 70
f 70 67 75
f 75 67 74
f 79 95 71
f 67 66 74
f 74 66 78
f 78 66 120
f 95 83 71
f 95 86 83
f 95 87 86
f 97 90 95
f 95 90 87
f 100 94 97
f 97 94 90
f 101 91 100
f 100 91 94
f 101 82 91
f 31 21 33
f 36 21 31
f 56 28 54
f 54 28 45
f 36 28 21
f 37 28 36
f 42 28 37
f 45 28 42
f 21 16 33
f 57 43 56
f 56 43 28
f 59 43 57
f 66 7 120
f 16 7 33
f 33 7 39
f 39 7 66
f 16 12 7
f 61 51 59
f 59 51 43
f 12 1 7
f 61 47 51
f 12 5 1
f 5 3 1
f 63 49 61
f 61 49 47
f 82 49 63
f 49 29 47
f 5 13 3
f 13 9 3
f 17 9 13
f 29 25 24
f 49 25 29
f 25 20 24
f 17 20 9
f 24 20 17
f 160 49 82
f 160 82 101
f 135 242 136
f 136 242 241
f 123 120 119
f 123 119 124
f 130 124 129
f 130 123 124
f 136 129 135
f 136 130 129
f 8 119 7
f 7 119 120
f 49 50 26
f 25 49 26
f 20 26 19
f 20 25 26
f 9 10 4
f 9 19 10
f 9 20 19
f 3 9 4
f 1 4 2
f 1 3 4
f 7 2 8
f 7 1 2
f 159 49 160
f 159 50 49
f 259 186 185
f 259 185 260
f 261 262 266
f 262 265 266
f 266 263 264
f 265 263 266
f 264 255 256
f 263 255 264
f 256 250 249
f 255 250 256
f 249 245 246
f 250 245 249
f 246 239 240
f 245 239 246
f 271 268 267
f 271 267 272
f 269 272 270
f 269 271 272
f 260 270 259
f 260 269 270
f 44 43 52
f 43 51 52
f 52 47 48
f 51 47 52
f 48 29 30
f 47 29 48
f 30 24 23
f 29 24 30
f 23 17 18
f 24 17 23
f 18 13 14
f 17 13 18
f 160 168 159
f 159 168 167
f 167 177 178
f 168 177 167
f 178 185 186
f 177 185 178
f 133 147 134
f 134 147 148
f 148 154 153
f 147 154 148
f 153 157 158
f 154 157 153
f 158 165 166
f 166 165 179
f 157 165 158
f 165 180 179
f 179 163 164
f 180 163 179
f 55 57 56
f 55 58 57
f 53 56 54
f 53 55 56
f 46 54 45
f 46 53 54
f 65 40 39
f 65 39 66
f 84 72 83
f 83 72 71
f 64 81 63
f 63 81 82
f 122 117 118
f 122 118 121
f 122 121 128
f 127 122 128
f 138 128 137
f 138 127 128
f 102 140 101
f 101 140 139
f 80 95 79
f 80 96 95
f 104 77 78
f 104 78 103
f 221 220 219
f 221 219 222
f 224 222 223
f 224 221 222
f 228 223 227
f 228 224 223
f 204 225 203
f 204 226 225
f 190 191 189
f 190 192 191
f 188 189 187
f 188 190 189
f 181 187 182
f 181 188 187
f 206 184 205
f 205 184 183
f 80 79 76
f 76 75 73
f 79 75 76
f 73 74 77
f 75 74 73
f 74 78 77
f 96 98 95
f 95 98 97
f 97 99 100
f 98 99 97
f 100 102 101
f 99 102 100
f 40 34 39
f 39 34 33
f 33 34 31
f 31 32 36
f 34 32 31
f 32 35 36
f 58 60 57
f 57 60 59
f 59 62 61
f 60 62 59
f 61 64 63
f 62 64 61
f 72 69 71
f 71 69 70
f 70 68 67
f 69 68 70
f 67 65 66
f 68 65 67
f 83 86 84
f 84 86 85
f 85 87 88
f 88 87 89
f 86 87 85
f 87 90 89
f 111 110 112
f 112 110 109
f 109 107 108
f 110 107 109
f 108 105 106
f 107 105 108
f 106 104 103
f 105 104 106
f 139 140 145
f 145 146 150
f 140 146 145
f 146 149 150
f 150 141 142
f 149 141 150
f 142 138 137
f 141 138 142
f 183 184 171
f 171 172 162
f 184 172 171
f 162 161 169
f 172 161 162
f 161 170 169
f 192 194 191
f 191 194 193
f 193 195 196
f 196 195 197
f 194 195 193
f 195 198 197
f 213 212 214
f 214 212 211
f 211 209 210
f 212 209 211
f 210 207 208
f 209 207 210
f 208 206 205
f 207 206 208
f 226 230 225
f 225 230 229
f 229 236 235
f 230 236 229
f 235 232 231
f 236 232 235
f 231 228 227
f 232 228 231
