v -0.055240913 -0.106813798 0.003749976
v -0.055240913 -0.106813797 -0.006250025
v -0.054541817 -0.10220781 0.003749976
v -0.054541817 -0.102207809 -0.006250024
v -0.05354335 -0.111152252 -0.006250025
v -0.053543349 -0.111152253 0.003749975
v -0.053004799 -0.106564178 -0.006250025
v -0.053004799 -0.106564178 -0.003750024
v -0.052480484 -0.103109695 -0.006250024
v -0.052480484 -0.103109695 -0.003750024
v -0.051731628 -0.109818024 -0.003750025
v -0.051731628 -0.109818023 -0.006250025
v -0.050299164 -0.100380172 -0.006250024
v -0.050299164 -0.100380172 -0.003750024
v -0.050271774 -0.106259094 -0.003750025
v -0.050271774 -0.106259094 0.003749976
v -0.049961067 -0.10421199 -0.003750024
v -0.049961067 -0.10421199 0.003749976
v -0.049903983 -0.114060685 0.003749975
v -0.049903983 -0.114060684 -0.006250025
v -0.049517303 -0.108187302 0.003749976
v -0.049517303 -0.108187301 -0.003750025
v -0.049002105 -0.111999344 -0.003750025
v -0.049002105 -0.111999343 -0.006250025
v -0.048668434 -0.102594498 0.003749976
v -0.048668434 -0.102594497 -0.003750024
v -0.04789981 -0.109479935 0.003749975
v -0.04789981 -0.109479934 -0.003750025
v -0.047045319 -0.099106993 -0.006250024
v -0.047045319 -0.099106993 -0.003750024
v -0.046740234 -0.101840027 0.003749976
v -0.046740234 -0.101840026 -0.003750024
v -0.045852706 -0.109790634 0.003749975
v -0.045852706 -0.109790633 -0.003750025
v -0.045547614 -0.112523666 -0.003750025
v -0.045547614 -0.112523665 -0.006250025
v -0.045297995 -0.114759766 0.003749975
v -0.045297995 -0.114759765 -0.006250026
v -0.044693123 -0.102150725 -0.003750024
v -0.044693122 -0.102150726 0.003749976
v -0.043924499 -0.109036162 -0.003750025
v -0.043924498 -0.109036163 0.003749975
v -0.043590828 -0.099631316 -0.003750024
v -0.043590828 -0.099631315 -0.006250024
v -0.043248895 -0.088047042 0.003749977
v -0.043248895 -0.088047041 -0.006250023
v -0.04307563 -0.103443358 -0.003750025
v -0.043075629 -0.103443359 0.003749976
v -0.042860513 -0.085488142 0.003749978
v -0.042860513 -0.085488141 -0.006250023
v -0.042631866 -0.107418669 -0.003750025
v -0.042631865 -0.10741867 0.003749975
v -0.042321159 -0.105371565 -0.003750025
v -0.042321158 -0.105371566 0.003749976
v -0.042305802 -0.090457289 0.003749977
v -0.042305802 -0.090457288 -0.006250023
v -0.042293776 -0.111250487 -0.006250025
v -0.042293776 -0.111250487 -0.003750025
v -0.040959548 -0.113062209 -0.006250026
v -0.040959547 -0.11306221 0.003749975
v -0.040861313 -0.101812635 -0.006250025
v -0.040861312 -0.101812636 -0.003750024
v -0.040283936 -0.092073073 0.003749977
v -0.040283936 -0.092073072 -0.006250024
v -0.040112456 -0.108520964 -0.006250025
v -0.040112456 -0.108520964 -0.003750025
v -0.039588134 -0.105066481 -0.006250025
v -0.039588134 -0.105066481 -0.003750025
v -0.038051116 -0.10942285 -0.006250025
v -0.038051115 -0.109422851 0.003749975
v -0.037725052 -0.092461455 0.003749977
v -0.037725052 -0.092461454 -0.006250024
v -0.035314805 -0.091518369 -0.006250024
v -0.035314804 -0.09151837 0.003749977
v -0.033699006 -0.089496503 -0.006250024
v -0.033699005 -0.089496504 0.003749977
v -0.031737323 -0.060064983 0.00374998
v -0.031737323 -0.060064982 -0.006250021
v -0.030121532 -0.058043117 0.00374998
v -0.030121532 -0.058043116 -0.006250021
v -0.027711284 -0.057100032 0.00374998
v -0.027711284 -0.057100031 -0.006250021
v -0.025152401 -0.057488413 -0.006250021
v -0.0251524 -0.057488414 0.00374998
v -0.024109006 -0.044300867 -0.00625002
v -0.024109005 -0.044300868 0.003749981
v -0.023720624 -0.041741984 0.003749981
v -0.023720624 -0.041741983 -0.006250019
v -0.023165906 -0.046711114 -0.00625002
v -0.023165905 -0.046711115 0.003749981
v -0.023130534 -0.059104198 0.003749979
v -0.023130534 -0.059104197 -0.006250021
v -0.022575831 -0.064073345 0.003749979
v -0.022575831 -0.064073344 -0.006250022
v -0.022187434 -0.061514461 0.003749979
v -0.022187434 -0.06151446 -0.006250021
v -0.021144039 -0.048326914 0.00374998
v -0.021144039 -0.048326913 -0.00625002
v -0.018585156 -0.048715295 -0.00625002
v -0.018585155 -0.048715296 0.00374998
v -0.016174908 -0.047772195 -0.00625002
v -0.016174907 -0.047772196 0.00374998
v -0.014559124 -0.04575033 0.00374998
v -0.014559124 -0.045750329 -0.00625002
v -0.012597442 -0.016318808 -0.006250017
v -0.012597441 -0.016318809 0.003749983
v -0.010981643 -0.014296943 0.003749983
v -0.010981643 -0.014296942 -0.006250017
v -0.008571395 -0.013353858 0.003749983
v -0.008571395 -0.013353857 -0.006250017
v -0.008245332 0.003607531 -0.006250015
v -0.008245331 0.00360753 0.003749985
v -0.006708313 -0.000748846 -0.006250016
v -0.006708313 -0.000748846 -0.003750016
v -0.006183991 0.002705653 -0.006250016
v -0.006183991 0.002705653 -0.003750015
v -0.006012511 -0.01374224 0.003749983
v -0.006012511 -0.013742239 -0.006250017
v -0.005435135 -0.004002683 -0.006250016
v -0.005435135 -0.004002683 -0.003750016
v -0.0053369 0.007246889 0.003749985
v -0.0053369 0.00724689 -0.006250015
v -0.004002671 0.005435168 -0.006250015
v -0.004002671 0.005435168 -0.003750015
v -0.003990645 -0.015358039 0.003749983
v -0.003990645 -0.015358038 -0.006250017
v -0.003975281 -0.000443754 -0.003750016
v -0.003975281 -0.000443754 0.003749984
v -0.003664582 0.00160335 -0.003750016
v -0.003664581 0.00160335 0.003749985
v -0.003435927 -0.020327169 -0.006250018
v -0.003435926 -0.02032717 0.003749982
v -0.00322081 -0.002371954 0.003749984
v -0.00322081 -0.002371953 -0.003750016
v -0.003047545 -0.017768287 0.003749983
v -0.003047545 -0.017768286 -0.006250018
v -0.002705612 -0.006184003 -0.006250017
v -0.002705612 -0.006184003 -0.003750016
v -0.002371949 0.003220843 -0.003750016
v -0.002371949 0.003220843 0.003749985
v -0.001603317 -0.003664587 0.003749984
v -0.001603317 -0.003664586 -0.003750016
v -0.000998445 0.008944454 -0.006250015
v -0.000998444 0.008944453 0.003749985
v -0.000748826 0.006708347 -0.006250015
v -0.000748826 0.006708347 -0.003750015
v -0.000443741 0.003975321 0.003749985
v -0.000443741 0.003975322 -0.003750016
v 0.000443787 -0.003975302 0.003749984
v 0.000443787 -0.003975301 -0.003750016
v 0.000748871 -0.006708318 -0.006250017
v 0.000748871 -0.006708318 -0.003750017
v 0.001603363 0.003664614 0.003749985
v 0.001603363 0.003664615 -0.003750016
v 0.002371994 -0.003220822 -0.003750016
v 0.002371995 -0.003220823 0.003749984
v 0.002705657 0.006184024 -0.003750015
v 0.002705657 0.006184025 -0.006250016
v 0.003220855 0.002371974 -0.003750016
v 0.003220856 0.002371974 0.003749984
v 0.003607543 0.008245364 0.003749985
v 0.003607543 0.008245365 -0.006250015
v 0.003664627 -0.001603329 -0.003750016
v 0.003664628 -0.00160333 0.003749984
v 0.003975327 0.000443774 0.003749984
v 0.003975327 0.000443775 -0.003750016
v 0.004002717 -0.005435147 -0.006250017
v 0.004002717 -0.005435147 -0.003750017
v 0.00543518 0.004002704 -0.003750016
v 0.00543518 0.004002705 -0.006250016
v 0.006184037 -0.002705632 -0.003750017
v 0.006184037 -0.002705631 -0.006250017
v 0.006708359 0.000748867 -0.006250016
v 0.006708359 0.000748867 -0.003750016
v 0.007246902 0.005336932 0.003749985
v 0.007246902 0.005336933 -0.006250016
v 0.008245377 -0.003607511 0.003749984
v 0.008245377 -0.00360751 -0.006250017
v 0.008944473 0.000998486 -0.006250016
v 0.008944474 0.000998485 0.003749984
f 24 12 23
f 23 12 11
f 11 7 8
f 12 7 11
f 8 9 10
f 7 9 8
f 10 13 14
f 14 13 30
f 9 13 10
f 13 29 30
f 30 44 43
f 29 44 30
f 137 119 138
f 138 119 120
f 120 113 114
f 119 113 120
f 114 115 116
f 113 115 114
f 116 123 124
f 124 123 146
f 115 123 116
f 123 145 146
f 146 158 157
f 145 158 146
f 97 100 98
f 98 100 99
f 99 102 101
f 100 102 99
f 101 103 104
f 102 103 101
f 63 71 64
f 64 71 72
f 72 74 73
f 71 74 72
f 73 76 75
f 74 76 73
f 111 112 121
f 122 111 121
f 143 121 144
f 143 122 121
f 162 144 161
f 162 143 144
f 28 22 27
f 27 22 21
f 21 15 16
f 22 15 21
f 16 17 18
f 15 17 16
f 25 26 31
f 18 26 25
f 17 26 18
f 26 32 31
f 31 39 40
f 32 39 31
f 142 134 141
f 141 134 133
f 133 127 128
f 134 127 133
f 128 129 130
f 127 129 128
f 140 139 147
f 130 139 140
f 129 139 130
f 139 148 147
f 147 154 153
f 148 154 147
f 154 159 153
f 153 159 160
f 160 166 165
f 159 166 160
f 165 163 164
f 166 163 165
f 164 155 156
f 163 155 164
f 156 150 149
f 155 150 156
f 149 142 141
f 150 142 149
f 39 47 40
f 40 47 48
f 48 53 54
f 47 53 48
f 54 51 52
f 53 51 54
f 52 41 42
f 51 41 52
f 42 34 33
f 41 34 42
f 33 28 27
f 34 28 33
f 111 3 112
f 4 3 111
f 59 69 70
f 59 60 37
f 59 70 60
f 38 59 37
f 20 37 19
f 20 38 37
f 5 6 1
f 5 19 6
f 5 20 19
f 2 5 1
f 4 1 3
f 4 2 1
f 70 69 178
f 70 178 177
f 162 161 175
f 176 162 175
f 179 175 180
f 179 176 175
f 178 180 177
f 178 179 180
f 147 144 121
f 140 147 121
f 153 161 144
f 153 144 147
f 130 121 112
f 130 140 121
f 128 130 112
f 160 175 161
f 160 161 153
f 133 128 112
f 180 160 165
f 180 175 160
f 177 156 149
f 177 164 156
f 177 165 164
f 177 180 165
f 109 112 107
f 109 133 112
f 106 107 112
f 117 133 109
f 117 141 133
f 117 149 141
f 125 149 117
f 125 177 149
f 135 177 125
f 132 177 135
f 87 106 112
f 81 90 86
f 81 97 90
f 79 81 86
f 77 79 86
f 77 86 87
f 84 97 81
f 91 100 97
f 91 97 84
f 95 102 100
f 95 100 91
f 93 103 102
f 93 102 95
f 3 87 112
f 3 45 49
f 3 55 45
f 3 49 77
f 3 77 87
f 31 63 55
f 31 55 3
f 31 3 25
f 18 25 3
f 40 63 31
f 16 3 1
f 16 18 3
f 48 71 63
f 48 63 40
f 21 16 1
f 6 21 1
f 19 27 21
f 19 21 6
f 70 74 71
f 70 76 74
f 70 54 52
f 70 48 54
f 70 71 48
f 60 52 42
f 60 70 52
f 37 33 27
f 37 42 33
f 37 27 19
f 37 60 42
f 70 177 103
f 103 177 132
f 70 103 93
f 70 93 76
f 143 145 122
f 122 145 123
f 123 111 122
f 162 158 143
f 143 158 145
f 123 115 111
f 176 170 162
f 162 170 158
f 115 113 111
f 170 179 173
f 176 179 170
f 173 178 172
f 179 178 173
f 178 167 172
f 119 108 113
f 113 108 111
f 137 110 119
f 119 110 108
f 108 105 111
f 137 118 110
f 151 126 137
f 137 126 118
f 178 136 167
f 167 136 151
f 151 136 126
f 178 131 136
f 105 88 111
f 89 82 85
f 98 82 89
f 82 80 85
f 85 80 88
f 88 78 111
f 80 78 88
f 98 83 82
f 98 92 83
f 99 92 98
f 101 92 99
f 101 96 92
f 101 94 96
f 104 94 101
f 56 29 46
f 29 13 46
f 78 4 111
f 46 4 50
f 50 4 78
f 13 4 46
f 72 44 64
f 64 44 56
f 56 44 29
f 13 9 4
f 72 61 44
f 73 61 72
f 4 7 2
f 9 7 4
f 73 67 61
f 12 5 7
f 7 5 2
f 12 24 5
f 67 69 65
f 75 69 73
f 73 69 67
f 24 20 5
f 69 57 65
f 57 59 36
f 69 59 57
f 36 38 24
f 24 38 20
f 59 38 36
f 178 69 131
f 131 69 104
f 104 69 94
f 94 69 75
f 49 45 50
f 50 45 46
f 46 55 56
f 45 55 46
f 56 63 64
f 55 63 56
f 77 49 78
f 78 49 50
f 94 93 96
f 93 95 96
f 96 91 92
f 95 91 96
f 92 84 83
f 91 84 92
f 83 81 82
f 82 81 80
f 84 81 83
f 81 79 80
f 80 77 78
f 79 77 80
f 75 76 94
f 94 76 93
f 132 135 131
f 131 135 136
f 136 125 126
f 135 125 136
f 126 117 118
f 125 117 126
f 118 109 110
f 117 109 118
f 110 107 108
f 109 107 110
f 108 106 105
f 107 106 108
f 104 103 131
f 131 103 132
f 88 87 85
f 87 86 85
f 85 90 89
f 86 90 85
f 89 97 98
f 90 97 89
f 106 87 105
f 105 87 88
f 158 170 157
f 157 170 169
f 169 173 174
f 170 173 169
f 174 172 171
f 173 172 174
f 171 167 168
f 168 167 152
f 172 167 171
f 167 151 152
f 152 137 138
f 151 137 152
f 134 120 114
f 134 114 127
f 129 114 116
f 129 127 114
f 142 138 120
f 142 120 134
f 139 116 124
f 139 129 116
f 150 152 138
f 150 138 142
f 146 148 139
f 146 139 124
f 168 150 155
f 168 152 150
f 157 159 154
f 157 154 148
f 157 148 146
f 171 155 163
f 171 168 155
f 174 163 166
f 174 171 163
f 169 166 159
f 169 159 157
f 169 174 166
f 44 61 43
f 43 61 62
f 62 67 68
f 61 67 62
f 68 65 66
f 67 65 68
f 66 57 58
f 58 57 35
f 65 57 66
f 57 36 35
f 35 24 23
f 36 24 35
f 15 11 8
f 22 23 11
f 22 11 15
f 17 8 10
f 17 15 8
f 28 23 22
f 26 10 14
f 26 17 10
f 34 35 23
f 34 23 28
f 41 35 34
f 30 32 26
f 30 26 14
f 58 35 41
f 39 32 30
f 43 39 30
f 66 41 51
f 66 58 41
f 62 47 39
f 62 39 43
f 68 53 47
f 68 51 53
f 68 66 51
f 68 47 62
