v -0.078685446 0.086938815 -0.001999967
v -0.078685445 0.086938814 -0.011999967
v -0.07814481 0.091566081 -0.011999968
v -0.07814481 0.091566082 -0.001999967
v -0.076840016 0.082661167 -0.001999966
v -0.076840015 0.082661166 -0.011999967
v -0.076459216 0.087265012 -0.011999967
v -0.076459216 0.087265013 -0.009499967
v -0.07605374 0.090735463 -0.011999968
v -0.07605374 0.090735463 -0.009499968
v -0.075362972 0.095303094 -0.011999968
v -0.075362972 0.095303095 -0.001999968
v -0.075075144 0.084056776 -0.011999967
v -0.075075144 0.084056776 -0.009499967
v -0.073967362 0.093538223 -0.011999968
v -0.073967362 0.093538223 -0.009499968
v -0.073738271 0.087663701 -0.001999967
v -0.07373827 0.0876637 -0.009499967
v -0.073497989 0.089720264 -0.001999967
v -0.073497988 0.089720263 -0.009499967
v -0.07291808 0.085762523 -0.009499967
v -0.07291808 0.085762524 -0.001999967
v -0.072272384 0.081970398 -0.011999967
v -0.072272384 0.081970398 -0.009499967
v -0.072261615 0.091381157 -0.009499968
v -0.072261615 0.091381158 -0.001999967
v -0.071257185 0.084526151 -0.009499967
v -0.071257185 0.084526151 -0.001999966
v -0.071085325 0.097148525 -0.001999968
v -0.071085324 0.097148524 -0.011999968
v -0.070759126 0.094922295 -0.011999968
v -0.070759126 0.094922296 -0.009499968
v -0.070360438 0.092201349 -0.009499968
v -0.070360438 0.09220135 -0.001999967
v -0.069200621 0.084285868 -0.009499967
v -0.069200621 0.084285869 -0.001999966
v -0.068801935 0.081564922 -0.011999967
v -0.068801935 0.081564922 -0.009499966
v -0.068303876 0.091961066 -0.009499967
v -0.068303876 0.091961067 -0.001999967
v -0.067299444 0.085106059 -0.009499967
v -0.067299444 0.08510606 -0.001999966
v -0.067288676 0.094516818 -0.011999968
v -0.067288676 0.094516818 -0.009499968
v -0.066642981 0.090724694 -0.009499967
v -0.066642981 0.090724695 -0.001999967
v -0.066458057 0.096607889 -0.001999967
v -0.066458056 0.096607888 -0.011999968
v -0.066063072 0.086766954 -0.009499967
v -0.066063072 0.086766955 -0.001999966
v -0.065822791 0.088823518 -0.001999967
v -0.06582279 0.088823517 -0.009499967
v -0.065593698 0.082948994 -0.011999967
v -0.065593698 0.082948994 -0.009499966
v -0.064485915 0.09243044 -0.011999967
v -0.064485915 0.09243044 -0.009499967
v -0.064393268 0.074017938 -0.001999965
v -0.064393267 0.074017937 -0.011999966
v -0.064213056 0.07556036 -0.001999965
v -0.064213055 0.075560359 -0.011999966
v -0.063778125 0.072592055 -0.001999965
v -0.063778124 0.072592054 -0.011999965
v -0.06350732 0.085751754 -0.011999967
v -0.06350732 0.085751754 -0.009499967
v -0.063285777 0.07680603 -0.011999966
v -0.063285777 0.076806031 -0.001999965
v -0.063101843 0.089222204 -0.011999967
v -0.063101843 0.089222204 -0.009499967
v -0.062721043 0.093826051 -0.011999968
v -0.062721043 0.093826052 -0.001999967
v -0.060148227 0.079287116 -0.011999966
v -0.060148227 0.079287117 -0.001999965
v -0.058722343 0.07990226 -0.001999965
v -0.058722342 0.079902259 -0.011999966
v -0.057179923 0.079722047 -0.011999966
v -0.057179923 0.079722048 -0.001999965
v -0.055934253 0.078794769 -0.001999965
v -0.055934252 0.078794768 -0.011999966
v -0.042533828 0.04572679 -0.001999961
v -0.042533827 0.045726789 -0.011999962
v -0.041288157 0.044799508 -0.011999962
v -0.041288157 0.044799509 -0.001999961
v -0.039745734 0.044619299 -0.001999961
v -0.039745733 0.044619298 -0.011999962
v -0.038319853 0.045234441 -0.011999962
v -0.038319853 0.045234442 -0.001999961
v -0.035705717 0.037740023 -0.00199996
v -0.035705716 0.037740022 -0.011999961
v -0.035525503 0.039282445 -0.011999961
v -0.035525503 0.039282446 -0.001999961
v -0.035182303 0.047715525 -0.011999962
v -0.035182303 0.047715526 -0.001999961
v -0.035090574 0.036314143 -0.00199996
v -0.035090573 0.036314142 -0.011999961
v -0.034689956 0.051929504 -0.001999962
v -0.034689955 0.051929503 -0.011999962
v -0.034598223 0.040528117 -0.001999961
v -0.034598222 0.040528116 -0.011999961
v -0.034255023 0.048961196 -0.001999961
v -0.034255022 0.048961195 -0.011999962
v -0.034074813 0.050503619 -0.001999962
v -0.034074812 0.050503619 -0.011999962
v -0.031460676 0.043009203 -0.011999961
v -0.031460676 0.043009204 -0.001999961
v -0.030034792 0.043624346 -0.011999961
v -0.030034792 0.043624347 -0.001999961
v -0.028492369 0.043444133 -0.001999961
v -0.028492368 0.043444132 -0.011999961
v -0.027246698 0.042516852 -0.011999961
v -0.027246698 0.042516853 -0.001999961
v -0.013846273 0.00944887 -0.011999957
v -0.013846273 0.009448871 -0.001999957
v -0.012600606 0.008521593 -0.011999957
v -0.012600606 0.008521594 -0.001999957
v -0.011058187 0.008341381 -0.001999956
v -0.011058186 0.00834138 -0.011999957
v -0.009632299 0.008956524 -0.001999956
v -0.009632298 0.008956523 -0.011999957
v -0.007059482 -0.005582411 -0.011999955
v -0.007059482 -0.00558241 -0.001999955
v -0.006678684 -0.000978559 -0.011999956
v -0.006678684 -0.000978559 -0.009499956
v -0.006494749 0.011437611 -0.001999957
v -0.006494748 0.01143761 -0.011999957
v -0.006273205 0.002491885 -0.011999956
v -0.006273205 0.002491885 -0.009499956
v -0.006002401 0.015651584 -0.011999957
v -0.006002401 0.015651585 -0.001999957
v -0.005567472 0.012683284 -0.011999957
v -0.005567472 0.012683285 -0.001999957
v -0.005387258 0.014225704 -0.011999957
v -0.005387258 0.014225705 -0.001999957
v -0.005294612 -0.004186796 -0.011999955
v -0.005294612 -0.004186795 -0.009499955
v -0.004186833 0.00529465 -0.011999956
v -0.004186833 0.00529465 -0.009499956
v -0.003957737 -0.000579877 -0.009499956
v -0.003957737 -0.000579876 -0.001999955
v -0.003717457 0.001476688 -0.009499956
v -0.003717457 0.001476688 -0.001999956
v -0.003322467 -0.008364248 -0.011999955
v -0.003322467 -0.008364247 -0.001999955
v -0.003137546 -0.002481053 -0.009499955
v -0.003137546 -0.002481052 -0.001999955
v -0.002491855 -0.006273175 -0.011999955
v -0.002491855 -0.006273175 -0.009499955
v -0.002481083 0.003137584 -0.009499956
v -0.002481083 0.003137585 -0.001999956
v -0.00147665 -0.003717427 -0.009499955
v -0.00147665 -0.003717426 -0.001999955
v -0.000978596 0.006678722 -0.011999956
v -0.000978596 0.006678722 -0.009499956
v -0.000579907 0.003957775 -0.009499956
v -0.000579907 0.003957776 -0.001999956
v 0.000579915 -0.003957707 -0.009499955
v 0.000579915 -0.003957706 -0.001999955
v 0.000978597 -0.006678655 -0.011999955
v 0.000978597 -0.006678654 -0.009499955
v 0.001304799 -0.00890488 -0.001999954
v 0.0013048 -0.008904881 -0.011999955
v 0.001476658 0.003717495 -0.009499956
v 0.001476658 0.003717496 -0.001999956
v 0.002481091 -0.003137516 -0.009499955
v 0.002481091 -0.003137516 -0.001999955
v 0.002491855 0.006273243 -0.009499956
v 0.002491856 0.006273243 -0.011999956
v 0.003137554 0.002481121 -0.009499956
v 0.003137554 0.002481122 -0.001999955
v 0.003717457 -0.00147662 -0.009499955
v 0.003717457 -0.001476619 -0.001999955
v 0.003957745 0.000579945 -0.009499955
v 0.003957745 0.000579945 -0.001999955
v 0.004186833 -0.005294583 -0.009499955
v 0.004186834 -0.005294583 -0.011999955
v 0.005294621 0.004186863 -0.011999956
v 0.005294621 0.004186863 -0.009499956
v 0.005582448 -0.007059452 -0.011999955
v 0.005582448 -0.007059451 -0.001999954
v 0.006273213 -0.002491818 -0.011999955
v 0.006273213 -0.002491817 -0.009499955
v 0.006678692 0.000978627 -0.009499955
v 0.006678693 0.000978626 -0.011999956
v 0.00705949 0.005582478 -0.011999956
v 0.00705949 0.005582479 -0.001999955
v 0.008364285 -0.003322436 -0.001999955
v 0.008364286 -0.003322437 -0.011999955
v 0.008904919 0.001304829 -0.011999955
v 0.008904919 0.00130483 -0.001999955
f 135 151 136
f 136 151 152
f 152 166 165
f 151 166 152
f 165 175 176
f 166 175 165
f 176 182 181
f 181 182 180
f 175 182 176
f 182 179 180
f 180 174 173
f 179 174 180
f 15 31 16
f 16 31 32
f 32 43 44
f 31 43 32
f 44 55 56
f 43 55 44
f 56 67 68
f 68 67 64
f 55 67 56
f 67 63 64
f 64 53 54
f 63 53 64
f 183 184 188
f 187 183 188
f 186 188 185
f 186 187 188
f 177 185 178
f 177 186 185
f 25 33 26
f 34 33 40
f 26 33 34
f 33 39 40
f 46 45 51
f 40 45 46
f 39 45 40
f 45 52 51
f 51 49 50
f 52 49 51
f 50 41 42
f 49 41 50
f 147 153 148
f 148 153 154
f 154 161 162
f 153 161 154
f 162 167 168
f 161 167 162
f 172 171 170
f 168 171 172
f 167 171 168
f 171 169 170
f 170 163 164
f 169 163 170
f 163 155 164
f 164 155 156
f 156 149 150
f 155 149 156
f 150 143 144
f 149 143 150
f 144 137 138
f 143 137 144
f 138 139 140
f 137 139 138
f 140 147 148
f 139 147 140
f 41 35 42
f 42 35 36
f 36 27 28
f 35 27 36
f 28 21 22
f 27 21 28
f 22 18 17
f 21 18 22
f 17 20 19
f 18 20 17
f 19 25 26
f 20 25 19
f 183 70 184
f 69 70 183
f 2 6 5
f 2 1 4
f 2 5 1
f 3 2 4
f 11 4 12
f 11 3 4
f 30 29 47
f 30 12 29
f 30 11 12
f 48 30 47
f 69 47 70
f 69 48 47
f 5 6 119
f 5 119 120
f 177 178 159
f 160 177 159
f 141 159 142
f 141 160 159
f 119 142 120
f 119 141 142
f 170 185 188
f 170 188 172
f 168 188 184
f 168 172 188
f 164 178 185
f 164 185 170
f 162 168 184
f 156 159 178
f 156 178 164
f 142 156 150
f 142 159 156
f 120 144 138
f 120 150 144
f 120 142 150
f 130 184 132
f 130 154 162
f 130 162 184
f 128 132 184
f 123 148 154
f 123 154 130
f 117 148 123
f 117 140 148
f 115 120 138
f 115 140 117
f 115 138 140
f 114 120 115
f 112 120 114
f 110 128 184
f 101 99 106
f 101 106 107
f 101 107 110
f 95 101 110
f 92 106 99
f 92 104 106
f 86 90 97
f 86 97 104
f 86 104 92
f 83 90 86
f 82 87 90
f 82 90 83
f 79 93 87
f 79 87 82
f 70 73 76
f 70 76 77
f 70 77 95
f 70 110 184
f 70 95 110
f 50 72 73
f 51 73 70
f 51 50 73
f 46 51 70
f 42 66 72
f 42 72 50
f 40 70 47
f 40 46 70
f 36 59 66
f 36 66 42
f 28 59 36
f 29 34 40
f 29 40 47
f 12 26 34
f 12 34 29
f 5 61 57
f 5 57 59
f 5 22 17
f 5 28 22
f 5 59 28
f 1 5 17
f 1 17 19
f 4 26 12
f 4 19 26
f 4 1 19
f 5 120 112
f 5 112 93
f 5 93 79
f 5 79 61
f 186 179 187
f 179 182 187
f 182 183 187
f 177 174 186
f 186 174 179
f 182 175 183
f 160 157 177
f 177 157 174
f 175 166 183
f 160 145 157
f 160 141 145
f 145 119 133
f 141 119 145
f 119 121 133
f 151 131 166
f 129 131 151
f 166 131 183
f 131 127 183
f 135 124 151
f 151 124 129
f 125 118 135
f 135 118 124
f 125 116 118
f 125 113 116
f 121 113 125
f 119 113 121
f 119 111 113
f 127 109 183
f 105 102 108
f 108 102 109
f 100 102 105
f 103 91 105
f 105 91 100
f 102 96 109
f 103 85 91
f 98 85 103
f 89 84 98
f 98 84 85
f 89 81 84
f 88 81 89
f 94 80 88
f 88 80 81
f 71 63 74
f 74 63 75
f 75 63 67
f 75 69 78
f 78 69 96
f 109 69 183
f 96 69 109
f 67 69 75
f 67 55 69
f 65 53 71
f 71 53 63
f 58 37 60
f 60 37 65
f 65 37 53
f 69 43 48
f 55 43 69
f 43 31 48
f 58 23 37
f 31 30 48
f 31 15 30
f 62 6 58
f 23 6 13
f 58 6 23
f 15 11 30
f 15 9 11
f 6 2 13
f 13 2 7
f 7 2 9
f 2 3 9
f 9 3 11
f 119 6 111
f 111 6 94
f 94 6 80
f 80 6 62
f 53 37 54
f 54 37 38
f 38 23 24
f 37 23 38
f 24 13 14
f 23 13 24
f 14 7 8
f 8 7 10
f 13 7 14
f 7 9 10
f 10 15 16
f 9 15 10
f 33 32 44
f 33 44 39
f 45 44 56
f 45 39 44
f 25 16 32
f 25 32 33
f 52 56 68
f 52 45 56
f 20 10 16
f 20 16 25
f 8 20 18
f 8 10 20
f 64 49 52
f 64 52 68
f 41 49 64
f 14 21 27
f 14 18 21
f 14 8 18
f 54 35 41
f 54 41 64
f 24 14 27
f 38 27 35
f 38 35 54
f 38 24 27
f 174 157 173
f 173 157 158
f 158 145 146
f 157 145 158
f 146 133 134
f 145 133 146
f 134 121 122
f 122 121 126
f 133 121 134
f 121 125 126
f 126 135 136
f 125 135 126
f 153 152 165
f 153 165 161
f 167 165 176
f 167 161 165
f 147 136 152
f 147 152 153
f 171 176 181
f 171 167 176
f 139 126 136
f 139 136 147
f 122 139 137
f 122 126 139
f 180 169 171
f 180 171 181
f 143 122 137
f 173 163 169
f 173 169 180
f 134 143 149
f 134 122 143
f 146 134 149
f 158 155 163
f 158 149 155
f 158 163 173
f 158 146 149
f 127 131 128
f 128 131 132
f 132 129 130
f 131 129 132
f 130 124 123
f 129 124 130
f 128 110 127
f 127 110 109
f 103 105 104
f 104 105 106
f 106 108 107
f 105 108 106
f 107 109 110
f 108 109 107
f 97 98 104
f 104 98 103
f 94 88 93
f 93 88 87
f 87 89 90
f 88 89 87
f 90 98 97
f 89 98 90
f 111 93 112
f 94 93 111
f 118 116 117
f 117 116 115
f 115 113 114
f 116 113 115
f 114 111 112
f 113 111 114
f 124 117 123
f 118 117 124
f 85 84 86
f 86 84 83
f 83 81 82
f 84 81 83
f 82 80 79
f 81 80 82
f 91 86 92
f 85 86 91
f 95 96 101
f 96 102 101
f 101 100 99
f 102 100 101
f 99 91 92
f 100 91 99
f 95 77 96
f 96 77 78
f 71 74 72
f 72 74 73
f 73 75 76
f 74 75 73
f 76 78 77
f 75 78 76
f 66 65 72
f 72 65 71
f 62 58 61
f 61 58 57
f 57 60 59
f 58 60 57
f 59 65 66
f 60 65 59
f 80 61 79
f 62 61 80
