v -0.012174238 0.002835209 0.002000037
v -0.012174238 0.00283521 0.012000037
v -0.011996482 -0.003512045 0.002000037
v -0.011996482 -0.003512044 0.012000038
v -0.009499343 -0.000112736 0.012000038
v -0.009499342 -0.000112737 0.002000037
v -0.009210519 0.008450867 0.012000037
v -0.009210518 0.008450866 0.002000036
v -0.008723121 -0.008953031 0.012000038
v -0.00872312 -0.008953032 0.002000038
v -0.008283058 0.004652037 0.002000037
v -0.008283058 0.004652038 0.012000037
v -0.008170288 -0.004847294 0.002000038
v -0.008170288 -0.004847293 0.012000038
v -0.004847338 0.00817031 0.002000036
v -0.004847338 0.008170311 0.012000037
v -0.004652014 -0.008283014 0.002000038
v -0.004652014 -0.008283013 0.012000039
v -0.003198822 -0.012083742 0.002000038
v -0.003198822 -0.012083741 0.012000039
v -0.000112782 0.009499365 0.012000037
v -0.000112781 0.009499364 0.002000036
v 0.000112758 -0.009499297 0.012000039
v 0.000112759 -0.009499298 0.002000038
v 0.003150909 -0.012096317 0.012000039
v 0.00315091 -0.012096318 0.002000039
v 0.004651993 0.00828308 0.002000037
v 0.004651993 0.008283081 0.012000037
v 0.004847316 -0.008170243 0.012000039
v 0.004847317 -0.008170244 0.002000038
v 0.006414212 0.016064157 0.012000037
v 0.006414213 0.016064156 0.002000036
v 0.006588868 0.017746103 0.012000036
v 0.006588869 0.017746102 0.002000036
v 0.006950136 0.014460339 0.002000036
v 0.006950136 0.01446034 0.012000037
v 0.007313592 0.013945118 0.012000037
v 0.007313593 0.013945117 0.002000036
v 0.007442889 0.019205588 0.012000036
v 0.00744289 0.019205587 0.002000036
v 0.007753496 0.013493409 0.002000036
v 0.007753496 0.01349341 0.012000037
v 0.008170266 0.00484736 0.002000037
v 0.008170266 0.004847361 0.012000038
v 0.008258917 0.013116441 0.002000036
v 0.008258917 0.013116442 0.012000037
v 0.008283035 -0.004651971 0.002000038
v 0.008283035 -0.00465197 0.012000039
v 0.008687567 -0.008987515 0.002000039
v 0.008687567 -0.008987514 0.012000039
v 0.009499318 0.000112804 0.012000038
v 0.009499319 0.000112803 0.002000038
v 0.010011913 0.011832674 0.012000037
v 0.010011914 0.011832673 0.002000037
v 0.011568173 0.010316388 0.002000037
v 0.011568173 0.010316389 0.012000037
v 0.012897107 0.00859738 0.002000037
v 0.012897107 0.008597381 0.012000038
v 0.014671116 0.007130374 0.012000038
v 0.014671117 0.007130373 0.002000037
v 0.016959901 0.006884065 0.002000037
v 0.016959901 0.006884066 0.012000038
v 0.019005421 0.007940036 0.012000038
v 0.019005422 0.007940035 0.002000037
v 0.028543302 0.042202789 0.012000035
v 0.028543303 0.042202788 0.002000034
v 0.030336938 0.043328525 0.012000035
v 0.030336939 0.043328524 0.002000034
v 0.032453943 0.043380801 0.002000034
v 0.032453943 0.043380802 0.012000035
v 0.034300959 0.042344966 0.002000035
v 0.034300959 0.042344967 0.012000035
v 0.037068196 0.05073705 0.012000034
v 0.037068197 0.050737049 0.002000034
v 0.037118146 0.048714284 0.012000035
v 0.037118147 0.048714283 0.002000034
v 0.038014573 0.052525468 0.012000034
v 0.038014574 0.052525467 0.002000034
v 0.038151643 0.046974759 0.012000035
v 0.038151644 0.046974758 0.002000034
v 0.041398239 0.029585468 0.002000036
v 0.041398239 0.029585469 0.012000037
v 0.041428512 0.03530793 0.002000036
v 0.041428512 0.035307931 0.012000036
v 0.041661162 0.035057728 0.012000036
v 0.041661163 0.035057727 0.002000036
v 0.041871619 0.034788586 0.012000036
v 0.04187162 0.034788585 0.002000036
v 0.042058334 0.034502464 0.002000036
v 0.042058334 0.034502465 0.012000036
v 0.042366821 0.031065792 0.002000036
v 0.042366821 0.031065793 0.012000036
v 0.042602195 0.032819103 0.002000036
v 0.042602195 0.032819104 0.012000036
v 0.045876723 0.039347783 0.012000036
v 0.045876724 0.039347782 0.002000035
v 0.047646346 0.038331971 0.002000035
v 0.047646346 0.038331972 0.012000036
v 0.049686767 0.038321179 0.002000036
v 0.049686767 0.03832118 0.012000036
v 0.05146704 0.039318212 0.012000036
v 0.051467041 0.039318211 0.002000036
v 0.058189762 0.07451427 0.002000032
v 0.058189762 0.074514271 0.012000033
v 0.059788501 0.075575802 0.012000033
v 0.059788502 0.075575801 0.002000032
v 0.061697658 0.075770535 0.012000033
v 0.061697659 0.075770534 0.002000032
v 0.063477802 0.075053655 0.012000033
v 0.063477803 0.075053654 0.002000032
v 0.064719174 0.073590153 0.002000033
v 0.064719174 0.073590154 0.012000033
v 0.064894139 0.073248745 0.002000033
v 0.064894139 0.073248746 0.012000033
v 0.065077503 0.072911778 0.012000033
v 0.065077504 0.072911777 0.002000033
v 0.065269154 0.072579441 0.002000033
v 0.065269154 0.072579442 0.012000033
v 0.066810152 0.091305304 0.012000031
v 0.066810153 0.091305303 0.002000031
v 0.067058064 0.070142087 0.012000034
v 0.067058065 0.070142086 0.002000033
v 0.068136462 0.092592893 0.002000031
v 0.068136462 0.092592894 0.012000031
v 0.069100277 0.08037547 0.002000032
v 0.069100277 0.080375471 0.012000033
v 0.069286107 0.06809837 0.002000033
v 0.069286107 0.068098371 0.012000034
v 0.069602427 0.093718915 0.002000031
v 0.069602427 0.093718916 0.012000031
v 0.070316554 0.085140242 0.012000032
v 0.070316555 0.085140241 0.002000032
v 0.070429325 0.075640913 0.012000033
v 0.070429326 0.075640912 0.002000033
v 0.071188479 0.09466834 0.002000031
v 0.071188479 0.094668341 0.012000031
v 0.071868505 0.066526066 0.002000034
v 0.071868505 0.066526067 0.012000034
v 0.072911474 0.06004691 0.012000035
v 0.072911475 0.060046909 0.002000034
v 0.073338422 0.065313596 0.012000034
v 0.073338423 0.065313595 0.002000034
v 0.073752276 0.088658515 0.012000032
v 0.073752277 0.088658514 0.002000032
v 0.073926649 0.061659413 0.002000034
v 0.073926649 0.061659414 0.012000035
v 0.073947598 0.072205191 0.012000034
v 0.073947599 0.07220519 0.002000033
v 0.07408061 0.063558628 0.002000034
v 0.07408061 0.063558629 0.012000034
v 0.078486835 0.08998757 0.002000032
v 0.078486835 0.089987571 0.012000032
v 0.078712377 0.070988912 0.002000033
v 0.078712377 0.070988913 0.012000034
v 0.083251606 0.088771285 0.002000032
v 0.083251606 0.088771286 0.012000032
v 0.083446935 0.072317961 0.002000034
v 0.083446935 0.072317962 0.012000034
v 0.086201536 0.06593933 0.012000035
v 0.086201537 0.065939329 0.002000034
v 0.08665478 0.095839836 0.012000032
v 0.086654781 0.095839835 0.002000031
v 0.086769878 0.085335571 0.012000033
v 0.086769879 0.08533557 0.002000032
v 0.086882649 0.075836234 0.012000034
v 0.08688265 0.075836233 0.002000033
v 0.087084211 0.066743003 0.012000035
v 0.087084212 0.066743002 0.002000034
v 0.087214587 0.093774514 0.012000032
v 0.087214588 0.093774513 0.002000032
v 0.087239688 0.097898193 0.002000031
v 0.087239688 0.097898194 0.012000032
v 0.087490878 0.093368004 0.012000032
v 0.087490879 0.093368003 0.002000032
v 0.087814929 0.092998459 0.012000032
v 0.08781493 0.092998458 0.002000032
v 0.088013266 0.067492575 0.002000034
v 0.088013266 0.067492576 0.012000035
v 0.088098935 0.080601012 0.002000033
v 0.088098935 0.080601013 0.012000033
v 0.088181865 0.092671439 0.002000032
v 0.088181865 0.09267144 0.012000032
v 0.088801928 0.099360512 0.012000032
v 0.088801929 0.099360511 0.002000031
v 0.08898538 0.068185394 0.012000035
v 0.088985381 0.068185393 0.002000034
v 0.090859447 0.089972245 0.012000033
v 0.090859448 0.089972244 0.002000032
v 0.092799397 0.086702423 0.002000032
v 0.092799397 0.086702424 0.012000033
v 0.093884984 0.083058715 0.002000033
v 0.093884984 0.083058716 0.012000033
v 0.093996113 0.082579934 0.012000033
v 0.093996114 0.082579933 0.002000033
v 0.094165135 0.082118401 0.012000033
v 0.094165136 0.0821184 0.002000033
v 0.094389478 0.081681083 0.002000033
v 0.094389478 0.081681084 0.012000034
v 0.095933797 0.080199851 0.002000033
v 0.095933797 0.080199852 0.012000034
v 0.098020665 0.079726624 0.012000034
v 0.098020666 0.079726623 0.002000033
v 0.100052846 0.080396836 0.012000034
v 0.100052847 0.080396835 0.002000033
v 0.113748805 0.112398829 0.002000031
v 0.113748805 0.11239883 0.012000031
v 0.115478892 0.112851916 0.002000031
v 0.115478892 0.112851917 0.012000031
v 0.117233485 0.112505771 0.002000031
v 0.117233485 0.112505772 0.012000031
v 0.118661876 0.111429584 0.002000031
v 0.118661876 0.111429585 0.012000032
v 0.119478496 0.109838489 0.002000031
v 0.119478496 0.10983849 0.012000032
v 0.11991122 0.108422191 0.002000031
v 0.11991122 0.108422192 0.012000032
v 0.120477123 0.107053653 0.002000032
v 0.120477123 0.107053654 0.012000032
v 0.121171047 0.105745365 0.002000032
v 0.121171047 0.105745366 0.012000032
v 0.12198666 0.104509281 0.002000032
v 0.12198666 0.104509282 0.012000032
v 0.122916531 0.10335667 0.002000032
v 0.122916531 0.103356671 0.012000032
v 0.123452985 0.096042224 0.002000033
v 0.123452985 0.096042225 0.012000033
v 0.123952145 0.102298061 0.002000032
v 0.123952145 0.102298062 0.012000033
v 0.124679867 0.097343464 0.012000033
v 0.124679868 0.097343463 0.002000033
v 0.124957165 0.100818744 0.002000032
v 0.124957165 0.100818745 0.012000033
v 0.125002162 0.113541393 0.002000031
v 0.125002162 0.113541394 0.012000032
v 0.125217053 0.099049304 0.002000033
v 0.125217053 0.099049305 0.012000033
v 0.126218455 0.118306164 0.002000031
v 0.126218455 0.118306165 0.012000031
v 0.126331218 0.108806836 0.012000032
v 0.126331219 0.108806835 0.002000032
v 0.128711557 0.124732367 0.012000031
v 0.128711558 0.124732366 0.00200003
v 0.129654169 0.121824446 0.012000031
v 0.12965417 0.121824445 0.00200003
v 0.129849499 0.105371121 0.002000032
v 0.129849499 0.105371122 0.012000033
v 0.134388728 0.123153494 0.002000031
v 0.134388728 0.123153495 0.012000031
v 0.13461427 0.104154835 0.002000032
v 0.13461427 0.104154836 0.012000033
v 0.134802027 0.126150549 0.00200003
v 0.134802027 0.12615055 0.012000031
v 0.139153499 0.121937216 0.002000031
v 0.139153499 0.121937217 0.012000031
v 0.139348828 0.105483884 0.002000032
v 0.139348828 0.105483885 0.012000033
v 0.140817271 0.124441244 0.002000031
v 0.140817271 0.124441245 0.012000031
v 0.14144917 0.10326283 0.002000033
v 0.14144917 0.103262831 0.012000033
v 0.142671779 0.118501494 0.002000031
v 0.142671779 0.118501495 0.012000032
v 0.142784542 0.109002158 0.012000033
v 0.142784543 0.109002157 0.002000032
v 0.144000835 0.113766936 0.012000032
v 0.144000836 0.113766936 0.002000032
v 0.145251872 0.120032226 0.012000032
v 0.145251873 0.120032225 0.002000031
v 0.145613003 0.107928397 0.012000033
v 0.145613004 0.107928396 0.002000032
v 0.146995937 0.114026962 0.012000032
v 0.146995938 0.114026961 0.002000032
f 197 198 199
f 199 200 202
f 198 200 199
f 202 201 204
f 200 201 202
f 201 203 204
f 169 173 170
f 170 173 174
f 174 175 176
f 173 175 174
f 176 182 181
f 175 182 176
f 89 93 90
f 90 93 94
f 94 91 92
f 93 91 94
f 92 81 82
f 91 81 92
f 36 37 35
f 35 37 38
f 38 42 41
f 37 42 38
f 41 46 45
f 42 46 41
f 216 213 215
f 216 214 213
f 218 215 217
f 218 216 215
f 220 217 219
f 220 218 217
f 114 111 113
f 114 112 111
f 115 113 116
f 115 114 113
f 118 116 117
f 118 115 116
f 163 156 164
f 164 156 155
f 155 152 151
f 156 152 155
f 151 143 144
f 152 143 151
f 144 131 132
f 132 131 125
f 143 131 144
f 131 126 125
f 125 133 134
f 126 133 125
f 13 6 14
f 14 6 5
f 5 11 12
f 6 11 5
f 12 15 16
f 11 15 12
f 21 22 28
f 16 22 21
f 15 22 16
f 22 27 28
f 28 43 44
f 27 43 28
f 251 252 258
f 251 241 252
f 251 242 241
f 257 258 267
f 257 251 258
f 268 257 267
f 240 233 239
f 239 233 234
f 234 237 238
f 233 237 234
f 238 244 243
f 237 244 238
f 248 247 254
f 243 247 248
f 244 247 243
f 247 253 254
f 254 261 262
f 253 261 254
f 254 258 252
f 248 252 241
f 248 254 252
f 262 267 258
f 262 258 254
f 243 248 241
f 271 267 262
f 238 243 241
f 265 271 262
f 269 265 263
f 269 271 265
f 210 234 238
f 208 238 241
f 208 210 238
f 212 234 210
f 206 208 241
f 214 239 234
f 214 234 212
f 260 263 256
f 260 269 263
f 216 239 214
f 250 260 256
f 218 239 216
f 220 239 218
f 222 239 220
f 224 239 222
f 228 246 239
f 228 239 224
f 232 246 228
f 236 250 246
f 236 246 232
f 229 260 250
f 229 250 236
f 226 260 229
f 136 183 206
f 136 161 172
f 136 172 183
f 136 206 241
f 156 182 175
f 156 175 173
f 156 173 169
f 156 169 161
f 152 156 161
f 152 161 136
f 143 136 130
f 143 130 124
f 143 124 119
f 143 152 136
f 163 182 156
f 163 190 187
f 163 187 182
f 192 190 163
f 180 200 198
f 180 198 195
f 180 195 193
f 180 193 192
f 180 192 163
f 131 143 119
f 165 200 180
f 126 131 119
f 107 126 119
f 109 133 126
f 109 126 107
f 185 226 203
f 185 203 201
f 185 201 200
f 185 165 158
f 185 200 165
f 185 260 226
f 105 107 119
f 112 133 109
f 178 185 158
f 114 133 112
f 115 133 114
f 104 105 119
f 118 133 115
f 167 178 158
f 159 158 154
f 159 167 158
f 121 147 133
f 121 133 118
f 128 147 121
f 138 147 128
f 141 154 147
f 141 147 138
f 150 154 141
f 150 159 154
f 146 159 150
f 139 159 146
f 77 104 119
f 101 159 139
f 70 79 75
f 72 79 70
f 67 70 75
f 67 75 73
f 95 79 72
f 65 77 119
f 65 67 73
f 65 73 77
f 84 95 72
f 85 95 84
f 87 95 85
f 90 98 95
f 90 95 87
f 94 100 98
f 94 98 90
f 92 101 100
f 92 100 94
f 82 101 92
f 21 36 31
f 21 31 33
f 28 56 53
f 28 53 46
f 28 46 42
f 28 42 37
f 28 37 36
f 28 36 21
f 16 21 33
f 44 56 28
f 44 59 58
f 44 58 56
f 7 65 119
f 7 33 39
f 7 39 65
f 7 16 33
f 51 59 44
f 51 62 59
f 12 16 7
f 2 12 7
f 48 62 51
f 5 12 2
f 4 5 2
f 50 82 63
f 50 63 62
f 50 62 48
f 29 50 48
f 14 5 4
f 9 18 14
f 9 14 4
f 25 29 23
f 25 50 29
f 20 18 9
f 20 25 23
f 20 23 18
f 50 159 82
f 82 159 101
f 257 253 251
f 251 247 242
f 253 247 251
f 268 261 257
f 257 261 253
f 247 244 242
f 268 272 261
f 244 237 242
f 272 266 261
f 272 270 266
f 266 270 264
f 233 209 237
f 209 207 237
f 237 207 242
f 233 211 209
f 207 205 242
f 240 213 233
f 233 213 211
f 264 259 255
f 270 259 264
f 240 215 213
f 259 249 255
f 240 217 215
f 240 219 217
f 240 221 219
f 240 223 221
f 245 227 240
f 240 227 223
f 245 231 227
f 249 235 245
f 245 235 231
f 259 230 249
f 249 230 235
f 259 225 230
f 171 135 184
f 162 135 171
f 184 135 205
f 205 135 242
f 162 151 135
f 174 155 170
f 176 155 174
f 181 155 176
f 170 155 162
f 162 155 151
f 135 144 129
f 129 144 123
f 123 144 120
f 151 144 135
f 189 164 188
f 188 164 181
f 181 164 155
f 189 191 164
f 199 179 197
f 194 179 191
f 196 179 194
f 197 179 196
f 191 179 164
f 144 132 120
f 199 166 179
f 132 125 120
f 125 108 120
f 125 110 108
f 134 110 125
f 225 186 204
f 202 186 199
f 204 186 202
f 199 186 166
f 166 186 157
f 259 186 225
f 108 106 120
f 134 111 110
f 186 177 157
f 134 113 111
f 134 116 113
f 106 103 120
f 134 117 116
f 177 168 157
f 157 160 153
f 168 160 157
f 148 122 134
f 134 122 117
f 148 127 122
f 148 137 127
f 148 142 137
f 153 142 148
f 153 149 142
f 160 149 153
f 160 145 149
f 160 140 145
f 103 78 120
f 160 102 140
f 80 69 76
f 80 71 69
f 69 68 76
f 76 68 74
f 80 96 71
f 68 66 74
f 74 66 78
f 78 66 120
f 96 83 71
f 96 86 83
f 96 88 86
f 97 89 96
f 96 89 88
f 99 93 97
f 97 93 89
f 102 91 99
f 99 91 93
f 102 81 91
f 32 22 34
f 35 22 32
f 55 27 54
f 54 27 45
f 35 27 22
f 38 27 35
f 41 27 38
f 45 27 41
f 22 15 34
f 57 43 55
f 55 43 27
f 60 43 57
f 66 8 120
f 15 8 34
f 34 8 40
f 40 8 66
f 15 11 8
f 61 52 60
f 60 52 43
f 11 1 8
f 61 47 52
f 11 6 1
f 6 3 1
f 64 49 61
f 61 49 47
f 81 49 64
f 49 30 47
f 6 13 3
f 13 10 3
f 17 10 13
f 30 26 24
f 49 26 30
f 26 19 24
f 17 19 10
f 24 19 17
f 160 49 81
f 160 81 102
f 136 241 135
f 135 241 242
f 123 120 119
f 123 119 124
f 129 124 130
f 129 123 124
f 135 130 136
f 135 129 130
f 7 119 8
f 8 119 120
f 49 50 25
f 26 49 25
f 19 25 20
f 19 26 25
f 10 9 4
f 10 20 9
f 10 19 20
f 3 10 4
f 1 4 2
f 1 3 4
f 8 2 7
f 8 1 2
f 159 49 160
f 159 50 49
f 260 185 186
f 260 186 259
f 262 261 265
f 261 266 265
f 265 264 263
f 266 264 265
f 263 255 256
f 264 255 263
f 256 249 250
f 255 249 256
f 250 245 246
f 249 245 250
f 246 240 239
f 245 240 246
f 272 268 267
f 272 267 271
f 270 271 269
f 270 272 271
f 259 269 260
f 259 270 269
f 44 43 51
f 43 52 51
f 51 47 48
f 52 47 51
f 48 30 29
f 47 30 48
f 29 24 23
f 30 24 29
f 23 17 18
f 24 17 23
f 18 13 14
f 17 13 18
f 160 168 159
f 159 168 167
f 167 177 178
f 168 177 167
f 178 186 185
f 177 186 178
f 133 147 134
f 134 147 148
f 148 154 153
f 147 154 148
f 153 158 157
f 154 158 153
f 157 165 166
f 166 165 179
f 158 165 157
f 165 180 179
f 179 163 164
f 180 163 179
f 56 57 55
f 56 58 57
f 53 55 54
f 53 56 55
f 46 54 45
f 46 53 54
f 65 39 40
f 65 40 66
f 84 72 83
f 83 72 71
f 63 82 64
f 64 82 81
f 121 118 117
f 121 117 122
f 121 122 127
f 128 121 127
f 138 127 137
f 138 128 127
f 101 139 102
f 102 139 140
f 79 96 80
f 79 95 96
f 104 77 78
f 104 78 103
f 222 220 219
f 222 219 221
f 224 221 223
f 224 222 221
f 228 223 227
f 228 224 223
f 203 225 204
f 203 226 225
f 190 191 189
f 190 192 191
f 187 189 188
f 187 190 189
f 182 188 181
f 182 187 188
f 206 183 205
f 205 183 184
f 79 80 75
f 75 76 73
f 80 76 75
f 73 74 77
f 76 74 73
f 74 78 77
f 95 98 96
f 96 98 97
f 97 100 99
f 98 100 97
f 99 101 102
f 100 101 99
f 39 33 40
f 40 33 34
f 34 33 32
f 32 31 35
f 33 31 32
f 31 36 35
f 58 59 57
f 57 59 60
f 60 62 61
f 59 62 60
f 61 63 64
f 62 63 61
f 72 70 71
f 71 70 69
f 69 67 68
f 70 67 69
f 68 65 66
f 67 65 68
f 83 86 84
f 84 86 85
f 85 88 87
f 87 88 90
f 86 88 85
f 88 89 90
f 112 109 111
f 111 109 110
f 110 107 108
f 109 107 110
f 108 105 106
f 107 105 108
f 106 104 103
f 105 104 106
f 140 139 145
f 145 146 149
f 139 146 145
f 146 150 149
f 149 141 142
f 150 141 149
f 142 138 137
f 141 138 142
f 184 183 171
f 171 172 162
f 183 172 171
f 162 161 170
f 172 161 162
f 161 169 170
f 192 193 191
f 191 193 194
f 194 195 196
f 196 195 197
f 193 195 194
f 195 198 197
f 214 212 213
f 213 212 211
f 211 210 209
f 212 210 211
f 209 208 207
f 210 208 209
f 207 206 205
f 208 206 207
f 226 229 225
f 225 229 230
f 230 236 235
f 229 236 230
f 235 232 231
f 236 232 235
f 231 228 227
f 232 228 231
