v -0.055240974 0.106813843 -0.007500002
v -0.055240974 0.106813844 0.002499998
v -0.054541877 0.102207856 0.002499999
v -0.054541876 0.102207855 -0.007500002
v -0.053543411 0.111152298 -0.007500002
v -0.053543411 0.111152299 0.002499998
v -0.053004859 0.106564225 -2e-09
v -0.053004859 0.106564225 0.002499999
v -0.052480544 0.103109742 -1e-09
v -0.052480544 0.103109742 0.002499999
v -0.051731689 0.109818071 -2e-09
v -0.051731689 0.109818071 0.002499998
v -0.050299223 0.100380219 -1e-09
v -0.050299223 0.10038022 0.002499999
v -0.050271834 0.106259141 -0.007500002
v -0.050271834 0.106259141 -1e-09
v -0.049961127 0.104212037 -0.007500002
v -0.049961127 0.104212037 -1e-09
v -0.049904045 0.114060731 -0.007500003
v -0.049904045 0.114060732 0.002499998
v -0.049517364 0.108187349 -2e-09
v -0.049517363 0.108187348 -0.007500002
v -0.049002166 0.111999391 -2e-09
v -0.049002166 0.111999392 0.002499998
v -0.048668494 0.102594544 -0.007500001
v -0.048668494 0.102594545 -1e-09
v -0.047899871 0.109479981 -0.007500002
v -0.047899871 0.109479982 -2e-09
v -0.047045378 0.099107042 -1e-09
v -0.047045378 0.099107042 0.0025
v -0.046740294 0.101840073 -0.007500001
v -0.046740294 0.101840074 -1e-09
v -0.045852767 0.109790681 -0.007500002
v -0.045852767 0.109790682 -2e-09
v -0.045547676 0.112523714 -2e-09
v -0.045547676 0.112523714 0.002499998
v -0.045298057 0.114759813 -0.007500002
v -0.045298057 0.114759814 0.002499998
v -0.044693182 0.102150773 -0.007500001
v -0.044693182 0.102150774 -1e-09
v -0.04392456 0.109036211 -1e-09
v -0.043924559 0.10903621 -0.007500002
v -0.043590887 0.099631365 -0
v -0.043590887 0.099631365 0.0025
v -0.043248952 0.08804709 0.002500001
v -0.043248951 0.088047089 -0.0075
v -0.04307569 0.103443407 -1e-09
v -0.043075689 0.103443406 -0.007500001
v -0.04286057 0.085488191 0.002500001
v -0.042860569 0.08548819 -0.007499999
v -0.042631926 0.107418718 -0.007500002
v -0.042631926 0.107418719 -1e-09
v -0.042321219 0.105371614 -0.007500001
v -0.042321219 0.105371615 -1e-09
v -0.04230586 0.090457338 0.002500001
v -0.042305859 0.090457337 -0.0075
v -0.042293838 0.111250536 -2e-09
v -0.042293838 0.111250537 0.002499999
v -0.040959609 0.113062258 -0.007500002
v -0.040959609 0.113062259 0.002499998
v -0.040861372 0.101812685 -1e-09
v -0.040861372 0.101812685 0.0025
v -0.040283994 0.092073122 0.002500001
v -0.040283993 0.092073121 -0.0075
v -0.040112517 0.108521014 -1e-09
v -0.040112517 0.108521014 0.002499999
v -0.039588194 0.105066531 -1e-09
v -0.039588194 0.105066531 0.002499999
v -0.038051177 0.1094229 0.002499999
v -0.038051176 0.109422899 -0.007500002
v -0.03772511 0.092461503 -0.0075
v -0.03772511 0.092461504 0.002500001
v -0.035314862 0.091518419 -0.0075
v -0.035314862 0.09151842 0.002500001
v -0.033699063 0.089496554 0.002500001
v -0.033699062 0.089496553 -0.007499999
v -0.031737375 0.060065034 0.002500004
v -0.031737374 0.060065033 -0.007499996
v -0.030121583 0.058043167 -0.007499996
v -0.030121583 0.058043168 0.002500004
v -0.027711335 0.057100083 -0.007499996
v -0.027711335 0.057100084 0.002500005
v -0.025152451 0.057488465 -0.007499996
v -0.025152451 0.057488466 0.002500005
v -0.024109054 0.044300919 -0.007499995
v -0.024109054 0.04430092 0.002500006
v -0.023720672 0.041742036 0.002500006
v -0.023720671 0.041742035 -0.007499994
v -0.023165954 0.046711167 -0.007499995
v -0.023165954 0.046711168 0.002500006
v -0.023130586 0.05910425 0.002500004
v -0.023130585 0.059104249 -0.007499996
v -0.022575883 0.064073396 -0.007499996
v -0.022575883 0.064073397 0.002500004
v -0.022187486 0.061514513 0.002500004
v -0.022187485 0.061514512 -0.007499996
v -0.021144088 0.048326966 -0.007499995
v -0.021144088 0.048326967 0.002500006
v -0.018585205 0.048715349 0.002500006
v -0.018585204 0.048715348 -0.007499995
v -0.016174957 0.047772249 0.002500006
v -0.016174956 0.047772248 -0.007499995
v -0.014559173 0.045750384 0.002500006
v -0.014559172 0.045750383 -0.007499994
v -0.012597484 0.016318863 -0.007499991
v -0.012597484 0.016318864 0.002500009
v -0.010981685 0.014296997 -0.007499991
v -0.010981685 0.014296998 0.002500009
v -0.008571437 0.013353913 -0.007499991
v -0.008571437 0.013353914 0.00250001
v -0.00824537 -0.003607476 -0.007499989
v -0.00824537 -0.003607475 0.002500011
v -0.006708353 0.000748902 1.1e-08
v -0.006708353 0.000748902 0.002500011
v -0.00618403 -0.002705596 1.1e-08
v -0.00618403 -0.002705596 0.002500011
v -0.006012554 0.013742296 0.00250001
v -0.006012553 0.013742295 -0.007499991
v -0.005435175 0.00400274 1.1e-08
v -0.005435175 0.00400274 0.002500011
v -0.005336938 -0.007246834 -0.007499989
v -0.005336938 -0.007246833 0.002500012
v -0.00400271 -0.005435111 0.002500012
v -0.004002709 -0.005435111 1.2e-08
v -0.003990688 0.015358095 0.00250001
v -0.003990687 0.015358094 -0.007499991
v -0.003975321 0.00044381 1.1e-08
v -0.00397532 0.00044381 -0.007499989
v -0.003664621 -0.001603294 -0.007499989
v -0.003664621 -0.001603294 1.1e-08
v -0.00343597 0.020327226 -0.007499991
v -0.00343597 0.020327227 0.002500009
v -0.00322085 0.00237201 -0.00749999
v -0.00322085 0.00237201 1.1e-08
v -0.003047588 0.017768342 -0.007499991
v -0.003047588 0.017768343 0.002500009
v -0.002705653 0.006184061 0.002500011
v -0.002705652 0.00618406 1e-08
v -0.002371988 -0.003220786 1.1e-08
v -0.002371987 -0.003220787 -0.007499989
v -0.001603357 0.003664643 -0.00749999
v -0.001603357 0.003664644 1.1e-08
v -0.000998482 -0.008944397 -0.007499988
v -0.000998482 -0.008944396 0.002500012
v -0.000748864 -0.006708289 1.2e-08
v -0.000748864 -0.006708289 0.002500012
v -0.00044378 -0.003975265 -0.007499989
v -0.00044378 -0.003975265 1.2e-08
v 0.000443747 0.003975358 -0.00749999
v 0.000443747 0.003975358 1.1e-08
v 0.000748831 0.006708376 1.1e-08
v 0.000748831 0.006708376 0.002500011
v 0.001603324 -0.003664558 -0.007499989
v 0.001603324 -0.003664557 1.2e-08
v 0.002371954 0.00322088 1.1e-08
v 0.002371955 0.003220879 -0.007499989
v 0.002705619 -0.006183966 1.2e-08
v 0.002705619 -0.006183966 0.002500012
v 0.003220817 -0.002371917 -0.007499989
v 0.003220817 -0.002371916 1.2e-08
v 0.003607505 -0.008245306 0.002500012
v 0.003607506 -0.008245307 -0.007499988
v 0.003664588 0.001603387 -0.007499989
v 0.003664588 0.001603388 1.1e-08
v 0.003975287 -0.000443716 1.1e-08
v 0.003975288 -0.000443717 -0.007499989
v 0.004002676 0.005435205 1.1e-08
v 0.004002676 0.005435206 0.002500011
v 0.005435142 -0.004002646 1.2e-08
v 0.005435142 -0.004002646 0.002500012
v 0.006183997 0.00270569 1.1e-08
v 0.006183997 0.002705691 0.002500011
v 0.00670832 -0.000748808 1.1e-08
v 0.00670832 -0.000748808 0.002500012
v 0.007246864 -0.005336875 -0.007499988
v 0.007246864 -0.005336874 0.002500012
v 0.008245337 0.003607568 -0.007499989
v 0.008245337 0.003607569 0.002500011
v 0.008944434 -0.000998426 0.002500012
v 0.008944435 -0.000998427 -0.007499989
f 24 12 23
f 23 12 11
f 11 8 7
f 12 8 11
f 7 10 9
f 8 10 7
f 9 14 13
f 13 14 29
f 10 14 9
f 14 30 29
f 29 44 43
f 30 44 29
f 137 120 138
f 138 120 119
f 119 114 113
f 120 114 119
f 113 116 115
f 114 116 113
f 115 123 124
f 124 123 145
f 116 123 115
f 123 146 145
f 145 158 157
f 146 158 145
f 97 100 98
f 98 100 99
f 99 102 101
f 100 102 99
f 101 104 103
f 102 104 101
f 64 71 63
f 63 71 72
f 72 73 74
f 71 73 72
f 74 76 75
f 73 76 74
f 112 111 121
f 122 112 121
f 144 121 143
f 144 122 121
f 161 143 162
f 161 144 143
f 28 21 27
f 27 21 22
f 22 16 15
f 21 16 22
f 15 18 17
f 16 18 15
f 25 26 31
f 17 26 25
f 18 26 17
f 26 32 31
f 31 40 39
f 32 40 31
f 142 134 141
f 141 134 133
f 133 127 128
f 134 127 133
f 128 130 129
f 127 130 128
f 140 139 147
f 129 139 140
f 130 139 129
f 139 148 147
f 147 154 153
f 148 154 147
f 154 160 153
f 153 160 159
f 159 165 166
f 160 165 159
f 166 164 163
f 165 164 166
f 163 155 156
f 164 155 163
f 156 150 149
f 155 150 156
f 149 142 141
f 150 142 149
f 40 47 39
f 39 47 48
f 48 54 53
f 47 54 48
f 53 52 51
f 54 52 53
f 51 41 42
f 52 41 51
f 42 34 33
f 41 34 42
f 33 28 27
f 34 28 33
f 112 4 111
f 3 4 112
f 60 69 70
f 60 59 37
f 60 70 59
f 38 60 37
f 20 37 19
f 20 38 37
f 6 5 1
f 6 19 5
f 6 20 19
f 2 6 1
f 3 1 4
f 3 2 1
f 70 69 178
f 70 178 177
f 161 162 175
f 176 161 175
f 179 175 180
f 179 176 175
f 178 180 177
f 178 179 180
f 147 143 121
f 140 147 121
f 153 162 143
f 153 143 147
f 129 121 111
f 129 140 121
f 128 129 111
f 159 175 162
f 159 162 153
f 133 128 111
f 180 159 166
f 180 175 159
f 177 156 149
f 177 163 156
f 177 166 163
f 177 180 166
f 109 111 107
f 109 133 111
f 105 107 111
f 118 133 109
f 118 141 133
f 118 149 141
f 126 149 118
f 126 177 149
f 135 177 126
f 131 177 135
f 88 105 111
f 81 89 85
f 81 97 89
f 79 81 85
f 78 79 85
f 78 85 88
f 83 97 81
f 92 100 97
f 92 97 83
f 96 102 100
f 96 100 92
f 93 104 102
f 93 102 96
f 4 88 111
f 4 46 50
f 4 56 46
f 4 50 78
f 4 78 88
f 31 64 56
f 31 56 4
f 31 4 25
f 17 25 4
f 39 64 31
f 15 4 1
f 15 17 4
f 48 71 64
f 48 64 39
f 22 15 1
f 5 22 1
f 19 27 22
f 19 22 5
f 70 73 71
f 70 76 73
f 70 53 51
f 70 48 53
f 70 71 48
f 59 51 42
f 59 70 51
f 37 33 27
f 37 42 33
f 37 27 19
f 37 59 42
f 70 177 104
f 104 177 131
f 70 104 93
f 70 93 76
f 144 146 122
f 122 146 123
f 123 112 122
f 161 158 144
f 144 158 146
f 123 116 112
f 176 170 161
f 161 170 158
f 116 114 112
f 170 179 174
f 176 179 170
f 174 178 172
f 179 178 174
f 178 168 172
f 120 108 114
f 114 108 112
f 137 110 120
f 120 110 108
f 108 106 112
f 137 117 110
f 152 125 137
f 137 125 117
f 178 136 168
f 168 136 152
f 152 136 125
f 178 132 136
f 106 87 112
f 90 82 86
f 98 82 90
f 82 80 86
f 86 80 87
f 87 77 112
f 80 77 87
f 98 84 82
f 98 91 84
f 99 91 98
f 101 91 99
f 101 95 91
f 101 94 95
f 103 94 101
f 55 30 45
f 30 14 45
f 77 3 112
f 45 3 49
f 49 3 77
f 14 3 45
f 72 44 63
f 63 44 55
f 55 44 30
f 14 10 3
f 72 62 44
f 74 62 72
f 3 8 2
f 10 8 3
f 74 68 62
f 12 6 8
f 8 6 2
f 12 24 6
f 68 69 66
f 75 69 74
f 74 69 68
f 24 20 6
f 69 58 66
f 58 60 36
f 69 60 58
f 36 38 24
f 24 38 20
f 60 38 36
f 178 69 132
f 132 69 103
f 103 69 94
f 94 69 75
f 50 46 49
f 49 46 45
f 45 56 55
f 46 56 45
f 55 64 63
f 56 64 55
f 78 50 77
f 77 50 49
f 94 93 95
f 93 96 95
f 95 92 91
f 96 92 95
f 91 83 84
f 92 83 91
f 84 81 82
f 82 81 80
f 83 81 84
f 81 79 80
f 80 78 77
f 79 78 80
f 75 76 94
f 94 76 93
f 131 135 132
f 132 135 136
f 136 126 125
f 135 126 136
f 125 118 117
f 126 118 125
f 117 109 110
f 118 109 117
f 110 107 108
f 109 107 110
f 108 105 106
f 107 105 108
f 103 104 132
f 132 104 131
f 87 88 86
f 88 85 86
f 86 89 90
f 85 89 86
f 90 97 98
f 89 97 90
f 105 88 106
f 106 88 87
f 158 170 157
f 157 170 169
f 169 174 173
f 170 174 169
f 173 172 171
f 174 172 173
f 171 168 167
f 167 168 151
f 172 168 171
f 168 152 151
f 151 137 138
f 152 137 151
f 134 119 113
f 134 113 127
f 130 113 115
f 130 127 113
f 142 138 119
f 142 119 134
f 139 115 124
f 139 130 115
f 150 151 138
f 150 138 142
f 145 148 139
f 145 139 124
f 167 150 155
f 167 151 150
f 157 160 154
f 157 154 148
f 157 148 145
f 171 155 164
f 171 167 155
f 173 164 165
f 173 171 164
f 169 165 160
f 169 160 157
f 169 173 165
f 44 62 43
f 43 62 61
f 61 68 67
f 62 68 61
f 67 66 65
f 68 66 67
f 65 58 57
f 57 58 35
f 66 58 65
f 58 36 35
f 35 24 23
f 36 24 35
f 16 11 7
f 21 23 11
f 21 11 16
f 18 7 9
f 18 16 7
f 28 23 21
f 26 9 13
f 26 18 9
f 34 35 23
f 34 23 28
f 41 35 34
f 29 32 26
f 29 26 13
f 57 35 41
f 40 32 29
f 43 40 29
f 65 41 52
f 65 57 41
f 61 47 40
f 61 40 43
f 67 54 47
f 67 52 54
f 67 65 52
f 67 47 61
